<svg width="64" height="64" viewBox="0 0 64 64" fill="none" xmlns="http://www.w3.org/2000/svg">
    <g clip-path="url(#clip0_2435_5939)">
        <path d="M31.988 63.976C49.6545 63.976 63.976 49.6545 63.976 31.988C63.976 14.3215 49.6545 0 31.988 0C14.3215 0 0 14.3215 0 31.988C0 49.6545 14.3215 63.976 31.988 63.976Z" fill="#D9FFD5"/>
        <path d="M28.9827 28.4345C28.9827 27.5681 29.3268 26.7373 29.9394 26.1247C30.552 25.5121 31.3828 25.168 32.2492 25.168C33.1155 25.168 33.9463 25.5121 34.5589 26.1247C35.1715 26.7373 35.5157 27.5681 35.5157 28.4345C35.5157 29.3008 35.1715 30.1316 34.5589 30.7442C33.9463 31.3568 33.1155 31.701 32.2492 31.701C31.3828 31.701 30.552 31.3568 29.9394 30.7442C29.3268 30.1316 28.9827 29.3008 28.9827 28.4345Z" fill="#10B100"/>
        <path fill-rule="evenodd" clip-rule="evenodd" d="M32.0138 19C29.7717 19.0001 27.6116 19.8434 25.9624 21.3624C24.3132 22.8814 23.2956 24.9651 23.1115 27.1996C22.9069 29.6903 23.6761 32.1633 25.2573 34.0985L30.4764 40.4805C30.6913 40.743 30.9618 40.9545 31.2683 41.0997C31.5749 41.2449 31.9098 41.3202 32.249 41.3202C32.5882 41.3202 32.9232 41.2449 33.2298 41.0997C33.5363 40.9545 33.8068 40.743 34.0217 40.4805L39.2408 34.0985C40.8233 32.164 41.5927 29.6905 41.3865 27.1996C41.2025 24.9651 40.1849 22.8814 38.5357 21.3624C36.8865 19.8434 34.7264 19.0001 32.4842 19H32.0138ZM32.249 22.9924C30.8052 22.9924 29.4204 23.566 28.3994 24.587C27.3784 25.6079 26.8049 26.9927 26.8049 28.4366C26.8049 29.8804 27.3784 31.2652 28.3994 32.2862C29.4204 33.3072 30.8052 33.8807 32.249 33.8807C33.6929 33.8807 35.0777 33.3072 36.0986 32.2862C37.1196 31.2652 37.6932 29.8804 37.6932 28.4366C37.6932 26.9927 37.1196 25.6079 36.0986 24.587C35.0777 23.566 33.6929 22.9924 32.249 22.9924Z" fill="#10B100"/>
        <path d="M25.4751 37.6276C25.733 37.7566 25.9293 37.9827 26.0207 38.2562C26.1122 38.5298 26.0914 38.8284 25.9629 39.0867L23.8476 43.3186H40.6491L38.5324 39.0867C38.4672 38.9586 38.428 38.8189 38.417 38.6756C38.4061 38.5323 38.4236 38.3883 38.4686 38.2518C38.5136 38.1153 38.5852 37.9891 38.6792 37.8804C38.7732 37.7718 38.8878 37.6828 39.0164 37.6186C39.1449 37.5544 39.2849 37.5163 39.4283 37.5065C39.5717 37.4966 39.7155 37.5153 39.8517 37.5613C39.9878 37.6074 40.1134 37.6799 40.2214 37.7748C40.3293 37.8696 40.4175 37.9849 40.4806 38.114L43.3842 43.9211C43.4671 44.0871 43.5062 44.2715 43.4977 44.4569C43.4893 44.6422 43.4337 44.8223 43.3361 44.9801C43.2385 45.1379 43.1022 45.2682 42.9401 45.3585C42.7781 45.4488 42.5956 45.4963 42.4101 45.4963H22.0851C21.8997 45.496 21.7175 45.4484 21.5556 45.358C21.3937 45.2675 21.2576 45.1373 21.1602 44.9795C21.0628 44.8218 21.0073 44.6417 20.9989 44.4565C20.9906 44.2713 21.0296 44.087 21.1125 43.9211L24.016 38.114C24.145 37.856 24.3711 37.6597 24.6446 37.5683C24.9182 37.4768 25.2168 37.4991 25.4751 37.6276Z" fill="#10B100"/>
    </g>
    <defs>
        <clipPath id="clip0_2435_5939">
            <rect width="64" height="64" fill="white"/>
        </clipPath>
    </defs>
</svg>
