<svg width="16" height="17" viewBox="0 0 16 17" fill="none" xmlns="http://www.w3.org/2000/svg">
    <path d="M12 9.58822H8.66667V12.9215C8.66667 13.0984 8.59643 13.2679 8.47141 13.393C8.34638 13.518 8.17681 13.5882 8 13.5882C7.82319 13.5882 7.65362 13.518 7.5286 13.393C7.40357 13.2679 7.33334 13.0984 7.33334 12.9215V9.58822H4C3.82319 9.58822 3.65362 9.51798 3.5286 9.39295C3.40357 9.26793 3.33334 9.09836 3.33334 8.92155C3.33334 8.74474 3.40357 8.57517 3.5286 8.45015C3.65362 8.32512 3.82319 8.25488 4 8.25488H7.33334V4.92155C7.33334 4.74474 7.40357 4.57517 7.5286 4.45014C7.65362 4.32512 7.82319 4.25488 8 4.25488C8.17681 4.25488 8.34638 4.32512 8.47141 4.45014C8.59643 4.57517 8.66667 4.74474 8.66667 4.92155V8.25488H12C12.1768 8.25488 12.3464 8.32512 12.4714 8.45015C12.5964 8.57517 12.6667 8.74474 12.6667 8.92155C12.6667 9.09836 12.5964 9.26793 12.4714 9.39295C12.3464 9.51798 12.1768 9.58822 12 9.58822Z" fill="black" fill-opacity="0.5"/>
</svg>
