<svg width="24" height="20" viewBox="0 0 24 20" fill="none" xmlns="http://www.w3.org/2000/svg">
    <path d="M22.1924 11.25C22.8827 11.25 23.4424 10.6904 23.4424 10C23.4424 9.30964 22.8827 8.75 22.1924 8.75V11.25ZM1.3085 9.11612C0.820344 9.60427 0.820344 10.3957 1.3085 10.8839L9.26345 18.8388C9.75161 19.327 10.5431 19.327 11.0312 18.8388C11.5194 18.3507 11.5194 17.5592 11.0312 17.0711L3.96015 10L11.0312 2.92893C11.5194 2.44078 11.5194 1.64932 11.0312 1.16117C10.5431 0.67301 9.75161 0.67301 9.26345 1.16117L1.3085 9.11612ZM22.1924 8.75H2.19238V11.25H22.1924V8.75Z" fill="white"/>
</svg>
