<svg width="55" height="55" viewBox="0 0 55 55" fill="none" xmlns="http://www.w3.org/2000/svg">
    <g clip-path="url(#clip0_1262_7038)">
        <path d="M17.6241 42.3848H36.8759V50.4567H17.6241V42.3848Z" fill="#26457D"/>
        <path d="M46.2809 44.6438H8.21911C3.8179 44.6438 0.25 41.0759 0.25 36.6746V9.78747C0.25 5.38626 3.8179 1.81836 8.21911 1.81836H46.2808C50.682 1.81836 54.2499 5.38626 54.2499 9.78747V36.6746C54.25 41.0759 50.6821 44.6438 46.2809 44.6438Z" fill="#335995"/>
        <path d="M49.8192 23.2319V36.6753C49.8192 38.6267 48.2317 40.2141 46.2804 40.2141H43.4223L37.576 38.4232L33.8575 40.2141H27.25L22.2223 17.1484L49.8192 23.2319Z" fill="#B3E59F"/>
        <path d="M49.8192 9.78879V23.2323H43.4223L39.3418 21.8526L33.8575 23.2323H27.25L23.3785 13.8248L27.25 6.25H46.2804C48.2317 6.25 49.8192 7.83741 49.8192 9.78879Z" fill="#FFE07D"/>
        <path d="M27.25 23.2311V40.2135H20.7479L15.9646 38.7251L11.1831 40.2135H8.21964C6.26826 40.2135 4.68085 38.6261 4.68085 36.6747V23.2311L16.7237 20.0449L27.25 23.2311Z" fill="#698ED5"/>
        <path d="M27.25 6.25V23.2323H20.7479L15.4297 21.7014L11.1831 23.2323H4.68095V9.78879C4.68095 7.83741 6.26836 6.25 8.21975 6.25H27.25Z" fill="#DD5790"/>
        <path d="M10.8266 44.6448H8.21943C3.8178 44.6448 0.25 41.0757 0.25 36.6755V9.78768C0.25 5.38616 3.8178 1.81836 8.21932 1.81836H10.8265C6.42498 1.81836 2.85719 5.38616 2.85719 9.78768V36.6755C2.85719 41.0757 6.42498 44.6448 10.8266 44.6448Z" fill="#26457D"/>
        <path d="M39.3821 54.1445H15.1179C13.3532 54.1445 11.9227 52.7139 11.9227 50.9492C11.9227 49.1845 13.3532 47.7539 15.1179 47.7539H39.3821C41.1468 47.7539 42.5774 49.1845 42.5774 50.9492C42.5774 52.7139 41.1468 54.1445 39.3821 54.1445Z" fill="#335995"/>
        <path d="M22.9918 54.1457H15.1172C13.3524 54.1457 11.9228 52.7146 11.9228 50.9498C11.9228 50.0666 12.2802 49.2692 12.8576 48.6903C13.4365 48.1113 14.2356 47.7539 15.1172 47.7539H22.9918C22.1101 47.7539 21.3097 48.1113 20.7322 48.6903C20.1533 49.2692 19.7959 50.0667 19.7959 50.9498C19.7959 52.7147 21.2269 54.1457 22.9918 54.1457Z" fill="#26457D"/>
        <path d="M38.6399 18.4489C40.8748 18.4489 42.6866 16.6371 42.6866 14.4022C42.6866 12.1673 40.8748 10.3555 38.6399 10.3555C36.4049 10.3555 34.5932 12.1673 34.5932 14.4022C34.5932 16.6371 36.4049 18.4489 38.6399 18.4489Z" fill="#FFECE4"/>
        <path d="M39.9943 18.2165C39.5705 18.3675 39.1142 18.4489 38.6395 18.4489C36.4045 18.4489 34.5933 16.6377 34.5933 14.4027C34.5933 12.1677 36.4045 10.3555 38.6395 10.3555C39.1143 10.3555 39.5706 10.437 39.9943 10.588C38.4254 11.1454 37.303 12.6426 37.303 14.4028C37.303 16.1629 38.4254 17.6592 39.9943 18.2165Z" fill="#FFDDCE"/>
        <path d="M33.8575 23.2316C33.8575 20.5903 35.9986 18.4492 38.6399 18.4492C41.2811 18.4492 43.4223 20.5903 43.4223 23.2316H33.8575Z" fill="#698ED5"/>
        <path d="M40.3256 18.7546C38.5165 19.4369 37.229 21.184 37.229 23.2321H33.8575C33.8575 20.5908 35.998 18.4492 38.6393 18.4492C39.2325 18.4492 39.8008 18.5579 40.3256 18.7546Z" fill="#4073C8"/>
        <path d="M15.9654 35.4314C18.2003 35.4314 20.0121 33.6196 20.0121 31.3846C20.0121 29.1497 18.2003 27.3379 15.9654 27.3379C13.7304 27.3379 11.9186 29.1497 11.9186 31.3846C11.9186 33.6196 13.7304 35.4314 15.9654 35.4314Z" fill="#FFECE4"/>
        <path d="M17.3198 35.1989C16.896 35.3499 16.4397 35.4314 15.965 35.4314C13.73 35.4314 11.9187 33.6201 11.9187 31.3851C11.9187 29.1502 13.73 27.3379 15.965 27.3379C16.4398 27.3379 16.8961 27.4194 17.3198 27.5704C15.7508 28.1279 14.6284 29.625 14.6284 31.3853C14.6284 33.1454 15.7508 34.6416 17.3198 35.1989Z" fill="#FFDDCE"/>
        <path d="M11.183 40.214C11.183 37.5728 13.3241 35.4316 15.9654 35.4316C18.6066 35.4316 20.7477 37.5728 20.7477 40.214H11.183Z" fill="#F9F6F6"/>
        <path d="M17.6511 35.737C15.842 36.4194 14.5545 38.1664 14.5545 40.2145H11.183C11.183 37.5732 13.3235 35.4316 15.9647 35.4316C16.558 35.4316 17.1263 35.5403 17.6511 35.737Z" fill="#ECDAEC"/>
        <path d="M38.6399 35.4314C40.8748 35.4314 42.6866 33.6196 42.6866 31.3846C42.6866 29.1497 40.8748 27.3379 38.6399 27.3379C36.4049 27.3379 34.5932 29.1497 34.5932 31.3846C34.5932 33.6196 36.4049 35.4314 38.6399 35.4314Z" fill="#FFECE4"/>
        <path d="M39.9943 35.1989C39.5705 35.3499 39.1142 35.4314 38.6395 35.4314C36.4045 35.4314 34.5933 33.6201 34.5933 31.3851C34.5933 29.1502 36.4045 27.3379 38.6395 27.3379C39.1143 27.3379 39.5706 27.4194 39.9943 27.5704C38.4254 28.1279 37.303 29.625 37.303 31.3853C37.303 33.1454 38.4254 34.6416 39.9943 35.1989Z" fill="#FFDDCE"/>
        <path d="M33.8575 40.214C33.8575 37.5728 35.9986 35.4316 38.6399 35.4316C41.2811 35.4316 43.4223 37.5728 43.4223 40.214H33.8575Z" fill="#DD5790"/>
        <path d="M40.3256 35.737C38.5165 36.4194 37.229 38.1664 37.229 40.2145H33.8575C33.8575 37.5732 35.998 35.4316 38.6393 35.4316C39.2325 35.4316 39.8008 35.5403 40.3256 35.737Z" fill="#DA387D"/>
        <path d="M15.9654 18.4489C18.2003 18.4489 20.0121 16.6371 20.0121 14.4022C20.0121 12.1673 18.2003 10.3555 15.9654 10.3555C13.7304 10.3555 11.9186 12.1673 11.9186 14.4022C11.9186 16.6371 13.7304 18.4489 15.9654 18.4489Z" fill="#FFECE4"/>
        <path d="M17.3198 18.2165C16.896 18.3675 16.4397 18.4489 15.965 18.4489C13.73 18.4489 11.9187 16.6377 11.9187 14.4027C11.9187 12.1677 13.73 10.3555 15.965 10.3555C16.4398 10.3555 16.8961 10.437 17.3198 10.588C15.7508 11.1454 14.6284 12.6426 14.6284 14.4028C14.6284 16.1629 15.7508 17.6592 17.3198 18.2165Z" fill="#FFDDCE"/>
        <path d="M11.183 23.2316C11.183 20.5903 13.3241 18.4492 15.9654 18.4492C18.6066 18.4492 20.7477 20.5903 20.7477 23.2316H11.183Z" fill="#335995"/>
        <path d="M17.6511 18.7546C15.842 19.4369 14.5545 21.184 14.5545 23.2321H11.183C11.183 20.5908 13.3235 18.4492 15.9647 18.4492C16.558 18.4492 17.1263 18.5579 17.6511 18.7546Z" fill="#26457D"/>
    </g>
    <defs>
        <clipPath id="clip0_1262_7038">
            <rect width="54" height="54" fill="white" transform="translate(0.25 0.982422)"/>
        </clipPath>
    </defs>
</svg>
