<svg width="55" height="55" viewBox="0 0 55 55" fill="none" xmlns="http://www.w3.org/2000/svg">
    <g clip-path="url(#clip0_1262_7074)">
        <path d="M48.5747 9.17881C48.5747 7.21066 46.979 5.61523 45.0109 5.61523H42.6912C41.2561 5.61523 12.8896 5.61523 11.9416 5.61523C11.073 5.61523 5.45439 5.61523 4.32736 5.61523C2.35941 5.61523 0.763672 7.21077 0.763672 9.17881V49.8621C0.763672 50.8807 1.19177 51.7987 1.877 52.4482H45.0109V53.4258H51.2531C52.7869 53.4258 54.0943 52.4568 54.5967 51.0975C55.0131 49.9969 55.1603 52.1011 48.5747 9.17881Z" fill="white"/>
        <path d="M50.7508 49.8622V23.3621L48.5747 9.17881C48.5747 7.21066 46.979 5.61523 45.0109 5.61523C43.8441 5.61523 15.7427 5.61523 14.1178 5.61523H11.9417H11.0712C9.05552 5.61523 9.73358 5.61523 6.5037 5.61523C4.53576 5.61523 2.94002 7.21066 2.94002 9.17881V49.8621C2.94002 50.8807 3.36812 51.7987 4.05335 52.4482H45.0111V53.4258H47.1872C49.1552 53.4259 50.7508 51.8305 50.7508 49.8622Z" fill="#F77C79"/>
        <path d="M45.0109 5.61523C43.7638 5.61523 13.9953 5.61523 11.9416 5.61523C10.712 5.61523 5.15866 5.61523 4.32736 5.61523C2.35941 5.61523 0.763672 7.21077 0.763672 9.17881V49.8621C0.763672 51.8304 2.35941 53.4258 4.32736 53.4258H45.0108C46.9789 53.4258 48.5746 51.8304 48.5746 49.8621V9.17881C48.5747 7.21077 46.9789 5.61523 45.0109 5.61523Z" fill="#E6E6E6"/>
        <path d="M2.93981 49.8622V9.17881C2.93981 7.21066 4.53555 5.61523 6.50349 5.61523C5.27689 5.61523 5.55786 5.61523 4.32736 5.61523C2.35941 5.61523 0.763672 7.21077 0.763672 9.17881V49.8621C0.763672 51.8304 2.35941 53.4258 4.32736 53.4258H6.50349C4.53566 53.4259 2.93981 51.8305 2.93981 49.8622Z" fill="#CCCBCA"/>
        <path d="M45.0109 5.61523C43.5951 5.61523 14.3046 5.61523 11.9416 5.61523C3.50438 5.61523 12.2253 5.61523 4.32736 5.61523C2.35941 5.61523 0.763672 7.21077 0.763672 9.17881V18.3331H48.5747V9.17881C48.5747 7.21077 46.9789 5.61523 45.0109 5.61523Z" fill="#EA473B"/>
        <path d="M2.93981 9.17881C2.93981 7.21066 4.53555 5.61523 6.50349 5.61523C5.27689 5.61523 5.55786 5.61523 4.32736 5.61523C2.35941 5.61523 0.763672 7.21077 0.763672 9.17881V18.3331H2.93981V9.17881Z" fill="#D63322"/>
        <path d="M38.9262 8.80078V9.54265C38.9262 10.2638 38.3416 10.3043 37.6205 10.3043H37.1852C36.4641 10.3043 35.8795 10.2638 35.8795 9.54265V8.80089C35.1891 9.28267 34.7369 10.0823 34.7369 10.9881C34.7369 12.4604 35.9305 13.6539 37.4028 13.6539C40.0139 13.6538 41.051 10.2837 38.9262 8.80078Z" fill="#414356"/>
        <path d="M25.4338 8.80078V9.54265C25.4338 10.2638 24.8493 10.1955 24.1281 10.1955H23.6929C22.9718 10.1955 22.3872 10.2638 22.3872 9.54265V8.80089C21.6968 9.28267 21.2446 10.0823 21.2446 10.9881C21.2446 12.4604 22.4382 13.6539 23.9105 13.6539C25.3828 13.6539 26.5763 12.4604 26.5763 10.9881C26.5763 10.0823 26.1241 9.28256 25.4338 8.80078Z" fill="#414356"/>
        <path d="M11.9416 8.80078V9.54265C11.9416 10.3834 11.1502 10.3043 10.2006 10.3043C9.4795 10.3043 8.89489 10.2638 8.89489 9.54265V8.80089C6.7679 10.2853 7.81046 13.6539 10.4182 13.6539C11.8905 13.6539 13.084 12.4604 13.084 10.9881C13.084 10.0823 12.6319 9.28256 11.9416 8.80078Z" fill="#414356"/>
        <path d="M37.022 10.9899C37.022 10.9394 37.0239 10.8894 37.0267 10.8397C36.3805 10.7613 35.8795 10.2119 35.8795 9.5445V8.80273C35.1891 9.28452 34.7369 10.0842 34.7369 10.9899C34.7369 12.4623 35.9305 13.6558 37.4028 13.6558C37.8117 13.6558 38.199 13.5635 38.5453 13.3989C37.6447 12.971 37.022 12.0533 37.022 10.9899Z" fill="#2F3242"/>
        <path d="M23.5297 10.9899C23.5297 10.9394 23.5316 10.8894 23.5344 10.8397C22.8882 10.7613 22.3872 10.2119 22.3872 9.5445V8.80273C21.6968 9.28452 21.2447 10.0842 21.2447 10.9899C21.2447 12.4623 22.4382 13.6558 23.9105 13.6558C24.3194 13.6558 24.7067 13.5635 25.053 13.3989C24.1524 12.971 23.5297 12.0533 23.5297 10.9899Z" fill="#2F3242"/>
        <path d="M10.0421 10.8397C9.39587 10.7613 8.89489 10.2119 8.89489 9.5445V8.80273C8.20449 9.28452 7.75235 10.0842 7.75235 10.9899C7.75235 12.9534 9.80308 14.2341 11.5606 13.3989C10.6057 12.945 9.98027 11.9531 10.0421 10.8397Z" fill="#2F3242"/>
        <path d="M48.5748 18.334H0.763672V21.3807H48.5748V18.334Z" fill="#F77C79"/>
        <path d="M2.93981 18.334H0.763672V21.3807H2.93981V18.334Z" fill="#DD6464"/>
        <path d="M10.6359 0.984375C11.3571 0.984375 11.9416 1.56899 11.9416 2.29008V9.54401C11.9416 10.2652 11.3571 10.8497 10.6359 10.8497H10.2006C9.47951 10.8497 8.8949 10.2652 8.8949 9.54401V2.29008C8.8949 1.56899 9.47951 0.984375 10.2006 0.984375H10.6359Z" fill="#585A60"/>
        <path d="M24.1282 0.984375C24.8494 0.984375 25.4339 1.56899 25.4339 2.29008V9.54401C25.4339 10.2652 24.8494 10.8497 24.1282 10.8497H23.6929C22.9718 10.8497 22.3872 10.2652 22.3872 9.54401V2.29008C22.3872 1.56899 22.9718 0.984375 23.6929 0.984375H24.1282Z" fill="#585A60"/>
        <path d="M37.6205 0.984375C38.3417 0.984375 38.9262 1.56899 38.9262 2.29008V9.54401C38.9262 10.2652 38.3417 10.8497 37.6205 10.8497H37.1852C36.4641 10.8497 35.8795 10.2652 35.8795 9.54401V2.29008C35.8795 1.56899 36.4641 0.984375 37.1852 0.984375H37.6205Z" fill="#585A60"/>
        <path d="M10.6359 0.984375C11.3571 0.984375 11.9416 1.56899 11.9416 2.29008V9.54401C11.9416 10.2652 11.3571 10.8497 10.6359 10.8497H10.2006C9.47951 10.8497 8.8949 10.2652 8.8949 9.54401V2.29008C8.8949 1.56899 9.47951 0.984375 10.2006 0.984375H10.6359Z" fill="#585A60"/>
        <path d="M24.1282 0.984375C24.8494 0.984375 25.4339 1.56899 25.4339 2.29008V9.54401C25.4339 10.2652 24.8494 10.8497 24.1282 10.8497H23.6929C22.9718 10.8497 22.3872 10.2652 22.3872 9.54401V2.29008C22.3872 1.56899 22.9718 0.984375 23.6929 0.984375H24.1282Z" fill="#585A60"/>
        <path d="M37.6205 0.984375C38.3417 0.984375 38.9262 1.56899 38.9262 2.29008V9.54401C38.9262 10.2652 38.3417 10.8497 37.6205 10.8497H37.1852C36.4641 10.8497 35.8795 10.2652 35.8795 9.54401V2.29008C35.8795 1.56899 36.4641 0.984375 37.1852 0.984375H37.6205Z" fill="#585A60"/>
        <path d="M10.4182 9.54401V2.29008C10.4182 1.76337 10.7308 1.3107 11.1799 1.10419C11.0141 1.02804 10.8302 0.984375 10.6359 0.984375H10.2006C9.47951 0.984375 8.8949 1.56899 8.8949 2.29008V9.54401C8.8949 10.2652 9.47951 10.8497 10.2006 10.8497H10.6359C10.8304 10.8497 11.0142 10.806 11.1799 10.7299C10.7308 10.5235 10.4182 10.0707 10.4182 9.54401Z" fill="#414356"/>
        <path d="M23.9105 9.54401V2.29008C23.9105 1.76337 24.2231 1.3107 24.6722 1.10419C24.5064 1.02804 24.3226 0.984375 24.1282 0.984375H23.6929C22.9718 0.984375 22.3872 1.56899 22.3872 2.29008V9.54401C22.3872 10.2652 22.9718 10.8497 23.6929 10.8497H24.1282C24.3227 10.8497 24.5065 10.806 24.6722 10.7299C24.2231 10.5235 23.9105 10.0707 23.9105 9.54401Z" fill="#414356"/>
        <path d="M37.4028 9.54401V2.29008C37.4028 1.76337 37.7154 1.3107 38.1645 1.10419C37.9987 1.02804 37.8148 0.984375 37.6205 0.984375H37.1852C36.4641 0.984375 35.8795 1.56899 35.8795 2.29008V9.54401C35.8795 10.2652 36.4641 10.8497 37.1852 10.8497H37.6205C37.8149 10.8497 37.9988 10.806 38.1645 10.7299C37.7154 10.5235 37.4028 10.0707 37.4028 9.54401Z" fill="#414356"/>
        <path d="M18.5463 26.3809H15.8596C15.4089 26.3809 15.0435 26.7462 15.0435 27.197C15.0435 27.6476 15.4089 28.0131 15.8596 28.0131H18.5463C18.9971 28.0131 19.3624 27.6478 19.3624 27.197C19.3624 26.7463 18.9971 26.3809 18.5463 26.3809Z" fill="#585A60"/>
        <path d="M26.0157 26.3809H23.3287C22.878 26.3809 22.5126 26.7462 22.5126 27.197C22.5126 27.6476 22.878 28.0131 23.3287 28.0131H26.0157C26.4665 28.0131 26.8318 27.6478 26.8318 27.197C26.8317 26.7463 26.4665 26.3809 26.0157 26.3809Z" fill="#585A60"/>
        <path d="M33.485 26.3809H30.7979C30.3472 26.3809 29.9818 26.7462 29.9818 27.197C29.9818 27.6476 30.3472 28.0131 30.7979 28.0131H33.485C33.9357 28.0131 34.3011 27.6478 34.3011 27.197C34.3011 26.7463 33.9357 26.3809 33.485 26.3809Z" fill="#585A60"/>
        <path d="M40.9541 26.3809H38.2671C37.8164 26.3809 37.451 26.7462 37.451 27.197C37.451 27.6476 37.8164 28.0131 38.2671 28.0131H40.9541C41.4049 28.0131 41.7702 27.6478 41.7702 27.197C41.7701 26.7463 41.4049 26.3809 40.9541 26.3809Z" fill="#585A60"/>
        <path d="M11.0773 32.9551H8.39032C7.93965 32.9551 7.5742 33.3204 7.5742 33.7712C7.5742 34.2219 7.93965 34.5873 8.39032 34.5873H11.0773C11.5281 34.5873 11.8935 34.222 11.8935 33.7712C11.8934 33.3204 11.5281 32.9551 11.0773 32.9551Z" fill="#585A60"/>
        <path d="M18.5463 32.9551H15.8596C15.4089 32.9551 15.0435 33.3204 15.0435 33.7712C15.0435 34.2219 15.4089 34.5873 15.8596 34.5873H18.5463C18.9971 34.5873 19.3624 34.222 19.3624 33.7712C19.3624 33.3204 18.9971 32.9551 18.5463 32.9551Z" fill="#585A60"/>
        <path d="M26.0157 32.9551H23.3287C22.878 32.9551 22.5126 33.3204 22.5126 33.7712C22.5126 34.2219 22.878 34.5873 23.3287 34.5873H26.0157C26.4665 34.5873 26.8318 34.222 26.8318 33.7712C26.8317 33.3204 26.4665 32.9551 26.0157 32.9551Z" fill="#585A60"/>
        <path d="M33.485 32.9551H30.7979C30.3472 32.9551 29.9818 33.3204 29.9818 33.7712C29.9818 34.2219 30.3472 34.5873 30.7979 34.5873H33.485C33.9357 34.5873 34.3011 34.222 34.3011 33.7712C34.3011 33.3204 33.9357 32.9551 33.485 32.9551Z" fill="#585A60"/>
        <path d="M40.9541 32.9551H38.2671C37.8164 32.9551 37.451 33.3204 37.451 33.7712C37.451 34.2219 37.8164 34.5873 38.2671 34.5873H40.9541C41.4049 34.5873 41.7702 34.222 41.7702 33.7712C41.7701 33.3204 41.4049 32.9551 40.9541 32.9551Z" fill="#585A60"/>
        <path d="M11.0773 39.5312H8.39032C7.93965 39.5312 7.5742 39.8966 7.5742 40.3474C7.5742 40.7981 7.93965 41.1635 8.39032 41.1635H11.0773C11.5281 41.1635 11.8935 40.7981 11.8935 40.3474C11.8935 39.8966 11.5281 39.5312 11.0773 39.5312Z" fill="#585A60"/>
        <path d="M18.5463 39.5312H15.8596C15.4089 39.5312 15.0435 39.8966 15.0435 40.3474C15.0435 40.7981 15.4089 41.1635 15.8596 41.1635H18.5463C18.9971 41.1635 19.3624 40.7981 19.3624 40.3474C19.3624 39.8966 18.9971 39.5312 18.5463 39.5312Z" fill="#585A60"/>
        <path d="M26.0157 39.5312H23.3287C22.878 39.5312 22.5126 39.8966 22.5126 40.3474C22.5126 40.7981 22.878 41.1635 23.3287 41.1635H26.0157C26.4665 41.1635 26.8318 40.7981 26.8318 40.3474C26.8318 39.8966 26.4665 39.5312 26.0157 39.5312Z" fill="#585A60"/>
        <path d="M33.485 39.5312H30.7979C30.3472 39.5312 29.9818 39.8966 29.9818 40.3474C29.9818 40.7981 30.3472 41.1635 30.7979 41.1635H33.485C33.9357 41.1635 34.3011 40.7981 34.3011 40.3474C34.3011 39.8966 33.9357 39.5312 33.485 39.5312Z" fill="#585A60"/>
        <path d="M40.9541 39.5312H38.2671C37.8164 39.5312 37.451 39.8966 37.451 40.3474C37.451 40.7981 37.8164 41.1635 38.2671 41.1635H40.9541C41.4049 41.1635 41.7702 40.7981 41.7702 40.3474C41.7702 39.8966 41.4049 39.5312 40.9541 39.5312Z" fill="#585A60"/>
        <path d="M11.0773 46.1055H8.39032C7.93965 46.1055 7.5742 46.4708 7.5742 46.9216C7.5742 47.3723 7.93965 47.7377 8.39032 47.7377H11.0773C11.5281 47.7377 11.8935 47.3724 11.8935 46.9216C11.8934 46.4708 11.5281 46.1055 11.0773 46.1055Z" fill="#585A60"/>
        <path d="M18.5463 46.1055H15.8596C15.4089 46.1055 15.0435 46.4708 15.0435 46.9216C15.0435 47.3723 15.4089 47.7377 15.8596 47.7377H18.5463C18.9971 47.7377 19.3624 47.3724 19.3624 46.9216C19.3624 46.4708 18.9971 46.1055 18.5463 46.1055Z" fill="#585A60"/>
        <path d="M26.0157 46.1055H23.3287C22.878 46.1055 22.5126 46.4708 22.5126 46.9216C22.5126 47.3723 22.878 47.7377 23.3287 47.7377H26.0157C26.4665 47.7377 26.8318 47.3724 26.8318 46.9216C26.8317 46.4708 26.4665 46.1055 26.0157 46.1055Z" fill="#585A60"/>
        <path d="M33.485 46.1055H30.7979C30.3472 46.1055 29.9818 46.4708 29.9818 46.9216C29.9818 47.3723 30.3472 47.7377 30.7979 47.7377H33.485C33.9357 47.7377 34.3011 47.3724 34.3011 46.9216C34.3011 46.4708 33.9357 46.1055 33.485 46.1055Z" fill="#585A60"/>
    </g>
    <defs>
        <clipPath id="clip0_1262_7074">
            <rect width="54" height="54" fill="white" transform="translate(0.763672 0.205078)"/>
        </clipPath>
    </defs>
</svg>
