<svg width="21" height="21" viewBox="0 0 21 21" fill="none" xmlns="http://www.w3.org/2000/svg">
    <path d="M16.2084 5.93685H13.7084V5.10352C13.7084 4.44047 13.445 3.80459 12.9761 3.33575C12.5073 2.86691 11.8714 2.60352 11.2084 2.60352H9.54169C8.87864 2.60352 8.24276 2.86691 7.77392 3.33575C7.30508 3.80459 7.04169 4.44047 7.04169 5.10352V5.93685H4.54169C3.87865 5.93685 3.24276 6.20024 2.77392 6.66908C2.30508 7.13792 2.04169 7.77381 2.04169 8.43685V15.9369C2.04169 16.5999 2.30508 17.2358 2.77392 17.7046C3.24276 18.1735 3.87865 18.4369 4.54169 18.4369H16.2084C16.8714 18.4369 17.5073 18.1735 17.9761 17.7046C18.445 17.2358 18.7084 16.5999 18.7084 15.9369V8.43685C18.7084 7.77381 18.445 7.13792 17.9761 6.66908C17.5073 6.20024 16.8714 5.93685 16.2084 5.93685ZM8.70835 5.10352C8.70835 4.8825 8.79615 4.67054 8.95243 4.51426C9.10871 4.35798 9.32067 4.27018 9.54169 4.27018H11.2084C11.4294 4.27018 11.6413 4.35798 11.7976 4.51426C11.9539 4.67054 12.0417 4.8825 12.0417 5.10352V5.93685H8.70835V5.10352ZM17.0417 15.9369C17.0417 16.1579 16.9539 16.3698 16.7976 16.5261C16.6413 16.6824 16.4294 16.7702 16.2084 16.7702H4.54169C4.32067 16.7702 4.10871 16.6824 3.95243 16.5261C3.79615 16.3698 3.70835 16.1579 3.70835 15.9369V11.7285H6.20835V12.6035C6.20835 12.8245 6.29615 13.0365 6.45243 13.1928C6.60871 13.3491 6.82067 13.4369 7.04169 13.4369C7.2627 13.4369 7.47466 13.3491 7.63094 13.1928C7.78722 13.0365 7.87502 12.8245 7.87502 12.6035V11.7285H12.875V12.6035C12.875 12.8245 12.9628 13.0365 13.1191 13.1928C13.2754 13.3491 13.4873 13.4369 13.7084 13.4369C13.9294 13.4369 14.1413 13.3491 14.2976 13.1928C14.4539 13.0365 14.5417 12.8245 14.5417 12.6035V11.7285H17.0417V15.9369ZM17.0417 10.1035H3.70835V8.43685C3.70835 8.21584 3.79615 8.00387 3.95243 7.84759C4.10871 7.69131 4.32067 7.60352 4.54169 7.60352H16.2084C16.4294 7.60352 16.6413 7.69131 16.7976 7.84759C16.9539 8.00387 17.0417 8.21584 17.0417 8.43685V10.1035Z" fill="black" fill-opacity="0.4"/>
</svg>
