<svg width="38" height="38" viewBox="0 0 38 38" fill="none" xmlns="http://www.w3.org/2000/svg">
    <rect x="0.5" y="0.5" width="37" height="37" rx="12" fill="#229916"/>
    <path d="M18.8981 8.30492C18.9416 8.11154 19.2172 8.11154 19.2607 8.30491L20.2148 12.5393C20.8215 15.2327 22.925 17.3359 25.6186 17.9426L29.8533 18.8964C30.0467 18.94 30.0467 19.2156 29.8533 19.2591L25.6185 20.2129C22.925 20.8196 20.8215 22.923 20.2148 25.6163L19.2607 29.8507C19.2172 30.044 18.9416 30.044 18.8981 29.8507L17.9441 25.6163C17.3373 22.923 15.2339 20.8196 12.5403 20.2129L8.30555 19.2591C8.11216 19.2156 8.11216 18.94 8.30554 18.8964L12.5403 17.9426C15.2339 17.3359 17.3373 15.2327 17.9441 12.5393L18.8981 8.30492Z" fill="white"/>
</svg>
