<svg width="30" height="25" viewBox="0 0 30 25" fill="none" xmlns="http://www.w3.org/2000/svg">
    <g clip-path="url(#clip0_2018_7246)">
        <path d="M18.4195 14.291C18.1774 12.5118 17.4194 10.8453 16.2415 9.50206C15.0636 8.15886 13.5187 7.19934 11.802 6.74483C10.0854 6.29032 8.27414 6.36122 6.59731 6.94859C4.92048 7.53595 3.45337 8.61339 2.3815 10.0447C1.30963 11.4759 0.681139 13.1968 0.575491 14.9896C0.469843 16.7824 0.891788 18.5666 1.78797 20.1167C2.68415 21.6668 4.01432 22.9131 5.61028 23.6981C7.20625 24.483 8.99633 24.7713 10.7542 24.5266C13.1115 24.1978 15.2434 22.9348 16.6808 21.0153C18.1183 19.0959 18.7437 16.6771 18.4195 14.291ZM2.45446 16.5193C2.2632 15.1034 2.49084 13.6619 3.10862 12.3768C3.7264 11.0918 4.70661 10.021 5.92541 9.29957C7.14421 8.57816 8.54692 8.23856 9.95631 8.32369C11.3657 8.40881 12.7186 8.91483 13.844 9.77783C14.9693 10.6408 15.8168 11.8221 16.2792 13.1723C16.7416 14.5226 16.7983 15.9812 16.442 17.3641C16.0858 18.7469 15.3325 19.9918 14.2776 20.9416C13.2226 21.8913 11.9132 22.5033 10.5147 22.7002C9.58338 22.8329 8.63533 22.7782 7.72495 22.5392C6.81457 22.3001 5.95981 21.8814 5.20972 21.3071C4.45963 20.7328 3.829 20.0142 3.35401 19.1926C2.87902 18.371 2.56904 17.4625 2.44186 16.5193H2.45446Z" fill="#F6BC1A"/>
        <path opacity="0.3" d="M10.7518 24.5273C12.5698 24.2722 14.2669 23.4589 15.6139 22.1971C16.961 20.9352 17.8933 19.2856 18.2851 17.4707C18.6769 15.6557 18.5093 13.7628 17.8049 12.0473C17.1005 10.3318 15.8933 8.87626 14.346 7.87695C16.0268 9.39718 17.0807 11.5021 17.2979 13.7729C17.5152 16.0438 16.88 18.3143 15.5187 20.1327C14.1574 21.9511 12.1697 23.1843 9.95093 23.5868C7.73222 23.9894 5.44507 23.5319 3.54443 22.3054C4.51417 23.1835 5.66132 23.8371 6.90603 24.2209C8.15074 24.6046 9.46311 24.7091 10.7518 24.5273Z" fill="white"/>
        <path d="M3.43921 5.11403L8.83581 9.84272L12.7472 3.81492L11.8061 2.71141L11.4826 2.38823C10.9155 1.82053 10.3042 1.79927 9.53743 1.90558L6.62591 2.30744C5.9432 2.40099 4.85295 2.38398 4.42022 3.04948C4.32093 3.22852 4.23322 3.41389 4.15764 3.60442L3.43921 5.11403Z" fill="#09A9D3"/>
        <path d="M4.19873 4.57097L5.79523 4.34772L4.7407 3.19531L4.19873 4.57097Z" fill="#8BCEE9"/>
        <path d="M5.33057 3.11504L7.20016 2.85352L6.32628 4.14625L5.33057 3.11504Z" fill="#8BCEE9"/>
        <path d="M7.84754 2.76367L6.91064 4.19461L8.22776 5.549L9.09533 3.89056L7.84754 2.76367Z" fill="#8BCEE9"/>
        <path d="M8.52759 2.55007L10.3552 2.29492L9.72917 3.6727L8.52759 2.55007Z" fill="#8BCEE9"/>
        <path d="M10.8113 2.34961L10.3135 3.72101L11.868 3.50414L10.8113 2.34961Z" fill="#8BCEE9"/>
        <path d="M4.40918 5.30208L7.43414 8.0215C7.37742 7.9726 7.39212 7.69619 7.37321 7.60689C7.32762 7.40325 7.26072 7.20511 7.17365 7.01581C7.0008 6.63516 6.75189 6.2949 6.44262 6.01649C5.88084 5.52246 5.15255 5.26659 4.40918 5.30208Z" fill="#8BCEE9"/>
        <path d="M6.65454 4.81769L8.65857 8.70015L9.55556 4.58594L8.32877 6.42723L6.65454 4.81769Z" fill="#8BCEE9"/>
        <path d="M11.8258 4.26172C11.8258 4.26172 9.62641 7.6998 9.6201 7.71255C9.67682 7.62325 9.57599 7.37023 9.56969 7.2618C9.56504 6.96586 9.60615 6.67101 9.69153 6.38793C9.81186 5.92117 10.036 5.48844 10.3469 5.12283C10.7923 4.60191 11.1515 4.36378 11.8258 4.26172Z" fill="#8BCEE9"/>
        <path d="M29.4206 14.7787C29.5611 12.9887 29.1741 11.1967 28.3086 9.62921C27.443 8.06173 26.1378 6.78916 24.5579 5.97236C22.9779 5.15557 21.1942 4.83121 19.4321 5.04029C17.6701 5.24938 16.0089 5.98252 14.6584 7.14704C13.3079 8.31156 12.3289 9.85518 11.845 11.5828C11.3612 13.3104 11.3942 15.1444 11.9399 16.853C12.4857 18.5616 13.5196 20.0681 14.9111 21.1821C16.3026 22.296 17.9891 22.9674 19.7575 23.1114C20.9326 23.2067 22.1148 23.0668 23.2364 22.6997C24.3581 22.3325 25.3973 21.7452 26.2947 20.9714C27.192 20.1976 27.93 19.2524 28.4663 18.1899C29.0027 17.1273 29.3269 15.9682 29.4206 14.7787ZM13.3463 13.4839C13.4598 12.0595 13.9878 10.7011 14.8637 9.58031C15.7396 8.45952 16.924 7.62662 18.2674 7.18683C19.6107 6.74704 21.0527 6.72009 22.4111 7.10938C23.7696 7.49868 24.9836 8.28675 25.8997 9.37405C26.8159 10.4613 27.3931 11.7991 27.5585 13.2183C27.7239 14.6375 27.47 16.0744 26.8289 17.3476C26.1878 18.6208 25.1883 19.6732 23.9566 20.3717C22.7249 21.0702 21.3163 21.3836 19.9088 21.2722C18.0185 21.1192 16.2656 20.213 15.0351 18.7527C13.8046 17.2923 13.1972 15.3973 13.3463 13.4839Z" fill="#F6BC1A"/>
        <path opacity="0.3" d="M19.763 23.1123C21.5941 23.2601 23.4259 22.8353 25.0109 21.8955C26.5959 20.9557 27.8578 19.5461 28.6259 17.8572C29.394 16.1683 29.6314 14.2814 29.306 12.4515C28.9807 10.6216 28.1082 8.9369 26.8065 7.625C28.1128 9.47583 28.6853 11.7555 28.4108 14.013C28.1362 16.2706 27.0347 18.3417 25.3239 19.8166C23.6132 21.2916 21.4179 22.0631 19.1722 21.9784C16.9265 21.8938 14.7939 20.9592 13.1963 19.3595C13.9554 20.4308 14.9362 21.3215 16.0703 21.9697C17.2045 22.6178 18.4646 23.0077 19.763 23.1123Z" fill="white"/>
        <path d="M16.738 2.55879L21.0045 8.35058L26.1049 3.31359L25.4201 2.03787L25.1722 1.65303C24.7374 0.974765 24.1471 0.821677 23.374 0.757891L20.4478 0.517628C19.7588 0.462347 18.6959 0.209329 18.1371 0.764269C18.0014 0.917393 17.8758 1.07933 17.7611 1.24904L16.738 2.55879Z" fill="#F49599"/>
        <g opacity="0.5">
            <path d="M17.5964 2.20143L19.2013 2.329L18.4157 0.974609L17.5964 2.20143Z" fill="white"/>
            <path d="M19.0073 1.01953L20.8874 1.17262L19.7615 2.24423L19.0073 1.01953Z" fill="white"/>
            <path d="M21.5442 1.22852L20.3237 2.42344L21.3236 4.03298L22.5231 2.59992L21.5442 1.22852Z" fill="white"/>
            <path d="M22.2515 1.16602L24.0916 1.31485L23.1863 2.52466L22.2515 1.16602Z" fill="white"/>
            <path d="M24.5271 1.46875L23.7478 2.6977L25.3128 2.82314L24.5271 1.46875Z" fill="white"/>
            <path d="M17.6421 2.96094C17.6421 2.96094 20.0158 6.26719 20.02 6.27569C19.9759 6.21403 20.0473 5.94613 20.0494 5.85045C20.0477 5.64081 20.0238 5.43195 19.978 5.22748C19.8897 4.8187 19.7188 4.43285 19.476 4.09421C19.0317 3.49148 18.3748 3.08553 17.6421 2.96094Z" fill="white"/>
            <path d="M19.9377 2.96875L21.0721 7.19565L22.822 3.37273L21.2318 4.9036L19.9377 2.96875Z" fill="white"/>
            <path d="M25.1058 3.5596L22.2195 6.44911C22.293 6.3747 22.251 6.10467 22.2678 5.99836C22.325 5.70827 22.4271 5.42913 22.5703 5.17127C22.7875 4.74174 23.0986 4.36798 23.4799 4.07839C24.0261 3.65953 24.4273 3.50432 25.1058 3.5596Z" fill="white"/>
        </g>
    </g>
    <defs>
        <clipPath id="clip0_2018_7246">
            <rect width="28.8946" height="24.209" fill="white" transform="translate(0.552002 0.408203)"/>
        </clipPath>
    </defs>
</svg>
