<svg width="33" height="32" viewBox="0 0 33 32" fill="none" xmlns="http://www.w3.org/2000/svg">
    <rect x="0.59375" width="32" height="32" rx="16" fill="white"/>
    <rect x="1.89615" y="1.3024" width="29.3952" height="29.3952" rx="14.6976" stroke="#10B100" stroke-opacity="0.3" stroke-width="2.60479"/>
    <g clip-path="url(#clip0_409_952)">
        <path d="M25.8622 23.0335C25.362 22.7702 24.8623 22.5068 24.3631 22.243C23.3598 21.7121 22.3558 21.1827 21.3562 20.6452C21.2545 20.5898 21.1693 20.5086 21.109 20.4098C20.2486 18.9282 19.3918 17.4443 18.5386 15.9579C17.9268 14.8956 17.3174 13.8326 16.7105 12.7689C16.6794 12.7287 16.6438 12.6921 16.6045 12.6599C16.5674 12.6945 16.5338 12.7328 16.5043 12.774C15.1724 15.0833 13.8408 17.3933 12.5094 19.7041C12.3632 19.9637 12.2118 20.224 12.0575 20.4807C12.0257 20.5358 11.9797 20.5815 11.9244 20.613C10.4132 21.416 8.9019 22.2169 7.39064 23.0159C7.36791 23.0227 7.34468 23.0276 7.32117 23.0306L16.6045 6.98828L25.8819 23.0064L25.8622 23.0335Z" fill="#10B100"/>
    </g>
    <rect x="7.35407" y="7.02796" width="18.485" height="17.9461" stroke="#10B100" stroke-opacity="0.3" stroke-width="0.0793654"/>
    <path d="M16.6032 17.3675C16.6163 17.3092 16.6993 17.3092 16.7124 17.3675L16.9729 18.5237C17.1413 19.2712 17.7252 19.855 18.4728 20.0234L19.6291 20.2838C19.6873 20.2969 19.6873 20.3799 19.6291 20.393L18.4728 20.6535C17.7252 20.8219 17.1413 21.4057 16.9729 22.1532L16.7124 23.3094C16.6993 23.3676 16.6163 23.3676 16.6032 23.3094L16.3427 22.1532C16.1743 21.4057 15.5905 20.8219 14.8429 20.6535L13.6866 20.393C13.6283 20.3799 13.6283 20.2969 13.6866 20.2838L14.8429 20.0234C15.5905 19.855 16.1743 19.2712 16.3427 18.5237L16.6032 17.3675Z" fill="#10B100"/>
    <path d="M16.6047 17.3678C16.6175 17.3112 16.6982 17.3112 16.7109 17.3678L16.9714 18.524C17.1399 19.2721 17.7242 19.8564 18.4724 20.0249L19.6287 20.2853C19.6853 20.2981 19.6853 20.3788 19.6287 20.3915L18.4724 20.652C17.7242 20.8205 17.1399 21.4047 16.9714 22.1528L16.7109 23.309C16.6982 23.3657 16.6175 23.3657 16.6047 23.309L16.3442 22.1528C16.1757 21.4047 15.5914 20.8205 14.8432 20.652L13.6869 20.3915C13.6303 20.3788 13.6303 20.2981 13.6869 20.2853L14.8432 20.0249C15.5914 19.8564 16.1757 19.2721 16.3442 18.524L16.6047 17.3678Z" stroke="#10B100" stroke-opacity="0.3" stroke-width="0.00311398"/>
    <defs>
        <clipPath id="clip0_409_952">
            <rect x="7.31439" y="6.98828" width="18.5644" height="18.0255" fill="white"/>
        </clipPath>
    </defs>
</svg>
