<svg width="25" height="24" viewBox="0 0 25 24" fill="none" xmlns="http://www.w3.org/2000/svg">
    <g clip-path="url(#clip0_678_1653)">
        <path d="M21.4398 6.0625C21.4398 6.0625 20.971 9.17983 20.2812 11.1099C19.5914 13.04 19.2749 11.1099 19.2749 11.1099V6.0625" fill="#D56617"/>
        <path d="M19.2181 21.9452C19.2153 21.947 19.212 21.9494 19.2092 21.9512C17.2939 23.245 14.9853 24.0006 12.5 24.0006C11.7767 24.0006 11.0684 23.9369 10.3808 23.8141C10.3761 23.8131 10.3714 23.8127 10.3667 23.8117C8.7275 23.5173 7.20312 22.8902 5.86719 22.0023C5.88078 21.9841 5.88828 21.9738 5.88828 21.9738C6.37531 21.3002 7.00203 20.7348 7.72531 20.3181C8.20344 20.043 8.72375 19.8334 9.27359 19.7017C9.35844 19.6811 9.44422 19.6623 9.53047 19.6459C9.64203 19.6239 9.75453 19.6056 9.86844 19.5911C9.92047 19.5841 9.97344 19.578 10.0259 19.5723C10.0742 19.5672 10.122 19.5625 10.1708 19.5587C10.2514 19.5522 10.332 19.547 10.4136 19.5438C10.4923 19.5405 10.572 19.5391 10.6517 19.5391H14.4762C14.592 19.5391 14.7073 19.5423 14.8212 19.5494C14.9155 19.5545 15.0092 19.562 15.102 19.5719C15.148 19.5766 15.1939 19.5822 15.2394 19.5883C15.3598 19.6033 15.4794 19.6225 15.5975 19.645C15.6627 19.6577 15.7273 19.6713 15.7916 19.6858C15.8127 19.6914 15.8342 19.6956 15.8548 19.7012C16.4052 19.8334 16.925 20.043 17.4031 20.3181C18.1161 20.7292 18.7344 21.2842 19.2181 21.9452Z" fill="#FFDD33"/>
        <path d="M10.3808 20.9152V23.8139C10.3761 23.813 10.3714 23.8125 10.3667 23.8116C8.7275 23.5172 7.20313 22.89 5.86719 22.0022C5.88078 21.9839 5.88828 21.9736 5.88828 21.9736C6.37531 21.3 7.00203 20.7347 7.72531 20.318C8.20344 20.0428 8.72375 19.8333 9.27359 19.7016C9.35844 19.681 9.44422 19.6622 9.53047 19.6458C9.64203 19.6238 9.75453 19.6055 9.86844 19.591C9.92047 19.5839 9.97344 19.5778 10.0259 19.5722C10.0742 19.5671 10.122 19.5624 10.1708 19.5586C10.2514 19.5521 10.3808 20.9152 10.3808 20.9152Z" fill="#4A81F6"/>
        <path d="M19.2183 21.9446C17.9255 22.8198 16.4522 23.4498 14.8665 23.7666C14.8182 23.7709 14.7713 23.777 14.7258 23.7849V20.8862C14.7258 20.8862 14.769 20.2285 14.8215 19.5488C14.9157 19.554 15.0094 19.5615 15.1022 19.5713C15.1482 19.576 15.1941 19.5816 15.2396 19.5877C15.36 19.6027 15.4796 19.622 15.5977 19.6445C15.6629 19.6571 15.7275 19.6707 15.7918 19.6852C15.8129 19.6909 15.8344 19.6951 15.855 19.7007C16.4054 19.8329 16.9252 20.0424 17.4033 20.3176C18.1163 20.7287 18.7346 21.2837 19.2183 21.9446Z" fill="#4A81F6"/>
        <path d="M9.25609 21.7694H9.59692C10.0689 21.7694 10.4515 21.3868 10.4515 20.9149V18.9502C10.4515 18.4783 10.0689 18.0957 9.59692 18.0957C9.18133 18.0957 8.82602 18.3947 8.755 18.8042L8.41417 20.7688C8.32352 21.2914 8.72575 21.7694 9.25609 21.7694Z" fill="#61A2F9"/>
        <path d="M15.8509 21.7694H15.51C15.0381 21.7694 14.6555 21.3868 14.6555 20.9149V18.9502C14.6555 18.4783 15.0381 18.0957 15.51 18.0957C15.9256 18.0957 16.281 18.3947 16.352 18.8042L16.6928 20.7688C16.7835 21.2914 16.3812 21.7694 15.8509 21.7694Z" fill="#61A2F9"/>
        <path d="M14.6599 17.2754V19.8474C14.6599 20.789 14.0391 21.5849 13.1839 21.8493C12.9881 21.91 12.7795 21.9429 12.5637 21.9429C11.4063 21.9429 10.4683 21.0048 10.4683 19.8474V17.2754H14.6599V17.2754Z" fill="#EFB29A"/>
        <path d="M14.66 19.6836V19.8465C14.66 20.7881 14.0392 21.584 13.184 21.8484C12.4124 21.6112 11.8323 20.9403 11.7251 20.1194C11.8651 20.128 12.0059 20.1323 12.1473 20.1323C12.5439 20.1323 12.9325 20.1008 13.3112 20.0387C13.7777 19.9637 14.2285 19.8436 14.66 19.6836Z" fill="#F9C5AC"/>
        <path d="M6.77715 13.0395C6.77715 14.0003 6.07529 14.7969 5.15626 14.9448C5.0558 14.961 4.95249 14.9695 4.84707 14.9695C3.78085 14.9695 2.91699 14.1057 2.91699 13.0395C2.91699 11.9732 3.78085 11.1094 4.84707 11.1094C4.95249 11.1094 5.0558 11.1179 5.15626 11.1341C6.07534 11.2821 6.77715 12.0787 6.77715 13.0395Z" fill="#F9C5AC"/>
        <path d="M6.77741 13.0381C6.77741 13.9989 6.07555 14.7955 5.15652 14.9434C4.98955 14.3363 4.90039 13.6975 4.90039 13.0381C4.90039 12.3787 4.98955 11.7398 5.15652 11.1328C6.07559 11.2807 6.77741 12.0773 6.77741 13.0381Z" fill="#EFB29A"/>
        <path d="M4.84753 13.7292C5.2285 13.7292 5.53734 13.4204 5.53734 13.0394C5.53734 12.6584 5.2285 12.3496 4.84753 12.3496C4.46655 12.3496 4.15771 12.6584 4.15771 13.0394C4.15771 13.4204 4.46655 13.7292 4.84753 13.7292Z" fill="#EFB29A"/>
        <path d="M18.3513 13.0395C18.3513 14.0003 19.0532 14.7969 19.9722 14.9448C20.0727 14.961 20.176 14.9695 20.2814 14.9695C21.3476 14.9695 22.2115 14.1057 22.2115 13.0395C22.2115 11.9732 21.3476 11.1094 20.2814 11.1094C20.176 11.1094 20.0727 11.1179 19.9722 11.1341C19.0531 11.2821 18.3513 12.0787 18.3513 13.0395Z" fill="#F9C5AC"/>
        <path d="M18.3513 13.0381C18.3513 13.9989 19.0532 14.7955 19.9722 14.9434C20.1392 14.3363 20.2283 13.6975 20.2283 13.0381C20.2283 12.3787 20.1392 11.7398 19.9722 11.1328C19.0531 11.2807 18.3513 12.0773 18.3513 13.0381Z" fill="#EFB29A"/>
        <path d="M20.2811 13.7292C20.6621 13.7292 20.9709 13.4204 20.9709 13.0394C20.9709 12.6584 20.6621 12.3496 20.2811 12.3496C19.9001 12.3496 19.5913 12.6584 19.5913 13.0394C19.5913 13.4204 19.9001 13.7292 20.2811 13.7292Z" fill="#EFB29A"/>
        <path d="M19.816 12.0236C19.816 15.6322 17.1797 18.6258 13.7282 19.1816C13.3495 19.2438 12.9609 19.2752 12.5644 19.2752C8.55917 19.2752 5.31274 16.0288 5.31274 12.0236V6.33594H19.816V12.0236Z" fill="#F9C5AC"/>
        <path d="M13.8417 19.1626C13.8042 19.1692 13.7662 19.1757 13.7282 19.1818C13.3495 19.2437 12.9609 19.2751 12.5643 19.2751C9.06509 19.2751 6.14431 16.7968 5.46274 13.4992C5.36431 13.0229 5.31274 12.5293 5.31274 12.0235V7.93945H7.86978V12.0235C7.86978 15.5926 10.447 18.5584 13.8417 19.1626Z" fill="#EFB29A"/>
        <path d="M22.6257 4.53404C21.2199 8.58685 12.608 8.75794 10.3805 7.22185C8.68648 8.91591 5.83836 7.83357 5.83836 7.83357L5.95883 11.1336H5.15586C5.15586 11.1336 2.15164 4.46279 4.15695 2.45701C6.01602 0.597944 7.84649 2.18607 8.10336 2.42748C8.10664 2.43029 8.10945 2.4331 8.11227 2.43591C8.11977 2.44248 8.1268 2.44951 8.1343 2.45701C10.749 -2.91815 19.2179 2.82357 21.5265 1.47966C22.6088 0.849663 23.6645 1.54107 22.6257 4.53404Z" fill="#E28424"/>
        <path d="M5.83836 7.83416L5.95883 11.1342H5.15586C5.15586 11.1342 2.15164 4.46337 4.15695 2.45759C6.01602 0.59853 7.84649 2.18666 8.10336 2.42806C6.7857 1.229 6.04883 8.13181 10.3805 7.22244C8.68648 8.9165 5.83836 7.83416 5.83836 7.83416Z" fill="#D56617"/>
        <path d="M13.3868 13.6745H11.7416C11.5456 13.6745 11.3867 13.5157 11.3867 13.3197C11.3867 13.1237 11.5456 12.9648 11.7416 12.9648H13.3868C13.5828 12.9648 13.7416 13.1237 13.7416 13.3197C13.7416 13.5156 13.5828 13.6745 13.3868 13.6745Z" fill="#EFB29A"/>
        <path d="M12.996 10.5852C12.6935 10.4189 12.3321 10.4189 12.0296 10.5852L11.6387 9.87414C12.1861 9.5732 12.8397 9.5732 13.387 9.87414L12.996 10.5852Z" fill="#FFDD33"/>
        <path d="M8.08615 15.0696C7.6324 15.0696 6.93968 14.8929 6.35628 14.397C5.88021 13.9923 5.31274 13.2317 5.31274 11.9063C5.31274 10.8118 5.75913 9.94075 6.60359 9.38716C7.42723 8.84725 8.38231 8.76663 8.87829 8.76663C8.97935 8.76663 9.08267 8.76456 9.19207 8.76241C9.30537 8.76016 9.42256 8.75781 9.54138 8.75781C10.3655 8.75781 11.2947 8.88545 11.9366 9.83219C12.3867 10.4962 12.3462 11.4057 11.8226 12.3934C11.46 13.0773 10.9026 13.7268 10.2531 14.2221C9.33467 14.9226 8.56779 15.0696 8.08615 15.0696Z" fill="#FFDD33"/>
        <path d="M10.3145 13.4626C9.64479 14.0869 8.82789 14.5286 8.08643 14.5286C7.38419 14.5286 5.854 13.9524 5.854 11.9064C5.854 9.86003 7.63633 9.30766 8.87847 9.30766C9.17468 9.30766 9.4863 9.29088 9.79493 9.30358C10.4246 9.32899 11.0419 9.47646 11.4891 10.1357C12.0782 11.0048 11.3844 12.4663 10.3145 13.4626Z" fill="#404A4A"/>
        <path d="M17.0425 15.0696C16.5609 15.0696 15.794 14.9225 14.8755 14.2221C14.226 13.7268 13.6687 13.0774 13.3061 12.3934C12.7824 11.4058 12.7419 10.4962 13.1921 9.83219C13.834 8.88545 14.7631 8.75781 15.5873 8.75781C15.7061 8.75781 15.8233 8.76016 15.9366 8.76241C16.0461 8.76456 16.1494 8.76663 16.2504 8.76663C16.7465 8.76663 17.7015 8.84725 18.5251 9.38716C19.3696 9.94075 19.816 10.8118 19.816 11.9063C19.816 13.2317 19.2485 13.9923 18.7724 14.397C18.189 14.8929 17.4963 15.0696 17.0425 15.0696Z" fill="#FFDD33"/>
        <path d="M19.2749 11.9063C19.2749 13.6873 18.1158 14.3543 17.3522 14.4974C17.2383 14.5188 17.1336 14.5286 17.0425 14.5286C15.116 14.5286 12.6818 11.5488 13.6398 10.1357C14.3058 9.15321 15.3502 9.30767 16.2502 9.30767C16.4839 9.30767 16.7368 9.32717 16.9935 9.37259C18.1001 9.56838 19.2749 10.2449 19.2749 11.9063Z" fill="#404A4A"/>
        <path d="M19.2748 11.9068C19.2748 13.6878 18.1157 14.3548 17.3521 14.4979C18.4152 12.7659 17.8428 10.3147 16.9934 9.37305C18.1 9.56889 19.2748 10.2454 19.2748 11.9068Z" fill="#475959"/>
        <path d="M10.314 13.4636C10.8264 11.9715 10.4287 10.2165 9.79443 9.30469C10.4242 9.33009 11.0414 9.47756 11.4886 10.1368C12.0777 11.0059 11.3839 12.4674 10.314 13.4636Z" fill="#475959"/>
        <path d="M8.27954 10.8898L9.12132 10.6006C9.37412 10.5137 9.37412 10.1561 9.12132 10.0692L8.27954 9.77997C8.19765 9.75185 8.13334 9.68749 8.10516 9.6056L7.8159 8.76382C7.72904 8.51102 7.37148 8.51102 7.28457 8.76382L6.9953 9.6056C6.96718 9.68749 6.90282 9.7518 6.82093 9.77997L5.97915 10.0692C5.72635 10.1561 5.72635 10.5137 5.97915 10.6006L6.82093 10.8898C6.90282 10.918 6.96713 10.9823 6.9953 11.0642L7.28457 11.906C7.37143 12.1588 7.72899 12.1588 7.8159 11.906L8.10516 11.0642C8.13329 10.9823 8.19765 10.918 8.27954 10.8898Z" fill="#EFE7E4"/>
        <path d="M12.5003 16.1881C11.899 16.1881 11.2977 16.0375 10.7496 15.7362C10.595 15.6512 10.5386 15.4569 10.6235 15.3023C10.7086 15.1477 10.9028 15.0914 11.0574 15.1763C11.9609 15.673 13.0398 15.673 13.9433 15.1763C14.0978 15.0913 14.2921 15.1477 14.3771 15.3023C14.4621 15.4569 14.4057 15.6512 14.2511 15.7362C13.7029 16.0375 13.1016 16.1881 12.5003 16.1881Z" fill="#DD9F8A"/>
    </g>
    <defs>
        <clipPath id="clip0_678_1653">
            <rect width="24" height="24" fill="white" transform="translate(0.5)"/>
        </clipPath>
    </defs>
</svg>
