<svg width="40" height="40" viewBox="0 0 36 31" fill="none" xmlns="http://www.w3.org/2000/svg">
    <path d="M10.103 2.61717V5.38524H13.0805V3.90709C13.0805 3.73427 13.2406 3.59416 13.4381 3.59416H22.3995C22.597 3.59416 22.7571 3.73427 22.7571 3.90709V5.38524H25.7346V2.61717C25.7346 1.71787 24.9014 0.988892 23.8737 0.988892H11.9639C10.9362 0.988892 10.103 1.71787 10.103 2.61717Z" fill="#9C9C9C"/>
    <path d="M22.7575 3.90696V5.38511H25.735V3.59402H22.3999C22.5974 3.59402 22.7575 3.73414 22.7575 3.90696Z" fill="#838383"/>
    <path d="M10.103 5.38511H13.0805V3.90696C13.0805 3.73414 13.2406 3.59402 13.4381 3.59402H10.103V5.38511Z" fill="#838383"/>
    <path d="M14.7557 6.03655V7.99052H8.42871V6.03655C8.42871 5.67683 8.76194 5.38525 9.17305 5.38525H14.0114C14.4225 5.38525 14.7557 5.67683 14.7557 6.03655Z" fill="#FFE07D"/>
    <path d="M33.1784 30.7864H2.65972C1.63195 30.7864 0.798828 30.0574 0.798828 29.1581V14.9106H35.0393V29.1581C35.0393 30.0574 34.2061 30.7864 33.1784 30.7864Z" fill="#30569F"/>
    <path d="M35.0395 29.1581V14.9106H32.0621V29.1581C32.0621 30.0574 31.2289 30.7864 30.2012 30.7864H33.1786C34.2063 30.7864 35.0395 30.0574 35.0395 29.1581Z" fill="#26447E"/>
    <path d="M33.1784 7.99048H2.65972C1.63195 7.99048 0.798828 8.71946 0.798828 9.61876V15.5885C0.798828 16.3748 1.44097 17.0488 2.32488 17.1902L16.0582 19.3884H19.78L33.5133 17.1902C34.3972 17.0488 35.0393 16.3748 35.0393 15.5885V9.61876C35.0393 8.71946 34.2061 7.99048 33.1784 7.99048Z" fill="#4172CA"/>
    <path d="M33.1786 7.99048H30.2012C31.2289 7.99048 32.0621 8.71946 32.0621 9.61876V17.4226L33.5135 17.1902C34.3974 17.0488 35.0395 16.3748 35.0395 15.5885V9.61876C35.0395 8.71946 34.2063 7.99048 33.1786 7.99048Z" fill="#3A67C1"/>
    <path d="M19.7799 21.8309V19.3885H16.0581V21.8309C16.0581 22.2805 16.4747 22.645 16.9885 22.645H18.8494C19.3633 22.645 19.7799 22.2806 19.7799 21.8309Z" fill="#FFE07D"/>
    <path d="M21.082 6.03655V7.99052H27.409V6.03655C27.409 5.67683 27.0758 5.38525 26.6647 5.38525H21.8264C21.4153 5.38525 21.082 5.67683 21.082 6.03655Z" fill="#FFE07D"/>
</svg>
