<svg width="71" height="70" viewBox="0 0 71 70" fill="none" xmlns="http://www.w3.org/2000/svg">
    <g clip-path="url(#clip0_535_1799)">
        <path d="M61.3506 41.9341C64.6836 38.9623 66.274 35.0173 70.5 35.0173C66.2764 35.0173 64.6827 31.056 61.3464 28.0808L54.4296 16.0792C53.5236 11.7056 50.9014 8.35241 53.0141 4.69716C50.8986 8.35664 46.6788 7.74908 42.4308 9.1519H28.579C24.3381 7.75049 20.124 8.33971 18.0141 4.68164C20.1254 8.34394 17.4933 11.6972 16.5859 16.0764L9.64939 28.0667C6.31635 31.0385 4.72597 34.9835 0.5 34.9835C4.72357 34.9835 6.31734 38.9448 9.65363 41.9199L16.5704 53.9216C17.4764 58.2952 20.0986 61.6484 17.9859 65.3036C20.1014 61.6441 24.3212 62.2517 28.5692 60.8489H42.421C46.6619 62.2503 50.876 61.6611 52.9859 65.3191C50.8746 61.6568 53.5067 58.3036 54.4141 53.9244L61.3506 41.9341Z" fill="#F6A1FF"/>
        <path d="M57.5205 40.9068C60.3598 38.3754 61.7146 35.015 65.3144 35.015C61.7166 35.015 60.3589 31.6406 57.517 29.1062L51.625 18.8828C50.8532 15.1573 48.6195 12.3008 50.4192 9.18709C48.6171 12.3044 45.0226 11.7868 41.404 12.9818H29.6045C25.9919 11.788 22.4021 12.29 20.6049 9.17383C22.4033 12.2935 20.1613 15.1499 19.3882 18.8803L13.4794 29.094C10.6402 31.6255 9.28533 34.986 5.68555 34.986C9.28335 34.986 10.641 38.3604 13.4829 40.8948L19.3749 51.1182C20.1468 54.8437 22.3804 57.7002 20.5807 60.8139C22.3828 57.6967 25.9774 58.2142 29.5959 57.0193H41.3954C45.008 58.2131 48.5978 57.7111 50.3949 60.8272C48.5965 57.7075 50.8385 54.8511 51.6116 51.1208L57.5205 40.9068Z" fill="#F6BBFF"/>
        <path d="M25.3497 52.579C25.7299 63.2295 35.4997 63.3573 35.4997 70C35.4997 63.362 45.2702 63.2227 45.6497 52.579C55.0571 57.5756 60.0584 49.1785 65.81 52.5C60.0606 49.1791 64.8282 40.6478 55.7969 35C64.8287 29.3537 60.0598 20.8219 65.81 17.5C60.0611 20.8206 55.0605 12.4251 45.6497 17.421C45.2695 6.77052 35.4997 6.64266 35.4997 0C35.4997 6.638 25.7292 6.7773 25.3497 17.421C15.9424 12.4244 10.941 20.8215 5.18945 17.5C10.9389 20.8209 6.17129 29.3522 15.2026 35C6.17072 40.6463 10.9396 49.1781 5.18945 52.5C10.9383 49.1794 15.939 57.5749 25.3497 52.579Z" fill="#C172B2"/>
        <path d="M26.8237 50.0277C27.1487 59.1321 35.5003 59.2413 35.5003 64.9198C35.5003 59.2454 43.8526 59.1263 44.1769 50.0277C52.2187 54.299 56.4939 47.1209 61.4107 49.9601C56.4958 47.1213 60.5714 39.8284 52.8511 35.0004C60.5719 30.1737 56.4952 22.8804 61.4107 20.0407C56.4963 22.8793 52.2217 15.7026 44.1769 19.9731C43.8519 10.8688 35.5003 10.7595 35.5003 5.08105C35.5003 10.7554 27.148 10.8745 26.8237 19.9731C18.7819 15.7019 14.5066 22.8801 9.58984 20.0407C14.5048 22.8795 10.4291 30.1724 18.1495 35.0004C10.4287 39.8272 14.5054 47.1204 9.58984 49.9601C14.5042 47.1216 18.7789 54.2983 26.8237 50.0277Z" fill="#D690CC"/>
        <path d="M29.8553 46.8952C26.4782 46.8952 23.2239 44.5826 21.5204 41.7438L20.3387 39.7742C20.0181 39.2394 20.1914 38.5459 20.726 38.225C21.261 37.9045 21.9542 38.0776 22.2751 38.6122L23.4568 40.5818C27.0624 46.5914 34.5527 45.212 33.8367 40.917C33.5923 39.451 32.3362 38.3869 30.8499 38.3869H28.7263C27.5391 38.3869 27.1598 36.7788 28.2213 36.248L31.8626 34.4275C34.3738 33.172 33.4873 29.3547 30.6653 29.3547H23.0811C22.4576 29.3547 21.9521 28.8492 21.9521 28.2257C21.9521 27.6022 22.4576 27.0967 23.0811 27.0967H30.6651C32.6953 27.0967 34.4941 28.3146 35.2479 30.1994C36.1469 32.447 35.2946 35.236 32.7839 36.4914C37.9925 38.5264 37.2 46.8952 29.8553 46.8952Z" fill="#895982"/>
        <path d="M44.9343 47.4194H43.8827C40.1919 47.4194 38.3768 42.9466 40.9599 40.3634L41.4765 39.8469C41.9175 39.4061 42.6322 39.4061 43.0732 39.8469C43.5141 40.2879 43.5141 41.0026 43.0732 41.4436L42.5567 41.9601C41.9268 42.59 41.8283 43.5851 42.3224 44.3263C42.9676 45.2937 43.8854 45.1614 44.9343 45.1614C45.6491 45.1614 46.2918 44.7642 46.6116 44.1246C48.0944 41.1586 48.242 37.8653 46.7105 34.291C45.889 32.3738 43.2389 32.2005 42.1697 33.9827C40.5396 36.6995 37.5589 38.3872 34.3908 38.3872H30.9845C30.361 38.3872 29.8555 37.8816 29.8555 37.2581C29.8555 36.6346 30.361 36.1291 30.9845 36.1291H34.3908C36.7704 36.1291 39.0091 34.8616 40.2333 32.8212C42.2412 29.474 47.2352 29.7821 48.7859 33.4016C50.5797 37.5885 50.4116 41.5736 48.6311 45.1345C47.9263 46.544 46.5098 47.4194 44.9343 47.4194Z" fill="#895982"/>
        <path d="M35.7462 26.9322L31.4081 23.4617C30.9213 23.0722 30.8423 22.3616 31.2318 21.8747C31.6214 21.388 32.3319 21.3092 32.8188 21.6985L37.1568 25.169C38.9182 26.5783 41.5485 26.0666 42.6356 24.0594L43.3788 22.6875C43.6757 22.1391 44.3612 21.9354 44.9093 22.2325C45.4576 22.5294 45.6612 23.2148 45.3643 23.763L44.6211 25.135C42.8597 28.3866 38.5993 29.2144 35.7462 26.9322Z" fill="#895982"/>
        <path d="M38.8879 22.5803H37.7589C37.1354 22.5803 36.6299 22.0748 36.6299 21.4513C36.6299 20.8278 37.1354 20.3223 37.7589 20.3223H38.8879C39.5115 20.3223 40.017 20.8278 40.017 21.4513C40.017 22.0748 39.5115 22.5803 38.8879 22.5803Z" fill="#895982"/>
    </g>
    <defs>
        <clipPath id="clip0_535_1799">
            <rect width="70" height="70" fill="white" transform="translate(0.5)"/>
        </clipPath>
    </defs>
</svg>
