<svg width="71" height="70" viewBox="0 0 71 70" fill="none" xmlns="http://www.w3.org/2000/svg">
    <g clip-path="url(#clip0_535_1841)">
        <path fill-rule="evenodd" clip-rule="evenodd" d="M55.3676 63.9279V68.3994C55.3676 69.2777 56.0881 70.0004 56.9726 70.0004H64.3057C65.1863 70.0004 65.9108 69.2777 65.9108 68.3994V63.9279L60.3709 60.9336L55.3676 63.9279Z" fill="#AA6A51"/>
        <path fill-rule="evenodd" clip-rule="evenodd" d="M61.4919 61.9316V68.555C61.4919 69.1898 61.1157 69.7407 60.5793 70.0002H64.3059C65.1865 70.0002 65.911 69.2775 65.911 68.3993V63.9277L61.4919 61.9316Z" fill="#935B44"/>
        <path fill-rule="evenodd" clip-rule="evenodd" d="M15.6323 68.3995V63.928L9.82028 59.9355L5.08899 63.928V68.3995C5.08899 69.2778 5.8095 70.0005 6.69407 70.0005H14.0271C14.9079 70.0005 15.6323 69.2778 15.6323 68.3995Z" fill="#AA6A51"/>
        <path fill-rule="evenodd" clip-rule="evenodd" d="M15.6323 68.3989V64.0871L11.2133 61.0928V68.5546C11.2133 69.1894 10.837 69.7404 10.3007 69.9999H14.0272C14.9078 69.9999 15.6323 69.2772 15.6323 68.3989Z" fill="#935B44"/>
        <path fill-rule="evenodd" clip-rule="evenodd" d="M35.4979 63.9275H55.3676H65.9108C65.9108 63.9275 65.9027 29.4451 65.9027 29.3374L36.468 25.8398L5.09716 29.3374C5.0932 29.4451 5.0932 29.569 5.0932 29.7127L5.08923 63.9275H15.6324" fill="#FEC165"/>
        <path fill-rule="evenodd" clip-rule="evenodd" d="M61.1436 29.7132L61.1476 63.928H61.4919H65.9109L65.9028 29.7132V29.3379H61.1395C61.1436 29.4456 61.1436 29.5695 61.1436 29.7132Z" fill="#FDB441"/>
        <path fill-rule="evenodd" clip-rule="evenodd" d="M5.09717 29.3375H65.9028C65.8948 28.6349 65.8468 28.5271 65.5787 27.9682L59.7387 16.9531C59.0502 15.9271 58.1937 15.8832 57.5093 15.8672H35.4979H13.4869C12.8025 15.8832 11.9499 15.9271 11.2574 16.9531L5.4175 27.9682C5.14912 28.5271 5.10113 28.6349 5.09717 29.3375Z" fill="#FED2A4"/>
        <path fill-rule="evenodd" clip-rule="evenodd" d="M33.3526 35.5181C27.1283 36.628 22.9815 42.5647 24.0982 48.7728C25.211 54.981 31.159 59.1131 37.3873 58.0033C43.6115 56.8934 47.7544 50.9566 46.6376 44.7485C45.5249 38.5404 39.5768 34.4082 33.3526 35.5181Z" fill="#99E6FC"/>
        <path fill-rule="evenodd" clip-rule="evenodd" d="M32.4799 44.3653C33.5206 44.7844 33.5447 46.1099 32.0917 46.5411C30.8348 46.9164 29.5939 47.7668 29.1257 49.1283C28.3452 51.384 31.2111 52.6935 30.6388 57.161C27.3285 55.6599 24.7868 52.6136 24.0983 48.7731C23.602 46.0103 24.1463 43.3035 25.4512 41.0517C27.7888 40.5168 28.9776 41.9421 29.7982 43.0241C30.3146 43.7027 30.4506 43.8705 31.0671 44.0381C31.4712 44.1497 32.1238 44.2214 32.4799 44.3653Z" fill="#6FD7A3"/>
        <path fill-rule="evenodd" clip-rule="evenodd" d="M40.7456 46.7079C40.9617 45.7578 40.4935 44.8115 39.1125 44.592C36.867 44.2406 37.0871 43.3583 37.7796 41.1904C38.2039 38.24 34.1932 39.9328 32.464 35.7128C32.7562 35.6369 33.0524 35.573 33.3527 35.5171C39.5769 34.4072 45.525 38.5394 46.6378 44.7475C46.6577 44.8394 46.6737 44.9351 46.6857 45.027C47.1461 47.9973 46.4056 50.8918 44.8205 53.2035C43.3315 55.3793 41.094 57.0402 38.3961 57.7748C38.4521 55.7667 36.0624 55.7626 37.0391 53.7145C38.26 51.1633 35.454 51.2232 35.7302 49.5424C36.0784 47.4066 40.2012 49.1194 40.7456 46.7079Z" fill="#6FD7A3"/>
        <path fill-rule="evenodd" clip-rule="evenodd" d="M37.3834 55.7709C37.8477 56.2739 38.4241 56.7771 38.3961 57.7751C41.0939 57.0405 43.3315 55.3796 44.8205 53.2038C46.4056 50.8921 47.1461 47.9977 46.6857 45.0273C46.6737 44.9354 46.6577 44.8397 46.6377 44.7479C45.677 39.3741 41.09 35.5573 35.8423 35.3457C39.3687 36.771 42.1066 39.917 42.8231 43.9254C43.6917 48.7522 41.3782 53.4154 37.3834 55.7709Z" fill="#3EC3A4"/>
        <path fill-rule="evenodd" clip-rule="evenodd" d="M37.3833 55.7715C36.3867 56.3584 35.2859 56.8055 34.1011 57.073C33.925 57.113 33.7489 57.1489 33.5687 57.1808C32.7322 57.3284 31.8996 57.3844 31.0791 57.3525C31.7516 57.624 32.4481 57.8316 33.1686 57.9713C34.5215 58.2347 35.9464 58.2588 37.3874 58.0033C37.7277 57.9434 38.0679 57.8636 38.3962 57.7758C38.424 56.7775 37.8476 56.2745 37.3833 55.7715Z" fill="#62DBFB"/>
        <path fill-rule="evenodd" clip-rule="evenodd" d="M41.4981 22.6022L49.3235 14.4777C56.8767 6.63663 45.4329 -5.27663 37.8636 2.58032L36.4707 4.02558L35.0818 2.58032C27.9848 -4.78171 17.5097 5.17141 22.3891 12.9167C22.7253 13.4516 23.1337 13.9706 23.6219 14.4777L31.4472 22.6022H41.4981Z" fill="#F07281"/>
        <path fill-rule="evenodd" clip-rule="evenodd" d="M41.4981 22.6023L49.3235 14.4778C55.4036 8.16974 49.1794 -0.781096 42.5708 0.0612285C46.0812 2.87982 47.6464 8.40135 43.5075 12.7012L34.8575 21.684L33.9689 22.6022H41.4981V22.6023Z" fill="#EB5569"/>
        <path fill-rule="evenodd" clip-rule="evenodd" d="M54.9795 16.9531L60.8194 27.9682C61.0877 28.5271 61.1317 28.6349 61.1396 29.3375H65.9029C65.8948 28.6349 65.8468 28.5271 65.5787 27.9682L59.7388 16.9531C59.0503 15.9271 58.1937 15.8832 57.5093 15.8672H52.7499C53.4344 15.8832 54.287 15.9271 54.9795 16.9531Z" fill="#FFBD86"/>
        <path d="M51.505 23.6585H21.4324C20.8489 23.6585 20.3761 23.1856 20.3761 22.6022C20.3761 22.0187 20.849 21.5459 21.4324 21.5459H51.505C52.0886 21.5459 52.5613 22.0188 52.5613 22.6022C52.5615 23.1857 52.0886 23.6585 51.505 23.6585Z" fill="#024C67"/>
    </g>
    <defs>
        <clipPath id="clip0_535_1841">
            <rect width="70" height="70" fill="white" transform="translate(0.5)"/>
        </clipPath>
    </defs>
</svg>
