<svg width="80" height="80" viewBox="0 0 80 80" fill="none" xmlns="http://www.w3.org/2000/svg">
    <g filter="url(#filter0_d_1316_4426)">
        <circle cx="39.9121" cy="36.4219" r="35.5234" fill="white"/>
    </g>
    <g clip-path="url(#clip0_1316_4426)">
        <path d="M71.9121 36.4219C71.9121 54.0952 57.5854 68.4219 39.9121 68.4219C22.2388 68.4219 7.91211 54.0952 7.91211 36.4219C7.91211 18.7485 22.2388 4.42188 39.9121 4.42188C57.5854 4.42188 71.9121 18.7485 71.9121 36.4219Z" fill="#42A4C5"/>
        <path d="M68.252 21.5566V51.2935C67.0947 53.4941 65.6895 55.5435 64.0723 57.4048V15.4453C65.6895 17.3052 67.0947 19.356 68.252 21.5566Z" fill="#90D5EC"/>
        <path d="M52.4473 6.97852V65.877C51.0996 66.4517 49.7046 66.9375 48.2676 67.3237V5.53125C49.7031 5.91797 51.0996 6.40234 52.4473 6.97852Z" fill="#90D5EC"/>
        <path d="M24.7598 8.23438V64.6196C23.2939 63.8311 21.8965 62.9312 20.5801 61.9307V10.9238C21.8965 9.92334 23.2939 9.02344 24.7598 8.23438Z" fill="#90D5EC"/>
        <path d="M30.7676 5.75V67.0986C29.3296 66.6714 27.9346 66.145 26.5879 65.5273V7.32129C27.9336 6.70361 29.3296 6.17725 30.7676 5.75Z" fill="#90D5EC"/>
        <path d="M62.1113 13.3843V59.4697C61.4424 60.1148 60.7451 60.7315 60.0215 61.3164V11.5391C60.7451 12.124 61.4424 12.7393 62.1113 13.3843Z" fill="#90D5EC"/>
        <path d="M12.3496 20.1484V52.6943C11.5542 51.3491 10.854 49.9409 10.2598 48.4795V24.3604C10.854 22.9004 11.5542 21.4922 12.3496 20.1484Z" fill="#90D5EC"/>
        <path d="M16.9199 14.1641V58.6846C16.1846 57.9258 15.4868 57.1304 14.8301 56.3022V16.5449C15.4868 15.7168 16.1846 14.9214 16.9199 14.1641Z" fill="#90D5EC"/>
        <path d="M55.8418 8.67139V64.1841C55.1602 64.5757 54.4639 64.9443 53.752 65.2852V7.57031C54.4639 7.91113 55.1602 8.2793 55.8418 8.67139Z" fill="#90D5EC"/>
        <path d="M36.9038 4.5625V68.2842C36.2002 68.2178 35.5039 68.1304 34.8145 68.019V4.82617C35.5039 4.71533 36.2002 4.62793 36.9038 4.5625Z" fill="#90D5EC"/>
        <path d="M46.3091 5.06445V67.7847C44.4062 68.1714 42.4419 68.3882 40.4316 68.4194V4.42969C42.4419 4.46143 44.4062 4.67822 46.3091 5.06445Z" fill="#90D5EC"/>
        <path d="M61.0376 45.5874C61.0376 40.1582 51.5786 35.7578 39.9102 35.7578C28.2422 35.7578 18.7832 40.1582 18.7832 45.5874C18.7832 51.0161 28.2422 55.417 39.9102 55.417C51.5786 55.417 61.0376 51.0161 61.0376 45.5874Z" fill="#142F01"/>
        <path d="M39.9082 9.86196C42.8711 6.89858 50.6235 6.80483 55.644 9.84194C58.8218 11.7643 64.6963 17.3595 62.4692 24.0119C61.6245 26.5358 61.1221 28.9982 62.4692 31.671C63.1069 32.9352 63.4951 34.4215 62.9204 35.756C58.5801 45.841 51.2397 38.5006 51.2397 38.5006L39.9082 9.86196Z" fill="#564D47"/>
        <path d="M39.9117 9.86196C36.9483 6.89858 29.1959 6.80483 24.1758 9.84194C20.9981 11.7643 15.1236 17.3595 17.3502 24.0119C18.1954 26.5358 18.6978 28.9982 17.3502 31.671C16.713 32.9352 16.3248 34.4215 16.8995 35.756C21.2398 45.841 28.5801 38.5006 28.5801 38.5006L39.9117 9.86196Z" fill="#142F01"/>
        <path d="M57.6743 63.0444C52.5918 66.4419 46.4834 68.4233 39.9097 68.4233C35.8281 68.4233 31.9253 67.6592 28.3359 66.2666C26.1455 65.4165 24.0713 64.3325 22.1465 63.0435C24.2637 60.1372 27.3589 57.9897 30.9482 57.0811C31.7827 56.8682 32.6436 56.7231 33.5264 56.6523C33.9497 56.6187 34.377 56.6016 34.8091 56.6016H45.0088C46.2036 56.6016 47.3662 56.7334 48.4829 56.9868C48.4937 56.9883 48.5054 56.9922 48.5156 56.9932C52.2563 57.8486 55.4863 60.043 57.6743 63.0444Z" fill="#E8A07E"/>
        <path d="M57.6772 63.0435C52.5952 66.4419 46.4854 68.4233 39.9116 68.4233C35.8301 68.4233 31.9272 67.6592 28.3379 66.2666C28.7559 65.2544 29.2783 64.2974 29.8921 63.4053C29.9365 63.3374 29.9849 63.272 30.0308 63.2041C30.8994 61.9814 31.939 60.8882 33.1157 59.9634C35.7827 57.8564 39.1514 56.6016 42.8125 56.6016H45.0107C45.7173 56.6016 46.4121 56.647 47.0928 56.7388C48.3203 56.9004 49.5039 57.2061 50.623 57.6387C53.4653 58.728 55.9102 60.623 57.6772 63.0435Z" fill="#F4B895"/>
        <path d="M39.9106 67.5879C34.6685 67.5879 30.4043 63.3232 30.4043 58.0815V56.4702C30.4043 55.7485 30.9888 55.1641 31.7104 55.1641C32.4316 55.1641 33.0161 55.7485 33.0161 56.4702V58.0815C33.0161 61.8828 36.1089 64.9756 39.9106 64.9756C40.605 64.9756 41.291 64.8721 41.9487 64.668C44.8545 63.77 46.8062 61.123 46.8062 58.0815V56.4702C46.8062 55.7485 47.3911 55.1641 48.1123 55.1641C48.8335 55.1641 49.4185 55.7485 49.4185 56.4702V58.0815C49.4185 62.2754 46.7271 65.9253 42.7212 67.1636C41.814 67.4448 40.8682 67.5879 39.9106 67.5879Z" fill="#935F41"/>
        <path d="M45.5005 50.5703V57.4287C45.5005 59.9399 43.8447 62.0625 41.564 62.7671C41.042 62.9292 40.4858 63.0171 39.9106 63.0171C36.8242 63.0171 34.3223 60.5156 34.3223 57.4292V50.5703H45.5005Z" fill="#E8A07E"/>
        <path d="M45.5005 56.9922V57.4263C45.5005 59.9375 43.8447 62.0601 41.564 62.7646C39.5063 62.1323 37.9595 60.3433 37.6738 58.1543C38.0474 58.1772 38.4224 58.1885 38.7998 58.1885C39.8569 58.1885 40.8936 58.105 41.9033 57.939C43.1475 57.7388 44.3496 57.4189 45.5005 56.9922Z" fill="#F4B895"/>
        <path d="M24.5806 39.3301C24.5806 41.9175 22.6904 44.0625 20.2153 44.4609C19.9448 44.5044 19.667 44.5273 19.3828 44.5273C16.5117 44.5273 14.1855 42.2012 14.1855 39.3301C14.1855 36.459 16.5117 34.1328 19.3828 34.1328C19.667 34.1328 19.9448 34.1558 20.2153 34.1997C22.6904 34.5977 24.5806 36.7427 24.5806 39.3301Z" fill="#F4B895"/>
        <path d="M24.5801 39.3262C24.5801 41.9136 22.6899 44.0586 20.2148 44.457C19.7656 42.8223 19.5254 41.1021 19.5254 39.3262C19.5254 37.5503 19.7656 35.8301 20.2148 34.1953C22.6899 34.5938 24.5801 36.7388 24.5801 39.3262Z" fill="#E8A07E"/>
        <path d="M21.2407 39.3262C21.2407 40.3521 20.4092 41.1836 19.3828 41.1836C18.3569 41.1836 17.5254 40.3521 17.5254 39.3262C17.5254 38.3003 18.3569 37.4688 19.3828 37.4688C20.4092 37.4688 21.2407 38.3003 21.2407 39.3262Z" fill="#E8A07E"/>
        <path d="M55.2402 39.3301C55.2402 41.9175 57.1299 44.0625 59.605 44.4609C59.8755 44.5044 60.1533 44.5273 60.4375 44.5273C63.3086 44.5273 65.6348 42.2012 65.6348 39.3301C65.6348 36.459 63.3086 34.1328 60.4375 34.1328C60.1533 34.1328 59.8755 34.1558 59.605 34.1997C57.1299 34.5977 55.2402 36.7427 55.2402 39.3301Z" fill="#F4B895"/>
        <path d="M55.2402 39.3262C55.2402 41.9136 57.1299 44.0586 59.605 44.457C60.0542 42.8223 60.2944 41.1021 60.2944 39.3262C60.2944 37.5503 60.0542 35.8301 59.605 34.1953C57.1299 34.5938 55.2402 36.7388 55.2402 39.3262Z" fill="#E8A07E"/>
        <path d="M59.2471 29.2051V36.5688C59.2471 46.1914 52.2173 54.1743 43.0127 55.6558C42.9819 55.6611 42.9492 55.666 42.918 55.6714C41.9395 55.8281 40.9346 55.9053 39.9092 55.9053C29.23 55.9053 20.5723 47.2476 20.5723 36.5688V29.2051C20.5723 26.9565 20.9561 24.7954 21.665 22.7876C24.3096 15.2622 31.4805 9.86719 39.9092 9.86719H39.9106C40.9346 9.86719 41.9409 9.94629 42.9214 10.1011C52.1709 11.5459 59.2471 19.5498 59.2471 29.2051Z" fill="#E8A07E"/>
        <path d="M62.2954 39.3262C62.2954 40.3521 61.4639 41.1836 60.438 41.1836C59.4121 41.1836 58.5801 40.3521 58.5801 39.3262C58.5801 38.3003 59.4121 37.4688 60.438 37.4688C61.4639 37.4688 62.2954 38.3003 62.2954 39.3262Z" fill="#E8A07E"/>
        <path d="M59.2485 29.2056V36.5693C59.2485 46.1919 52.2188 54.1748 43.0142 55.6562C42.9834 55.6616 42.9507 55.6665 42.9194 55.6719C33.6704 54.2266 26.5957 46.2231 26.5957 36.5693V29.2056C26.5957 19.5503 33.6719 11.5469 42.9229 10.1016C52.1724 11.5464 59.2485 19.5503 59.2485 29.2056Z" fill="#F4B895"/>
        <path d="M42.105 40.8848H37.7178C37.1953 40.8848 36.7715 40.4614 36.7715 39.9385C36.7715 39.416 37.1953 38.9922 37.7178 38.9922H42.105C42.6274 38.9922 43.0513 39.416 43.0513 39.9385C43.0513 40.4614 42.6274 40.8848 42.105 40.8848Z" fill="#E8A07E"/>
        <path d="M49.7495 35.5674C49.7495 37.106 48.5024 38.353 46.9634 38.353C45.4248 38.353 44.1777 37.106 44.1777 35.5674C44.1777 34.0288 45.4248 32.7812 46.9634 32.7812C48.5024 32.7812 49.7495 34.0288 49.7495 35.5674Z" fill="#3D322C"/>
        <path d="M49.3193 35.0767C49.3193 35.7358 48.7847 36.2705 48.1255 36.2705C47.4663 36.2705 46.9316 35.7358 46.9316 35.0767C46.9316 34.4175 47.4663 33.8828 48.1255 33.8828C48.7847 33.8828 49.3193 34.4175 49.3193 35.0767Z" fill="white"/>
        <path d="M35.644 35.5674C35.644 37.106 34.397 38.353 32.8584 38.353C31.3198 38.353 30.0723 37.106 30.0723 35.5674C30.0723 34.0288 31.3198 32.7812 32.8584 32.7812C34.397 32.7812 35.644 34.0288 35.644 35.5674Z" fill="#3D322C"/>
        <path d="M35.2139 35.0767C35.2139 35.7358 34.6797 36.2705 34.02 36.2705C33.3608 36.2705 32.8262 35.7358 32.8262 35.0767C32.8262 34.4175 33.3608 33.8828 34.02 33.8828C34.6797 33.8828 35.2139 34.4175 35.2139 35.0767Z" fill="white"/>
        <path d="M39.9127 46.6674C38.2936 46.6674 36.674 46.2616 35.1979 45.4501C34.7819 45.2216 34.6295 44.6981 34.8585 44.2821C35.0875 43.8656 35.611 43.7138 36.027 43.9423C38.4601 45.2802 41.3654 45.2802 43.798 43.9423C44.2145 43.7138 44.7374 43.8656 44.9664 44.2821C45.1954 44.6981 45.0431 45.2216 44.6271 45.4501C43.151 46.2616 41.5319 46.6674 39.9127 46.6674Z" fill="#E8A07E"/>
        <path d="M50.9102 40.3896C50.9102 38.1636 49.106 36.3594 46.8799 36.3594C44.6538 36.3594 42.8496 38.1636 42.8496 40.3896" fill="#F4B895"/>
        <path d="M36.9727 40.3896C36.9727 38.1636 35.1685 36.3594 32.9424 36.3594C30.7168 36.3594 28.9121 38.1636 28.9121 40.3896" fill="#F4B895"/>
        <path d="M37.243 26.4556C34.6385 30.2407 29.6555 33.2554 20.2137 34.1929C16.7825 30.7632 17.6614 21.8408 17.6614 21.8408L27.491 10.9897L35.7889 9.20312L39.9085 9.86133C39.9085 14.5801 40.8269 21.2466 37.243 26.4556Z" fill="#142F01"/>
        <path d="M37.2456 26.4614C35.3892 25.73 31.834 23.7603 31.834 19.4214C31.834 13.5493 39.9111 9.86719 39.9111 9.86719C39.9111 14.5859 40.8296 21.2524 37.2456 26.4614Z" fill="#564D47"/>
        <path d="M39.9081 9.86133C39.9081 18.0112 37.1703 31.9663 59.6029 34.1938C63.0341 30.7632 62.1542 21.8408 62.1542 21.8408L52.3246 10.9902L44.0273 9.20312L39.9081 9.86133Z" fill="#564D47"/>
        <path d="M62.4707 25.437V30.2554C62.4707 31.0391 61.835 31.6748 61.0513 31.6748H18.7705C17.9858 31.6748 17.3496 31.0391 17.3496 30.2554V25.437C17.3496 24.6519 17.9858 24.0156 18.7705 24.0156H61.0513C61.835 24.0156 62.4707 24.6519 62.4707 25.437Z" fill="#D82525"/>
        <path d="M62.4707 25.437V30.2554C62.4707 31.0391 61.835 31.6748 61.0513 31.6748H27.1963C26.4116 31.6748 25.7754 31.0391 25.7754 30.2554V25.437C25.7754 24.6519 26.4116 24.0156 27.1963 24.0156H61.0513C61.835 24.0156 62.4707 24.6519 62.4707 25.437Z" fill="#F73E3E"/>
        <path d="M41.1226 49.0488C41.1226 49.7183 40.5796 50.2612 39.9097 50.2612C39.2397 50.2612 38.6973 49.7183 38.6973 49.0488C38.6973 48.3789 39.2397 47.8359 39.9097 47.8359C40.5796 47.8359 41.1226 48.3789 41.1226 49.0488Z" fill="#935F41"/>
        <path d="M63.2964 43.8013C63.2964 44.7534 62.5249 45.5249 61.5732 45.5249C60.6211 45.5249 59.8496 44.7534 59.8496 43.8013C59.8496 42.8496 60.6211 42.0781 61.5732 42.0781C62.5249 42.0781 63.2964 42.8496 63.2964 43.8013Z" fill="#935F41"/>
        <path d="M19.9722 43.8013C19.9722 44.7534 19.2007 45.5249 18.249 45.5249C17.2969 45.5249 16.5254 44.7534 16.5254 43.8013C16.5254 42.8496 17.2969 42.0781 18.249 42.0781C19.2007 42.0781 19.9722 42.8496 19.9722 43.8013Z" fill="#935F41"/>
    </g>
    <defs>
        <filter id="filter0_d_1316_4426" x="0.388672" y="0.898438" width="79.0469" height="79.0469" filterUnits="userSpaceOnUse" color-interpolation-filters="sRGB">
            <feFlood flood-opacity="0" result="BackgroundImageFix"/>
            <feColorMatrix in="SourceAlpha" type="matrix" values="0 0 0 0 0 0 0 0 0 0 0 0 0 0 0 0 0 0 127 0" result="hardAlpha"/>
            <feOffset dy="4"/>
            <feGaussianBlur stdDeviation="2"/>
            <feComposite in2="hardAlpha" operator="out"/>
            <feColorMatrix type="matrix" values="0 0 0 0 0 0 0 0 0 0 0 0 0 0 0 0 0 0 0.25 0"/>
            <feBlend mode="normal" in2="BackgroundImageFix" result="effect1_dropShadow_1316_4426"/>
            <feBlend mode="normal" in="SourceGraphic" in2="effect1_dropShadow_1316_4426" result="shape"/>
        </filter>
        <clipPath id="clip0_1316_4426">
            <rect width="64" height="64" fill="white" transform="translate(7.91211 4.42188)"/>
        </clipPath>
    </defs>
</svg>
