<svg width="65" height="64" viewBox="0 0 65 64" fill="none" xmlns="http://www.w3.org/2000/svg">
    <g clip-path="url(#clip0_2381_6290)">
        <path d="M32.488 63.976C50.1545 63.976 64.476 49.6545 64.476 31.988C64.476 14.3215 50.1545 0 32.488 0C14.8215 0 0.5 14.3215 0.5 31.988C0.5 49.6545 14.8215 63.976 32.488 63.976Z" fill="#D9FFD5"/>
        <path d="M25.4648 28.3022H39.5187M25.4648 35.6744H35.4874M32.4918 48.1172C35.9954 48.1164 39.4036 46.9748 42.2008 44.8649C44.998 42.7551 47.0321 39.7917 47.9955 36.4231C48.9589 33.0544 48.7991 29.4637 47.5404 26.1939C46.2817 22.9241 43.9925 20.1531 41.0189 18.3C38.0454 16.4469 34.5493 15.6124 31.0594 15.9228C27.5695 16.2332 24.2756 17.6716 21.6758 20.0204C19.076 22.3692 17.3117 25.5007 16.6498 28.9413C15.9879 32.3819 16.4644 35.9445 18.0071 39.0902C18.1955 39.4738 18.2582 39.9063 18.1623 40.3212L16.7395 46.4868C16.6994 46.6599 16.704 46.8403 16.7529 47.011C16.8017 47.1818 16.8933 47.3373 17.0189 47.4629C17.1445 47.5885 17.3 47.68 17.4707 47.7289C17.6415 47.7778 17.8219 47.7824 17.9949 47.7423L24.1588 46.3177C24.5749 46.2266 25.0098 46.282 25.3898 46.4746C27.5997 47.5599 30.0298 48.1219 32.4918 48.1172Z" stroke="#10B100" stroke-width="2.6155" stroke-linecap="round" stroke-linejoin="round"/>
    </g>
    <rect x="35.2734" y="36.3398" width="16.7616" height="16.7616" rx="8.38079" fill="#10B100"/>
    <path d="M47.1103 42.2554C47.2375 42.1237 47.3079 41.9473 47.3063 41.7642C47.3047 41.5811 47.2313 41.4059 47.1018 41.2764C46.9723 41.1469 46.7971 41.0735 46.614 41.0719C46.4309 41.0703 46.2545 41.1407 46.1227 41.2679L43.6532 43.7374L41.1837 41.2679C41.1192 41.2012 41.0422 41.148 40.957 41.1114C40.8718 41.0748 40.7801 41.0555 40.6874 41.0547C40.5946 41.0539 40.5027 41.0716 40.4168 41.1067C40.331 41.1418 40.253 41.1937 40.1875 41.2592C40.1219 41.3248 40.07 41.4028 40.0349 41.4886C39.9998 41.5745 39.9821 41.6664 39.9829 41.7592C39.9837 41.8519 40.003 41.9435 40.0396 42.0287C40.0762 42.1139 40.1294 42.191 40.1961 42.2554L42.6657 44.725L40.1961 47.1945C40.1294 47.2589 40.0762 47.336 40.0396 47.4212C40.003 47.5064 39.9837 47.5981 39.9829 47.6908C39.9821 47.7835 39.9998 47.8755 40.0349 47.9613C40.07 48.0472 40.1219 48.1251 40.1875 48.1907C40.253 48.2563 40.331 48.3081 40.4168 48.3433C40.5027 48.3784 40.5946 48.396 40.6874 48.3952C40.7801 48.3944 40.8718 48.3752 40.957 48.3386C41.0422 48.302 41.1192 48.2488 41.1837 48.1821L43.6532 45.7125L46.1227 48.1821C46.1872 48.2488 46.2642 48.302 46.3494 48.3386C46.4346 48.3752 46.5263 48.3944 46.619 48.3952C46.7118 48.396 46.8037 48.3784 46.8895 48.3433C46.9754 48.3081 47.0534 48.2563 47.1189 48.1907C47.1845 48.1251 47.2364 48.0472 47.2715 47.9613C47.3066 47.8755 47.3243 47.7835 47.3235 47.6908C47.3227 47.5981 47.3034 47.5064 47.2668 47.4212C47.2302 47.336 47.177 47.2589 47.1103 47.1945L44.6407 44.725L47.1103 42.2554Z" fill="white"/>
    <defs>
        <clipPath id="clip0_2381_6290">
            <rect width="64" height="64" fill="white" transform="translate(0.5)"/>
        </clipPath>
    </defs>
</svg>
