<svg width="80" height="80" viewBox="0 0 80 80" fill="none" xmlns="http://www.w3.org/2000/svg">
    <g filter="url(#filter0_d_1316_4209)">
        <circle cx="39.9121" cy="36.4219" r="35.5234" fill="white"/>
    </g>
    <g clip-path="url(#clip0_1316_4209)">
        <path d="M71.9121 36.4219C71.9121 43.0137 69.9189 49.1396 66.5034 54.2295C66.5034 54.231 66.502 54.231 66.502 54.231C64.0283 57.9165 60.8101 61.0591 57.0601 63.4429C52.1035 66.5957 46.2222 68.4219 39.9121 68.4219C33.6021 68.4219 27.7192 66.5957 22.7627 63.4429C19.0127 61.0581 15.7944 57.9165 13.3208 54.2295L13.3193 54.228C9.90381 49.1382 7.91211 43.0127 7.91211 36.4219C7.91211 35.6562 7.93945 34.8975 7.9917 34.1455C9.15967 17.5342 23.0044 4.42188 39.9121 4.42188C56.8198 4.42188 70.6646 17.5342 71.8325 34.1455C71.8848 34.8975 71.9121 35.6562 71.9121 36.4219Z" fill="#9CB716"/>
        <path d="M71.9121 36.4248C71.9121 41.7915 70.5903 46.8516 68.2549 51.2939C67.0977 53.4946 65.6924 55.5449 64.0752 57.4053C63.4521 58.1206 62.7993 58.8091 62.1162 59.4673C61.4473 60.1128 60.75 60.728 60.0264 61.313C58.7148 62.375 57.3174 63.335 55.8467 64.1812C55.165 64.5732 54.4688 64.9414 53.7568 65.2822C53.3271 65.4897 52.8911 65.687 52.4507 65.874C51.103 66.4497 49.7065 66.9346 48.2715 67.3213C47.626 67.4961 46.9731 67.6504 46.312 67.7847C44.4092 68.1714 42.4448 68.3882 40.4346 68.4194C40.2607 68.4233 40.0869 68.4248 39.9121 68.4248C38.8984 68.4248 37.897 68.3779 36.9082 68.2852C36.2041 68.2197 35.5078 68.1323 34.8184 68.021C33.4365 67.8003 32.0845 67.4907 30.769 67.0991C29.3311 66.6719 27.9351 66.1455 26.5898 65.5278C25.9692 65.2446 25.3594 64.9399 24.7612 64.6177C23.2954 63.8286 21.8979 62.9287 20.5815 61.9282C19.2808 60.9409 18.0581 59.8564 16.9243 58.6851C16.189 57.9277 15.4917 57.1318 14.8345 56.3042C13.9282 55.1626 13.0986 53.958 12.353 52.6978C11.5576 51.354 10.8574 49.9458 10.2632 48.4854C8.74658 44.7632 7.91211 40.6904 7.91211 36.4248C7.91211 35.6592 7.93945 34.9004 7.9917 34.1484H71.8325C71.8848 34.9004 71.9121 35.6592 71.9121 36.4248Z" fill="#9CB716"/>
        <path d="M66.5024 54.229C66.5024 54.2305 66.501 54.2305 66.501 54.2305C64.0273 57.916 60.8091 61.0586 57.0591 63.4424C48.6006 57.7061 43.2324 47.6514 41.5332 44.1289C42.0337 42.8696 42.3574 41.04 42.3838 38.9878H42.3848C44.9736 38.7422 49.2305 38.4629 53.4282 38.1875L53.4375 38.353C59.563 37.9507 63.5532 39.9351 65.6206 41.4004C66.7114 42.1748 67.3564 43.4302 67.3687 44.7651C67.4077 48.5566 67.063 51.6743 66.5024 54.229Z" fill="#D82525"/>
        <path d="M68.019 11.7673C70.2227 11.7951 71.7427 13.9914 70.9785 16.0588C69.6274 19.716 68.0576 25.7526 68.7974 32.8254C69.0459 35.197 67.3472 37.3293 64.9805 37.6198C62.8745 37.8786 58.187 38.1887 53.4268 38.5007C49.2285 38.7766 44.9722 39.0559 42.3838 39.301H42.3823C42.3838 39.2107 42.3838 39.1193 42.3838 39.028C42.3838 37.5217 42.2241 36.1262 41.9512 34.9719C43.7222 30.2522 51.7627 11.5627 68.019 11.7673Z" fill="#D82525"/>
        <path d="M38.289 44.1274C37.6933 45.3633 36.6459 47.4033 35.1728 49.7778C35.1728 49.7778 35.1713 49.7803 35.1674 49.7842C32.4404 54.1782 28.2529 59.7188 22.7631 63.4424C19.0131 61.0576 15.7949 57.916 13.3212 54.229L13.3198 54.2275C12.7607 51.6729 12.4159 48.5566 12.454 44.7651C12.4643 43.7163 12.8652 42.7158 13.5654 41.9604C13.7563 41.7544 13.9692 41.5664 14.2031 41.4004C15.7753 40.2861 18.4618 38.8706 22.3569 38.4355C22.8115 38.3843 23.2817 38.3467 23.769 38.3242C24.1044 38.3086 24.4467 38.3008 24.7983 38.3008H24.7992C25.3115 38.3008 25.8393 38.3179 26.3852 38.353L26.394 38.1875C27.434 38.2554 28.4775 38.3242 29.499 38.3921C32.2836 38.5776 34.8998 38.7617 36.8144 38.9307C37.0312 38.9502 37.2402 38.9697 37.4389 38.9878H37.4399C37.4467 39.4883 37.4701 39.9766 37.5107 40.4453C37.5615 41.0332 37.6371 41.5938 37.7353 42.1147C37.8764 42.8804 38.0644 43.5605 38.289 44.1274Z" fill="#D82525"/>
        <path d="M37.4385 39.0271C37.4385 39.1184 37.4385 39.2102 37.4394 39.3H37.4385C34.8481 39.0559 30.5918 38.7766 26.3935 38.4992C26.207 38.4875 26.02 38.4748 25.8349 38.4631C25.7251 38.4563 25.6152 38.4484 25.5068 38.4421C24.9219 38.403 24.3403 38.3649 23.7685 38.3269C19.9834 38.0749 16.5561 37.8293 14.8398 37.6193C12.4731 37.3293 10.7763 35.1965 11.0244 32.8244C11.7637 25.7517 10.1953 19.716 8.84227 16.0588C8.07908 13.9914 9.59715 11.7946 11.8032 11.7673C19.0967 11.6755 24.7348 15.3864 28.8965 19.9318L28.8989 19.9343C30.3081 21.4743 31.5488 23.1106 32.6264 24.7277C35.458 28.9777 37.164 33.091 37.8706 34.9743C37.6001 36.1184 37.4409 37.5002 37.4385 38.9904V39.0271Z" fill="#D82525"/>
        <path d="M37.4384 39.0252C37.4384 39.1165 37.4384 39.2083 37.4394 39.2982H37.4384C34.8481 39.054 30.5918 38.7747 26.3935 38.4974C26.207 38.4857 26.02 38.473 25.8349 38.4613C25.4521 38.3841 25.1035 38.3289 24.7988 38.3016C21.0698 37.9647 20.8559 34.3587 21.8769 31.2943C22.8984 28.2313 18.813 26.826 19.3237 22.4857C19.8344 18.1458 27.9624 18.95 32.624 24.7259H32.6264C35.458 28.9759 37.164 33.0892 37.8706 34.9725C37.5976 36.1258 37.4384 37.5208 37.4384 39.0252Z" fill="#F73E3E"/>
        <path d="M36.5845 35.1157C31.6343 26.0967 25.0684 25.5547 25.0684 25.5547C25.0684 25.5547 32.7749 30.1558 34.9688 37.3965" fill="#D82525"/>
        <path d="M38.5122 37.2937C30.6035 30.7141 24.2949 32.614 24.2949 32.614C24.2949 32.614 33.1509 34.073 37.8442 40.0076" fill="#D82525"/>
        <path d="M42.3838 39.0252C42.3838 39.1165 42.3838 39.2083 42.3823 39.2982H42.3838C44.9736 39.054 49.2305 38.7747 53.4282 38.4974C53.6147 38.4857 53.8018 38.473 53.9873 38.4613C54.3701 38.3841 54.7188 38.3289 55.0229 38.3016C58.752 37.9647 58.9663 34.3587 57.9448 31.2943C56.9233 28.2313 61.0088 26.826 60.498 22.4857C59.9873 18.1458 51.8594 18.95 47.1978 24.7259H47.1953C44.3638 28.9759 42.6577 33.0892 41.9512 34.9725C42.2241 36.1258 42.3838 37.5208 42.3838 39.0252Z" fill="#F73E3E"/>
        <path d="M43.2363 35.1157C48.1865 26.0967 54.752 25.5547 54.752 25.5547C54.752 25.5547 47.0459 30.1558 44.8516 37.3965" fill="#D82525"/>
        <path d="M41.3066 37.2937C49.2158 30.7141 55.5239 32.614 55.5239 32.614C55.5239 32.614 46.668 34.073 41.9751 40.0076" fill="#D82525"/>
        <path d="M42.085 42.1211C42.0996 42.8838 42.2681 43.7251 42.6572 44.6382C44.8609 49.8052 55.3892 56.0654 57.5601 50.1929C59.5127 44.9072 56.1914 40.9653 50.3218 38.3984C47.5371 38.584 44.9209 38.7681 43.0059 38.937C42.7237 39.3794 42.4756 39.8853 42.3101 40.4517C42.1582 40.96 42.0737 41.5166 42.085 42.1211Z" fill="#F73E3E"/>
        <path d="M44.1313 38.2344C53.4878 42.5122 54.5083 49.021 54.5083 49.021C54.5083 49.021 49.3564 41.6714 41.9746 40.0127" fill="#D82525"/>
        <path d="M56.8027 38.2775C60.2861 38.0422 63.3789 37.8151 64.9805 37.6193C67.3472 37.3293 69.0435 35.1965 68.7954 32.8244C68.0562 25.7517 69.625 19.716 70.978 16.0588C71.7407 13.9914 70.2231 11.7946 68.0171 11.7673C60.7236 11.6755 55.085 15.3864 50.9238 19.9318C56.7114 15.7639 65.645 11.9357 65.9858 16.0197C66.3257 20.1052 62.4961 25.8928 63.6875 29.9773C64.7427 33.5949 60.9482 37.3903 56.8027 38.2775Z" fill="#142F01"/>
        <path d="M66.5005 54.2324C64.0269 57.918 60.8086 61.0605 57.0586 63.4443C51.5693 59.7207 47.3818 54.1802 44.6543 49.7861C44.895 50.0396 52.5854 58.1675 55.3491 59.5078C58.1572 60.8701 60.1152 60.2744 60.6675 56.146C61.2212 52.0186 63.2642 53.5503 63.8599 47.5933C64.4277 41.9141 61.8691 39.584 57.4648 38.4375C61.3599 38.8726 64.0464 40.2881 65.6191 41.4023C65.853 41.5684 66.0659 41.7563 66.2563 41.9624C66.9565 42.7178 67.3574 43.7183 67.3682 44.7671C67.4058 48.5601 67.061 51.6777 66.5005 54.2324Z" fill="#142F01"/>
        <path d="M37.7332 42.1211C37.7185 42.8838 37.5501 43.7251 37.1609 44.6382C34.9578 49.8052 24.429 56.0654 22.2581 50.1929C20.3055 44.9072 23.6272 40.9653 29.4969 38.3984C32.2815 38.584 34.8977 38.7681 36.8123 38.937C37.0945 39.3794 37.3426 39.8853 37.5086 40.4517C37.66 40.96 37.7449 41.5166 37.7332 42.1211Z" fill="#F73E3E"/>
        <path d="M35.688 38.2344C26.3311 42.5122 25.3105 49.021 25.3105 49.021C25.3105 49.021 30.4624 41.6714 37.8442 40.0127" fill="#D82525"/>
        <path d="M46.9229 38.9526C46.9229 44.1133 44.6216 48.4365 41.5298 49.5742C41.0103 49.7661 40.4692 49.8667 39.9116 49.8667C36.0391 49.8667 32.9004 44.9805 32.9004 38.9526C32.9004 32.9263 36.0391 28.0391 39.9116 28.0391C40.4692 28.0391 41.0103 28.1396 41.5298 28.3315C44.6216 29.4692 46.9229 33.7935 46.9229 38.9526Z" fill="#FF931F"/>
        <path d="M46.9209 38.9492C46.9209 44.1099 44.6196 48.4331 41.5278 49.5708C38.4351 48.4331 36.1348 44.1099 36.1348 38.9492C36.1348 33.79 38.4351 29.4658 41.5278 28.3281C44.6196 29.4658 46.9209 33.79 46.9209 38.9492Z" fill="#FFC729"/>
        <path d="M38.5674 25.2728C38.0821 25.2728 37.6783 24.8915 37.6548 24.4022C37.6534 24.3685 37.5235 22.139 36.1558 19.5609C34.3321 16.1224 31.2715 13.7069 27.0596 12.3803C26.5782 12.2284 26.3106 11.7152 26.4625 11.2333C26.6143 10.7518 27.128 10.4847 27.6089 10.6361C33.4898 12.4882 36.4048 16.0907 37.8145 18.7865C39.3482 21.7196 39.4771 24.2128 39.4815 24.3178C39.5045 24.8221 39.1138 25.2494 38.6094 25.2723C38.5953 25.2728 38.5811 25.2728 38.5674 25.2728Z" fill="#142F01"/>
        <path d="M41.2529 25.2723C41.2383 25.2723 41.2236 25.2718 41.2085 25.2714C40.7056 25.2469 40.3159 24.8217 40.3389 24.3177C40.3437 24.2133 40.4722 21.7196 42.0058 18.7865C43.4155 16.0907 46.3301 12.4886 52.2114 10.6361C52.6933 10.4847 53.2065 10.7518 53.3579 11.2338C53.5098 11.7152 53.2422 12.2289 52.7607 12.3802C48.5488 13.7069 45.4883 16.1229 43.6645 19.5609C42.2934 22.1464 42.1665 24.3802 42.1655 24.4027C42.1411 24.8915 41.7368 25.2723 41.2529 25.2723Z" fill="#142F01"/>
        <path d="M44.5054 26.4868C44.5054 28.6064 43.0713 30.3906 41.1201 30.9209C40.7349 31.0254 40.3301 31.0815 39.9106 31.0815C37.3716 31.0815 35.3145 29.0244 35.3145 26.4868C35.3145 23.9487 37.3716 21.8906 39.9106 21.8906C40.3301 21.8906 40.7349 21.9468 41.1201 22.0522C43.0713 22.5825 44.5054 24.3667 44.5054 26.4868Z" fill="#FF931F"/>
        <path d="M44.5059 26.4893C44.5059 28.6089 43.0718 30.3931 41.1206 30.9233C39.168 30.3931 37.7324 28.6089 37.7324 26.4893C37.7324 24.3691 39.168 22.584 41.1206 22.0547C43.0718 22.585 44.5059 24.3691 44.5059 26.4893Z" fill="#FFC729"/>
        <path d="M38.0386 24.915C38.0386 25.9727 37.1816 26.8301 36.124 26.8301C35.0664 26.8301 34.209 25.9727 34.209 24.915C34.209 23.8574 35.0664 23 36.124 23C37.1816 23 38.0386 23.8574 38.0386 24.915Z" fill="#142F01"/>
        <path d="M37.3315 24.3345C37.3315 24.666 37.0625 24.9346 36.7314 24.9346C36.3999 24.9346 36.1309 24.666 36.1309 24.3345C36.1309 24.0029 36.3999 23.7344 36.7314 23.7344C37.0625 23.7344 37.3315 24.0029 37.3315 24.3345Z" fill="white"/>
        <path d="M45.6128 24.915C45.6128 25.9727 44.7559 26.8301 43.6982 26.8301C42.6406 26.8301 41.7832 25.9727 41.7832 24.915C41.7832 23.8574 42.6406 23 43.6982 23C44.7559 23 45.6128 23.8574 45.6128 24.915Z" fill="#142F01"/>
        <path d="M44.9092 24.3345C44.9092 24.666 44.6406 24.9346 44.3091 24.9346C43.9775 24.9346 43.709 24.666 43.709 24.3345C43.709 24.0029 43.9775 23.7344 44.3091 23.7344C44.6406 23.7344 44.9092 24.0029 44.9092 24.3345Z" fill="white"/>
        <path d="M35.8769 39.6038C35.7988 39.6038 35.7192 39.5896 35.6416 39.5598L34.1723 38.9919C33.3203 38.6624 32.6987 37.9324 32.5097 37.0383C32.3213 36.1448 32.5937 35.2258 33.2397 34.5798L34.644 33.1755C34.8989 32.9207 35.3125 32.9207 35.5674 33.1755C35.8227 33.4309 35.8227 33.844 35.5674 34.0994L34.1636 35.5032C33.8261 35.8406 33.6889 36.3015 33.7881 36.7683C33.8867 37.2351 34.1982 37.6013 34.643 37.7737L36.1123 38.3416C36.4487 38.4714 36.6162 38.8499 36.4863 39.1858C36.3862 39.4451 36.1391 39.6038 35.8769 39.6038Z" fill="#142F01"/>
        <path d="M35.2756 42.9006C35.1969 42.9006 35.1174 42.8865 35.0402 42.8562L33.571 42.2883C32.7189 41.9592 32.0973 41.2292 31.9084 40.3357C31.7194 39.4417 31.9924 38.5227 32.6384 37.8767L34.0422 36.4724C34.297 36.2175 34.7111 36.2175 34.966 36.4724C35.2209 36.7278 35.2209 37.1409 34.966 37.3962L33.5617 38.8C33.2243 39.1375 33.0876 39.5989 33.1862 40.0652C33.2848 40.532 33.5968 40.8982 34.0417 41.0701L35.5109 41.6384C35.8473 41.7683 36.0148 42.1467 35.8844 42.4827C35.7848 42.7419 35.5373 42.9006 35.2756 42.9006Z" fill="#142F01"/>
        <path d="M43.9444 39.6038C43.6822 39.6038 43.4351 39.4451 43.335 39.1858C43.2051 38.8494 43.3726 38.4714 43.7085 38.3416L45.1778 37.7737C45.6231 37.6013 45.9346 37.2351 46.0333 36.7683C46.1319 36.302 45.9952 35.8406 45.6578 35.5032L44.254 34.0994C43.9986 33.844 43.9986 33.4304 44.254 33.1755C44.5084 32.9207 44.9224 32.9207 45.1773 33.1755L46.5811 34.5798C47.2271 35.2258 47.5001 36.1448 47.3111 37.0383C47.1226 37.9324 46.501 38.6624 45.649 38.9919L44.1797 39.5598C44.1021 39.5896 44.0225 39.6038 43.9444 39.6038Z" fill="#142F01"/>
        <path d="M44.5459 42.9006C44.2842 42.9006 44.0367 42.7419 43.9366 42.4827C43.8067 42.1462 43.9742 41.7683 44.3106 41.6384L45.7798 41.0701C46.2247 40.8982 46.5362 40.532 46.6348 40.0652C46.7339 39.5989 46.5967 39.1375 46.2593 38.8L44.8555 37.3958C44.6006 37.1409 44.6006 36.7273 44.8555 36.4724C45.1104 36.2175 45.524 36.2175 45.7789 36.4724L47.1832 37.8762C47.8291 38.5222 48.1016 39.4417 47.9131 40.3357C47.7242 41.2292 47.1026 41.9592 46.2505 42.2888L44.7813 42.8567C44.7041 42.8865 44.6241 42.9006 44.5459 42.9006Z" fill="#142F01"/>
        <path d="M23.0176 38.2775C19.5342 38.0422 16.4409 37.8151 14.8398 37.6193C12.4731 37.3293 10.7763 35.1965 11.0244 32.8244C11.7637 25.7517 10.1953 19.716 8.84227 16.0588C8.07908 13.9914 9.59715 11.7946 11.8032 11.7673C19.0967 11.6755 24.7348 15.3864 28.8965 19.9318C23.1089 15.7639 14.1748 11.9357 13.834 16.0197C13.4946 20.1052 17.3242 25.8928 16.1328 29.9773C15.0776 33.5949 18.8716 37.3903 23.0176 38.2775Z" fill="#142F01"/>
        <path d="M35.1674 49.7861C32.4404 54.1802 28.2529 59.7207 22.7631 63.4443C19.0131 61.0596 15.7939 57.917 13.3198 54.2295C12.7607 51.6748 12.4159 48.5586 12.454 44.7671C12.4643 43.7183 12.8652 42.7178 13.5654 41.9624C13.7563 41.7563 13.9692 41.5684 14.2031 41.4023C15.7753 40.2881 18.4618 38.8726 22.3569 38.4375C17.9526 39.584 15.394 41.9141 15.9623 47.5933C16.5576 53.5503 18.6005 52.0186 19.1542 56.146C19.707 60.2744 21.6645 60.8701 24.4731 59.5078C27.2367 58.1675 34.9272 50.0396 35.1674 49.7861Z" fill="#142F01"/>
    </g>
    <defs>
        <filter id="filter0_d_1316_4209" x="0.388672" y="0.898438" width="79.0469" height="79.0469" filterUnits="userSpaceOnUse" color-interpolation-filters="sRGB">
            <feFlood flood-opacity="0" result="BackgroundImageFix"/>
            <feColorMatrix in="SourceAlpha" type="matrix" values="0 0 0 0 0 0 0 0 0 0 0 0 0 0 0 0 0 0 127 0" result="hardAlpha"/>
            <feOffset dy="4"/>
            <feGaussianBlur stdDeviation="2"/>
            <feComposite in2="hardAlpha" operator="out"/>
            <feColorMatrix type="matrix" values="0 0 0 0 0 0 0 0 0 0 0 0 0 0 0 0 0 0 0.25 0"/>
            <feBlend mode="normal" in2="BackgroundImageFix" result="effect1_dropShadow_1316_4209"/>
            <feBlend mode="normal" in="SourceGraphic" in2="effect1_dropShadow_1316_4209" result="shape"/>
        </filter>
        <clipPath id="clip0_1316_4209">
            <rect width="64" height="64" fill="white" transform="translate(7.91211 4.42188)"/>
        </clipPath>
    </defs>
</svg>
