<svg width="25" height="25" viewBox="0 0 25 25" fill="none" xmlns="http://www.w3.org/2000/svg">
    <path d="M12.5938 3.5V10.5M12.5938 10.5L15.5938 7.5M12.5938 10.5L9.59375 7.5M12.5938 21.5V14.5M12.5938 14.5L15.5938 17.5M12.5938 14.5L9.59375 17.5M18.5938 9.5H19.5938C20.1242 9.5 20.6329 9.71071 21.008 10.0858C21.383 10.4609 21.5938 10.9696 21.5938 11.5V13.5C21.5938 14.0304 21.383 14.5391 21.008 14.9142C20.6329 15.2893 20.1242 15.5 19.5938 15.5H18.5938M6.59375 9.5H5.59375C5.06332 9.5 4.55461 9.71071 4.17954 10.0858C3.80446 10.4609 3.59375 10.9696 3.59375 11.5V13.5C3.59375 14.0304 3.80446 14.5391 4.17954 14.9142C4.55461 15.2893 5.06332 15.5 5.59375 15.5H6.59375" stroke="#10B100" stroke-width="2" stroke-linecap="round" stroke-linejoin="round"/>
</svg>
