<svg width="80" height="80" viewBox="0 0 80 80" fill="none" xmlns="http://www.w3.org/2000/svg">
    <g filter="url(#filter0_d_1316_3980)">
        <circle cx="39.9121" cy="36.4219" r="35.5234" fill="white"/>
    </g>
    <g clip-path="url(#clip0_1316_3980)">
        <path d="M71.9121 36.4219C71.9121 54.0952 57.585 68.4219 39.9121 68.4219C22.2388 68.4219 7.91211 54.0952 7.91211 36.4219C7.91211 18.749 22.2388 4.42188 39.9121 4.42188C57.585 4.42188 71.9121 18.749 71.9121 36.4219Z" fill="#225015"/>
        <path d="M59.1406 23.6533C59.1406 24.3755 59.1001 25.0898 59.0229 25.7915C57.96 35.4067 49.8081 42.8857 39.9092 42.8857C29.2876 42.8857 20.6777 34.2744 20.6777 23.6533C20.6777 13.0317 29.2876 4.42188 39.9092 4.42188C50.5308 4.42188 59.1406 13.0317 59.1406 23.6533Z" fill="#E57A10"/>
        <path d="M59.1396 23.6533C59.1396 24.3755 59.0991 25.0898 59.022 25.7915H39.9082V4.42188C50.5298 4.42188 59.1396 13.0317 59.1396 23.6533Z" fill="#FFBB16"/>
        <path d="M50.6108 23.6538C50.6108 13.0322 45.8198 4.42188 39.9102 4.42188C34 4.42188 29.209 13.0322 29.209 23.6538C29.209 34.2749 34 42.8853 39.9102 42.8853C45.8198 42.8853 50.6108 34.2749 50.6108 23.6538Z" fill="#FF931F"/>
        <path d="M68.5962 31.4038C68.5962 41.7266 55.7539 43.5493 39.9097 43.5493C38.665 43.5493 37.4385 43.498 36.2363 43.3975C22.1289 42.2222 11.2246 40.9165 11.2246 31.4038C11.2246 21.0786 24.0669 12.7109 39.9097 12.7109C46.458 12.7109 52.4941 14.1411 57.3232 16.5488C64.1758 19.9624 68.5962 25.3462 68.5962 31.4038Z" fill="#FFBB16"/>
        <path d="M62.998 33.7812C62.998 42.0898 52.6611 43.5571 39.9077 43.5571C38.9062 43.5571 37.9189 43.5156 36.9507 43.4351C25.5957 42.4888 16.8184 41.438 16.8184 33.7812C16.8184 25.4697 27.1558 18.7344 39.9077 18.7344C45.1787 18.7344 50.0376 19.8857 53.9243 21.8237C59.4404 24.5713 62.998 28.9048 62.998 33.7812Z" fill="#FF931F"/>
        <path d="M57.7148 63.0176C56.1724 64.0518 54.5347 64.957 52.8169 65.7134C51.4863 66.3013 50.1084 66.8013 48.6885 67.2036C45.9014 67.9976 42.957 68.4224 39.9141 68.4224C36.8721 68.4224 33.9277 67.9976 31.1392 67.2051C30.1782 66.9307 29.2339 66.6133 28.3115 66.2539C27.8726 66.083 27.439 65.9028 27.0107 65.7134C25.293 64.9556 23.6553 64.0518 22.1113 63.0161C23.4097 61.2202 25.0815 59.7119 27.0107 58.6016C28.2856 57.8677 29.6729 57.3086 31.1392 56.957C31.7925 56.7993 32.4624 56.6826 33.1455 56.6123C33.2734 56.5981 33.4014 56.5859 33.5308 56.5757C33.9541 56.5405 34.3813 56.5234 34.8135 56.5234H45.0132C45.5771 56.5234 46.1338 56.5537 46.6807 56.6108C47.3066 56.6763 47.9189 56.7783 48.52 56.9155C48.5762 56.9297 48.6338 56.9414 48.6885 56.9556C50.1562 57.3086 51.5425 57.8677 52.8169 58.6016C54.7461 59.7129 56.4165 61.2217 57.7148 63.0176Z" fill="#704028"/>
        <path d="M57.71 63.0176C52.6216 66.4316 46.4985 68.4224 39.9092 68.4224C35.8169 68.4224 31.9038 67.6543 28.3066 66.2539C30.6445 60.5449 36.2573 56.5234 42.8101 56.5234H45.0083C50.2363 56.5234 54.8652 59.0835 57.71 63.0176Z" fill="#935F41"/>
        <path d="M46.6777 56.6108V57.269C46.6777 60.2539 44.7632 62.8516 41.9106 63.7319C41.2656 63.9331 40.5913 64.0352 39.9097 64.0352C36.1782 64.0352 33.1426 61.001 33.1426 57.269V56.6123C33.2705 56.5981 33.3984 56.5859 33.5278 56.5757C33.9512 56.5405 34.3784 56.5234 34.8105 56.5234H45.0103C45.5742 56.5234 46.1309 56.5537 46.6777 56.6108Z" fill="#704028"/>
        <path d="M24.5762 39.252C24.5762 41.8389 22.6865 43.9844 20.2114 44.3823C19.9409 44.4263 19.6631 44.4492 19.3789 44.4492C16.5078 44.4492 14.1816 42.123 14.1816 39.252C14.1816 36.3809 16.5078 34.0547 19.3789 34.0547C19.6631 34.0547 19.9409 34.0771 20.2114 34.1211C22.6865 34.519 24.5762 36.6646 24.5762 39.252Z" fill="#F4B895"/>
        <path d="M24.5796 39.248C24.5796 41.835 22.6899 43.9805 20.2148 44.3784C19.7656 42.7441 19.5254 41.0234 19.5254 39.248C19.5254 37.4722 19.7656 35.752 20.2148 34.1172C22.6899 34.5151 24.5796 36.6606 24.5796 39.248Z" fill="#E8A07E"/>
        <path d="M21.2402 39.2485C21.2402 40.2744 20.4087 41.106 19.3828 41.106C18.3569 41.106 17.5254 40.2744 17.5254 39.2485C17.5254 38.2227 18.3569 37.3906 19.3828 37.3906C20.4087 37.3906 21.2402 38.2227 21.2402 39.2485Z" fill="#E8A07E"/>
        <path d="M55.2402 39.252C55.2402 41.8389 57.1304 43.9844 59.605 44.3823C59.8755 44.4263 60.1538 44.4492 60.4375 44.4492C63.3086 44.4492 65.6348 42.123 65.6348 39.252C65.6348 36.3809 63.3086 34.0547 60.4375 34.0547C60.1538 34.0547 59.8755 34.0771 59.605 34.1211C57.1304 34.519 55.2402 36.6646 55.2402 39.252Z" fill="#F4B895"/>
        <path d="M55.2402 39.2559C55.2402 41.8428 57.1304 43.9883 59.605 44.3862C60.0547 42.752 60.2949 41.0312 60.2949 39.2559C60.2949 37.48 60.0547 35.7598 59.605 34.125C57.1304 34.5229 55.2402 36.6685 55.2402 39.2559Z" fill="#E8A07E"/>
        <path d="M62.2954 39.2563C62.2954 40.2822 61.4639 41.1138 60.4375 41.1138C59.4116 41.1138 58.5801 40.2822 58.5801 39.2563C58.5801 38.2305 59.4116 37.3984 60.4375 37.3984C61.4639 37.3984 62.2954 38.2305 62.2954 39.2563Z" fill="#E8A07E"/>
        <path d="M45.4961 50.5V57.3589C45.4961 59.8701 43.8408 61.9922 41.5601 62.6973C41.0381 62.8594 40.4819 62.9468 39.9062 62.9468C36.8203 62.9468 34.3184 60.4453 34.3184 57.3589V50.5005H45.4961V50.5Z" fill="#E8A07E"/>
        <path d="M45.5 56.9141V57.3486C45.5 59.8599 43.8447 61.9819 41.564 62.687C39.5063 62.0547 37.9595 60.2656 37.6738 58.0767C38.0469 58.0991 38.4224 58.1108 38.7998 58.1108C39.8569 58.1108 40.8936 58.0269 41.9033 57.8613C43.147 57.6611 44.3491 57.3413 45.5 56.9141Z" fill="#F4B895"/>
        <path d="M59.2476 36.4907C59.2476 46.1137 52.2173 54.0961 43.0137 55.5786C42.0039 55.7441 40.9673 55.8281 39.9097 55.8281C29.2295 55.8281 20.5723 47.1709 20.5723 36.4907C20.5723 31.8974 22.1733 27.6787 24.8477 24.3613C28.3926 19.9653 33.8228 24.039 39.9097 24.039C40.9673 24.039 42.0039 24.123 43.0137 24.2885C52.2173 25.771 59.2476 26.8676 59.2476 36.4907Z" fill="#E8A07E"/>
        <path d="M59.2515 36.4877C59.2515 46.1107 52.2212 54.0932 43.0176 55.5756C33.8135 54.0932 26.7832 46.1107 26.7832 36.4877C26.7832 30.5624 29.4487 25.2582 33.6475 21.7108C36.2651 19.497 58.291 25.8148 59.1562 34.5595C59.2187 35.1937 59.2515 35.8378 59.2515 36.4877Z" fill="#F4B895"/>
        <path d="M59.2476 27.7974V37.3281C57.2598 37.3281 55.6479 35.7163 55.6479 33.728V31.4214L33.3262 27.2734L29.6694 26.5942L24.1719 25.5713V33.728C24.1719 35.7163 22.5601 37.3281 20.5723 37.3281V27.7974C20.5723 26.2871 21.4092 24.9014 22.7456 24.1987C27.1172 21.8999 33.1919 20.4766 39.9092 20.4766C41.4609 20.4766 42.9785 20.5522 44.4478 20.6982H44.4517C49.3457 21.1816 53.7134 22.4316 57.0742 24.1987C58.4102 24.9014 59.2476 26.2871 59.2476 27.7974Z" fill="#3D322C"/>
        <path d="M39.9123 46.6672C38.2932 46.6672 36.6741 46.2615 35.198 45.4499C34.7815 45.2214 34.6296 44.698 34.8586 44.282C35.0876 43.8655 35.6106 43.7136 36.0266 43.9426C38.4602 45.28 41.365 45.28 43.7981 43.9426C44.2141 43.7136 44.7375 43.8655 44.966 44.282C45.195 44.6985 45.0432 45.2214 44.6272 45.4499C43.1511 46.2615 41.5315 46.6672 39.9123 46.6672Z" fill="#E8A07E"/>
        <path d="M42.105 40.8848H37.7178C37.1953 40.8848 36.7715 40.4614 36.7715 39.9385C36.7715 39.416 37.1953 38.9922 37.7178 38.9922H42.105C42.6274 38.9922 43.0513 39.416 43.0513 39.9385C43.0513 40.4614 42.6274 40.8848 42.105 40.8848Z" fill="#E8A07E"/>
        <path d="M49.75 35.5752C49.75 37.1138 48.5024 38.3608 46.9639 38.3608C45.4253 38.3608 44.1777 37.1138 44.1777 35.5752C44.1777 34.0366 45.4253 32.7891 46.9639 32.7891C48.5024 32.7891 49.75 34.0366 49.75 35.5752Z" fill="#3D322C"/>
        <path d="M49.3193 35.0767C49.3193 35.7358 48.7847 36.2705 48.1255 36.2705C47.4658 36.2705 46.9316 35.7358 46.9316 35.0767C46.9316 34.4175 47.4658 33.8828 48.1255 33.8828C48.7847 33.8828 49.3193 34.4175 49.3193 35.0767Z" fill="white"/>
        <path d="M35.644 35.5752C35.644 37.1138 34.397 38.3608 32.8579 38.3608C31.3193 38.3608 30.0723 37.1138 30.0723 35.5752C30.0723 34.0366 31.3193 32.7891 32.8579 32.7891C34.397 32.7891 35.644 34.0366 35.644 35.5752Z" fill="#3D322C"/>
        <path d="M35.21 35.0767C35.21 35.7358 34.6753 36.2705 34.0161 36.2705C33.3569 36.2705 32.8223 35.7358 32.8223 35.0767C32.8223 34.4175 33.3569 33.8828 34.0161 33.8828C34.6753 33.8828 35.21 34.4175 35.21 35.0767Z" fill="white"/>
        <path d="M59.2515 27.7944V37.3252C57.2637 37.3252 55.6519 35.7134 55.6519 33.7251V31.4185L33.3301 27.2705C35.1484 24.8804 39.0952 20.6982 44.4517 20.6953H44.4556C49.3496 21.1787 53.7173 22.4287 57.0781 24.1958C58.4141 24.8984 59.2515 26.2842 59.2515 27.7944Z" fill="#564D47"/>
        <path d="M37.2871 49.2344H43.3838V56.5728H37.2871V49.2344Z" fill="#156000"/>
        <path d="M37.2871 52.8984H43.3838V56.5679H37.2871V52.8984Z" fill="#358D1E"/>
        <path d="M37.9966 49.1143C38.0098 48.9463 38.0186 48.7773 38.0186 48.6064C38.0186 45.0229 35.1133 42.1172 31.5293 42.1172C29.4717 42.1172 27.6392 43.0762 26.4502 44.5703L26.4487 44.5693L20.4004 52.1582L38.0186 57.6548L37.9985 49.1147L37.9966 49.1143Z" fill="#156000"/>
        <path d="M20.0009 59.7245C20.0009 59.7245 18.5541 51.2137 19.6928 46.4906C20.8315 41.7674 29.6303 42.4037 31.1493 43.2142C32.6684 44.0243 33.0219 47.0863 29.7026 46.4481C27.9281 46.1068 26.3554 46.5545 25.2758 47.0453C24.3568 47.4627 23.7699 48.3812 23.7699 49.39V51.2469" fill="#F4B895"/>
        <path d="M41.8242 49.1143C41.8115 48.9463 41.8027 48.7773 41.8027 48.6064C41.8027 45.0229 44.708 42.1172 48.292 42.1172C50.3496 42.1172 52.1821 43.0762 53.3711 44.5703L53.3726 44.5693L59.4209 52.1582L41.8027 57.6548L41.8223 49.1147L41.8242 49.1143Z" fill="#156000"/>
        <path d="M59.8203 59.7238L56.8721 53.0954L56.0508 51.2473V49.3899C56.0508 48.3816 55.4629 47.4621 54.5449 47.0451C53.4644 46.5544 51.8921 46.1062 50.1182 46.4485C46.7993 47.0857 47.1519 44.0241 48.6709 43.2146C50.19 42.4035 58.9893 41.7673 60.1284 46.4904C61.2661 51.2131 59.8203 59.7238 59.8203 59.7238Z" fill="#F4B895"/>
        <path d="M27.9137 42.6584C24.9474 42.7581 21.5241 43.6643 20.8424 46.491C20.0441 49.802 20.5158 54.9739 20.8698 57.7703L20.0011 59.7244C20.0011 59.7244 18.5538 51.2136 19.693 46.491C20.4645 43.2893 24.7555 42.55 27.9137 42.6584Z" fill="#E8A07E"/>
        <path d="M38.0146 57.6587C38.0146 62.9971 33.6865 67.3247 28.3481 67.3247C23.0098 67.3247 18.6816 62.9971 18.6816 57.6587C18.6816 52.3198 23.0098 47.9922 28.3481 47.9922C33.6865 47.9922 38.0146 52.3198 38.0146 57.6587Z" fill="#5CAE4A"/>
        <path d="M36.0474 57.6548C36.0474 59.0698 35.666 60.3945 34.999 61.5327C33.665 63.8164 31.188 65.3501 28.3525 65.3501C24.103 65.3501 20.6582 61.9043 20.6582 57.6548C20.6582 55.6885 21.3955 53.895 22.6094 52.5356C24.0171 50.9556 26.0688 49.9609 28.3525 49.9609C32.602 49.9609 36.0474 53.4053 36.0474 57.6548Z" fill="#3D322C"/>
        <path d="M36.043 57.6548C36.043 59.0698 35.6616 60.3945 34.9946 61.5327C33.5869 63.1133 31.5352 64.1079 29.2515 64.1079C25.002 64.1079 21.5566 60.6631 21.5566 56.4136C21.5566 54.9995 21.938 53.6738 22.605 52.5356C24.0127 50.9556 26.0645 49.9609 28.3481 49.9609C32.5977 49.9609 36.043 53.4053 36.043 57.6548Z" fill="#E6E6E6"/>
        <path d="M36.0464 57.6538C36.0464 59.0698 35.665 60.394 34.9976 61.5317C33.8232 62.8496 32.2036 63.7603 30.3726 64.0264C31.3232 63.3799 32.123 62.5283 32.7041 61.5317C33.3716 60.394 33.7515 59.0698 33.7515 57.6538C33.7515 53.7959 30.9092 50.6011 27.2051 50.0459C27.5786 49.9897 27.9614 49.9609 28.3506 49.9609C32.6011 49.9609 36.0464 53.4053 36.0464 57.6538Z" fill="#CCCCCC"/>
        <path d="M57.9575 52.0518C57.7798 52.5342 57.396 52.8711 56.8721 53.0918L56.0508 51.2437V49.3862C56.0508 48.3779 55.4629 47.4585 54.5449 47.0415C53.4644 46.5508 51.8921 46.1025 50.1182 46.4448C46.7993 47.082 47.1519 44.0205 48.6709 43.2109C47.3194 44.5625 48.6817 45.1582 52.1704 45.1582C55.6602 45.1582 59.1489 48.8179 57.9575 52.0518Z" fill="#E8A07E"/>
        <path d="M61.1353 57.6587C61.1353 62.9971 56.8076 67.3247 51.4692 67.3247C46.1304 67.3247 41.8027 62.9971 41.8027 57.6587C41.8027 52.3198 46.1304 47.9922 51.4692 47.9922C56.8076 47.9922 61.1353 52.3198 61.1353 57.6587Z" fill="#5CAE4A"/>
        <path d="M43.7754 57.6548C43.7754 59.0698 44.1567 60.3945 44.8237 61.5327C46.1582 63.8164 48.6353 65.3501 51.4707 65.3501C55.7202 65.3501 59.1645 61.9043 59.1645 57.6548C59.1645 55.6885 58.4272 53.895 57.2139 52.5356C55.8057 50.9556 53.7544 49.9609 51.4707 49.9609C47.2212 49.9609 43.7754 53.4053 43.7754 57.6548Z" fill="#3D322C"/>
        <path d="M43.7754 57.6548C43.7754 59.0698 44.1567 60.3945 44.8237 61.5327C46.2319 63.1133 48.2832 64.1079 50.5669 64.1079C54.8164 64.1079 58.2622 60.6631 58.2622 56.4136C58.2622 54.9995 57.8809 53.6738 57.2139 52.5356C55.8057 50.9556 53.7544 49.9609 51.4707 49.9609C47.2212 49.9609 43.7754 53.4053 43.7754 57.6548Z" fill="#E6E6E6"/>
        <path d="M58.2637 56.4131C58.2637 59.1479 56.8359 61.5488 54.686 62.9136C55.9751 61.5386 56.7642 59.689 56.7642 57.6538C56.7642 55.688 56.0264 53.895 54.813 52.5352C53.6567 51.2383 52.0674 50.3359 50.2715 50.0547C50.6621 49.9922 51.063 49.9609 51.4717 49.9609C53.7559 49.9609 55.8081 50.9551 57.2158 52.5352C57.8823 53.6743 58.2637 54.9985 58.2637 56.4131Z" fill="#CCCCCC"/>
        <path d="M24.7954 56.6309C24.7954 54.9233 24.2363 53.5391 23.5469 53.5391C22.8574 53.5391 22.2988 54.9233 22.2988 56.6309C22.2988 58.3389 22.8574 59.7231 23.5469 59.7231C24.2363 59.7231 24.7954 58.3389 24.7954 56.6309Z" fill="white"/>
        <path d="M47.4868 56.6309C47.4868 54.9233 46.9282 53.5391 46.2388 53.5391C45.5493 53.5391 44.9902 54.9233 44.9902 56.6309C44.9902 58.3389 45.5493 59.7231 46.2388 59.7231C46.9282 59.7231 47.4868 58.3389 47.4868 56.6309Z" fill="white"/>
    </g>
    <defs>
        <filter id="filter0_d_1316_3980" x="0.388672" y="0.898438" width="79.0469" height="79.0469" filterUnits="userSpaceOnUse" color-interpolation-filters="sRGB">
            <feFlood flood-opacity="0" result="BackgroundImageFix"/>
            <feColorMatrix in="SourceAlpha" type="matrix" values="0 0 0 0 0 0 0 0 0 0 0 0 0 0 0 0 0 0 127 0" result="hardAlpha"/>
            <feOffset dy="4"/>
            <feGaussianBlur stdDeviation="2"/>
            <feComposite in2="hardAlpha" operator="out"/>
            <feColorMatrix type="matrix" values="0 0 0 0 0 0 0 0 0 0 0 0 0 0 0 0 0 0 0.25 0"/>
            <feBlend mode="normal" in2="BackgroundImageFix" result="effect1_dropShadow_1316_3980"/>
            <feBlend mode="normal" in="SourceGraphic" in2="effect1_dropShadow_1316_3980" result="shape"/>
        </filter>
        <clipPath id="clip0_1316_3980">
            <rect width="64" height="64" fill="white" transform="translate(7.91211 4.42188)"/>
        </clipPath>
    </defs>
</svg>
