<svg width="18" height="19" viewBox="0 0 18 19" fill="none" xmlns="http://www.w3.org/2000/svg">
    <path d="M1.89751 15.6223L2.90251 16.0423V9.26977L1.08001 13.6648C0.772513 14.4298 1.14001 15.3073 1.89751 15.6223ZM16.5225 12.8473L12.8025 3.86977C12.6895 3.60129 12.5012 3.37129 12.2603 3.20758C12.0194 3.04386 11.7362 2.95345 11.445 2.94727C11.25 2.94727 11.0475 2.97727 10.8525 3.05977L5.32501 5.34727C4.96023 5.49991 4.67047 5.79042 4.51878 6.1556C4.36709 6.52078 4.36574 6.93109 4.51501 7.29727L8.23501 16.2748C8.38765 16.6396 8.67817 16.9293 9.04335 17.081C9.40853 17.2327 9.81884 17.234 10.185 17.0848L15.705 14.7973C16.0719 14.647 16.3642 14.3572 16.5175 13.9915C16.6708 13.6258 16.6726 13.2143 16.5225 12.8473ZM5.91001 7.44727C5.49751 7.44727 5.16001 7.10977 5.16001 6.69727C5.16001 6.28477 5.49751 5.94727 5.91001 5.94727C6.32251 5.94727 6.66001 6.28477 6.66001 6.69727C6.66001 7.10977 6.32251 7.44727 5.91001 7.44727ZM4.41001 15.6973C4.41001 16.5223 5.08501 17.1973 5.91001 17.1973H6.99751L4.41001 10.9423V15.6973Z" fill="#10B100"/>
</svg>
