<svg width="80" height="80" viewBox="0 0 80 80" fill="none" xmlns="http://www.w3.org/2000/svg">
    <g filter="url(#filter0_d_1316_4653)">
        <circle cx="39.9121" cy="36.4219" r="35.5234" fill="white"/>
    </g>
    <g clip-path="url(#clip0_1316_4653)">
        <path d="M71.9116 36.4219C71.9116 54.0947 57.585 68.4214 39.9121 68.4214C22.2388 68.4214 7.91211 54.0947 7.91211 36.4219C7.91211 18.749 22.2388 4.42188 39.9121 4.42188C57.585 4.42188 71.9116 18.749 71.9116 36.4219Z" fill="#5C5560"/>
        <path d="M71.9116 36.4219C71.9116 39.0522 71.5942 41.6094 70.9946 44.0571C67.5713 58.043 54.9531 68.4214 39.9116 68.4214C38.9673 68.4214 38.0322 68.3809 37.1074 68.2998C34.0005 68.0308 31.021 67.3164 28.2314 66.2232C25.4751 65.1416 22.9063 63.6895 20.5855 61.9273C20.4063 61.7915 20.23 61.6543 20.0552 61.5147C18.0645 59.9385 16.2671 58.1304 14.7026 56.1309C14.6831 56.1074 14.6646 56.084 14.6465 56.0606C14.6138 56.0186 14.5811 55.9771 14.5483 55.9351C13.9556 55.1655 13.395 54.3677 12.8755 53.5435C12.8477 53.502 12.8203 53.4585 12.7944 53.417C12.7905 53.4102 12.7866 53.4053 12.7827 53.3984C12.6821 53.2393 12.584 53.0786 12.4873 52.9165C11.5693 51.395 10.7739 49.7886 10.1152 48.1128C9.75342 47.1919 9.43359 46.2485 9.15674 45.2891C8.89795 44.3877 8.67725 43.4707 8.49561 42.5396C8.11328 40.5596 7.91211 38.5142 7.91211 36.4219C7.91211 34.2573 8.12598 32.1431 8.5376 30.1001C11.4712 15.4546 24.4028 4.42188 39.9116 4.42188C43.6826 4.42188 47.2993 5.07373 50.6587 6.27148C52.3984 6.89063 54.0674 7.65723 55.6519 8.5542C56.7998 9.20508 57.9048 9.92334 58.959 10.7056C62.2241 13.127 65.0112 16.1563 67.1533 19.625V19.6265C70.1704 24.5073 71.9116 30.2607 71.9116 36.4219Z" fill="#2ABDA0"/>
        <path d="M71.9116 36.4238C71.9116 39.0542 71.5942 41.6113 70.9946 44.0591C68.9688 45.6763 66.8555 47.2969 64.7178 48.9282C63.5303 49.8154 61.8193 49.3281 61.5005 47.9736C60.2925 42.7925 58.2246 36.4053 53.0957 31.1797C53.6001 31.9292 57.6685 41.7798 57.2935 53.3433C57.2847 53.9673 56.9712 54.5654 56.4448 54.939C53.4434 57.0732 50.3438 59.2363 47.1426 61.4512C43.7114 63.8257 40.3731 66.1118 37.1074 68.3018C34.0005 68.0327 31.021 67.3184 28.2314 66.2251C25.2754 62.8867 21.4448 59.5562 16.2998 57.5293C16.5259 57.6582 18.3062 59.2285 20.5855 61.9292C18.3164 60.208 16.2856 58.1914 14.5483 55.937C13.9199 55.1221 13.3296 54.2754 12.7827 53.4004C9.69629 48.4805 7.91211 42.6592 7.91211 36.4238C7.91211 34.2593 8.12598 32.145 8.5376 30.1021C15.6914 33.8467 19.0532 39.0161 19.1157 39.0161C17.648 33.7681 15.0654 29.5547 12.0273 26.4058C11.2896 25.644 11.7676 24.0811 13.1416 22.9722C13.5166 22.6689 13.894 22.3687 14.2769 22.0723C15.2813 21.2886 16.4971 20.9385 17.3423 21.1851C30.4307 25.2422 35.1509 35.8789 35.2788 35.7236C33.9609 27.5444 29.7476 21.3486 25.3628 17.5566C24.3784 16.7002 25.2246 14.8428 27.1055 13.8774C27.1274 13.8657 27.1499 13.854 27.1719 13.8423C28.4063 13.209 29.71 13.1763 30.355 13.7534C35.6685 18.5376 37.6431 23.4629 37.6797 23.4629C37.4121 19.4375 36.436 15.8535 34.9839 12.77C34.4678 11.6899 35.667 10.0742 37.5269 9.44043C42.0132 7.90479 46.4331 6.87012 50.6587 6.27344C63.0459 10.688 71.9116 22.52 71.9116 36.4238Z" fill="#199B81"/>
        <path d="M61.2163 27.7749C61.1509 27.7969 58.104 28.8447 53.0859 31.167C53.0859 31.167 53.0845 31.167 53.083 31.168C47.1157 33.9292 38.3579 38.4941 28.5073 45.2808C23.6758 48.6089 19.0156 52.1689 14.5488 55.9399C13.9204 55.125 13.3301 54.2783 12.7832 53.4033C17.2876 49.6118 21.9873 46.0303 26.8564 42.6802C45.3286 29.9702 59.6309 25.062 60.2314 24.8594L60.7241 26.3174L61.2163 27.7749Z" fill="#358D1E"/>
        <path d="M28.3198 54.6479C28.1294 54.9941 27.7725 55.189 27.4043 55.189C27.2334 55.189 27.061 55.147 26.9014 55.0596L9.15527 45.2886C8.89648 44.3872 8.67578 43.4702 8.49414 42.5391L27.9087 53.2295C28.4141 53.5078 28.5981 54.1426 28.3198 54.6479Z" fill="#17594C"/>
        <path d="M50.3812 46.7597C49.9095 46.7597 49.4813 46.4379 49.3661 45.9589L46.0467 32.1723C45.912 31.6112 46.2572 31.0468 46.8182 30.912C47.3793 30.7772 47.9437 31.122 48.0785 31.683L51.3973 45.4701C51.5326 46.0306 51.1874 46.5951 50.6263 46.7304C50.5443 46.7499 50.4618 46.7597 50.3812 46.7597Z" fill="#17594C"/>
        <path d="M28.0449 41.7878C27.667 41.7878 27.3017 41.5813 27.1162 41.2224L21.2436 29.861C20.979 29.3483 21.1797 28.718 21.6924 28.4528C22.2051 28.1877 22.8354 28.3889 23.1001 28.9016L28.9722 40.2629C29.2373 40.7756 29.0366 41.406 28.5239 41.6706C28.3706 41.7497 28.2065 41.7878 28.0449 41.7878Z" fill="#17594C"/>
        <path d="M65.572 37.1866C65.3327 37.1866 65.092 37.105 64.8952 36.9376L56.3425 29.6612C55.903 29.2872 55.8498 28.628 56.2233 28.1885C56.5974 27.7486 57.257 27.6954 57.6965 28.0694L66.2492 35.3458C66.6887 35.7198 66.7419 36.3795 66.3683 36.8189C66.1613 37.0616 65.8674 37.1866 65.572 37.1866Z" fill="#17594C"/>
        <path d="M70.8662 17.5258C70.8559 17.5258 70.8457 17.5258 70.8354 17.5258L49.5048 17.0033C48.9282 16.9863 48.4741 16.5053 48.4907 15.9282C48.5078 15.3515 48.9853 14.8984 49.5659 14.9145L70.8964 15.4369C71.4731 15.4535 71.9272 15.935 71.9101 16.5116C71.8935 17.0781 71.4292 17.5258 70.8662 17.5258Z" fill="#17594C"/>
        <path d="M70.2693 30.6047C70.1316 30.6047 69.992 30.5774 69.8572 30.5198L48.2322 21.2239C47.702 20.9963 47.4568 20.3816 47.6849 19.8513C47.9124 19.3215 48.5267 19.0759 49.0574 19.3039L70.6824 28.5998C71.2127 28.8274 71.4578 29.4421 71.2298 29.9724C71.0599 30.3679 70.6741 30.6047 70.2693 30.6047Z" fill="#17594C"/>
        <path d="M58.4059 44.4703C58.0646 44.4703 57.7302 44.3033 57.53 43.9962L44.34 23.7877C44.0246 23.3047 44.1603 22.6573 44.6437 22.3419C45.1271 22.0264 45.7746 22.1627 46.09 22.6456L59.2795 42.8541C59.5949 43.3375 59.4592 43.9849 58.9758 44.3004C58.7995 44.4151 58.6017 44.4703 58.4059 44.4703Z" fill="#17594C"/>
        <path d="M41.9722 48.7873C41.4361 48.7873 40.98 48.3772 40.9327 47.8327L38.8887 24.323C38.8389 23.7478 39.2642 23.2414 39.8394 23.1916C40.4151 23.1408 40.921 23.5671 40.9708 24.1418L43.0142 47.6516C43.0645 48.2268 42.6387 48.7331 42.064 48.7834C42.0333 48.7858 42.0025 48.7873 41.9722 48.7873Z" fill="#17594C"/>
        <path d="M34.8149 49.169C34.3241 49.169 33.8866 48.8214 33.79 48.3214L29.349 25.2349C29.2402 24.668 29.6112 24.1202 30.1777 24.0113C30.7436 23.9019 31.2919 24.273 31.4013 24.8399L35.8422 47.9268C35.9511 48.4937 35.58 49.0411 35.0136 49.15C34.9472 49.1627 34.8803 49.169 34.8149 49.169Z" fill="#17594C"/>
        <path d="M29.7782 51.5067C29.5067 51.5067 29.2353 51.4013 29.0302 51.1913L12.6151 34.3607C12.2123 33.9477 12.2206 33.286 12.6337 32.8827C13.0468 32.4799 13.7084 32.4882 14.1112 32.9013L30.5263 49.7323C30.9296 50.1454 30.9208 50.807 30.5077 51.2099C30.3046 51.4081 30.0414 51.5067 29.7782 51.5067Z" fill="#17594C"/>
        <path d="M27.1113 58.2334C26.9883 58.7021 26.564 59.0146 26.1001 59.0146C26.0127 59.0146 25.9238 59.0029 25.8364 58.9805L14.6431 56.0576C14.6104 56.0156 14.5776 55.9741 14.5449 55.9321C13.9521 55.1626 13.3916 54.3647 12.8721 53.5405C12.8442 53.499 12.8169 53.4556 12.791 53.4141L26.3638 56.9585C26.9219 57.1035 27.2559 57.6743 27.1113 58.2334Z" fill="#17594C"/>
        <path d="M67.1533 19.6238V19.6253C66.9795 24.0125 65.5312 28.4925 62.9165 32.2513C58.1465 39.1111 50.3374 42.7527 40.9385 42.5057C34.1885 42.3294 29.5845 43.5725 26.4521 46.4202C23.2891 49.2962 21.1924 54.2361 20.0552 61.5135C17.999 59.886 16.1499 58.0105 14.5483 55.9339C13.9556 55.1643 13.395 54.3665 12.8755 53.5423C12.8438 53.4939 12.8125 53.4456 12.7827 53.3973C11.7388 51.7332 10.8428 49.9651 10.1152 48.1116C11.9673 43.4173 14.4712 39.6595 17.666 36.7561C23.3687 31.5721 31.0918 29.1819 41.2808 29.45C46.2114 29.5789 49.9858 27.9685 52.1934 24.7947C54.2554 21.8284 54.4907 18.1741 53.6572 16.0974C52.5552 13.3533 53.4482 10.302 55.6519 8.55302C56.1353 8.16776 56.6821 7.84647 57.2847 7.60477C60.6309 6.26102 64.4341 7.88456 65.7783 11.2322C66.8218 13.8313 67.2695 16.7073 67.1533 19.6238Z" fill="#FF931F"/>
        <path d="M67.1509 19.6279C66.9785 24.0166 65.5288 28.4951 62.9141 32.2554C58.144 39.1152 50.335 42.7568 40.936 42.5098C34.186 42.3335 29.582 43.5767 26.4497 46.4243C23.2866 49.3003 21.1899 54.2402 20.0527 61.5176C17.9966 59.8901 16.1475 58.0147 14.5459 55.938C13.9531 55.1685 13.3926 54.3706 12.873 53.5464C14.7822 46.9048 17.7314 41.8213 21.8003 38.1226C27.5024 32.9385 35.2271 30.5483 45.4146 30.8149C50.3452 30.9453 54.1201 29.335 56.3286 26.1597C58.3911 23.1938 58.626 19.5405 57.7925 17.4639C56.8418 15.0957 57.376 12.5005 58.9565 10.7085C59.6084 9.9668 60.4404 9.36328 61.4185 8.97021C62.1694 8.66943 62.9429 8.51709 63.7066 8.5C64.5986 9.18701 65.3252 10.1143 65.7759 11.2363C66.8193 13.8354 67.2671 16.7114 67.1509 19.6279Z" fill="#FFC729"/>
        <path d="M19.3267 51.2251L13.4731 48.8008C12.9438 48.5815 12.7031 47.9673 12.9385 47.4448C13.0381 47.2227 13.1401 47.0024 13.2432 46.7852C13.4897 46.2671 14.1157 46.0542 14.6255 46.3179L20.2544 49.2271C20.7388 49.4775 20.936 50.0645 20.7056 50.5591C20.6826 50.6084 20.6597 50.6577 20.6372 50.7075C20.4092 51.2046 19.8315 51.4346 19.3267 51.2251ZM22.041 46.3604L16.9575 42.5732C16.4946 42.229 16.4121 41.5679 16.7759 41.1201C16.9575 40.8965 17.1426 40.6768 17.3306 40.4614C17.71 40.0264 18.376 39.9961 18.7939 40.394L23.3843 44.7666C23.7749 45.1392 23.8018 45.7485 23.4541 46.1606C23.4458 46.1714 23.437 46.1816 23.4282 46.1919C23.0811 46.606 22.4741 46.6831 22.041 46.3604ZM25.8472 42.6616L22.2437 37.4448C21.9155 36.9692 22.0498 36.3149 22.54 36.0088C22.7891 35.853 23.0415 35.7017 23.2974 35.5547C23.7979 35.2666 24.438 35.4551 24.7036 35.9683L27.6162 41.5991C27.8643 42.0781 27.6909 42.6626 27.228 42.9395C27.2227 42.9429 27.2168 42.9463 27.2114 42.9497C26.7495 43.2266 26.1533 43.105 25.8472 42.6616ZM30.6997 40.3418L28.8301 34.2871C28.6602 33.7368 28.9819 33.1577 29.5381 33.0078C29.7803 32.9424 30.0249 32.8794 30.2715 32.8193C30.8301 32.6836 31.3916 33.0337 31.5088 33.5962L32.8032 39.7993C32.9146 40.3325 32.5835 40.856 32.0552 40.9893C32.0122 41.0005 31.9697 41.0112 31.9272 41.022C31.4009 41.1587 30.8604 40.8613 30.6997 40.3418ZM36.2891 39.2905L35.7412 32.98C35.6919 32.4121 36.1196 31.916 36.6885 31.8804C36.9019 31.8667 37.1167 31.855 37.3325 31.8442C37.9014 31.8169 38.3823 32.2607 38.398 32.8296L38.5679 39.1611C38.5825 39.7095 38.1582 40.1714 37.6108 40.2002C37.5249 40.2046 37.4395 40.209 37.355 40.2139C36.8081 40.2461 36.3364 39.8359 36.2891 39.2905ZM42.4541 39.1768L42.3208 32.7622C42.3101 32.2397 42.7139 31.8042 43.2354 31.77C43.2969 31.7661 43.3584 31.7622 43.4199 31.7573C43.9399 31.7192 44.3989 32.0923 44.4624 32.6099L45.2388 38.9795C45.3062 39.5298 44.9009 40.022 44.3486 40.0688C44.064 40.0933 43.7769 40.1128 43.4883 40.1289C42.9356 40.1592 42.4658 39.73 42.4541 39.1768ZM49.6279 38.0298L47.6816 31.9126C47.5249 31.4194 47.7827 30.8945 48.2647 30.707C48.2861 30.6982 48.3076 30.6899 48.3296 30.6816C48.8096 30.4917 49.3545 30.7002 49.5757 31.167L52.3247 36.9688C52.563 37.4717 52.332 38.0713 51.8189 38.2861C51.5147 38.4131 51.207 38.5337 50.8955 38.6484C50.3735 38.8403 49.7964 38.5596 49.6279 38.0298ZM56.2515 34.5249L52.251 29.501C51.9307 29.0986 51.9824 28.521 52.3599 28.1719C52.3647 28.1675 52.3691 28.1636 52.3735 28.1592C52.7505 27.8096 53.3306 27.8018 53.7075 28.1514L58.4126 32.5225C58.8198 32.9004 58.8301 33.5439 58.4321 33.9321C58.1797 34.1782 57.9204 34.4185 57.6558 34.6514C57.2383 35.0186 56.5977 34.96 56.2515 34.5249ZM61.1499 28.7817L55.5645 25.6147C55.1162 25.3604 54.9482 24.8037 55.1704 24.3384C55.1768 24.3257 55.1831 24.3125 55.189 24.2998C55.4097 23.8335 55.9482 23.6128 56.4282 23.8008L62.4077 26.1401C62.9268 26.3433 63.169 26.9395 62.9414 27.4482C62.8023 27.7593 62.6558 28.0674 62.502 28.3716C62.2505 28.8691 61.6348 29.0571 61.1499 28.7817ZM63.5977 21.6865L57.2471 20.7339C56.7378 20.6577 56.3823 20.1987 56.4219 19.6851C56.4224 19.6777 56.4229 19.6704 56.4233 19.6631C56.4619 19.1509 56.8814 18.7505 57.3955 18.7505L63.8174 18.75C64.376 18.7495 64.8193 19.2183 64.7915 19.7764C64.7739 20.1226 64.7476 20.4697 64.7129 20.8169C64.6567 21.3721 64.1494 21.769 63.5977 21.6865ZM12.4863 52.9224C12.583 53.0845 12.6812 53.2451 12.7817 53.4043C12.7856 53.4111 12.7896 53.416 12.7935 53.4229C12.8193 53.4644 12.8467 53.5078 12.8745 53.5493C13.394 54.3735 13.9546 55.1714 14.5474 55.9409C14.5981 56.0059 14.6489 56.0708 14.6992 56.1357C14.7002 56.1357 14.7007 56.1362 14.7017 56.1367L17.5532 56.8125C18.0884 56.939 18.6284 56.6162 18.7666 56.0845C18.79 55.9951 18.8135 55.9058 18.8374 55.8169C18.979 55.2866 18.6704 54.7412 18.1436 54.5864L12.4863 52.9224Z" fill="#E57A10"/>
        <path d="M56.8945 13.9385C56.8945 14.9961 56.0371 15.853 54.9795 15.853C53.9219 15.853 53.0645 14.9961 53.0645 13.9385C53.0645 12.8809 53.9219 12.0234 54.9795 12.0234C56.0371 12.0234 56.8945 12.8809 56.8945 13.9385Z" fill="#142F01"/>
        <path d="M66.3398 11.2588C66.3398 12.3159 65.4824 13.1733 64.4248 13.1733C63.3672 13.1733 62.5098 12.3159 62.5098 11.2588C62.5098 10.2012 63.3672 9.34375 64.4248 9.34375C65.4824 9.34375 66.3398 10.2012 66.3398 11.2588Z" fill="#142F01"/>
    </g>
    <defs>
        <filter id="filter0_d_1316_4653" x="0.388672" y="0.898438" width="79.0469" height="79.0469" filterUnits="userSpaceOnUse" color-interpolation-filters="sRGB">
            <feFlood flood-opacity="0" result="BackgroundImageFix"/>
            <feColorMatrix in="SourceAlpha" type="matrix" values="0 0 0 0 0 0 0 0 0 0 0 0 0 0 0 0 0 0 127 0" result="hardAlpha"/>
            <feOffset dy="4"/>
            <feGaussianBlur stdDeviation="2"/>
            <feComposite in2="hardAlpha" operator="out"/>
            <feColorMatrix type="matrix" values="0 0 0 0 0 0 0 0 0 0 0 0 0 0 0 0 0 0 0.25 0"/>
            <feBlend mode="normal" in2="BackgroundImageFix" result="effect1_dropShadow_1316_4653"/>
            <feBlend mode="normal" in="SourceGraphic" in2="effect1_dropShadow_1316_4653" result="shape"/>
        </filter>
        <clipPath id="clip0_1316_4653">
            <rect width="64" height="64" fill="white" transform="translate(7.91211 4.42188)"/>
        </clipPath>
    </defs>
</svg>
