<svg width="25" height="24" viewBox="0 0 25 24" fill="none" xmlns="http://www.w3.org/2000/svg">
    <path d="M17.4862 8.46441C17.6683 8.2758 17.7691 8.0232 17.7668 7.761C17.7646 7.49881 17.6594 7.248 17.474 7.06259C17.2886 6.87718 17.0378 6.77201 16.7756 6.76973C16.5134 6.76745 16.2608 6.86825 16.0722 7.05041L12.5362 10.5864L9.00017 7.05041C8.90792 6.9549 8.79758 6.87871 8.67558 6.8263C8.55357 6.7739 8.42235 6.74631 8.28957 6.74515C8.15679 6.744 8.02511 6.7693 7.90222 6.81958C7.77932 6.86986 7.66767 6.94412 7.57378 7.03801C7.47988 7.1319 7.40563 7.24355 7.35535 7.36645C7.30507 7.48935 7.27977 7.62103 7.28092 7.75381C7.28208 7.88659 7.30966 8.01781 7.36207 8.13981C7.41448 8.26181 7.49066 8.37216 7.58617 8.46441L11.1222 12.0004L7.58617 15.5364C7.49066 15.6287 7.41448 15.739 7.36207 15.861C7.30966 15.983 7.28208 16.1142 7.28092 16.247C7.27977 16.3798 7.30507 16.5115 7.35535 16.6344C7.40563 16.7573 7.47988 16.8689 7.57378 16.9628C7.66767 17.0567 7.77932 17.1309 7.90222 17.1812C8.02511 17.2315 8.15679 17.2568 8.28957 17.2557C8.42235 17.2545 8.55357 17.2269 8.67558 17.1745C8.79758 17.1221 8.90792 17.0459 9.00017 16.9504L12.5362 13.4144L16.0722 16.9504C16.1644 17.0459 16.2748 17.1221 16.3968 17.1745C16.5188 17.2269 16.65 17.2545 16.7828 17.2557C16.9156 17.2568 17.0472 17.2315 17.1701 17.1812C17.293 17.1309 17.4047 17.0567 17.4986 16.9628C17.5925 16.8689 17.6667 16.7573 17.717 16.6344C17.7673 16.5115 17.7926 16.3798 17.7914 16.247C17.7903 16.1142 17.7627 15.983 17.7103 15.861C17.6579 15.739 17.5817 15.6287 17.4862 15.5364L13.9502 12.0004L17.4862 8.46441Z" fill="black"/>
</svg>
