<svg width="23" height="16" viewBox="0 0 23 16" fill="none" xmlns="http://www.w3.org/2000/svg">
    <g clip-path="url(#clip0_19_73)">
        <path fill-rule="evenodd" clip-rule="evenodd" d="M0.000732422 0.5H22.5V15.5H0.000732422V0.5Z" fill="white"/>
        <path fill-rule="evenodd" clip-rule="evenodd" d="M0.000732422 10.5H22.5007V15.5H0.000732422V10.5Z" fill="#4EAB53"/>
        <path fill-rule="evenodd" clip-rule="evenodd" d="M0.000488281 0.5H22.4997V5.5H0.000488281V0.5Z" fill="#FD9727"/>
        <path fill-rule="evenodd" clip-rule="evenodd" d="M11.6904 10.0153C11.8104 9.9951 11.9269 9.9644 12.0389 9.92417C12.0301 9.91575 12.0229 9.90546 12.0178 9.89356C11.9979 9.84657 12.0198 9.79231 12.0668 9.77236C12.1138 9.75241 12.168 9.77434 12.188 9.82133C12.1934 9.83412 12.1957 9.84745 12.1953 9.86048C12.3083 9.80888 12.4157 9.74725 12.5165 9.67673C12.5026 9.6708 12.4899 9.66136 12.4799 9.64857C12.4485 9.60834 12.4556 9.55025 12.4958 9.51882C12.5361 9.4874 12.5941 9.49453 12.6256 9.53475C12.6361 9.54825 12.6423 9.56375 12.6444 9.57959C12.7427 9.49863 12.8333 9.40863 12.9149 9.31088C12.8967 9.31019 12.8785 9.30413 12.8628 9.29232C12.8221 9.2616 12.8139 9.20365 12.8446 9.16288C12.8754 9.12211 12.9333 9.11397 12.9741 9.14469C12.9905 9.15703 13.0016 9.17375 13.007 9.192C13.0834 9.08551 13.1498 8.97137 13.2049 8.85093C13.1846 8.85782 13.1619 8.85775 13.1405 8.84911C13.0932 8.82999 13.0703 8.77612 13.0895 8.72879C13.1086 8.68146 13.1624 8.65859 13.2098 8.67771C13.2318 8.68662 13.2486 8.70306 13.2582 8.72286C13.3055 8.59727 13.3409 8.46578 13.3628 8.32979C13.344 8.34464 13.3196 8.35227 13.294 8.34913C13.2434 8.3429 13.2073 8.29679 13.2136 8.24612C13.2198 8.19545 13.2659 8.15942 13.3166 8.16564C13.3425 8.16883 13.3647 8.1825 13.3792 8.20189C13.3856 8.13627 13.3888 8.06973 13.3888 8.00243C13.3888 7.92914 13.385 7.85675 13.3774 7.78545C13.3634 7.807 13.3404 7.82258 13.3129 7.82645C13.2624 7.83355 13.2156 7.79833 13.2085 7.74778C13.2014 7.69723 13.2366 7.65049 13.2872 7.64339C13.315 7.63948 13.3417 7.64838 13.3612 7.66561C13.3377 7.52396 13.2997 7.38724 13.2486 7.25705C13.2412 7.28293 13.2226 7.30535 13.1959 7.31669C13.1489 7.33664 13.0946 7.31472 13.0747 7.26773C13.0547 7.22074 13.0766 7.16648 13.1236 7.14653C13.1503 7.13521 13.1793 7.13737 13.2031 7.14995C13.1434 7.02026 13.0706 6.8979 12.9864 6.7846C12.9855 6.81108 12.9734 6.83702 12.9509 6.8546C12.9107 6.88603 12.8526 6.8789 12.8211 6.83867C12.7897 6.79845 12.7968 6.74036 12.8371 6.70893C12.8593 6.69156 12.887 6.68597 12.9126 6.69124C12.8226 6.5838 12.7217 6.48578 12.6116 6.39887C12.6163 6.42355 12.6109 6.45003 12.5946 6.47166C12.5639 6.51243 12.506 6.52058 12.4652 6.48986C12.4244 6.45914 12.4163 6.40118 12.447 6.36041C12.463 6.3392 12.4863 6.32682 12.5108 6.32415C12.3987 6.24629 12.2784 6.1794 12.1515 6.12503C12.1601 6.14639 12.1607 6.17096 12.1514 6.19398C12.1323 6.24131 12.0784 6.26418 12.0311 6.24505C11.9838 6.22593 11.9609 6.17206 11.98 6.12473C11.989 6.10248 12.0057 6.08564 12.0257 6.07602C11.9018 6.03247 11.7725 6.00055 11.6389 5.98159C11.6492 5.99866 11.6541 6.01916 11.6514 6.04047C11.6452 6.09113 11.5991 6.12716 11.5484 6.12094C11.4978 6.11472 11.4617 6.0686 11.468 6.01794C11.4704 5.99777 11.4792 5.97993 11.4921 5.96614C11.4452 5.96291 11.3978 5.96127 11.3501 5.96127C11.2683 5.96127 11.1877 5.96609 11.1084 5.97546C11.119 5.98821 11.1263 6.00397 11.1288 6.02159C11.1359 6.07214 11.1006 6.11888 11.0501 6.12598C10.9995 6.13309 10.9528 6.09787 10.9457 6.04732C10.9434 6.03082 10.9456 6.01473 10.9513 6.0003C10.8283 6.02471 10.7093 6.0602 10.5954 6.10569C10.6053 6.11451 10.6135 6.12561 10.619 6.13863C10.639 6.18562 10.617 6.23989 10.57 6.25983C10.523 6.27978 10.4688 6.25785 10.4488 6.21087C10.4438 6.19905 10.4415 6.18677 10.4415 6.1747C10.3335 6.22861 10.231 6.29183 10.1349 6.36332C10.1431 6.3687 10.1506 6.37549 10.1569 6.38363C10.1883 6.42385 10.1812 6.48194 10.141 6.51337C10.1008 6.5448 10.0427 6.53766 10.0112 6.49744C10.0057 6.4903 10.0013 6.48261 9.99813 6.4746C9.91046 6.55242 9.82954 6.63769 9.75636 6.72941C9.76248 6.73218 9.76839 6.73566 9.77398 6.73987C9.81474 6.77059 9.82289 6.82854 9.79217 6.86931C9.76145 6.91008 9.70349 6.91822 9.66273 6.8875C9.65798 6.88393 9.65368 6.87998 9.64983 6.87574C9.5864 6.97149 9.53082 7.07292 9.48402 7.17909C9.48814 7.18012 9.49224 7.18145 9.49629 7.18308C9.54362 7.20221 9.56649 7.25608 9.54736 7.30341C9.52824 7.35074 9.47437 7.3736 9.42704 7.35448C9.42381 7.35318 9.4207 7.35171 9.4177 7.3501C9.38165 7.4572 9.35422 7.56827 9.33626 7.6825C9.33842 7.68261 9.3406 7.6828 9.34278 7.68307C9.39344 7.68929 9.42947 7.7354 9.42325 7.78607C9.41703 7.83674 9.37092 7.87277 9.32025 7.86655C9.31877 7.86637 9.31731 7.86615 9.31585 7.8659C9.31288 7.91103 9.31137 7.95655 9.31137 8.00243C9.31137 8.07118 9.31476 8.13913 9.32139 8.20613C9.32222 8.20599 9.32306 8.20586 9.3239 8.20574C9.37445 8.19864 9.42119 8.23386 9.42829 8.28441C9.4354 8.33496 9.40018 8.3817 9.34963 8.3888C9.34905 8.38889 9.34846 8.38896 9.34788 8.38903C9.36944 8.50163 9.40024 8.61094 9.43946 8.71614C9.43995 8.71592 9.44045 8.71571 9.44095 8.7155C9.48794 8.69555 9.5422 8.71748 9.56214 8.76447C9.58209 8.81145 9.56017 8.86572 9.51318 8.88566C9.51274 8.88585 9.51229 8.88603 9.51185 8.88621C9.5612 8.98892 9.61888 9.08685 9.68402 9.17913C9.68465 9.17861 9.68529 9.1781 9.68594 9.17759C9.72616 9.14616 9.78425 9.15329 9.81568 9.19352C9.84711 9.23375 9.83997 9.29183 9.79975 9.32326C9.79893 9.3239 9.79811 9.32452 9.79728 9.32513C9.87096 9.41176 9.95176 9.49215 10.0388 9.56539C10.0398 9.56374 10.041 9.56212 10.0422 9.56053C10.0729 9.51976 10.1309 9.51161 10.1716 9.54233C10.2124 9.57306 10.2205 9.63101 10.1898 9.67178C10.1883 9.67382 10.1867 9.67578 10.185 9.67766C10.2784 9.74294 10.3776 9.80057 10.4816 9.84966C10.4826 9.84582 10.4839 9.842 10.4854 9.83821C10.5045 9.79088 10.5584 9.76802 10.6057 9.78714C10.653 9.80626 10.6759 9.86013 10.6568 9.90746C10.655 9.91195 10.6529 9.91621 10.6505 9.92024C10.758 9.95959 10.8698 9.99012 10.985 10.011C10.9845 10.0044 10.9846 9.99771 10.9855 9.99093C10.9921 9.94032 11.0386 9.90469 11.0892 9.91135C11.1398 9.91801 11.1754 9.96444 11.1688 10.0151C11.1678 10.0221 11.1661 10.0288 11.1638 10.0352C11.2251 10.0408 11.2873 10.0436 11.3501 10.0436C11.4059 10.0436 11.4612 10.0414 11.5159 10.037C11.512 10.0288 11.5094 10.02 11.5081 10.0106C11.501 9.96005 11.5362 9.91331 11.5867 9.90621C11.6373 9.8991 11.684 9.93433 11.6911 9.98488C11.6926 9.99528 11.6922 10.0055 11.6904 10.0153ZM11.4165 8.3777C11.4477 8.36914 11.4772 8.35659 11.5046 8.34063L11.7103 8.82163L12.3198 9.75049L11.8201 8.75825L11.5064 8.33957C11.534 8.32323 11.5593 8.30341 11.5817 8.2807L11.9054 8.69275L12.7345 9.43223L11.9951 8.60312L11.583 8.27936C11.6053 8.25655 11.6246 8.23088 11.6404 8.20295L12.0606 8.51776L13.0528 9.01745L12.1239 8.40798L11.6412 8.20151C11.6567 8.17393 11.6687 8.14417 11.6767 8.1128L12.1651 8.30859L13.2529 8.53444L12.1979 8.18614L11.677 8.11148C11.6843 8.08256 11.6881 8.05229 11.6881 8.02113C11.6881 8.01962 11.6881 8.01812 11.6881 8.01661L12.212 8.07948L13.3211 8.0161L12.212 7.95272L11.6881 8.01558C11.6876 7.98288 11.6829 7.9512 11.6744 7.92108L12.1979 7.84605L13.2529 7.49776L12.1651 7.72361L11.6742 7.92037C11.6654 7.88928 11.6527 7.85985 11.6366 7.83267L12.1239 7.62421L13.0528 7.01474L12.0606 7.51443L11.6363 7.83229C11.6199 7.80477 11.6001 7.77956 11.5774 7.75726L11.9951 7.42907L12.7345 6.59997L11.9054 7.33944L11.5772 7.75713C11.5545 7.73485 11.529 7.71549 11.5011 7.69963L11.8201 7.27394L12.3198 6.2817L11.7103 7.21056L11.5011 7.69963C11.4472 7.66894 11.3849 7.65141 11.3184 7.65141C11.2519 7.65141 11.1896 7.66894 11.1357 7.69964L10.8167 7.27394L10.3171 6.2817L10.9265 7.21056L11.1357 7.69964C11.1079 7.71549 11.0823 7.73486 11.0596 7.75713L10.7314 7.33944L9.90228 6.59997L10.6418 7.42907L11.0594 7.75726C11.0367 7.77956 11.0169 7.80477 11.0005 7.83229L10.5763 7.51443L9.58401 7.01474L10.5129 7.62421L11.0003 7.83267C10.9841 7.85985 10.9714 7.88928 10.9626 7.92037L10.4717 7.72361L9.38394 7.49776L10.4389 7.84605L10.9624 7.92108C10.9539 7.9512 10.9492 7.98288 10.9487 8.01558L10.4249 7.95272L9.3157 8.0161L10.4249 8.07948L10.9487 8.01661C10.9487 8.01812 10.9487 8.01962 10.9487 8.02113C10.9487 8.05229 10.9525 8.08256 10.9598 8.11148L10.4389 8.18614L9.38394 8.53444L10.4717 8.30859L10.9601 8.1128C10.9681 8.14417 10.9802 8.17393 10.9956 8.20151L10.5129 8.40798L9.58401 9.01745L10.5763 8.51776L10.9964 8.20295C11.0122 8.23088 11.0316 8.25655 11.0538 8.27936L10.6418 8.60312L9.90228 9.43223L10.7314 8.69275L11.0551 8.2807C11.0775 8.30341 11.1028 8.32323 11.1304 8.33957L10.8167 8.75825L10.3171 9.75049L10.9265 8.82163L11.1322 8.34063C11.1596 8.35659 11.1891 8.36914 11.2204 8.3777L11.0259 8.8628L10.8001 9.95056L11.1484 8.89561L11.2225 8.37829C11.2527 8.38639 11.2845 8.39075 11.3173 8.39084L11.3184 8.39085C11.3188 8.39085 11.3192 8.39084 11.3195 8.39084L11.3818 8.90965L11.3184 10.0188L11.255 8.90965L11.3173 8.39084H11.3195C11.3523 8.39075 11.3841 8.38639 11.4143 8.37829L11.4885 8.89561L11.8367 9.95056L11.6109 8.8628L11.4165 8.3777ZM11.3501 10.25C12.5927 10.25 13.6001 9.24264 13.6001 8C13.6001 6.75736 12.5927 5.75 11.3501 5.75C10.1075 5.75 9.1001 6.75736 9.1001 8C9.1001 9.24264 10.1075 10.25 11.3501 10.25ZM10.8001 6.08163L11.0259 7.16939L11.2238 7.66316L11.1484 7.13658L10.8001 6.08163ZM11.3184 6.01339L11.255 7.12254L11.3184 7.65071L11.3818 7.12254L11.3184 6.01339ZM11.8367 6.08163L11.4885 7.13658L11.413 7.66316L11.6109 7.16939L11.8367 6.08163Z" fill="#2B98F0"/>
    </g>
    <defs>
        <clipPath id="clip0_19_73">
            <rect width="22.5" height="15" fill="white" transform="translate(0 0.5)"/>
        </clipPath>
    </defs>
</svg>
