<svg width="16" height="17" viewBox="0 0 16 17" fill="none" xmlns="http://www.w3.org/2000/svg">
    <path d="M11.3 6.56485L8.94297 8.92188L11.3 11.2789C11.425 11.4039 11.4953 11.5735 11.4953 11.7503C11.4953 11.9271 11.425 12.0967 11.3 12.2217C11.175 12.3467 11.0054 12.417 10.8286 12.417C10.6518 12.417 10.4822 12.3467 10.3572 12.2217L8.00016 9.86468L5.64314 12.2217C5.51811 12.3467 5.34854 12.417 5.17173 12.417C4.99492 12.417 4.82535 12.3467 4.70033 12.2217C4.5753 12.0967 4.50507 11.9271 4.50507 11.7503C4.50507 11.5735 4.5753 11.4039 4.70033 11.2789L7.05735 8.92188L4.70033 6.56485C4.5753 6.43983 4.50507 6.27026 4.50507 6.09345C4.50507 5.91664 4.5753 5.74707 4.70033 5.62204C4.82535 5.49702 4.99492 5.42678 5.17173 5.42678C5.34854 5.42678 5.51811 5.49702 5.64314 5.62204L8.00016 7.97907L10.3572 5.62204C10.4822 5.49702 10.6518 5.42678 10.8286 5.42678C11.0054 5.42678 11.175 5.49702 11.3 5.62204C11.425 5.74707 11.4953 5.91664 11.4953 6.09345C11.4953 6.27026 11.425 6.43983 11.3 6.56485Z" fill="black" fill-opacity="0.5"/>
</svg>
