<svg width="48" height="48" viewBox="0 0 48 48" fill="none" xmlns="http://www.w3.org/2000/svg">
    <g clip-path="url(#clip0_535_2130)">
        <path d="M48.0002 23.9999C48.0002 27.0562 47.4171 30.0271 46.2667 32.8293C46.0436 33.3731 45.5186 33.7021 44.9655 33.7021C44.7874 33.7021 44.6064 33.6684 44.4321 33.5962C43.713 33.3018 43.3699 32.4796 43.6652 31.7615C44.6758 29.2996 45.1877 26.6877 45.1877 23.9999C45.1877 20.0718 44.073 16.2571 41.9617 12.9674C41.5427 12.314 41.733 11.444 42.3864 11.0249C43.0399 10.6049 43.9099 10.7952 44.3289 11.4487C46.7308 15.1921 48.0002 19.5318 48.0002 23.9999Z" fill="#332866"/>
        <path d="M3.3137 29.8781C2.66139 29.8781 2.0763 29.4216 1.9383 28.7577C1.61505 27.2021 1.45117 25.6014 1.45117 24.0002C1.45117 19.1711 2.91723 14.5391 5.69092 10.6049C6.13848 9.9701 7.0157 9.81832 7.65058 10.2658C8.28536 10.7134 8.43714 11.5907 7.98958 12.2254C5.55208 15.6829 4.26367 19.7545 4.26367 24.0002C4.26367 25.4096 4.40777 26.8177 4.69202 28.1855C4.85008 28.946 4.36173 29.6905 3.60123 29.8485C3.50477 29.8684 3.40848 29.8781 3.3137 29.8781Z" fill="#574D8C"/>
        <path d="M24.7502 0.725586L27.2814 2.24996L24.7502 3.53809H24.7258C20.5324 3.53809 16.5011 4.79715 13.0689 7.17934C12.8242 7.34902 12.5449 7.43059 12.2683 7.43059C11.823 7.43059 11.3842 7.21965 11.1114 6.8259C10.6689 6.1884 10.8264 5.31184 11.4649 4.86934C15.3714 2.15809 19.9567 0.725586 24.7258 0.725586H24.7502Z" fill="#574D8C"/>
        <path d="M24.7502 44.4619L27.0002 45.6563L24.7502 47.2744H24.7258C20.3571 47.2744 16.099 46.0576 12.4118 43.7541C8.82584 41.5144 5.91491 38.3438 3.99397 34.5854C3.63959 33.8944 3.91428 33.0469 4.60522 32.6935C5.29709 32.3401 6.14459 32.6138 6.49803 33.3048C8.18741 36.6104 10.7477 39.3985 13.9015 41.3682C17.1415 43.3923 20.8849 44.4619 24.7258 44.4619H24.7502Z" fill="#574D8C"/>
        <path d="M24.7499 18.2393L27.6562 24.1877L24.7499 29.7611H24.7255C21.5493 29.7611 18.9646 27.1764 18.9646 24.0002C18.9646 20.8239 21.5493 18.2393 24.7255 18.2393H24.7499Z" fill="#FFCD00"/>
        <path d="M24.7501 35.6571L26.4376 36.844L24.7501 38.4696H24.7257C16.7476 38.4696 10.2563 31.9784 10.2563 24.0002C10.2563 20.6965 11.3992 17.4659 13.4738 14.9027C15.5176 12.378 18.3788 10.5959 21.5317 9.88523C22.2892 9.7146 23.041 10.1909 23.2126 10.9484C23.3832 11.7059 22.907 12.4587 22.1495 12.6293C19.6117 13.2012 17.3073 14.6374 15.6601 16.6727C13.9651 18.7662 13.0688 21.3002 13.0688 24.0002C13.0688 30.4277 18.2982 35.6571 24.7257 35.6571H24.7501Z" fill="#574D8C"/>
        <path d="M44.3475 39.4992C44.341 40.6504 43.8872 41.7295 43.0688 42.5395C42.2306 43.3692 41.1347 43.7836 40.0388 43.7836C38.9269 43.7836 37.8169 43.357 36.975 42.5067C36.1453 41.6686 35.731 40.5726 35.731 39.4767C35.731 38.3657 36.1575 37.2548 37.0078 36.4129C37.8206 35.6086 38.896 35.167 40.0378 35.167H40.0613C41.2125 35.1736 42.2925 35.6273 43.1016 36.4457C43.9106 37.2632 44.3531 38.3479 44.3475 39.4992Z" fill="#A64DFF"/>
        <path d="M14.055 7.76465C14.0494 9.22527 13.4747 10.5968 12.4378 11.6262C11.4056 12.6509 10.0378 13.2143 8.5847 13.2143H8.56407C7.10251 13.2087 5.73095 12.635 4.70157 11.5981C2.5772 9.45684 2.58938 5.98621 4.73063 3.86184C6.87095 1.73652 10.3416 1.74965 12.4669 3.8909C13.4963 4.92777 14.0597 6.30309 14.055 7.76465Z" fill="#33DDFF"/>
        <path d="M30.4866 24.0002C30.4866 27.168 27.915 29.748 24.75 29.7611V18.2393C27.915 18.2524 30.4866 20.8324 30.4866 24.0002Z" fill="#FF9E1C"/>
        <path d="M4.3125 35.5312C6.69423 35.5312 8.625 33.6005 8.625 31.2188C8.625 28.837 6.69423 26.9062 4.3125 26.9062C1.93077 26.9062 0 28.837 0 31.2188C0 33.6005 1.93077 35.5312 4.3125 35.5312Z" fill="#FFCD00"/>
        <path d="M39.4688 9.28125C40.2454 9.28125 40.875 8.65165 40.875 7.875C40.875 7.09835 40.2454 6.46875 39.4688 6.46875C38.6921 6.46875 38.0625 7.09835 38.0625 7.875C38.0625 8.65165 38.6921 9.28125 39.4688 9.28125Z" fill="#2EA8E6"/>
        <path d="M33.3244 45.6345C30.5944 46.7201 27.7106 47.2713 24.75 47.2742V44.4617C27.3525 44.4588 29.8875 43.9742 32.2847 43.0207C33.0056 42.7338 33.8241 43.0863 34.1109 43.8082C34.3978 44.5301 34.0453 45.3476 33.3244 45.6345Z" fill="#332866"/>
        <path d="M35.8753 5.13184C35.5228 5.82465 34.6763 6.10027 33.9844 5.74777C31.1081 4.28527 28.0022 3.54184 24.75 3.53809V0.725586C28.4494 0.729336 31.9847 1.5759 35.2594 3.2409C35.9513 3.5934 36.2269 4.43996 35.8753 5.13184Z" fill="#332866"/>
        <path d="M39.195 24.0002C39.195 31.9699 32.7169 38.4565 24.75 38.4696V35.6571C31.1663 35.644 36.3825 30.4193 36.3825 24.0002C36.3825 21.3002 35.4862 18.7662 33.7913 16.6727C32.1441 14.6374 29.8397 13.2012 27.3019 12.6293C26.5444 12.4587 26.0691 11.7059 26.2397 10.9484C26.4103 10.1909 27.1622 9.7146 27.9206 9.88523C31.0725 10.5959 33.9338 12.378 35.9775 14.9027C38.0522 17.4659 39.195 20.6965 39.195 24.0002Z" fill="#332866"/>
        <path d="M24.7501 6.62793L26.4376 10.0311L24.7501 15.2464H24.7257C22.3501 15.2464 20.417 13.3132 20.417 10.9367C20.417 8.56106 22.3501 6.62793 24.7257 6.62793H24.7501Z" fill="#FF5533"/>
        <path d="M29.0353 10.9367C29.0353 13.3048 27.1153 15.2332 24.75 15.2464V6.62793C27.1153 6.64105 29.0353 8.56949 29.0353 10.9367Z" fill="#E62E2E"/>
    </g>
    <defs>
        <clipPath id="clip0_535_2130">
            <rect width="48" height="48" fill="white"/>
        </clipPath>
    </defs>
</svg>
