<svg width="65" height="65" viewBox="0 0 65 65" fill="none" xmlns="http://www.w3.org/2000/svg">
    <g clip-path="url(#clip0_699_1829)">
        <path d="M32.488 64.476C50.1545 64.476 64.476 50.1545 64.476 32.488C64.476 14.8215 50.1545 0.5 32.488 0.5C14.8215 0.5 0.5 14.8215 0.5 32.488C0.5 50.1545 14.8215 64.476 32.488 64.476Z" fill="#10B100"/>
        <path d="M32.4881 60.9418C48.2027 60.9418 60.942 48.2026 60.942 32.488C60.942 16.7733 48.2027 4.03406 32.4881 4.03406C16.7734 4.03406 4.03418 16.7733 4.03418 32.488C4.03418 48.2026 16.7734 60.9418 32.4881 60.9418Z" fill="#2FC620"/>
        <path fill-rule="evenodd" clip-rule="evenodd" d="M28.9558 17.1658C27.7367 17.1658 26.5675 17.6501 25.7055 18.5121C24.8434 19.3742 24.3591 20.5433 24.3591 21.7625V43.2136C24.3591 44.4327 24.8434 45.6019 25.7055 46.464C26.5675 47.326 27.7367 47.8103 28.9558 47.8103H38.1492C39.3683 47.8103 40.5375 47.326 41.3995 46.464C42.2616 45.6019 42.7458 44.4327 42.7458 43.2136V21.7625C42.7458 20.5433 42.2616 19.3742 41.3995 18.5121C40.5375 17.6501 39.3683 17.1658 38.1492 17.1658H28.9558ZM30.937 26.8081C31.2243 26.5208 31.614 26.3595 32.0203 26.3595C32.4266 26.3595 32.8162 26.5208 33.1035 26.8081L37.7002 31.4048C37.9875 31.6921 38.1488 32.0817 38.1488 32.488C38.1488 32.8943 37.9875 33.284 37.7002 33.5713L33.1035 38.168C32.8146 38.4471 32.4275 38.6015 32.0258 38.5981C31.624 38.5946 31.2397 38.4334 30.9556 38.1493C30.6716 37.8652 30.5104 37.4809 30.5069 37.0792C30.5034 36.6775 30.6579 36.2904 30.937 36.0014L32.9181 34.0203H19.7625C19.3561 34.0203 18.9664 33.8588 18.679 33.5715C18.3917 33.2841 18.2302 32.8944 18.2302 32.488C18.2302 32.0817 18.3917 31.6919 18.679 31.4046C18.9664 31.1172 19.3561 30.9558 19.7625 30.9558H32.9181L30.937 28.9746C30.6497 28.6873 30.4884 28.2976 30.4884 27.8914C30.4884 27.4851 30.6497 27.0954 30.937 26.8081Z" fill="white"/>
    </g>
    <defs>
        <clipPath id="clip0_699_1829">
            <rect width="64" height="64" fill="white" transform="translate(0.5 0.5)"/>
        </clipPath>
    </defs>
</svg>
