<svg width="25" height="25" viewBox="0 0 25 25" fill="none" xmlns="http://www.w3.org/2000/svg">
    <path d="M13.8047 19.5C13.8047 16.19 16.4947 13.5 19.8047 13.5C20.9047 13.5 21.9247 13.8 22.8047 14.31V6.5C22.8047 5.96957 22.594 5.46086 22.2189 5.08579C21.8438 4.71071 21.3351 4.5 20.8047 4.5H4.80469C3.69469 4.5 2.80469 5.39 2.80469 6.5V18.5C2.80469 19.0304 3.0154 19.5391 3.39047 19.9142C3.76555 20.2893 4.27425 20.5 4.80469 20.5H13.8947C13.8447 20.17 13.8047 19.84 13.8047 19.5ZM4.80469 8.5V6.5L12.8047 11.5L20.8047 6.5V8.5L12.8047 13.5L4.80469 8.5ZM20.8047 22.5V20.5H16.8047V18.5H20.8047V16.5L23.8047 19.5L20.8047 22.5Z" fill="#10B100"/>
</svg>
