<svg width="25" height="25" viewBox="0 0 25 25" fill="none" xmlns="http://www.w3.org/2000/svg">
    <path d="M17.8131 9.7719H16.0778V4.31501C16.0778 3.71475 15.5867 3.22363 14.9865 3.22363H10.621C10.0207 3.22363 9.52958 3.71475 9.52958 4.31501V9.7719H7.79428C6.82296 9.7719 6.33184 10.9506 7.01941 11.6382L12.0288 16.6476C12.4545 17.0732 13.142 17.0732 13.5677 16.6476L18.5771 11.6382C19.2647 10.9506 18.7845 9.7719 17.8131 9.7719ZM5.16406 20.6857C5.16406 21.2859 5.65518 21.7771 6.25544 21.7771H19.352C19.9522 21.7771 20.4434 21.2859 20.4434 20.6857C20.4434 20.0854 19.9522 19.5943 19.352 19.5943H6.25544C5.65518 19.5943 5.16406 20.0854 5.16406 20.6857Z" fill="#10B100"/>
</svg>