<svg width="29" height="30" viewBox="0 0 29 30" fill="none" xmlns="http://www.w3.org/2000/svg">
    <path d="M2.86318 12.9994C2.33884 13.0085 1.83907 13.2232 1.47149 13.5972C1.10391 13.9712 0.897937 14.4747 0.897937 14.9991C0.897938 15.5235 1.10391 16.0269 1.47149 16.401C1.83907 16.775 2.33885 16.9897 2.86318 16.9988L12.8645 16.9988L12.8645 27.0001C12.8599 27.2656 12.9082 27.5294 13.0066 27.7761C13.105 28.0227 13.2516 28.2473 13.4377 28.4367C13.6239 28.6261 13.8459 28.7766 14.0908 28.8793C14.3357 28.982 14.5986 29.0349 14.8642 29.0349C15.1298 29.0349 15.3927 28.982 15.6376 28.8793C15.8825 28.7766 16.1045 28.6261 16.2906 28.4367C16.4768 28.2473 16.6234 28.0227 16.7218 27.7761C16.8202 27.5294 16.8685 27.2656 16.8639 27.0001L16.8639 16.9988L26.8652 16.9988C27.1307 17.0034 27.3945 16.9551 27.6412 16.8567C27.8878 16.7582 28.1124 16.6117 28.3018 16.4255C28.4913 16.2394 28.6417 16.0174 28.7444 15.7725C28.8471 15.5276 28.9 15.2647 28.9 14.9991C28.9 14.7335 28.8471 14.4706 28.7444 14.2257C28.6417 13.9808 28.4913 13.7588 28.3018 13.5726C28.1124 13.3865 27.8878 13.2399 27.6412 13.1415C27.3945 13.0431 27.1307 12.9948 26.8652 12.9994L16.8639 12.9994L16.8639 2.99806C16.8685 2.73254 16.8202 2.46875 16.7218 2.22209C16.6234 1.97543 16.4768 1.75085 16.2906 1.56144C16.1045 1.37203 15.8825 1.22159 15.6376 1.11889C15.3927 1.0162 15.1298 0.96331 14.8642 0.96331C14.5986 0.96331 14.3357 1.0162 14.0908 1.11889C13.8459 1.22159 13.6239 1.37203 13.4377 1.56144C13.2516 1.75085 13.105 1.97543 13.0066 2.22209C12.9082 2.46875 12.8599 2.73254 12.8645 2.99806L12.8645 12.9994L2.86318 12.9994Z" fill="white"/>
</svg>
