<svg width="24" height="25" viewBox="0 0 24 25" fill="none" xmlns="http://www.w3.org/2000/svg">
    <path d="M16.5 12.4966V7.24658C16.5 5.17883 14.8177 3.49658 12.75 3.49658H6.75C4.68225 3.49658 3 5.17883 3 7.24658V16.8871C3 17.4818 3.32625 18.0263 3.8505 18.3076C4.089 18.4358 4.35075 18.4988 4.61175 18.4988C4.92375 18.4988 5.235 18.4081 5.505 18.2288L8.47725 16.2466H12.75C14.8177 16.2466 16.5 14.5643 16.5 12.4966ZM9.75 13.9996C9.336 13.9996 9 13.6636 9 13.2496C9 12.8356 9.336 12.4996 9.75 12.4996C10.164 12.4996 10.5 12.8356 10.5 13.2496C10.5 13.6636 10.164 13.9996 9.75 13.9996ZM10.8352 10.7213C10.5 10.9058 10.5 10.9598 10.5 10.9996C10.5 11.4143 10.164 11.7496 9.75 11.7496C9.336 11.7496 9 11.4143 9 10.9996C9 10.0186 9.7785 9.59033 10.1108 9.40733C10.3282 9.28808 10.557 9.00608 10.4872 8.60783C10.4355 8.31383 10.1857 8.06408 9.8925 8.01308C9.663 7.97108 9.441 8.02958 9.2685 8.17508C9.0975 8.31758 9 8.52758 9 8.75033C9 9.16508 8.664 9.50033 8.25 9.50033C7.836 9.50033 7.5 9.16508 7.5 8.75033C7.5 8.08358 7.79325 7.45508 8.304 7.02608C8.81475 6.59708 9.48675 6.41558 10.1512 6.53633C11.058 6.69458 11.8042 7.44008 11.964 8.34908C12.1312 9.30308 11.6775 10.2563 10.8345 10.7221L10.8352 10.7213ZM21 10.2466V19.8871C21 20.4818 20.6737 21.0263 20.1495 21.3076C19.911 21.4358 19.6493 21.4988 19.3883 21.4996C19.0763 21.4996 18.765 21.4088 18.4957 21.2296L15.5228 19.2466H11.25C10.1625 19.2466 9.18975 18.7733 8.50425 18.0316L8.931 17.7466H12.75C15.6442 17.7466 18 15.3908 18 12.4966V7.24658C18 7.01558 17.9797 6.79058 17.9513 6.56708C19.6845 6.89708 21 8.41883 21 10.2466Z" fill="#10B100"/>
</svg>
