<svg width="24" height="24" viewBox="0 0 24 24" fill="none" xmlns="http://www.w3.org/2000/svg">
    <g clip-path="url(#clip0_678_1708)">
        <path d="M18.1448 22.8258C21.3434 23.3347 22.5517 21.5182 22.5517 21.5182C21.5801 20.1901 21.3968 18.4424 22.0717 16.9416C22.0741 16.9395 22.0756 16.9365 22.0759 16.9334L22.0676 16.9416C24.2906 12.6763 23.6472 7.48105 20.4507 3.88695C17.2542 0.292848 12.1696 -0.952567 7.67394 0.757453C3.1783 2.46747 0.206708 6.77727 0.206891 11.5871C0.204168 13.4487 0.652847 15.2832 1.51448 16.9334H1.51034C2.19107 18.4355 2.00918 20.1879 1.03448 21.5182C1.03448 21.5182 2.23448 23.314 5.39586 22.834L18.1448 22.8258Z" fill="#E57E25"/>
        <path d="M13.862 21.1035H15.5172C17.1169 21.1035 18.4138 22.4003 18.4138 24.0001H5.17239C5.17239 22.4003 6.46922 21.1035 8.06895 21.1035H13.862Z" fill="#894B9D"/>
        <path d="M13.8621 19.9824V21.1046C13.86 21.7894 13.3054 22.344 12.6207 22.346H10.9655C10.2808 22.344 9.72617 21.7894 9.72412 21.1046V19.9833L13.8621 19.9824Z" fill="#F09372"/>
        <path d="M19.2414 10.7598H19.8621C20.6603 10.7636 21.3065 11.4098 21.3103 12.208C21.3103 13.0079 20.6619 13.6563 19.8621 13.6563H3.72412C2.92426 13.6563 2.27585 13.0079 2.27585 12.208C2.2797 11.4098 2.92586 10.7636 3.72412 10.7598H19.2414Z" fill="#F09372"/>
        <path d="M19.2414 10.7601V12.829C19.2409 13.1055 19.2257 13.3817 19.1958 13.6566C18.7871 17.3056 15.7802 20.1123 12.1117 20.269C12.0083 20.2732 11.9007 20.2773 11.7931 20.2773C11.7021 20.2773 11.611 20.2773 11.52 20.2732C11.5047 20.2738 11.4894 20.2724 11.4745 20.269C7.82845 20.0666 4.85296 17.2778 4.41516 13.6525C4.3666 13.3209 4.34309 12.9862 4.34481 12.6511V10.7601H4.75861C5.08946 10.2976 5.36707 9.79925 5.58619 9.27453C5.71196 8.97875 5.81286 8.673 5.88785 8.36047C5.9381 8.14458 6.07364 7.95826 6.26355 7.84397C6.45346 7.72967 6.68157 7.69716 6.89585 7.75384C8.49904 8.13775 10.145 8.31368 11.7931 8.27729C13.4412 8.31368 15.0871 8.13775 16.6903 7.75384C16.9046 7.69715 17.1326 7.72961 17.3225 7.84381C17.5124 7.95802 17.648 8.14425 17.6983 8.36005C17.7733 8.67273 17.8742 8.97862 18 9.27453C18.2191 9.79925 18.4967 10.2976 18.8276 10.7601H19.2414Z" fill="#F9C795"/>
        <path d="M18 9.27453V14.0704C17.9983 17.3738 15.4107 20.0978 12.1117 20.269C12.0083 20.2732 11.9007 20.2773 11.7931 20.2773C11.6855 20.2773 11.5779 20.2732 11.4745 20.269C8.17549 20.0978 5.58793 17.3738 5.58621 14.0704V9.27453C5.71198 8.97875 5.81288 8.673 5.88787 8.36047C5.93812 8.14458 6.07366 7.95826 6.26357 7.84397C6.45348 7.72967 6.68159 7.69716 6.89587 7.75384C8.49906 8.13775 10.145 8.31368 11.7931 8.27729C13.4412 8.31368 15.0872 8.13775 16.6903 7.75384C16.9046 7.69715 17.1326 7.72961 17.3225 7.84381C17.5124 7.95802 17.648 8.14425 17.6983 8.36005C17.7733 8.67273 17.8742 8.97862 18 9.27453Z" fill="#FDD7AD"/>
        <path d="M16.3448 10.7716C16.2574 10.7715 16.1722 10.7437 16.1015 10.6922C15.5036 10.2712 14.7057 10.2712 14.1079 10.6922C13.9238 10.8227 13.6692 10.7817 13.5353 10.6001C13.4015 10.4184 13.4379 10.163 13.6171 10.026C14.5054 9.38718 15.7024 9.38718 16.5906 10.026C16.7327 10.1326 16.791 10.318 16.7353 10.4867C16.6796 10.6554 16.5225 10.7697 16.3448 10.7708V10.7716Z" fill="#E57E25"/>
        <path d="M9.72414 10.7726C9.63574 10.7718 9.54989 10.7428 9.47917 10.6898C8.8815 10.2682 8.08319 10.2682 7.48552 10.6898C7.30115 10.8202 7.04624 10.7788 6.91275 10.5966C6.77925 10.4144 6.81649 10.1589 6.99642 10.0223C7.88455 9.38318 9.0818 9.38318 9.96993 10.0223C10.1121 10.1289 10.1703 10.3144 10.1146 10.4831C10.0589 10.6518 9.90179 10.7661 9.72414 10.7672V10.7726Z" fill="#E57E25"/>
        <path d="M9.95007 12.3596C9.95586 12.355 9.96372 12.3505 9.96952 12.3463C10.1494 12.2098 10.1867 11.9543 10.0532 11.7721C9.91969 11.5899 9.66478 11.5484 9.48041 11.6789C8.88266 12.1003 8.08451 12.1003 7.48676 11.6789C7.36792 11.588 7.20927 11.5683 7.07183 11.6274C6.9344 11.6866 6.83958 11.8153 6.82386 11.9641C6.80814 12.1128 6.87396 12.2585 6.996 12.3451C7.00262 12.3496 7.00883 12.3525 7.01545 12.3571L6.87062 12.6467C6.76892 12.8515 6.85248 13.0999 7.05724 13.2016C7.262 13.3033 7.51044 13.2198 7.61214 13.015L7.75572 12.7254C7.85839 12.7563 7.96305 12.7802 8.06896 12.7969V13.2443C8.06896 13.4728 8.25423 13.658 8.48276 13.658C8.71129 13.658 8.89655 13.4728 8.89655 13.2443V12.7866C8.99983 12.7679 9.10193 12.7431 9.20234 12.7125L9.35379 13.0163C9.42411 13.1574 9.56853 13.2463 9.72621 13.2455C9.86956 13.2454 10.0027 13.1712 10.078 13.0492C10.1534 12.9272 10.1602 12.775 10.0961 12.6467L9.95007 12.3596Z" fill="#3D324C"/>
        <path d="M16.7172 12.6496L16.5724 12.36C16.579 12.3554 16.5852 12.3525 16.5918 12.348C16.771 12.2109 16.8074 11.9555 16.6736 11.7739C16.5398 11.5922 16.2851 11.5512 16.1011 11.6818C15.5033 12.103 14.7052 12.103 14.1074 11.6818C13.9231 11.5513 13.6682 11.5928 13.5347 11.775C13.4012 11.9571 13.4384 12.2127 13.6183 12.3492C13.6241 12.3533 13.632 12.3579 13.6378 12.3624L13.4934 12.6521C13.4274 12.7844 13.4369 12.9419 13.5185 13.0652C13.6001 13.1885 13.7413 13.259 13.8889 13.25C14.0365 13.241 14.168 13.1539 14.234 13.0216L14.3855 12.7179C14.4855 12.7468 14.587 12.7698 14.6896 12.787V13.2459C14.6896 13.4744 14.8749 13.6597 15.1034 13.6597C15.332 13.6597 15.5172 13.4744 15.5172 13.2459V12.8002C15.6231 12.7835 15.7278 12.7596 15.8305 12.7287L15.974 13.0183C16.0757 13.2231 16.3242 13.3066 16.5289 13.2049C16.7337 13.1032 16.8173 12.8548 16.7156 12.65L16.7172 12.6496Z" fill="#3D324C"/>
        <path d="M12.2069 14.8979H11.3793C11.1508 14.8979 10.9655 14.7126 10.9655 14.4841C10.9655 14.2556 11.1508 14.0703 11.3793 14.0703H12.2069C12.4354 14.0703 12.6207 14.2556 12.6207 14.4841C12.6207 14.7126 12.4354 14.8979 12.2069 14.8979Z" fill="#F09372"/>
        <path d="M12.4206 18.2665C12.7227 18.2398 13.0018 18.0939 13.1959 17.8609C13.3901 17.6279 13.4834 17.3271 13.4551 17.0251C13.4551 16.7966 13.2698 16.6113 13.0413 16.6113C12.8128 16.6113 12.6275 16.7966 12.6275 17.0251C12.6275 17.2817 12.4934 17.4389 12.4206 17.4389C12.3478 17.4389 12.2137 17.2817 12.2137 17.0251C12.2137 16.7966 12.0284 16.6113 11.7999 16.6113C11.5714 16.6113 11.3861 16.7966 11.3861 17.0251C11.3861 17.2817 11.2521 17.4389 11.1792 17.4389C11.1064 17.4389 10.9723 17.2817 10.9723 17.0251C10.9723 16.7966 10.7871 16.6113 10.5585 16.6113C10.33 16.6113 10.1447 16.7966 10.1447 17.0251C10.1165 17.3271 10.2098 17.6279 10.4039 17.8609C10.5981 18.0939 10.8771 18.2398 11.1792 18.2665C11.4098 18.2639 11.6311 18.1754 11.7999 18.0182C11.9687 18.1754 12.19 18.2639 12.4206 18.2665Z" fill="#C03A2B"/>
        <path d="M12.6207 2.89844H10.9655C10.737 2.89844 10.5517 3.0837 10.5517 3.31223V4.9674C10.5517 5.19593 10.737 5.3812 10.9655 5.3812H12.6207C12.8492 5.3812 13.0345 5.19593 13.0345 4.9674V3.31223C13.0345 3.0837 12.8492 2.89844 12.6207 2.89844Z" fill="#894B9D"/>
        <path d="M10.5517 4.83394C10.2093 5.29892 9.71318 5.62747 9.15145 5.76125C8.93101 5.83476 8.68982 5.81221 8.48683 5.6991C8.28384 5.586 8.13775 5.39276 8.08428 5.16663C8.02902 4.81495 8.08806 4.45482 8.25269 4.13918C8.08806 3.82354 8.02902 3.46341 8.08428 3.11173C8.13775 2.8856 8.28384 2.69236 8.48683 2.57926C8.68982 2.46616 8.93101 2.4436 9.15145 2.51711C9.71318 2.65089 10.2093 2.97945 10.5517 3.44442" fill="#3D324C"/>
        <path d="M13.0345 4.83394C13.3769 5.29892 13.873 5.62747 14.4348 5.76125C14.6552 5.83476 14.8964 5.81221 15.0994 5.6991C15.3024 5.586 15.4485 5.39276 15.5019 5.16663C15.5572 4.81495 15.4982 4.45482 15.3335 4.13918C15.4982 3.82354 15.5572 3.46341 15.5019 3.11173C15.4485 2.8856 15.3024 2.69236 15.0994 2.57926C14.8964 2.46616 14.6552 2.4436 14.4348 2.51711C13.873 2.65089 13.3769 2.97945 13.0345 3.44442" fill="#3D324C"/>
    </g>
    <defs>
        <clipPath id="clip0_678_1708">
            <rect width="24" height="24" fill="white"/>
        </clipPath>
    </defs>
</svg>
