<svg width="40" height="40" viewBox="0 0 40 41" fill="none" xmlns="http://www.w3.org/2000/svg">
    <path fill-rule="evenodd" clip-rule="evenodd" d="M23.0049 33.016L33.3936 35.7997C34.33 31.9747 35.9949 30.8211 38.2917 28.5244C38.9857 27.8304 39.3359 26.9849 39.336 26.0033L39.3357 10.9801C39.3359 9.89817 38.4502 9.01255 37.3678 9.01239C36.2856 9.01231 35.3997 9.89778 35.3997 10.9804L35.3999 19.0022C35.116 18.4232 34.5938 17.9642 33.9257 17.7851C32.7007 17.4569 31.4261 18.1928 31.0979 19.4178L30.4661 21.7757C30.1888 22.8107 29.5812 23.6025 28.6533 24.1383L25.51 25.9531C23.699 26.9986 24.4847 29.6885 23.005 33.0161L23.0049 33.016Z" fill="#FECBAA"/>
    <path fill-rule="evenodd" clip-rule="evenodd" d="M34.5322 24.443C34.3275 25.2072 33.9382 25.9168 33.3763 26.4767C33.1125 26.7409 32.6843 26.7412 32.42 26.4773C32.1558 26.2135 32.1555 25.7854 32.4193 25.5211C32.8267 25.1152 33.0778 24.6454 33.2261 24.092C33.5681 22.8156 33.9102 21.5392 34.2522 20.2629C34.52 19.2632 34.0815 18.2331 33.2463 17.7082C33.4702 17.6998 33.6987 17.7241 33.9257 17.7849C35.1523 18.1136 35.8871 19.3862 35.5583 20.6129C35.2164 21.8896 34.8743 23.1664 34.5322 24.443Z" fill="#FECBAA"/>
    <path fill-rule="evenodd" clip-rule="evenodd" d="M23.0049 33.0159L27.8123 34.3041C30.5864 32.585 32.9886 30.1764 34.7346 27.1522C37.9626 21.5612 38.2493 15.08 36.0771 9.4978C35.6627 9.85937 35.3998 10.3905 35.3997 10.9804L35.3999 19.0022C35.1159 18.4231 34.5938 17.9641 33.9257 17.7851C32.7008 17.4569 31.4261 18.1927 31.0979 19.4177L30.4661 21.7756C30.1888 22.8107 29.5812 23.6025 28.6532 24.1382L25.51 25.953C23.6989 26.9986 24.4846 29.6884 23.0049 33.016V33.0159Z" fill="#FEDFC5"/>
    <path fill-rule="evenodd" clip-rule="evenodd" d="M34.5322 24.443C34.3274 25.2072 33.9382 25.9168 33.3763 26.4767C33.1125 26.7409 32.6843 26.7412 32.42 26.4773C32.1558 26.2134 32.1555 25.7854 32.4194 25.5211C32.8268 25.1152 33.0779 24.6454 33.2262 24.092C33.5682 22.8156 33.9103 21.5392 34.2523 20.2629C34.5202 19.2632 34.0818 18.233 33.2464 17.7082C33.4704 17.6998 33.6989 17.7241 33.9258 17.7849C35.1525 18.1136 35.8871 19.3863 35.5585 20.6129C35.2164 21.8898 34.8743 23.1664 34.5322 24.443Z" fill="#FECBAA"/>
    <path fill-rule="evenodd" clip-rule="evenodd" d="M22.4521 32.4374L34.0497 35.5449C34.2785 35.6063 34.4155 35.8436 34.3543 36.0725L33.8897 37.8065C33.8284 38.0353 33.5909 38.1723 33.3622 38.111L21.7645 35.0035C21.5357 34.9422 21.3987 34.7047 21.4599 34.476L21.9245 32.742C21.9858 32.5131 22.2232 32.376 22.4521 32.4374Z" fill="#7E6EEC"/>
    <path fill-rule="evenodd" clip-rule="evenodd" d="M22.452 32.4374L28.2863 34.0006C27.1924 34.721 26.0363 35.331 24.8359 35.8263L21.7645 35.0034C21.5358 34.9421 21.3987 34.7046 21.4599 34.4759L21.9245 32.7419C21.9857 32.5131 22.2232 32.376 22.452 32.4374Z" fill="#9E8AEA"/>
    <path fill-rule="evenodd" clip-rule="evenodd" d="M16.9952 33.016L6.60649 35.7996C5.67016 31.9747 4.00523 30.8211 1.70836 28.5243C1.0143 27.8304 0.664141 26.9849 0.664062 26.0033L0.664297 10.9801C0.664141 9.89817 1.54984 9.01255 2.63227 9.01239C3.71445 9.01231 4.60031 9.89778 4.60031 10.9804L4.60016 19.0022C4.88406 18.4232 5.40625 17.9642 6.0743 17.7851C7.2993 17.4569 8.57399 18.1928 8.90219 19.4178L9.53391 21.7757C9.81125 22.8107 10.4188 23.6025 11.3467 24.1383L14.49 25.9531C16.301 26.9986 15.5153 29.6885 16.9951 33.0161L16.9952 33.016Z" fill="#FECBAA"/>
    <path fill-rule="evenodd" clip-rule="evenodd" d="M5.46785 24.443C5.67269 25.2072 6.06191 25.9168 6.62378 26.4767C6.88761 26.7409 7.31574 26.7412 7.58003 26.4773C7.84425 26.2135 7.84456 25.7854 7.58074 25.5211C7.17339 25.1152 6.9223 24.6454 6.77394 24.092C6.43199 22.8156 6.08988 21.5392 5.74792 20.2629C5.48003 19.2632 5.91847 18.2331 6.75378 17.7082C6.52988 17.6998 6.30136 17.7241 6.07441 17.7849C4.84777 18.1136 4.113 19.3862 4.44175 20.6129C4.78371 21.8896 5.12581 23.1664 5.46785 24.443Z" fill="#FECBAA"/>
    <path fill-rule="evenodd" clip-rule="evenodd" d="M16.9953 33.0159L12.1879 34.3041C9.41374 32.585 7.01155 30.1764 5.26553 27.1522C2.03756 21.5612 1.75085 15.08 3.92311 9.4978C4.33749 9.85937 4.60045 10.3905 4.60045 10.9804L4.6003 19.0022C4.8842 18.4231 5.40639 17.9641 6.07444 17.7851C7.29936 17.4569 8.57405 18.1927 8.90233 19.4177L9.53405 21.7756C9.81139 22.8107 10.419 23.6025 11.3469 24.1382L14.4902 25.953C16.3012 26.9986 15.5155 29.6884 16.9953 33.016V33.0159Z" fill="#FEDFC5"/>
    <path fill-rule="evenodd" clip-rule="evenodd" d="M5.4679 24.443C5.67275 25.2072 6.06196 25.9168 6.62384 26.4767C6.88767 26.7409 7.31579 26.7412 7.58009 26.4773C7.84431 26.2134 7.84462 25.7854 7.58071 25.5211C7.17337 25.1152 6.92228 24.6454 6.77392 24.092C6.43189 22.8156 6.08986 21.5392 5.7479 20.2629C5.48001 19.2632 5.91845 18.233 6.75376 17.7082C6.52993 17.6998 6.30134 17.7241 6.07439 17.7849C4.84767 18.1136 4.11306 19.3863 4.44173 20.6129C4.78368 21.8898 5.12579 23.1664 5.4679 24.443Z" fill="#FECBAA"/>
    <path fill-rule="evenodd" clip-rule="evenodd" d="M17.5477 32.4374L5.95008 35.5449C5.72125 35.6063 5.58422 35.8436 5.64547 36.0725L6.11008 37.8065C6.17133 38.0353 6.40883 38.1723 6.63766 38.111L18.2352 35.0035C18.4641 34.9422 18.6011 34.7047 18.5398 34.476L18.0752 32.742C18.014 32.5131 17.7766 32.376 17.5477 32.4374Z" fill="#7E6EEC"/>
    <path fill-rule="evenodd" clip-rule="evenodd" d="M17.5477 32.4374L11.7134 34.0006C12.8073 34.721 13.9634 35.331 15.1638 35.8263L18.2352 35.0034C18.4639 34.9421 18.601 34.7046 18.5398 34.4759L18.0752 32.7419C18.014 32.5131 17.7765 32.376 17.5477 32.4374Z" fill="#9E8AEA"/>
    <path fill-rule="evenodd" clip-rule="evenodd" d="M20 25.0754C24.5744 20.4772 30.1369 17.363 31.444 10.7799C32.7441 4.23167 24.8101 -0.280126 20 5.8905C15.1899 -0.280126 7.25585 4.23167 8.55601 10.7799C9.86311 17.3631 15.4255 20.4772 20 25.0754Z" fill="#EB4E5C"/>
    <path fill-rule="evenodd" clip-rule="evenodd" d="M28.2283 17.2592C29.7483 15.4367 30.9278 13.3786 31.4438 10.7796C32.744 4.23143 24.8101 -0.280289 19.9999 5.89034C17.5978 2.80885 14.4168 2.39151 11.9956 3.56127C13.3891 11.2942 20.1141 17.1737 28.2283 17.2592Z" fill="#FF6372"/>
    <path fill-rule="evenodd" clip-rule="evenodd" d="M32.0745 13.5153C32.3981 13.5153 32.6604 13.7777 32.6604 14.1013C32.6604 14.4249 32.3981 14.6872 32.0745 14.6872H25.4534C25.2192 14.6872 25.0171 14.5497 24.9233 14.3511L23.3845 11.6557L21.0423 19.0007C20.945 19.3079 20.6171 19.478 20.3099 19.3806C20.1294 19.3235 19.9963 19.1867 19.9369 19.0213L16.5165 9.48174L15.1073 14.266C15.0325 14.5207 14.7994 14.6859 14.5465 14.6858V14.6871H7.92529C7.6017 14.6871 7.33936 14.4248 7.33936 14.1012C7.33936 13.7776 7.6017 13.5153 7.92529 13.5153H14.1098L15.9008 7.43486L15.9017 7.4351C15.9526 7.26244 16.0823 7.11564 16.2647 7.05033C16.5681 6.94166 16.9022 7.09947 17.0109 7.40283L20.4539 17.0054L22.6679 10.0625C22.7065 9.91572 22.802 9.78408 22.9444 9.70322C23.2251 9.54393 23.5817 9.64229 23.7409 9.92291L25.7918 13.5153L32.0745 13.5153Z" fill="#FFD54F"/>
</svg>
