<svg width="113" height="77" viewBox="0 0 113 77" fill="none" xmlns="http://www.w3.org/2000/svg">
    <g clip-path="url(#clip0_24_15)">
        <g opacity="0.2">
            <path d="M56.8691 0.130127C44.8766 15.0619 22.6553 67.1467 56.8691 113C69.9197 96.3048 88.9664 48.4526 56.8691 0.130127Z" fill="url(#paint0_radial_24_15)"/>
            <path d="M0.129883 56.261C15.0617 68.2534 67.1465 90.4747 113 56.2609C96.3046 43.2103 48.4524 24.1637 0.129883 56.261Z" fill="url(#paint1_radial_24_15)"/>
            <path d="M16.4443 96.2553C35.4825 94.1768 88.0249 73.0601 96.2554 16.4441C75.2218 19.0213 27.9172 39.3899 16.4443 96.2553Z" fill="url(#paint2_radial_24_15)"/>
            <path d="M96.6855 96.2553C77.6472 94.1768 25.1049 73.0601 16.8743 16.4441C37.9079 19.0213 85.2126 39.3899 96.6855 96.2553Z" fill="url(#paint3_radial_24_15)"/>
        </g>
    </g>
    <defs>
        <radialGradient id="paint0_radial_24_15" cx="0" cy="0" r="1" gradientUnits="userSpaceOnUse" gradientTransform="translate(57.8365 48.8053) rotate(90) scale(63.8421 22.8269)">
            <stop stop-color="#FEDF30"/>
            <stop offset="1" stop-color="white"/>
        </radialGradient>
        <radialGradient id="paint1_radial_24_15" cx="0" cy="0" r="1" gradientUnits="userSpaceOnUse" gradientTransform="translate(48.8051 55.2935) scale(63.8421 22.8269)">
            <stop stop-color="#FEDF30"/>
            <stop offset="1" stop-color="white"/>
        </radialGradient>
        <radialGradient id="paint2_radial_24_15" cx="0" cy="0" r="1" gradientUnits="userSpaceOnUse" gradientTransform="translate(50.1787 61.1526) rotate(-45) scale(63.8421 22.8269)">
            <stop stop-color="#FEDF30"/>
            <stop offset="1" stop-color="white"/>
        </radialGradient>
        <radialGradient id="paint3_radial_24_15" cx="0" cy="0" r="1" gradientUnits="userSpaceOnUse" gradientTransform="translate(62.951 61.1526) rotate(-135) scale(63.8421 22.8269)">
            <stop stop-color="#FEDF30"/>
            <stop offset="1" stop-color="white"/>
        </radialGradient>
        <clipPath id="clip0_24_15">
            <rect width="113" height="77" fill="white"/>
        </clipPath>
    </defs>
</svg>
