<svg width="32" height="32" viewBox="0 0 32 32" fill="none" xmlns="http://www.w3.org/2000/svg">
    <rect width="32" height="32" rx="16" fill="white"/>
    <rect x="1.3024" y="1.3024" width="29.3952" height="29.3952" rx="14.6976" stroke="#0088B1" stroke-opacity="0.3" stroke-width="2.60479"/>
    <g clip-path="url(#clip0_28_1775)">
        <path d="M25.2675 23.0335C24.7673 22.7702 24.2676 22.5068 23.7684 22.243C22.7651 21.7121 21.7611 21.1827 20.7615 20.6452C20.6598 20.5898 20.5746 20.5086 20.5143 20.4098C19.6539 18.9282 18.7971 17.4443 17.944 15.9579C17.3322 14.8956 16.7228 13.8326 16.1158 12.7689C16.0847 12.7287 16.0491 12.6921 16.0098 12.6599C15.9727 12.6945 15.9392 12.7328 15.9096 12.774C14.5778 15.0833 13.2461 17.3933 11.9148 19.7041C11.7685 19.9637 11.6171 20.224 11.4628 20.4807C11.431 20.5358 11.3851 20.5815 11.3298 20.613C9.8185 21.416 8.30723 22.2169 6.79597 23.0159C6.77325 23.0227 6.75001 23.0276 6.7265 23.0306L16.0098 6.98828L25.2873 23.0064L25.2675 23.0335Z" fill="#1081DD"/>
    </g>
    <rect x="6.76032" y="7.02796" width="18.485" height="17.9461" stroke="#0088B1" stroke-opacity="0.3" stroke-width="0.0793654"/>
    <path d="M16.0094 17.3675C16.0226 17.3092 16.1056 17.3092 16.1187 17.3675L16.3792 18.5237C16.5476 19.2712 17.1314 19.855 17.879 20.0234L19.0353 20.2838C19.0936 20.2969 19.0936 20.3799 19.0353 20.393L17.879 20.6535C17.1314 20.8219 16.5476 21.4057 16.3792 22.1532L16.1187 23.3094C16.1056 23.3676 16.0226 23.3676 16.0094 23.3094L15.749 22.1532C15.5806 21.4057 14.9967 20.8219 14.2491 20.6535L13.0928 20.393C13.0346 20.3799 13.0346 20.2969 13.0928 20.2838L14.2491 20.0234C14.9967 19.855 15.5806 19.2712 15.749 18.5237L16.0094 17.3675Z" fill="#1081DD"/>
    <path d="M16.0114 17.3682C16.0242 17.3115 16.1042 17.3115 16.1169 17.3682L16.3777 18.5244C16.5463 19.2723 17.1306 19.8559 17.8786 20.0244L19.0349 20.2852C19.0915 20.2979 19.0915 20.3788 19.0349 20.3916L17.8786 20.6523C17.1305 20.8209 16.5462 21.4052 16.3777 22.1533L16.1169 23.3086C16.1042 23.3652 16.0242 23.3652 16.0114 23.3086L15.7507 22.1533C15.5822 21.4053 14.9978 20.821 14.2497 20.6523L13.0935 20.3916C13.0368 20.3788 13.0368 20.2979 13.0935 20.2852L14.2497 20.0244C14.9976 19.8558 15.5821 19.2723 15.7507 18.5244L16.0114 17.3682Z" stroke="#0088B1" stroke-opacity="0.3" stroke-width="0.00311398"/>
    <defs>
        <clipPath id="clip0_28_1775">
            <rect x="6.72064" y="6.98828" width="18.5644" height="18.0255" fill="white"/>
        </clipPath>
    </defs>
</svg>
