<svg width="28" height="29" viewBox="0 0 28 29" fill="none" xmlns="http://www.w3.org/2000/svg">
    <rect x="0.383562" y="0.383562" width="27.2329" height="28.08" rx="13.6164" fill="#1081DD"/>
    <rect x="0.383562" y="0.383562" width="27.2329" height="28.08" rx="13.6164" stroke="white" stroke-width="0.767125"/>
    <path d="M14.0001 14.5755C17.0241 14.5755 20.1272 16.5417 20.3281 20.4916C20.3359 20.6438 20.2829 20.7929 20.1807 20.9061C20.0786 21.0193 19.9357 21.0874 19.7835 21.0953C18.1879 21.1766 10.7982 21.2265 8.21755 21.0953C8.06517 21.0876 7.9221 21.0196 7.81981 20.9064C7.71752 20.7932 7.6644 20.644 7.67213 20.4916C7.87311 16.5424 10.9761 14.5755 14.0001 14.5755ZM14.0001 7.67139C13.2372 7.67139 12.5055 7.97447 11.966 8.51396C11.4265 9.05345 11.1234 9.78515 11.1234 10.5481C11.1234 11.3111 11.4265 12.0428 11.966 12.5823C12.5055 13.1217 13.2372 13.4248 14.0001 13.4248C14.7631 13.4248 15.4948 13.1217 16.0343 12.5823C16.5738 12.0428 16.8769 11.3111 16.8769 10.5481C16.8769 9.78515 16.5738 9.05345 16.0343 8.51396C15.4948 7.97447 14.7631 7.67139 14.0001 7.67139Z" fill="white"/>
</svg>
