<svg width="49" height="49" viewBox="0 0 49 49" fill="none" xmlns="http://www.w3.org/2000/svg">
    <g clip-path="url(#clip0_535_2016)">
        <path d="M45.1209 13.4308C44.7347 12.7183 44.3147 12.0321 43.8647 11.3721C42.3759 13.8808 33.8822 18.1446 23.1684 21.5946C12.4547 25.0446 3.07219 26.5371 0.398438 25.3671C0.417187 26.1658 0.477187 26.9683 0.578437 27.7746C3.33844 28.9071 12.9272 27.3358 23.8809 23.8108C34.8347 20.2858 43.5384 15.9621 45.1209 13.4308Z" fill="#A4571A"/>
        <path d="M43.8645 11.3724C43.2495 10.4724 42.5782 9.62492 41.8545 8.82617C40.0807 11.3312 32.1382 15.3174 22.182 18.5274C12.2257 21.7374 3.44697 23.1287 0.544467 22.1312C0.424467 23.1999 0.371967 24.2799 0.398217 25.3712C3.07197 26.5412 12.4545 25.0449 23.1682 21.5949C33.882 18.1449 42.3757 13.8812 43.8645 11.3724Z" fill="#D39E6A"/>
        <path d="M18.7168 47.9838C22.808 48.9551 27.2068 48.8576 31.5043 47.4738C35.8018 46.0901 39.4318 43.6038 42.1843 40.4238C38.8318 41.8751 34.8905 43.3563 30.6193 44.7288C26.348 46.1013 22.2868 47.2038 18.7168 47.9838Z" fill="#883502"/>
        <path d="M46.9394 17.743C46.9131 17.6643 46.8944 17.5855 46.8719 17.5068C46.4106 16.0705 45.8181 14.7093 45.1206 13.4268C43.5381 15.958 34.8381 20.278 23.8844 23.8068C12.9306 27.3355 3.33812 28.9068 0.578125 27.7743C0.761875 29.2218 1.07312 30.6693 1.53812 32.1093C1.56437 32.188 1.59438 32.263 1.62063 32.3418C5.18687 33.0018 14.5656 31.2918 25.1894 27.868C35.8131 24.4443 44.4306 20.3605 46.9394 17.743Z" fill="#C27D35"/>
        <path d="M47.2098 18.6629C47.1273 18.3554 47.0336 18.0516 46.9398 17.7441C44.4273 20.3616 35.8173 24.4454 25.1898 27.8654C14.5623 31.2854 5.18359 32.9991 1.62109 32.3391C1.72234 32.6429 1.82359 32.9466 1.93609 33.2429C5.52109 33.8879 14.8773 32.1816 25.4786 28.7654C36.0798 25.3491 44.6748 21.2804 47.2098 18.6629Z" fill="#A4571A"/>
        <path d="M34.9916 3.58351C29.5841 0.834762 23.1341 0.137262 16.9054 2.14351C10.6766 4.14976 5.84289 8.48101 3.05664 13.866C6.32664 14.1248 12.6529 12.9885 19.6691 10.731C26.6854 8.47351 32.4904 5.69851 34.9916 3.58351Z" fill="#AA6D42"/>
        <path d="M41.8539 8.82562C41.5727 8.51812 41.2877 8.21437 40.9914 7.92188C38.6139 10.4344 31.0577 14.1244 21.7314 17.1281C12.4052 20.1319 4.11395 21.5494 0.716445 20.8931C0.648945 21.3019 0.588945 21.7144 0.543945 22.1306C3.44645 23.1281 12.2214 21.7331 22.1814 18.5269C32.1414 15.3206 40.0802 11.3306 41.8539 8.82562Z" fill="#C68441"/>
        <path d="M36.7623 4.58133C36.1848 4.22508 35.5961 3.88758 34.9923 3.58008C32.4873 5.69883 26.6861 8.47008 19.6698 10.7276C12.6536 12.9851 6.32355 14.1213 3.0573 13.8626C2.74605 14.4626 2.4648 15.0813 2.20605 15.7076C6.26355 16.0376 12.9798 14.9688 20.2811 12.6176C27.5823 10.2663 33.6611 7.21758 36.7623 4.58133Z" fill="#EAC362"/>
        <path d="M40.9918 7.9223C38.618 10.4386 31.0618 14.1248 21.7318 17.1323C12.4055 20.1361 4.1143 21.5498 0.716797 20.8936C0.919297 19.7011 1.20805 18.5273 1.5868 17.3836C1.68055 17.0986 1.77805 16.8136 1.8868 16.5323C1.9843 16.2548 2.09305 15.9811 2.20555 15.7111C6.26305 16.0411 12.9793 14.9723 20.2805 12.6211C27.5818 10.2698 33.6605 7.2173 36.7618 4.58105C38.288 5.5298 39.7093 6.6473 40.9918 7.9223Z" fill="#E99C54"/>
        <path d="M6.17383 40.3705C6.45133 40.6893 6.73633 41.0005 7.02883 41.3043C11.5626 41.143 19.3851 39.493 28.0363 36.7068C36.6876 33.9205 44.0038 30.6955 47.7801 28.183C47.8401 27.7668 47.8926 27.3468 47.9301 26.9268C44.3076 29.4805 36.7438 32.8555 27.7326 35.758C18.7213 38.6605 10.6063 40.333 6.17383 40.3705Z" fill="#BB7025"/>
        <path d="M16.0176 47.1621C16.8988 47.4846 17.7988 47.7658 18.7176 47.9833C22.2876 47.2033 26.3526 46.1083 30.6201 44.7321C34.8876 43.3558 38.8288 41.8746 42.1851 40.4271C42.8038 39.7146 43.3738 38.9608 43.8988 38.1846C40.1376 39.9283 35.4163 41.7658 30.2038 43.4458C24.9913 45.1258 20.0901 46.3858 16.0176 47.1621Z" fill="#C98A49"/>
        <path d="M3.7959 37.0711C4.09965 37.5773 4.4184 38.0761 4.7559 38.5561C8.94465 38.7511 17.5359 37.0598 27.1546 33.9623C36.7734 30.8648 44.7384 27.2273 48.0234 24.6248C48.0196 24.0398 47.9859 23.4511 47.9371 22.8623C44.9184 25.4798 36.6984 29.2898 26.6859 32.5148C16.6734 35.7398 7.77465 37.4348 3.7959 37.0711Z" fill="#AB5C16"/>
        <path d="M25.478 28.7648C14.8768 32.1773 5.52055 33.8873 1.93555 33.2423C2.44555 34.5923 3.07555 35.871 3.79555 37.071C7.7743 37.4348 16.673 35.7323 26.6855 32.511C36.6981 29.2898 44.918 25.476 47.9368 22.8585C47.8205 21.4635 47.5881 20.061 47.2131 18.666C44.6743 21.2798 36.0793 25.3523 25.478 28.7648Z" fill="#B9792B"/>
        <path d="M4.75195 38.5523C5.1982 39.1823 5.6707 39.7898 6.1732 40.3711C10.6057 40.3336 18.7207 38.6611 27.732 35.7586C36.7432 32.8561 44.3069 29.4773 47.9295 26.9236C47.9969 26.1623 48.0307 25.3936 48.0232 24.6211C44.7345 27.2236 36.7695 30.8611 27.1545 33.9586C17.5395 37.0561 8.9407 38.7473 4.75195 38.5523Z" fill="#C5772E"/>
        <path d="M13.3926 46.0221C14.2438 46.4571 15.1213 46.8321 16.0176 47.1621C20.0901 46.3859 24.9988 45.1221 30.2076 43.4421C35.4163 41.7621 40.1413 39.9284 43.9026 38.1809C44.4388 37.3896 44.9301 36.5721 45.3688 35.7246C41.3601 37.7384 35.8776 39.9434 29.7201 41.9234C23.5626 43.9109 17.8251 45.3171 13.3926 46.0221Z" fill="#8C4705"/>
        <path d="M7.02832 41.3047C8.14957 42.4709 9.38707 43.5134 10.7108 44.4209C15.3421 43.8734 21.9383 42.3434 29.1083 40.0372C36.2783 37.7272 42.5258 35.1172 46.6096 32.8597C47.1533 31.3484 47.5508 29.7809 47.7796 28.1797C44.0033 30.6922 36.6871 33.9172 28.0358 36.7034C19.3846 39.4897 11.5621 41.1434 7.02832 41.3047Z" fill="#DFAF8D"/>
        <path d="M10.7109 44.4218C11.5697 45.0105 12.4659 45.5505 13.3922 46.023C17.8247 45.318 23.5622 43.908 29.7197 41.928C35.8772 39.9443 41.3559 37.7393 45.3684 35.7293C45.8447 34.803 46.2572 33.8468 46.6134 32.8643C42.5334 35.1218 36.2822 37.7318 29.1122 40.0418C21.9384 42.348 15.3422 43.8743 10.7109 44.4218Z" fill="#BC6E17"/>
        <path d="M27.8676 36.6142C27.7776 36.6442 27.6801 36.6442 27.5863 36.6517C27.3801 36.6667 27.1776 36.7042 26.9713 36.7042C26.9263 36.7042 26.8926 36.6892 26.8626 36.6667C26.5888 36.6779 26.3151 36.6854 26.0563 36.7117C24.8826 36.8354 23.7463 37.5929 22.5988 37.3079C22.0701 37.1767 21.6238 36.8354 21.1326 36.6029C20.2213 36.1717 19.1788 36.1267 18.1701 36.1042C17.8851 36.0967 17.5963 36.0929 17.3113 36.1379C16.6101 36.2467 15.9913 36.6442 15.3988 37.0304L14.0863 37.8854C13.4676 38.2904 12.8451 38.6954 12.2938 39.1867C11.9001 39.5354 11.5401 39.9367 11.3301 40.4204C11.9826 41.5867 13.3738 42.6029 14.7051 42.7417C16.0363 42.8804 17.3826 42.4979 18.5638 41.8754C18.8338 41.7329 19.0963 41.5792 19.3851 41.4892C19.8726 41.3354 20.3976 41.3654 20.9076 41.3317C22.4676 41.2304 23.9338 40.5067 25.1676 39.5429C26.2438 38.7029 27.0913 37.6154 27.9651 36.5617C27.9351 36.5842 27.9051 36.6029 27.8676 36.6142Z" fill="#A3530C"/>
        <path d="M47.9636 26.4814C47.9561 26.6277 47.9411 26.7777 47.9299 26.9239C47.8999 27.2577 47.8624 27.5877 47.8136 27.9139C47.3299 28.3639 46.7824 28.7427 46.1936 29.0389C45.7174 29.2789 45.2111 29.4664 44.7649 29.7589C44.5061 29.9277 44.2699 30.1302 44.0336 30.3289C43.7036 30.6027 43.3736 30.8689 42.9799 31.0339C42.6874 31.1539 42.3799 31.2102 42.0761 31.2852C41.9374 31.3189 41.7986 31.3527 41.6636 31.4014C41.2999 31.5327 40.9699 31.7352 40.6436 31.9414C40.5836 31.9789 40.5274 32.0127 40.4674 32.0502C39.3499 32.7439 38.1611 33.3214 36.9274 33.7752C34.7899 34.5589 32.5586 35.0802 30.5336 36.1264C29.0411 36.8989 27.6724 37.5664 26.0974 37.3189C25.9324 37.2964 25.7674 37.2589 25.5986 37.2139C26.3711 37.1727 27.1586 37.0414 27.8411 36.6664C28.0361 36.5614 28.2199 36.4339 28.4074 36.3102C28.9286 35.9614 29.4686 35.6389 30.0236 35.3464C30.9199 34.8739 31.8499 34.4727 32.7799 34.0714C33.2561 33.8652 33.7286 33.6627 34.2049 33.4602C34.9999 33.1152 35.7986 32.7739 36.6236 32.5002C38.0561 32.0314 39.5861 31.7727 40.8761 30.9927C41.1274 30.8389 41.3711 30.6664 41.6449 30.5502C42.2636 30.2802 43.0136 30.3139 43.5386 29.8902C43.9924 29.5264 44.2436 28.8514 44.8174 28.7577C45.0049 28.7277 45.1999 28.7689 45.3836 28.7352C45.6124 28.6902 45.7999 28.5364 45.9761 28.3864C46.6549 27.8164 47.3411 27.2389 47.9036 26.5564C47.9224 26.5302 47.9449 26.5077 47.9636 26.4814Z" fill="#A3530C"/>
        <path d="M14.6225 42.3406C13.7825 42.0406 12.9125 41.7369 12.0237 41.7969C11.2437 41.8456 10.5012 42.1756 9.72125 42.1944C9.2075 42.2094 8.67875 42.0856 8.195 42.2544C8.15 42.2694 8.10125 42.2919 8.05625 42.3106C7.70375 41.9844 7.3625 41.6506 7.02875 41.3056C6.73625 41.0019 6.45125 40.6906 6.17375 40.3719C5.8325 39.9781 5.5025 39.5694 5.1875 39.1456C5.54 39.1831 5.88875 39.2169 6.24125 39.2544C6.6125 39.2956 6.9875 39.3331 7.35125 39.4194C7.61375 39.4831 7.86875 39.5694 8.135 39.6106C8.75375 39.7119 9.38375 39.5656 9.995 39.4194C11.4537 39.0706 13.325 38.6881 14.4312 37.6719C14.5437 38.1706 14.405 38.7669 14.2625 39.3369C14.1837 39.6369 14.1088 39.9294 14.0638 40.1919C14.0525 40.2556 14.045 40.3231 14.0412 40.3906C13.9512 41.1106 14.0525 41.9131 14.6225 42.3406Z" fill="#A3530C"/>
        <path d="M13.1483 39.1525C13.3808 39.07 13.6208 39.0175 13.8383 38.9013C13.9921 38.8188 14.1308 38.7025 14.2658 38.59C14.8321 38.1175 15.4021 37.645 15.9683 37.1763C16.1596 37.0188 16.3471 36.8613 16.5646 36.7413C17.1908 36.3888 17.9483 36.3925 18.6683 36.4038C19.1596 36.4113 19.6583 36.4225 20.1271 36.5725C20.7421 36.7713 21.2633 37.195 21.8671 37.4313C22.9471 37.8513 24.1546 37.615 25.2871 37.3788C25.8646 37.2588 26.4383 37.135 27.0158 37.015C27.0121 37.57 26.4758 37.945 25.9958 38.2263C24.8221 38.9088 23.6483 39.595 22.4746 40.2775C22.0133 40.5438 21.5408 40.8175 21.0158 40.8963C20.6146 40.9563 20.1871 40.9038 19.8083 41.0538C19.6021 41.1363 19.4258 41.2788 19.2308 41.3875C18.9908 41.5225 18.7283 41.605 18.4696 41.6875C17.1121 42.1188 15.6833 42.5575 14.2846 42.2763C13.4221 42.1038 12.5521 41.635 11.9783 40.9563C11.2658 40.1088 12.3796 39.4225 13.1483 39.1525Z" fill="#DAA24F"/>
        <path d="M13.6875 40.5888C13.98 40.3225 14.49 40.39 14.7487 40.09C14.82 40.0075 14.865 39.9025 14.925 39.8088C15.015 39.6738 15.1387 39.565 15.2662 39.46C15.8475 38.965 16.4325 38.47 17.0175 37.975C17.4638 37.5963 17.9437 37.2025 18.525 37.1238C18.9112 37.0675 19.3012 37.1575 19.6762 37.2588C20.9287 37.5888 22.1512 38.0313 23.3212 38.5788C22.875 39.385 21.9787 39.6663 21.0975 39.9288C20.25 40.18 19.3987 40.435 18.5512 40.6863C17.7375 40.93 16.92 41.1738 16.0762 41.2413C15.2287 41.3125 14.415 41.02 13.6875 40.5888Z" fill="#BD762D"/>
        <path d="M15.2379 39.9952C15.6917 39.3615 16.2729 38.8177 16.9367 38.409C17.1092 38.3002 17.2929 38.2027 17.4354 38.0527C17.5329 37.9515 17.6079 37.8277 17.7129 37.7377C17.8367 37.6327 17.9942 37.5765 18.1554 37.5352C19.3404 37.2315 20.5817 37.6402 21.7367 38.0415C22.1417 38.184 22.5467 38.3227 22.9517 38.4652C22.9892 38.649 22.8242 38.8102 22.6704 38.9152C21.8717 39.4627 20.9079 39.7177 19.9704 39.9577C19.1004 40.1827 18.2342 40.404 17.3642 40.629C16.7154 40.7977 16.0517 40.9627 15.3804 40.9515C15.1629 40.9477 14.7242 41.0002 14.7054 40.734C14.6904 40.554 15.1367 40.1377 15.2379 39.9952Z" fill="#F3B566"/>
        <path d="M42.2444 31.0935C41.0182 31.7872 39.7882 32.481 38.4869 33.0097C37.7744 33.2985 37.0432 33.5385 36.3157 33.7822C34.3357 34.4535 32.3782 35.1885 30.4432 35.9835C29.3669 36.426 28.2719 36.906 27.4394 37.7235C27.2294 37.9297 27.0382 38.1547 26.8207 38.3572C26.5657 38.5897 26.2807 38.7847 25.9957 38.9797C25.3882 39.396 24.7769 39.8085 24.1694 40.2247C23.9594 40.3672 23.7457 40.5097 23.5244 40.626C24.8369 40.056 25.9094 38.9985 27.2294 38.4247C27.5407 38.2897 27.8707 38.1772 28.1144 37.9372C28.2494 37.806 28.3469 37.6372 28.4819 37.506C28.6394 37.3522 28.8419 37.251 29.0369 37.1535C33.7282 34.851 38.9594 33.681 43.4032 30.936C43.7107 30.7447 44.0182 30.546 44.3219 30.3472C44.7832 30.0472 46.3169 29.3722 46.3094 28.8135C45.8669 29.0122 42.2444 30.7372 42.2444 31.0935Z" fill="#F4C09D"/>
        <path d="M17.228 42.4372C17.063 42.4785 16.898 42.5235 16.7293 42.5497C16.5568 42.5797 16.3805 42.5947 16.2043 42.5985C16.088 42.6022 15.9755 42.6247 15.8593 42.6435C15.7318 42.6622 15.608 42.6772 15.4805 42.6847C14.5355 42.7185 13.628 42.321 12.7843 41.8972C12.6493 41.8297 12.5105 41.7585 12.3643 41.7247C12.2405 41.6985 12.1093 41.6947 11.9818 41.6985C11.5355 41.706 11.0855 41.7585 10.6393 41.8072C10.1443 41.8635 9.65305 41.9197 9.15805 41.976C8.7718 42.021 8.3893 42.066 8.01805 42.171C7.9918 42.1785 7.9618 42.186 7.93555 42.1972C7.97305 42.2385 8.0143 42.276 8.05555 42.3135C8.22805 42.471 8.40055 42.6247 8.5768 42.7747C8.80555 42.7185 9.03055 42.6397 9.2443 42.546C9.3193 42.5122 9.39805 42.4785 9.48055 42.4672C9.5518 42.4597 9.62305 42.471 9.6943 42.4747C9.8743 42.486 10.0543 42.441 10.2305 42.3997C10.9055 42.2572 11.6068 42.2047 12.2855 42.3285C13.0768 42.4672 13.8268 42.8347 14.6255 42.8647C14.9555 42.8797 15.2818 42.8347 15.6043 42.7897C15.8968 42.7522 16.1893 42.711 16.478 42.6735C16.7293 42.6397 17.2393 42.6135 17.4155 42.3997C17.4193 42.396 17.4193 42.396 17.4193 42.3922C17.3555 42.4072 17.2955 42.4185 17.228 42.4372Z" fill="#F4C09D"/>
        <path d="M44.5776 13.502C44.6451 13.9182 44.3676 14.3082 44.0526 14.5895C43.6138 14.9795 43.0401 15.3207 42.9238 15.8982C42.6238 16.172 42.1138 16.3745 41.7126 16.4307C41.4876 16.4607 41.2588 16.4532 41.0413 16.5245C40.5276 16.6932 40.2201 17.252 39.7063 17.4282C39.4138 17.5295 39.0538 17.5032 38.8476 17.732C38.7576 17.8332 38.7126 17.9682 38.6338 18.077C38.3976 18.4145 37.9213 18.4707 37.6026 18.7257C37.2951 18.9732 37.1301 19.4045 36.7588 19.532C36.5076 19.6182 36.2263 19.5357 35.9638 19.5657C35.2926 19.637 34.7263 20.3945 34.0888 20.1732C33.7401 20.4545 33.4138 20.867 33.0651 21.1482C32.9601 21.2307 32.8513 21.317 32.7238 21.3545C32.6151 21.3845 32.4988 21.3732 32.3863 21.3807C31.5426 21.4107 30.8713 22.1682 30.0313 22.2357C29.7426 22.2582 29.4426 22.202 29.1688 22.2957C28.7976 22.427 28.5763 22.7982 28.2613 23.0307C27.6501 23.4732 26.8138 23.3195 26.0713 23.4507C25.5913 23.8632 24.9576 24.2832 24.3276 24.332C24.0313 24.3545 23.7238 24.2907 23.4351 24.3582C23.1913 24.4145 22.9776 24.5607 22.7451 24.662C22.2988 24.8495 21.8038 24.857 21.3238 24.902C20.6076 24.9732 19.9026 25.142 19.2313 25.4045C19.0888 25.4607 18.9501 25.5207 18.8263 25.6107C18.6988 25.7045 18.5938 25.8282 18.4813 25.9407C17.7726 26.627 16.7113 26.7657 15.7288 26.8707C14.8438 26.9645 13.9551 27.0545 13.0701 27.1482C12.4513 27.212 11.8251 27.2795 11.2363 27.4745C10.9213 27.5795 10.6176 27.7182 10.2951 27.8082C9.44758 28.0445 8.54758 27.9132 7.66633 27.8907C7.37383 27.8832 7.07383 27.887 6.79633 27.977C6.48133 28.0782 6.20758 28.2807 5.90383 28.4157C5.13133 28.757 4.24633 28.6445 3.41008 28.5245C2.78758 28.4345 2.07883 28.2882 1.76758 27.7407C8.05633 27.3845 14.0338 25.577 20.0151 23.5932C23.8663 22.3145 27.7213 21.0395 31.5726 19.7607C32.5251 19.4457 33.4738 19.1307 34.4113 18.767C37.9813 17.3795 41.3226 15.5345 44.5776 13.502Z" fill="#A4571A"/>
        <path d="M40.4336 17.1659C40.2311 17.3309 40.0474 17.5222 39.8149 17.6422C39.6236 17.7434 39.4099 17.7959 39.2036 17.8672C38.4124 18.1372 37.7261 18.7072 37.3136 19.4347C36.9311 19.5322 36.5449 19.6297 36.1624 19.7272C35.3036 19.9447 34.4036 20.1847 33.7511 20.7847C33.5486 20.9722 33.3724 21.1934 33.1324 21.3322C32.4311 21.7409 31.4936 21.2947 30.7361 21.5909C30.5374 21.6697 30.3611 21.7934 30.1811 21.9059C29.9749 22.0334 29.7574 22.1422 29.5436 22.2547C29.2211 22.4197 28.8949 22.5884 28.5724 22.7534C27.8749 23.1097 27.1436 23.4772 26.3599 23.4809C26.2024 23.4809 26.0224 23.4772 25.9174 23.5934C25.8274 23.6947 25.8274 23.8484 25.7374 23.9497C25.6624 24.0322 25.5386 24.0547 25.4261 24.0697C24.3461 24.2272 23.2661 24.3847 22.1899 24.5422C21.7849 24.6022 21.3011 24.7259 21.1924 25.1197C22.2649 25.0934 23.1724 23.9947 24.2224 24.2159C24.4024 24.2534 24.5786 24.3284 24.7586 24.3097C24.9236 24.2909 25.0699 24.1897 25.2124 24.1034C25.9586 23.6347 26.8249 23.3572 27.7024 23.3084C28.4974 23.2634 29.3336 23.3909 30.0649 23.0722C30.7436 22.7759 31.2236 22.1272 31.9136 21.8497C32.7424 21.5122 33.6986 21.7784 34.5761 21.5909C36.1474 21.2534 37.0811 19.5959 38.5474 18.9434C38.8174 18.8234 39.1024 18.7409 39.3686 18.6097C40.4336 18.0847 41.1274 16.9672 42.0724 16.2734C41.4949 16.4834 40.9174 16.7684 40.4336 17.1659Z" fill="#DB863A"/>
        <path d="M28.4625 10.2475C27.93 10.345 27.3637 10.39 26.9212 10.6975C26.6925 10.855 26.5163 11.0763 26.2987 11.2488C25.875 11.5863 25.3013 11.7288 24.7687 11.635C24.78 12.4825 23.8538 13.03 23.0175 13.165C22.1812 13.2963 21.2812 13.2138 20.535 13.615C20.265 13.7613 20.0212 13.9713 19.7213 14.0538C19.425 14.1363 19.11 14.0763 18.7987 14.0613C17.5125 13.9938 16.2937 14.6463 15.0112 14.7288C14.4862 14.7625 13.9575 14.7025 13.4325 14.7325C12.4913 14.7888 11.5988 15.145 10.6875 15.3738C9.71625 15.6175 8.715 15.7188 7.7175 15.82C7.45125 15.8463 7.185 15.8725 6.9225 15.9025C6.2025 15.9775 5.4375 16.045 4.78125 15.7375C5.63625 15.8575 6.5325 15.67 7.2675 15.2163C7.76625 14.9125 8.21625 14.4775 8.79375 14.3838C9.2475 14.3088 9.70875 14.4588 10.1662 14.485C10.7325 14.5188 11.2875 14.3613 11.8312 14.2075C13.3875 13.765 14.94 13.3225 16.4962 12.8838C16.8562 12.7825 17.22 12.6775 17.5387 12.4825C17.7487 12.355 17.9325 12.1938 18.1388 12.055C18.7087 11.6725 19.3912 11.5 20.0625 11.3388C21.3263 11.0313 22.5938 10.72 23.8575 10.4125C24.6787 10.21 25.5075 10.0113 26.3475 9.91379C26.79 9.86504 27.2475 9.84254 27.66 9.66629C27.9562 9.53879 28.2112 9.34004 28.4887 9.17879C28.8487 8.96879 29.2463 8.82629 29.6363 8.66879C31.5075 7.92629 33.27 6.91004 34.8525 5.66504C34.3425 6.06629 33.96 6.76754 33.465 7.22129C33.0263 7.62629 32.565 8.00879 32.1188 8.40629C31.08 9.33254 29.8425 9.99629 28.4625 10.2475Z" fill="#EAC362"/>
        <path opacity="0.3" d="M27.3007 12.3018C26.5507 12.9205 25.6769 13.3893 24.7432 13.6743C24.4132 13.7755 24.0569 13.858 23.7982 14.0868C23.6857 14.188 23.5919 14.3118 23.4682 14.3943C23.2132 14.5668 22.8869 14.5443 22.5832 14.563C21.8407 14.6155 21.1544 14.9493 20.4644 15.2268C18.7319 15.913 16.8794 16.2355 15.0419 16.5543L12.5782 16.9818C11.9332 17.0905 11.2919 17.203 10.6432 17.2968C8.63691 17.5855 6.60816 17.7018 4.58316 17.7918C3.97566 17.8218 3.34941 17.8443 2.77191 17.6418C2.55816 17.5668 2.35566 17.4618 2.13816 17.4093C1.95441 17.368 1.77066 17.368 1.58691 17.383C1.68066 17.098 1.77816 16.813 1.88691 16.5318C1.95066 16.5543 2.01816 16.5805 2.08191 16.5993C2.81691 16.828 3.62316 16.7605 4.38441 16.7755C5.46066 16.7943 6.55566 16.813 7.59816 16.5468C8.12316 16.4118 8.63691 16.2055 9.17691 16.2205C9.69066 16.2318 10.1932 16.4418 10.7032 16.3893C11.0182 16.3593 11.3144 16.228 11.6294 16.1755C12.3382 16.048 13.0694 16.3143 13.7857 16.213C14.1644 16.1605 14.5207 16.0068 14.8919 15.9168C15.3232 15.8193 15.7657 15.808 16.2044 15.7593C16.8607 15.688 17.5057 15.5268 18.1432 15.3693C18.8519 15.1893 19.5607 15.013 20.2657 14.8218C22.6694 14.1655 25.0244 13.3218 27.3007 12.3018Z" fill="#E99C54"/>
        <path opacity="0.7" d="M17.7686 32.9793C17.8886 33.6393 17.1911 34.3181 16.2086 34.4981C15.2261 34.6781 14.3336 34.2881 14.2136 33.6281C14.0936 32.9681 14.7911 32.2893 15.7736 32.1093C16.7561 31.9293 17.6486 32.3193 17.7686 32.9793Z" fill="url(#paint0_radial_535_2016)"/>
        <path opacity="0.7" d="M41.8241 26.6992C42.0004 27.1417 41.6104 27.7117 40.9541 27.9742C40.2979 28.2367 39.6229 28.0942 39.4466 27.6517C39.2704 27.2092 39.6604 26.6392 40.3166 26.3767C40.9691 26.1142 41.6479 26.2604 41.8241 26.6992Z" fill="url(#paint1_radial_535_2016)"/>
        <path opacity="0.7" d="M42.2518 35.9913C42.353 36.3063 42.0568 36.685 41.588 36.835C41.1193 36.9888 40.658 36.8575 40.553 36.5425C40.4518 36.2275 40.748 35.8488 41.2168 35.6988C41.6855 35.5488 42.1505 35.68 42.2518 35.9913Z" fill="url(#paint2_radial_535_2016)"/>
        <path opacity="0.7" d="M17.619 44.0017C17.7202 44.3167 17.424 44.6955 16.9552 44.8455C16.4865 44.9992 16.0252 44.868 15.9202 44.553C15.819 44.238 16.1152 43.8592 16.584 43.7092C17.0527 43.5555 17.514 43.6905 17.619 44.0017Z" fill="url(#paint3_radial_535_2016)"/>
        <path opacity="0.2" d="M33.4654 11.1022C33.6266 11.3909 33.4091 11.8184 32.9779 12.0584C32.5466 12.2984 32.0666 12.2572 31.9091 11.9684C31.7516 11.6797 31.9654 11.2522 32.3966 11.0122C32.8241 10.7759 33.3041 10.8134 33.4654 11.1022Z" fill="url(#paint4_radial_535_2016)"/>
        <path opacity="0.6" d="M35.2322 6.11503C42.0685 12.9513 40.921 25.1763 32.6747 33.4263C28.0585 38.0425 22.1935 40.435 16.726 40.4463C12.4285 40.4575 8.37471 38.995 5.36346 35.9838C4.71472 35.335 4.14471 34.6413 3.63846 33.9063C3.63471 33.9025 3.63472 33.9025 3.63472 33.9025C2.15721 31.75 1.28721 29.2525 1.00596 26.6088C1.00971 26.605 1.00971 26.605 1.00971 26.605C0.435965 21.2988 2.23221 15.3963 6.24847 10.5213C6.76972 9.88753 7.32846 9.27253 7.92097 8.67628C9.49222 7.10503 11.206 5.79253 13.006 4.74253C20.086 0.602527 28.396 0.565027 33.9797 5.00128C34.4147 5.34628 34.831 5.71753 35.2322 6.11503Z" fill="url(#paint5_linear_535_2016)"/>
        <path opacity="0.7" d="M30.552 7.41981C35.7682 12.6361 34.6545 22.2136 28.0582 28.8098C24.3682 32.4998 19.7407 34.4761 15.4695 34.5848C12.1095 34.6711 8.96698 33.6023 6.66823 31.3036C6.17323 30.8086 5.73823 30.2761 5.35573 29.7098L5.35198 29.7061C4.23823 28.0486 3.60448 26.1136 3.42823 24.0511C3.43198 24.0473 3.43198 24.0473 3.43198 24.0473C3.08323 19.9111 4.59448 15.2648 7.81948 11.3798C8.23573 10.8773 8.68573 10.3823 9.16198 9.90606C10.4182 8.64981 11.7832 7.59231 13.2045 6.74106C18.8107 3.37731 25.3095 3.19731 29.592 6.56481C29.9257 6.83481 30.2445 7.11606 30.552 7.41981Z" fill="url(#paint6_linear_535_2016)"/>
        <path opacity="0.8" d="M9.42418 15.404C12.6944 15.404 15.3454 12.753 15.3454 9.48277C15.3454 6.21256 12.6944 3.56152 9.42418 3.56152C6.15396 3.56152 3.50293 6.21256 3.50293 9.48277C3.50293 12.753 6.15396 15.404 9.42418 15.404Z" fill="url(#paint7_radial_535_2016)"/>
        <path opacity="0.2" d="M47.9142 22.5357C47.138 14.3532 42.218 7.37824 35.2767 3.72949C39.938 7.49074 43.0917 13.0445 43.6917 19.3445C43.7592 20.0645 43.7967 20.7957 43.7967 21.5345C43.7967 34.1645 33.5592 44.402 20.9292 44.402C13.8605 44.402 7.53797 41.192 3.34547 36.1557C3.26297 36.0582 3.18422 35.957 3.10547 35.8595C3.88922 37.352 4.82672 38.7545 5.89547 40.0407C10.2642 45.287 16.8455 48.6282 24.2067 48.6282C37.358 48.6282 48.0192 37.967 48.0192 24.8157C48.023 24.047 47.9855 23.2857 47.9142 22.5357Z" fill="#883502"/>
    </g>
    <defs>
        <radialGradient id="paint0_radial_535_2016" cx="0" cy="0" r="1" gradientUnits="userSpaceOnUse" gradientTransform="translate(16.0015 33.3109) rotate(-8.45425) scale(1.53917 1.03192)">
            <stop stop-color="#D39E6A"/>
            <stop offset="1" stop-color="#AD5E2B"/>
        </radialGradient>
        <radialGradient id="paint1_radial_535_2016" cx="0" cy="0" r="1" gradientUnits="userSpaceOnUse" gradientTransform="translate(40.6207 27.17) rotate(-19.939) scale(1.09081 0.730873)">
            <stop stop-color="#D39E6A"/>
            <stop offset="1" stop-color="#AD5E2B"/>
        </radialGradient>
        <radialGradient id="paint2_radial_535_2016" cx="0" cy="0" r="1" gradientUnits="userSpaceOnUse" gradientTransform="translate(41.4066 36.2774) rotate(-16.1342) scale(0.760057 0.509277)">
            <stop stop-color="#D39E6A"/>
            <stop offset="1" stop-color="#AD5E2B"/>
        </radialGradient>
        <radialGradient id="paint3_radial_535_2016" cx="0" cy="0" r="1" gradientUnits="userSpaceOnUse" gradientTransform="translate(16.7604 44.2901) rotate(-16.1342) scale(0.760056 0.509277)">
            <stop stop-color="#D39E6A"/>
            <stop offset="1" stop-color="#AD5E2B"/>
        </radialGradient>
        <radialGradient id="paint4_radial_535_2016" cx="0" cy="0" r="1" gradientUnits="userSpaceOnUse" gradientTransform="translate(32.6886 11.5432) rotate(-27.2569) scale(0.759783 0.509353)">
            <stop stop-color="#D39E6A"/>
            <stop offset="1" stop-color="#AD5E2B"/>
        </radialGradient>
        <linearGradient id="paint5_linear_535_2016" x1="-3.41754" y1="-2.6679" x2="29.9386" y2="30.6883" gradientUnits="userSpaceOnUse">
            <stop stop-color="white"/>
            <stop offset="1" stop-color="white" stop-opacity="0"/>
        </linearGradient>
        <linearGradient id="paint6_linear_535_2016" x1="4.08333" y1="4.85117" x2="27.0678" y2="27.8356" gradientUnits="userSpaceOnUse">
            <stop stop-color="white"/>
            <stop offset="0.9249" stop-color="white" stop-opacity="0"/>
        </linearGradient>
        <radialGradient id="paint7_radial_535_2016" cx="0" cy="0" r="1" gradientUnits="userSpaceOnUse" gradientTransform="translate(9.42418 9.48352) scale(5.91975)">
            <stop offset="0.2793" stop-color="white"/>
            <stop offset="0.9249" stop-color="white" stop-opacity="0"/>
        </radialGradient>
        <clipPath id="clip0_535_2016">
            <rect width="48" height="48" fill="white" transform="translate(0.207031 0.808594)"/>
        </clipPath>
    </defs>
</svg>
