<svg width="48" height="48" viewBox="0 0 48 48" fill="none" xmlns="http://www.w3.org/2000/svg">
    <g clip-path="url(#clip0_535_2114)">
        <path d="M23.9999 47.6307C37.0508 47.6307 47.6307 37.0508 47.6307 23.9999C47.6307 10.949 37.0508 0.369141 23.9999 0.369141C10.949 0.369141 0.369141 10.949 0.369141 23.9999C0.369141 37.0508 10.949 47.6307 23.9999 47.6307Z" fill="#FBC700"/>
        <path d="M24 17.5752L12.1846 41.3537L24 36.406L35.8153 41.3537L24 17.5752Z" fill="#A28831"/>
    </g>
    <path d="M23.8773 14.8612C23.4405 14.8332 23.0177 14.7464 22.6089 14.6008C22.2057 14.4496 21.8473 14.2452 21.5337 13.9876C21.2201 13.73 20.9793 13.422 20.8113 13.0636L22.5417 12.3244C22.6089 12.4364 22.7181 12.5568 22.8693 12.6856C23.0205 12.8088 23.1997 12.9124 23.4069 12.9964C23.6197 13.0804 23.8521 13.1224 24.1041 13.1224C24.3169 13.1224 24.5185 13.0944 24.7089 13.0384C24.9049 12.9768 25.0617 12.8844 25.1793 12.7612C25.3025 12.638 25.3641 12.4784 25.3641 12.2824C25.3641 12.0752 25.2913 11.9156 25.1457 11.8036C25.0057 11.686 24.8265 11.5992 24.6081 11.5432C24.3953 11.4816 24.1881 11.4256 23.9865 11.3752C23.4545 11.2688 22.9589 11.1036 22.4997 10.8796C22.0461 10.6556 21.6793 10.3672 21.3993 10.0144C21.1249 9.65601 20.9877 9.22481 20.9877 8.72081C20.9877 8.16641 21.1333 7.68761 21.4245 7.28441C21.7213 6.88121 22.1049 6.57041 22.5753 6.35201C23.0513 6.13361 23.5637 6.02441 24.1125 6.02441C24.7789 6.02441 25.3893 6.16441 25.9437 6.44441C26.5037 6.71881 26.9461 7.10801 27.2709 7.61201L25.6497 8.56961C25.5713 8.43521 25.4621 8.31201 25.3221 8.20001C25.1821 8.08241 25.0225 7.98721 24.8433 7.91441C24.6641 7.83601 24.4765 7.79121 24.2805 7.78001C24.0285 7.76881 23.7989 7.79121 23.5917 7.84721C23.3845 7.90321 23.2165 7.99841 23.0877 8.13281C22.9645 8.26721 22.9029 8.44641 22.9029 8.67041C22.9029 8.88321 22.9869 9.04281 23.1549 9.14921C23.3229 9.25001 23.5245 9.32841 23.7597 9.38441C24.0005 9.44041 24.2301 9.50201 24.4485 9.56921C24.9413 9.73161 25.4033 9.93041 25.8345 10.1656C26.2713 10.4008 26.6213 10.6892 26.8845 11.0308C27.1477 11.3724 27.2737 11.7812 27.2625 12.2572C27.2625 12.8004 27.1001 13.2764 26.7753 13.6852C26.4505 14.0884 26.0305 14.3964 25.5153 14.6092C25.0057 14.822 24.4597 14.906 23.8773 14.8612Z" fill="#A28831"/>
    <defs>
        <clipPath id="clip0_535_2114">
            <rect width="48" height="48" fill="white"/>
        </clipPath>
    </defs>
</svg>
