<svg width="24" height="24" viewBox="0 0 24 24" fill="none" xmlns="http://www.w3.org/2000/svg">
<path d="M12 2.25C17.5228 2.25007 22 6.72719 22 12.25C22 17.7728 17.5228 22.2499 12 22.25C6.47715 22.25 2 17.7728 2 12.25C2 6.72715 6.47715 2.25 12 2.25ZM8.66699 5.58203C8.20616 5.58203 7.8332 5.95425 7.83301 6.41504V7.24902H5.33301C4.8722 7.24915 4.50006 7.6212 4.5 8.08203C4.5 8.54299 4.87238 8.91504 5.33594 8.91504H10.8125L10.7998 8.94629C10.4274 9.96977 9.86168 10.8997 9.14551 11.6914C8.79927 11.3816 8.47127 11.0455 8.17188 10.6836L7.90625 10.3662C7.61197 10.012 7.08563 9.96548 6.73145 10.2598C6.37767 10.5541 6.33095 11.0795 6.625 11.4336L6.8877 11.752C7.20279 12.1295 7.542 12.4857 7.90137 12.8164C7.52114 13.0925 7.11688 13.3402 6.69238 13.5537L5.79395 14.0039C5.38261 14.2096 5.21637 14.7097 5.42188 15.1211C5.6276 15.5325 6.1276 15.6998 6.53906 15.4941L7.44238 15.0459C8.09085 14.7204 8.69822 14.3298 9.25293 13.8818C9.79448 14.2463 10.367 14.5645 10.9658 14.8301L12.2793 15.4131L11.2422 17.7441C11.0548 18.1633 11.245 18.6552 11.6641 18.8428C12.0834 19.0303 12.5762 18.8428 12.7637 18.4209L13.2842 17.249H17.3857L17.9062 18.4209C18.0912 18.8402 18.5866 19.0277 19.0059 18.8428C19.4249 18.6578 19.6151 18.1659 19.4277 17.7441L16.0938 10.2441C15.961 9.94214 15.662 9.74915 15.334 9.74902C15.0058 9.74902 14.7061 9.94204 14.5732 10.2441L12.9531 13.8896L11.6406 13.3066C11.2396 13.1269 10.8542 12.9235 10.4844 12.6943C11.2942 11.7699 11.9381 10.6946 12.3652 9.51758L12.584 8.91504H12.834C13.2947 8.91481 13.667 8.54285 13.667 8.08203C13.6669 7.62126 13.2947 7.24925 12.834 7.24902H9.5V6.41504C9.49981 5.95434 9.1277 5.58218 8.66699 5.58203ZM16.6436 15.582H14.0234L15.334 12.6348L16.6436 15.582Z" fill="#10B100"/>
</svg>
