<svg width="32" height="33" viewBox="0 0 32 33" fill="none" xmlns="http://www.w3.org/2000/svg">
    <g clip-path="url(#clip0_512_1596)">
        <path d="M31.9998 16.6475C31.9998 25.4841 24.8364 32.6475 15.9998 32.6475C7.16307 32.6475 -0.000244141 25.4841 -0.000244141 16.6475C-0.000244141 7.81077 7.16307 0.647461 15.9998 0.647461C24.8364 0.647461 31.9998 7.81077 31.9998 16.6475Z" fill="#B196E7"/>
        <path d="M31.9998 16.6475C31.9998 18.2756 31.7566 19.8469 31.3042 21.3269C30.9898 22.3562 30.5747 23.3413 30.0698 24.2712C29.5542 25.2212 28.9448 26.1125 28.2541 26.9343C28.2178 26.9775 28.1816 27.0205 28.1448 27.063C25.2109 30.482 20.8579 32.6475 15.9998 32.6475C11.1416 32.6475 6.78857 30.482 3.85544 27.063C3.81863 27.02 3.78176 26.9768 3.74607 26.9336C3.05469 26.1125 2.44532 25.2212 1.93044 24.2712C1.72488 23.8943 1.53469 23.5081 1.36038 23.113C0.485381 21.1362 -0.000244141 18.9487 -0.000244141 16.6475C-0.000244141 13.7588 0.765381 11.0493 2.10476 8.70996C4.86232 13.5268 10.0523 16.7725 15.9998 16.7725C21.9473 16.7725 27.1379 13.5268 29.8948 8.70996C31.2341 11.0493 31.9998 13.7588 31.9998 16.6475Z" fill="#8D69DB"/>
        <path d="M30.0786 24.2539C29.6311 25.0803 29.114 25.8628 28.5335 26.5933C28.0061 27.2578 27.426 27.8789 26.801 28.451C23.9548 31.0572 20.1628 32.6477 15.9998 32.6477C11.8367 32.6477 8.04471 31.0572 5.19852 28.451C4.57352 27.8789 3.9934 27.2578 3.46609 26.5933C2.88552 25.8628 2.3684 25.0803 1.9209 24.2539H30.0786Z" fill="#643BB4"/>
        <path d="M22.4724 6.67206C21.3298 6.70981 20.2162 6.84756 19.1562 7.08206C17.7618 5.90275 16.1713 5.23263 15.9997 5.14062C15.8343 5.22937 14.1722 5.958 12.8432 7.08206C11.7832 6.84756 10.6696 6.70981 9.52694 6.67206L8.00256 6.62094L11.8131 12.4471H15.9997H20.1863L23.9968 6.62094L22.4724 6.67206Z" fill="#A8EB58"/>
        <path d="M23.9969 6.62094L22.4725 6.67206C21.3298 6.70981 20.2163 6.84756 19.1563 7.08206C17.7619 5.90275 16.1713 5.23263 15.9998 5.14062V12.447H20.1864L23.9969 6.62094Z" fill="#80CF8C"/>
        <path d="M24.9837 19.1625L20.2119 12.4473H15.9997H11.7876L7.01574 19.1624C6.03993 20.5365 5.52368 22.1159 5.52368 23.7291C5.52368 28.617 10.2234 32.6473 15.9997 32.6473C21.7761 32.6473 26.4758 28.617 26.4758 23.7292C26.4758 22.1159 25.9596 20.5365 24.9837 19.1625Z" fill="#CDFA89"/>
        <path d="M16.1015 12.4473H13.1543L9.89413 19.1625C9.22744 20.5365 8.87476 22.116 8.87476 23.7291C8.87476 28.617 12.0856 32.6473 16.032 32.6473C16.0553 32.6473 16.0783 32.6465 16.1015 32.6461V12.4473Z" fill="#A8EB58"/>
        <path d="M26.4758 23.7292C26.4758 22.116 25.9596 20.5365 24.9838 19.1625L20.2119 12.4473H15.9998V32.6473C21.7761 32.6473 26.4758 28.617 26.4758 23.7292Z" fill="#80CF8C"/>
        <path d="M16.8057 21.3117H15.9998H15.1939C14.7493 21.3117 14.3881 20.9505 14.3881 20.5058C14.3881 20.0611 14.7492 19.6999 15.1939 19.6999H15.9998H16.8057C17.2503 19.6999 17.6116 20.0611 17.6116 20.5058H19.2232C19.2232 19.1727 18.1388 18.0882 16.8057 18.0882V16.4766H15.9998H15.1939V18.0882C13.8608 18.0882 12.7764 19.1727 12.7764 20.5058C12.7764 21.8389 13.8608 22.9234 15.1939 22.9234H15.9998H16.8057C17.2503 22.9234 17.6116 23.2846 17.6116 23.7292C17.6116 24.1739 17.2504 24.5351 16.8057 24.5351H15.9998H15.1939C14.7493 24.5351 14.3881 24.1739 14.3881 23.7292H12.7764C12.7764 25.0624 13.8608 26.1468 15.1939 26.1468V27.7585H15.9998H16.8057V26.1468C18.1388 26.1468 19.2232 25.0624 19.2232 23.7292C19.2232 22.3961 18.1387 21.3117 16.8057 21.3117Z" fill="#FBF5EB"/>
        <path d="M16.8056 26.1466C18.1388 26.1466 19.2232 25.0622 19.2232 23.7291C19.2232 22.396 18.1388 21.3115 16.8056 21.3115H15.9998V22.9232H16.8056C17.2503 22.9232 17.6115 23.2844 17.6115 23.7291C17.6115 24.1738 17.2503 24.535 16.8056 24.535H15.9998V27.7583H16.8056V26.1466Z" fill="#DCE0EF"/>
        <path d="M16.8056 19.6999C17.2503 19.6999 17.6115 20.0611 17.6115 20.5058H19.2232C19.2232 19.1727 18.1388 18.0883 16.8056 18.0883V16.4766H15.9998V19.6999H16.8056Z" fill="#DCE0EF"/>
        <path d="M15.9998 11.6416H9.55298V13.2533H15.9998H22.4466V11.6416H15.9998Z" fill="#535564"/>
        <path d="M15.9998 11.6416H22.4466V13.2533H15.9998V11.6416Z" fill="#3B3B3B"/>
        <path d="M5.82636 15.2368H5.68961C5.08354 15.2368 4.59248 14.7453 4.59248 14.1396V14.0029H3.81048V14.1396C3.81048 14.7453 3.31898 15.2368 2.71329 15.2368H2.57629V16.0189H2.71329C3.31898 16.0189 3.81048 16.5099 3.81048 17.116V17.2531H4.59254V17.116C4.59254 16.5099 5.08354 16.0189 5.68967 16.0189H5.82642L5.82636 15.2368Z" fill="white"/>
        <path d="M28.1009 10.729H27.9641C27.3581 10.729 26.8671 10.2375 26.8671 9.6318V9.49512H26.085V9.6318C26.085 10.2375 25.5935 10.729 24.9878 10.729H24.8508V11.5111H24.9878C25.5935 11.5111 26.085 12.0021 26.085 12.6082V12.7453H26.8671V12.6082C26.8671 12.0021 27.3581 11.5111 27.9641 11.5111H28.1009V10.729Z" fill="white"/>
        <path d="M30.0787 17.7983H29.9419C29.3359 17.7983 28.8449 17.3068 28.8449 16.7011V16.5645H28.0628V16.7011C28.0628 17.3068 27.5713 17.7983 26.9656 17.7983H26.8286V18.5804H26.9656C27.5713 18.5804 28.0628 19.0715 28.0628 19.6775V19.8146H28.8449V19.6775C28.8449 19.0715 29.3359 18.5804 29.9419 18.5804H30.0787V17.7983Z" fill="white"/>
    </g>
    <defs>
        <clipPath id="clip0_512_1596">
            <rect width="32" height="32" fill="white" transform="translate(-0.000244141 0.647461)"/>
        </clipPath>
    </defs>
</svg>
