<svg width="71" height="71" viewBox="0 0 71 71" fill="none" xmlns="http://www.w3.org/2000/svg">
    <g filter="url(#filter0_d_997_1297)">
        <rect x="9.45343" y="6.44824" width="52.5" height="52.5" rx="26.25" fill="#E6F0FF"/>
        <rect x="10.9534" y="7.94824" width="49.5" height="49.5" rx="24.75" stroke="white" stroke-width="3"/>
        <g clip-path="url(#clip0_997_1297)">
            <path d="M48.5999 32.6982C48.5999 39.7399 42.8916 45.4482 35.8499 45.4482C28.8083 45.4482 23.0999 39.7399 23.0999 32.6982C23.0999 25.6566 28.8083 19.9482 35.8499 19.9482C42.8916 19.9482 48.5999 25.6566 48.5999 32.6982Z" fill="#54469D"/>
            <path d="M47.1357 32.6983C47.1357 38.0902 42.7647 42.4611 37.3729 42.4611C31.9811 42.4611 27.6102 38.0902 27.6102 32.6983C27.6102 27.3065 31.9811 22.9355 37.3729 22.9355C42.7648 22.9355 47.1357 27.3065 47.1357 32.6983Z" fill="#6E61B7"/>
            <path d="M41.598 29.8268V38.6429C41.598 41.7322 39.0936 44.2365 36.0043 44.2365H35.6945C32.6052 44.2365 30.1009 41.7322 30.1009 38.6429V27.1442C30.1009 26.5092 30.6156 25.9945 31.2506 25.9945C31.8855 25.9945 32.4003 26.5092 32.4003 27.1442V24.6915C32.4003 24.0565 32.915 23.5418 33.55 23.5418C34.1849 23.5418 34.6997 24.0565 34.6997 24.6915V23.1585C34.6997 22.5235 35.2144 22.0088 35.8493 22.0088C36.4843 22.0088 36.999 22.5235 36.999 23.1585V24.6914C36.999 24.0565 37.5138 23.5417 38.1487 23.5417C38.7837 23.5417 39.2984 24.0565 39.2984 24.6914V30.5933C39.2984 29.7466 39.9847 29.0603 40.8314 29.0603C41.2548 29.0603 41.598 29.4035 41.598 29.8268Z" fill="#2DD2E3"/>
            <path d="M36.3581 44.2255C36.2411 44.2328 36.1231 44.2365 36.0043 44.2365H35.6945C32.6052 44.2365 30.1009 41.7322 30.1009 38.6429V27.1442C30.1009 26.5092 30.6156 25.9945 31.2506 25.9945C31.4332 25.9945 31.6059 26.037 31.7592 26.1128C31.3794 26.3005 31.1182 26.6918 31.1182 27.1442V38.6429C31.1182 41.6134 33.4336 44.043 36.3581 44.2255ZM38.1488 23.5417C37.5139 23.5417 36.9991 24.0565 36.9991 24.6914V32.4711C36.9991 32.7463 37.2222 32.9693 37.4973 32.9693C37.7725 32.9693 37.9955 32.7462 37.9955 32.4711V24.3082C37.9955 24.0174 38.1035 23.7518 38.2816 23.5493C38.238 23.5443 38.1937 23.5417 38.1488 23.5417ZM32.8985 32.9694C33.1736 32.9694 33.3967 32.7463 33.3967 32.4712V24.3082C33.3967 24.0174 33.5046 23.7518 33.6827 23.5493C33.6392 23.5443 33.5948 23.5417 33.55 23.5417C32.915 23.5417 32.4003 24.0565 32.4003 24.6914V32.4711C32.4003 32.7463 32.6233 32.9694 32.8985 32.9694ZM35.1979 32.47C35.4731 32.47 35.6961 32.2469 35.6961 31.9718V22.7753C35.6961 22.4845 35.8041 22.2189 35.9821 22.0164C35.9385 22.0114 35.8943 22.0088 35.8494 22.0088C35.2144 22.0088 34.6997 22.5235 34.6997 23.1585V31.9717C34.6997 32.2469 34.9227 32.47 35.1979 32.47ZM39.2985 30.5933V34.2129C39.2985 34.4881 39.5216 34.7111 39.7967 34.7111C40.0718 34.7111 40.2949 34.4881 40.2949 34.2129V29.8268C40.2949 29.543 40.3978 29.2834 40.5681 29.0829C39.847 29.2078 39.2985 29.8365 39.2985 30.5933Z" fill="#00BFD8"/>
            <path d="M38.4832 38.3279C38.4832 38.6206 38.5826 38.8901 38.7493 39.1047C38.4976 39.2071 38.2768 39.3909 38.1305 39.6445C37.9841 39.898 37.9353 40.1811 37.9724 40.4503C37.7032 40.4131 37.4201 40.4619 37.1667 40.6083C36.9132 40.7547 36.7295 40.9755 36.627 41.2271C36.4124 41.0604 36.1429 40.9611 35.8501 40.9611C35.5574 40.9611 35.2878 41.0604 35.0733 41.2271C34.9708 40.9755 34.787 40.7547 34.5335 40.6083C34.2799 40.4619 33.9968 40.4132 33.7278 40.4502C33.7649 40.181 33.7161 39.898 33.5698 39.6445C33.4234 39.3909 33.2027 39.2072 32.951 39.1047C33.1177 38.8902 33.217 38.6207 33.217 38.3279C33.217 38.0352 33.1177 37.7657 32.951 37.5511C33.2027 37.4486 33.4234 37.2649 33.5698 37.0114C33.7161 36.7578 33.7649 36.4747 33.7278 36.2055C33.7851 36.2134 33.8429 36.2175 33.9011 36.2175C34.1161 36.2175 34.334 36.1627 34.5335 36.0475C34.787 35.9011 34.9708 35.6804 35.0733 35.4287C35.2878 35.5954 35.5574 35.6947 35.8501 35.6947C36.1429 35.6947 36.4124 35.5954 36.627 35.4287C36.7294 35.6804 36.9132 35.9012 37.1667 36.0475C37.3664 36.1627 37.5842 36.2175 37.7992 36.2175C37.8573 36.2175 37.9152 36.2134 37.9724 36.2055C37.9353 36.4747 37.9841 36.7577 38.1305 37.0113C38.2768 37.2648 38.4976 37.4486 38.7493 37.551C38.5825 37.7656 38.4832 38.0351 38.4832 38.3279Z" fill="#00BFD8"/>
            <path d="M37.8792 38.3286C37.8792 38.5543 37.9557 38.762 38.0842 38.9274C37.8902 39.0064 37.7201 39.1481 37.6073 39.3436C37.4944 39.539 37.4568 39.7572 37.4854 39.9647C37.2779 39.9361 37.0597 39.9737 36.8643 40.0866C36.6689 40.1994 36.5272 40.3696 36.4482 40.5636C36.2828 40.4351 36.0751 40.3586 35.8494 40.3586C35.6237 40.3586 35.4159 40.4351 35.2505 40.5636C35.1716 40.3696 35.0299 40.1994 34.8345 40.0866C34.6389 39.9737 34.4208 39.9361 34.2134 39.9647C34.242 39.7572 34.2043 39.539 34.0915 39.3436C33.9787 39.1482 33.8086 39.0065 33.6146 38.9275C33.7431 38.7621 33.8196 38.5544 33.8196 38.3287C33.8196 38.1031 33.7431 37.8953 33.6146 37.7299C33.8086 37.6509 33.9788 37.5092 34.0915 37.3138C34.2044 37.1183 34.242 36.9001 34.2134 36.6926C34.2575 36.6987 34.3021 36.7019 34.3469 36.7019C34.5127 36.7019 34.6807 36.6596 34.8345 36.5708C35.0299 36.458 35.1716 36.2878 35.2505 36.0938C35.4159 36.2222 35.6237 36.2988 35.8494 36.2988C36.0751 36.2988 36.2828 36.2222 36.4482 36.0938C36.5272 36.2877 36.6689 36.4579 36.8643 36.5708C37.0182 36.6596 37.1861 36.7019 37.3519 36.7019C37.3967 36.7019 37.4413 36.6987 37.4854 36.6926C37.4568 36.9001 37.4944 37.1183 37.6073 37.3137C37.7201 37.5091 37.8902 37.6508 38.0843 37.7298C37.9557 37.8952 37.8792 38.1029 37.8792 38.3286Z" fill="#0396FD"/>
            <path d="M39.343 37.9546H37.2443L39.0618 36.9053C39.2404 36.8021 39.3016 36.5737 39.1985 36.395C39.0954 36.2164 38.8669 36.1552 38.6883 36.2583L36.8708 37.3076L37.9201 35.4902C38.0233 35.3115 37.962 35.0831 37.7834 34.9799C37.6047 34.8767 37.3762 34.9379 37.2732 35.1166L36.2239 36.934V34.8354C36.2239 34.6292 36.0567 34.4619 35.8503 34.4619C35.644 34.4619 35.4768 34.6292 35.4768 34.8354V36.934L34.4275 35.1166C34.3244 34.9379 34.0959 34.8767 33.9173 34.9799C33.7386 35.083 33.6774 35.3115 33.7805 35.4901L34.8299 37.3076L33.0125 36.2583C32.8337 36.1551 32.6053 36.2163 32.5022 36.395C32.3991 36.5736 32.4603 36.8021 32.6389 36.9052L34.4563 37.9545H32.3577C32.1514 37.9545 31.9842 38.1218 31.9842 38.3281C31.9842 38.5343 32.1514 38.7016 32.3577 38.7016H34.4563L32.6389 39.7509C32.4603 39.854 32.3991 40.0825 32.5022 40.2611C32.5714 40.381 32.6969 40.4479 32.826 40.4479C32.8894 40.4479 32.9537 40.4318 33.0125 40.3978L34.8299 39.3486L33.7805 41.166C33.6774 41.3446 33.7386 41.5731 33.9173 41.6762C33.9761 41.7102 34.0403 41.7263 34.1037 41.7263C34.2328 41.7263 34.3583 41.6593 34.4275 41.5395L35.4768 39.7221V41.8207C35.4768 42.0269 35.644 42.1942 35.8503 42.1942C36.0567 42.1942 36.2239 42.0269 36.2239 41.8207V39.7221L37.2732 41.5395C37.3424 41.6593 37.4679 41.7263 37.597 41.7263C37.6603 41.7263 37.7246 41.7102 37.7834 41.6762C37.962 41.5731 38.0233 41.3446 37.9201 41.166L36.8708 39.3486L38.6882 40.3978C38.7471 40.4318 38.8113 40.4479 38.8746 40.4479C39.0037 40.4479 39.1293 40.3809 39.1985 40.2611C39.3016 40.0825 39.2404 39.854 39.0617 39.7509L37.2443 38.7016H39.3429C39.5493 38.7016 39.7165 38.5343 39.7165 38.3281C39.7165 38.1218 39.5493 37.9546 39.343 37.9546ZM36.7049 38.5571C36.6307 38.5872 36.5656 38.6414 36.5225 38.7162C36.4794 38.7909 36.465 38.8744 36.4759 38.9537C36.3966 38.9427 36.3131 38.9571 36.2384 39.0003C36.1637 39.0434 36.1095 39.1085 36.0793 39.1827C36.0161 39.1335 35.9366 39.1043 35.8503 39.1043C35.764 39.1043 35.6846 39.1335 35.6213 39.1827C35.5911 39.1085 35.537 39.0434 35.4623 39.0003C35.3875 38.9571 35.3041 38.9427 35.2247 38.9536C35.2356 38.8743 35.2213 38.7909 35.1782 38.7162C35.135 38.6414 35.0699 38.5873 34.9958 38.5571C35.0449 38.4939 35.0742 38.4144 35.0742 38.3281C35.0742 38.2418 35.0449 38.1624 34.9958 38.0992C35.07 38.0689 35.135 38.0148 35.1782 37.94C35.2213 37.8653 35.2357 37.7818 35.2247 37.7025C35.2416 37.7048 35.2587 37.706 35.2758 37.706C35.3392 37.706 35.4035 37.6899 35.4623 37.6559C35.537 37.6128 35.5911 37.5477 35.6213 37.4736C35.6846 37.5227 35.764 37.5519 35.8503 37.5519C35.9366 37.5519 36.0161 37.5227 36.0793 37.4736C36.1095 37.5477 36.1637 37.6128 36.2384 37.6559C36.2973 37.6899 36.3615 37.706 36.4248 37.706C36.442 37.706 36.459 37.7048 36.4759 37.7025C36.465 37.7818 36.4794 37.8653 36.5225 37.94C36.5656 38.0148 36.6307 38.0689 36.7049 38.0992C36.6557 38.1624 36.6265 38.2418 36.6265 38.3282C36.6265 38.4144 36.6558 38.4938 36.7049 38.5571Z" fill="#AFEAF2"/>
            <path d="M35.8496 34.2412C33.5963 34.2412 31.763 36.0745 31.763 38.3278C31.763 40.5811 33.5963 42.4144 35.8496 42.4144C38.1029 42.4144 39.9361 40.5811 39.9361 38.3278C39.9361 36.0745 38.1029 34.2412 35.8496 34.2412ZM35.8496 41.6673C34.0081 41.6673 32.5101 40.1692 32.5101 38.3278C32.5101 36.4865 34.0081 34.9883 35.8496 34.9883C37.691 34.9883 39.1891 36.4865 39.1891 38.3278C39.1891 40.1692 37.691 41.6673 35.8496 41.6673Z" fill="#D5F3F7"/>
            <path d="M44.0857 33.0135C43.9398 32.8677 43.9398 32.6312 44.0857 32.4853L45.1422 31.4288C45.2881 31.2829 45.5246 31.2829 45.6705 31.4288C45.8164 31.5747 45.8164 31.8112 45.6705 31.957L44.614 33.0135C44.541 33.0865 44.4454 33.123 44.3498 33.123C44.2542 33.123 44.1587 33.0865 44.0857 33.0135ZM44.614 36.8469C44.4681 36.701 44.2316 36.7009 44.0857 36.8469C43.9398 36.9927 43.9398 37.2292 44.0857 37.3751L45.1422 38.4316C45.2152 38.5046 45.3107 38.541 45.4064 38.541C45.5019 38.541 45.5976 38.5046 45.6705 38.4316C45.8164 38.2857 45.8164 38.0492 45.6705 37.9034L44.614 36.8469ZM45.9685 34.5566H44.4744C44.268 34.5566 44.1008 34.7239 44.1008 34.9302C44.1008 35.1365 44.268 35.3037 44.4744 35.3037H45.9685C46.1749 35.3037 46.342 35.1365 46.342 34.9302C46.342 34.7239 46.1748 34.5566 45.9685 34.5566ZM27.5984 34.9302C27.5984 34.7239 27.4313 34.5566 27.2249 34.5566H25.7308C25.5244 34.5566 25.3572 34.7239 25.3572 34.9302C25.3572 35.1365 25.5244 35.3037 25.7308 35.3037H27.2249C27.4313 35.3037 27.5984 35.1365 27.5984 34.9302ZM27.3494 36.7374C27.2539 36.7374 27.1582 36.7739 27.0853 36.8469L26.0288 37.9034C25.8829 38.0492 25.8829 38.2858 26.0288 38.4316C26.1747 38.5775 26.4112 38.5775 26.557 38.4316L27.6135 37.3751C27.7594 37.2292 27.7594 36.9927 27.6135 36.8469C27.5406 36.7739 27.445 36.7374 27.3494 36.7374ZM26.5571 31.4288C26.4841 31.3558 26.3885 31.3193 26.2929 31.3193C26.1973 31.3193 26.1017 31.3558 26.0288 31.4288C25.8829 31.5746 25.8829 31.8112 26.0288 31.957L27.0853 33.0135C27.2311 33.1594 27.4676 33.1594 27.6135 33.0135C27.7594 32.8676 27.7594 32.6311 27.6135 32.4853L26.5571 31.4288ZM35.8496 36.8053C35.0097 36.8053 34.3264 37.4886 34.3264 38.3285C34.3264 39.1684 35.0097 39.8517 35.8496 39.8517C36.6895 39.8517 37.3729 39.1684 37.3729 38.3285C37.3729 37.4886 36.6895 36.8053 35.8496 36.8053ZM35.8496 39.1047C35.4217 39.1047 35.0735 38.7565 35.0735 38.3285C35.0735 37.9006 35.4217 37.5524 35.8496 37.5524C36.2776 37.5524 36.6258 37.9006 36.6258 38.3285C36.6258 38.7565 36.2776 39.1047 35.8496 39.1047Z" fill="white"/>
        </g>
    </g>
    <defs>
        <filter id="filter0_d_997_1297" x="0.45343" y="0.448242" width="70.5" height="70.5" filterUnits="userSpaceOnUse" color-interpolation-filters="sRGB">
            <feFlood flood-opacity="0" result="BackgroundImageFix"/>
            <feColorMatrix in="SourceAlpha" type="matrix" values="0 0 0 0 0 0 0 0 0 0 0 0 0 0 0 0 0 0 127 0" result="hardAlpha"/>
            <feOffset dy="3"/>
            <feGaussianBlur stdDeviation="4.5"/>
            <feComposite in2="hardAlpha" operator="out"/>
            <feColorMatrix type="matrix" values="0 0 0 0 0 0 0 0 0 0 0 0 0 0 0 0 0 0 0.12 0"/>
            <feBlend mode="normal" in2="BackgroundImageFix" result="effect1_dropShadow_997_1297"/>
            <feBlend mode="normal" in="SourceGraphic" in2="effect1_dropShadow_997_1297" result="shape"/>
        </filter>
        <clipPath id="clip0_997_1297">
            <rect width="25.5" height="25.5" fill="white" transform="translate(23.0989 19.9482)"/>
        </clipPath>
    </defs>
</svg>
