<svg width="33" height="33" viewBox="0 0 33 33" fill="none" xmlns="http://www.w3.org/2000/svg">
<g clip-path="url(#clip0_512_1356)">
<mask id="mask0_512_1356" style="mask-type:luminance" maskUnits="userSpaceOnUse" x="0" y="0" width="33" height="33">
<path d="M0.213928 0.848635H32.2139V32.8486H0.213928V0.848635Z" fill="white"/>
</mask>
<g mask="url(#mask0_512_1356)">
<path d="M32.2136 16.8476C32.2136 22.2778 29.5098 27.0744 25.3756 29.967L23.1901 29.4646C18.6047 28.4087 13.837 28.4088 9.25152 29.4711L7.06927 29.9766H7.06609C2.92552 27.0839 0.21521 22.2842 0.21521 16.8476C0.21521 13.9966 0.960774 11.3215 2.26952 9.00163C5.01184 4.13788 10.2307 0.84844 16.2145 0.84844C22.1886 0.84844 27.3979 4.12506 30.1466 8.97606C30.1466 8.97919 30.1498 8.98244 30.153 8.98244C31.465 11.3055 32.2136 13.9902 32.2136 16.8476Z" fill="#4C1760"/>
<path d="M32.2136 16.8476C32.2136 22.2778 29.5098 27.0744 25.3756 29.967L23.1901 29.4646C18.6047 28.4087 13.837 28.4088 9.25152 29.4711L7.06609 29.9766C2.92552 27.0839 0.21521 22.2842 0.21521 16.8476C0.21521 13.9966 0.960774 11.3215 2.26952 9.00163C2.28234 8.97919 2.29827 8.95363 2.31115 8.928C2.31427 8.92169 2.31752 8.91525 2.32071 8.912C3.90784 11.6863 6.30127 13.939 9.18433 15.3501C9.51077 15.5101 9.84677 15.6605 10.186 15.7981C12.0003 16.5373 13.9809 16.9532 16.0545 16.9724H16.3744C18.448 16.9532 20.4286 16.5373 22.243 15.7981C22.5821 15.6605 22.9181 15.5101 23.2445 15.3501C26.1243 13.939 28.521 11.6863 30.1081 8.912C30.1113 8.91525 30.1146 8.92169 30.1178 8.928C30.1273 8.94407 30.137 8.96007 30.1466 8.97606C30.1466 8.97919 30.1498 8.98244 30.153 8.98244C31.465 11.3055 32.2136 13.9902 32.2136 16.8476Z" fill="#3A004D"/>
<path d="M17.8045 23.3132L16.2206 25.7578C16.1994 25.7578 16.1783 25.7578 16.1572 25.7572C10.7584 25.7233 6.39319 21.3369 6.39319 15.9305C6.39319 10.524 10.7584 6.13706 16.1572 6.10319C16.1783 6.1025 16.1994 6.1025 16.2206 6.1025L17.7911 8.51775C20.7151 13.0148 20.7202 18.811 17.8045 23.3132Z" fill="white"/>
<path d="M17.8044 23.3132L16.2205 25.7578C16.1994 25.7578 16.1782 25.7578 16.1572 25.7572C13.4724 25.6888 11.3081 21.3158 11.3081 15.9305C11.3081 10.5451 13.4724 6.17156 16.1572 6.10319C16.1782 6.1025 16.1994 6.1025 16.2205 6.1025L17.791 8.51775C20.715 13.0148 20.7201 18.811 17.8044 23.3132Z" fill="#DFF0F8"/>
<path d="M26.0485 15.9301C26.0485 21.3578 21.6484 25.7578 16.2208 25.7578V6.10238C21.6484 6.10238 26.0485 10.5025 26.0485 15.9301Z" fill="#9DD6ED"/>
<path d="M14.714 16.763C14.714 17.7825 15.336 18.6599 16.2205 19.0355L16.3427 19.129C16.733 19.4285 16.701 20.0269 16.2805 20.2828L16.2205 20.3193C14.6538 19.8956 13.498 18.4621 13.498 16.763C13.498 15.1888 14.6909 13.887 16.2205 13.7148C16.4572 13.8474 16.5789 14.0867 16.5789 14.3267C16.5789 14.5366 16.486 14.7471 16.2954 14.8879L16.2205 14.9436C15.3642 15.1061 14.714 15.86 14.714 16.763Z" fill="#0275FA"/>
<path d="M15.3669 25.8213C14.1089 25.3581 12.9394 24.5244 11.9508 23.3663C10.4607 21.6206 9.60632 19.3719 9.60632 17.1956C9.60632 15.3312 10.3819 13.6437 11.6276 12.4413C11.9776 12.4506 12.2094 12.8081 12.0744 13.1312L11.3351 14.9C11.0058 15.5969 10.8219 16.3756 10.8219 17.1956C10.8219 18.7725 11.3426 20.3987 12.2739 21.7825C12.7967 22.745 13.4286 23.6444 14.1571 24.4625L15.3669 25.8213Z" fill="#00B3FF"/>
<path d="M18.3301 25.6372C18.3301 25.6784 18.3257 25.7184 18.3182 25.7578H16.2206C16.1994 25.7578 16.1787 25.7578 16.1575 25.7572C14.5657 25.7166 13.1569 24.1628 12.2738 21.7821C12.4582 22.0577 12.6594 22.3234 12.8756 22.5772C13.8394 23.7066 14.9931 24.4741 16.2206 24.8197C16.7125 24.9584 17.2144 25.0291 17.7219 25.0291C18.0225 25.0291 18.2713 25.2459 18.3212 25.5321C18.3269 25.5659 18.3301 25.6016 18.3301 25.6372Z" fill="#0275FA"/>
<path d="M11.3348 14.8994C11.3792 14.0425 11.4793 13.2182 11.6274 12.4407C12.8186 11.2894 14.438 10.5806 16.2205 10.5806L16.2311 10.5869C16.6655 10.8475 16.6874 11.4687 16.2723 11.76L16.2205 11.7963C14.0642 11.7963 12.1986 13.0669 11.3348 14.8994Z" fill="#0275FA"/>
<path d="M7.06647 29.6423L13.9122 28.8001C13.7356 29.5412 13.3503 30.2394 12.7628 30.8006L11.392 32.1094C9.83303 31.6172 8.37772 30.8928 7.06647 29.9769V29.6423Z" fill="#00B3FF"/>
<path d="M14.0236 27.8242L9.27051 27.0892V24.5911H12.5542L13.1243 25.3005C13.7211 26.0423 14.018 26.9342 14.0236 27.8242Z" fill="#00B3FF"/>
<path d="M15.1535 27.999L12.3383 27.5638L12.5539 27.0895V24.5911H16.2203L18.1383 26.648C18.4442 26.9756 18.6625 27.3558 18.7936 27.7577L17.1994 28.0008C16.5211 28.1045 15.8313 28.1039 15.1535 27.999Z" fill="#0275FA"/>
<path d="M18.9362 28.8571C18.899 29.517 18.6437 30.1672 18.1695 30.6919L16.2202 32.8486H16.215C14.5338 32.8486 12.9134 32.5894 11.3916 32.1088V29.6418L11.6482 29.0779L15.3575 28.6216C15.9014 28.5544 16.4512 28.5544 16.9951 28.6204L18.9362 28.8571Z" fill="#0275FA"/>
<path d="M23.1695 24.5909V27.089L17.1994 28.0009C16.8751 28.0503 16.547 28.0759 16.2201 28.0771V24.5909H23.1695Z" fill="#0069D1"/>
<path d="M25.3752 29.6417V29.9687C22.7821 31.7831 19.6258 32.8473 16.2205 32.8486V28.5711C16.479 28.5729 16.7382 28.5889 16.9955 28.6203L25.3752 29.6417Z" fill="#0069D1"/>
<path d="M13.0634 28.1089C13.0634 28.6069 12.7786 29.099 12.2474 29.307L11.3918 29.6416H7.06628L9.27035 27.0894H12.554C12.8989 27.3506 13.0634 27.7314 13.0634 28.1089Z" fill="#0275FA"/>
<path d="M16.4138 29.5322L16.2205 29.6416H11.392L12.5542 27.0894H16.2205L16.3831 27.1765C17.3155 27.6763 17.3328 29.008 16.4138 29.5322Z" fill="#0069D1"/>
<path d="M25.3753 29.6416H16.2208V27.0889H23.1703L25.3753 29.6416Z" fill="#005CA8"/>
<path d="M17.4518 2.79346H17.3477C16.8867 2.79346 16.5131 2.41977 16.5131 1.95884V1.85471H15.9181V1.95884C15.9181 2.41977 15.5444 2.79346 15.0835 2.79346H14.9794V3.3884H15.0835C15.5444 3.3884 15.9181 3.76209 15.9181 4.22302V4.32715H16.5131V4.22302C16.5131 3.76209 16.8867 3.3884 17.3477 3.3884H17.4518V2.79346Z" fill="white"/>
<path d="M4.65597 16.5523H4.55191C4.09097 16.5523 3.71728 16.1786 3.71728 15.7177V15.6136H3.12234V15.7177C3.12234 16.1786 2.74859 16.5523 2.28766 16.5523H2.18359V17.1473H2.28766C2.74859 17.1473 3.12234 17.5209 3.12234 17.9819V18.0859H3.71728V17.9819C3.71728 17.5209 4.09097 17.1473 4.55191 17.1473H4.65597V16.5523Z" fill="white"/>
<path d="M30.2476 16.5523H30.1435C29.6826 16.5523 29.3088 16.1786 29.3088 15.7177V15.6136H28.7139V15.7177C28.7139 16.1786 28.3402 16.5523 27.8793 16.5523H27.7751V17.1473H27.8793C28.3402 17.1473 28.7139 17.5209 28.7139 17.9819V18.0859H29.3088V17.9819C29.3088 17.5209 29.6826 17.1473 30.1435 17.1473H30.2476V16.5523Z" fill="white"/>
<path d="M16.567 14.9101C16.4486 14.9101 16.3328 14.9209 16.2208 14.9427V13.7139C16.3347 13.7005 16.45 13.6941 16.567 13.6941C17.9871 13.6941 19.143 14.8499 19.143 16.27C19.143 16.606 18.8709 16.8779 18.5349 16.8779C18.1996 16.8779 17.927 16.606 17.927 16.27C17.927 15.5199 17.3171 14.9101 16.567 14.9101Z" fill="#005CA8"/>
<path d="M21.6343 15.994C21.6343 18.449 19.6369 20.4463 17.1821 20.4463C16.8499 20.4463 16.5273 20.4022 16.2208 20.319V19.0352C16.5165 19.1606 16.8409 19.2304 17.1821 19.2304C18.9663 19.2304 20.4184 17.7783 20.4184 15.994C20.4184 13.6793 18.5356 11.7965 16.2208 11.7965V10.5806C19.2056 10.5806 21.6343 13.0092 21.6343 15.994Z" fill="#005CA8"/>
</g>
</g>
<defs>
<clipPath id="clip0_512_1356">
<rect width="32" height="32" fill="white" transform="translate(0.213928 0.848633)"/>
</clipPath>
</defs>
</svg>
