<svg width="32" height="33" viewBox="0 0 32 33" fill="none" xmlns="http://www.w3.org/2000/svg">
    <g clip-path="url(#clip0_512_1651)">
        <path d="M15.9994 32.3387C24.6658 32.3387 31.6912 25.3132 31.6912 16.6469C31.6912 7.98054 24.6658 0.955078 15.9994 0.955078C7.33308 0.955078 0.307617 7.98054 0.307617 16.6469C0.307617 25.3132 7.33308 32.3387 15.9994 32.3387Z" fill="#3E2BA0"/>
        <path d="M15.9995 30.8384C23.8371 30.8384 30.1907 24.4848 30.1907 16.6472C30.1907 8.80967 23.8371 2.45605 15.9995 2.45605C8.16196 2.45605 1.80835 8.80967 1.80835 16.6472C1.80835 24.4848 8.16196 30.8384 15.9995 30.8384Z" fill="#FCEA0D"/>
        <path d="M16.0008 3.10449C14.819 3.10449 13.8611 4.06249 13.8611 5.24424C13.8611 6.42599 14.819 7.38399 16.0008 7.38399C17.1826 7.38399 18.1406 6.42599 18.1406 5.24424C18.1406 4.06249 17.1826 3.10449 16.0008 3.10449ZM16.0008 6.50337C15.3054 6.50337 14.7417 5.93962 14.7417 5.24424C14.7417 4.54887 15.3055 3.98512 16.0008 3.98512C16.6962 3.98512 17.26 4.54887 17.26 5.24424C17.26 5.93962 16.6962 6.50337 16.0008 6.50337Z" fill="#3E2BA0"/>
        <path d="M15.9997 8.72505C16.6794 8.72505 17.2304 8.17405 17.2304 7.49436C17.2304 6.81467 16.6794 6.26367 15.9997 6.26367C15.32 6.26367 14.769 6.81467 14.769 7.49436C14.769 8.17405 15.32 8.72505 15.9997 8.72505Z" fill="#14DBBA"/>
        <path d="M15.9997 30.2328C22.2788 30.2328 27.369 25.1426 27.369 18.8635C27.369 12.5844 22.2788 7.49414 15.9997 7.49414C9.72059 7.49414 4.63037 12.5844 4.63037 18.8635C4.63037 25.1426 9.72059 30.2328 15.9997 30.2328Z" fill="#3E2BA0"/>
        <path d="M5.82666 13.7812C7.69272 10.0536 11.5473 7.4942 15.9995 7.49414C20.4583 7.49414 24.3175 10.0607 26.1805 13.7971C26.1805 13.7971 22.8599 8.41395 16.0037 8.41395C9.14728 8.41395 5.82666 13.7812 5.82666 13.7812Z" fill="#675BD8"/>
        <path d="M26.1805 23.9456C24.3145 27.6732 20.46 30.2326 16.0077 30.2326C11.549 30.2326 7.68966 27.6661 5.82666 23.9297C5.82666 23.9297 9.14728 29.3128 16.0036 29.3128C22.8599 29.3128 26.1805 23.9456 26.1805 23.9456Z" fill="#23197F"/>
        <path d="M15.9998 27.6377C20.8458 27.6377 24.7742 23.7093 24.7742 18.8633C24.7742 14.0173 20.8458 10.0889 15.9998 10.0889C11.1538 10.0889 7.22534 14.0173 7.22534 18.8633C7.22534 23.7093 11.1538 27.6377 15.9998 27.6377Z" fill="#14DBBA"/>
        <path d="M15.9997 12.9985C16.4551 12.9985 16.8242 12.6294 16.8242 12.174C16.8242 11.7187 16.4551 11.3496 15.9997 11.3496C15.5444 11.3496 15.1753 11.7187 15.1753 12.174C15.1753 12.6294 15.5444 12.9985 15.9997 12.9985Z" fill="#FCEA0D"/>
        <path d="M15.9997 26.3764C16.4551 26.3764 16.8242 26.0073 16.8242 25.552C16.8242 25.0967 16.4551 24.7275 15.9997 24.7275C15.5444 24.7275 15.1753 25.0967 15.1753 25.552C15.1753 26.0073 15.5444 26.3764 15.9997 26.3764Z" fill="#FCEA0D"/>
        <path d="M22.6889 19.6879C23.1443 19.6879 23.5134 19.3188 23.5134 18.8635C23.5134 18.4082 23.1443 18.0391 22.6889 18.0391C22.2336 18.0391 21.8645 18.4082 21.8645 18.8635C21.8645 19.3188 22.2336 19.6879 22.6889 19.6879Z" fill="#FCEA0D"/>
        <path d="M9.31077 19.6879C9.76609 19.6879 10.1352 19.3188 10.1352 18.8635C10.1352 18.4082 9.76609 18.0391 9.31077 18.0391C8.85544 18.0391 8.48633 18.4082 8.48633 18.8635C8.48633 19.3188 8.85544 19.6879 9.31077 19.6879Z" fill="#FCEA0D"/>
        <path d="M13.5225 18.5889L11.4646 23.4066L16.2824 21.3488L13.5225 18.5889Z" fill="#FCEA0D"/>
        <path d="M18.4929 19.1381L20.5507 14.3203L15.7329 16.3782L18.4929 19.1381Z" fill="#FCEA0D"/>
        <path d="M16.0019 21.3647C17.3803 21.3647 18.4977 20.2473 18.4977 18.8689C18.4977 17.4905 17.3803 16.373 16.0019 16.373C14.6235 16.373 13.5061 17.4905 13.5061 18.8689C13.5061 20.2473 14.6235 21.3647 16.0019 21.3647Z" fill="#3E2BA0"/>
        <path d="M16.0021 19.7531C16.4905 19.7531 16.8864 19.3572 16.8864 18.8688C16.8864 18.3803 16.4905 17.9844 16.0021 17.9844C15.5136 17.9844 15.1177 18.3803 15.1177 18.8688C15.1177 19.3572 15.5136 19.7531 16.0021 19.7531Z" fill="#14DBBA"/>
    </g>
    <defs>
        <clipPath id="clip0_512_1651">
            <rect width="32" height="32" fill="white" transform="translate(-0.000488281 0.647461)"/>
        </clipPath>
    </defs>
</svg>
