<svg width="32" height="33" viewBox="0 0 32 33" fill="none" xmlns="http://www.w3.org/2000/svg">
    <g clip-path="url(#clip0_512_1629)">
        <path d="M15.9996 32.9081C24.8361 32.9081 31.9995 25.628 31.9995 16.6474C31.9995 7.66688 24.8361 0.386719 15.9996 0.386719C7.16313 0.386719 -0.000244141 7.66688 -0.000244141 16.6474C-0.000244141 25.628 7.16313 32.9081 15.9996 32.9081Z" fill="#F6B336"/>
        <path d="M21.1123 13.3019C21.1123 21.0949 14.8963 27.4123 7.22918 27.4123C5.97417 27.4123 4.75784 27.2434 3.60141 26.9253C1.35035 24.124 -0.000244141 20.5461 -0.000244141 16.6471C-0.000244141 8.59777 5.75494 1.91427 13.3119 0.615234C17.9309 2.90694 21.1123 7.72688 21.1123 13.3019Z" fill="#FFDD37"/>
        <path d="M17.3133 28.4424C16.5758 29.1501 15.4231 29.1501 14.6856 28.4424L5.48865 19.6173C2.67503 16.9172 2.54769 12.4102 5.20432 9.55074C7.86118 6.69144 12.2956 6.56161 15.1095 9.26175L15.9995 10.1159L16.89 9.26175C19.7036 6.56161 24.1385 6.69098 26.7949 9.55097C29.4518 12.4105 29.3242 16.9174 26.5104 19.6174L17.3133 28.4424Z" fill="#E34649"/>
        <path d="M26.7949 9.55145C24.944 7.55867 22.23 6.89338 19.8022 7.58546C20.6172 9.36021 21.079 11.3802 21.079 13.5238C21.079 19.6884 17.2655 24.8342 12.1887 26.0469L14.6857 28.443C15.4233 29.1506 16.5759 29.1506 17.3135 28.443L26.5105 19.6178C29.3242 16.9179 29.4518 12.411 26.7949 9.55145Z" fill="#D72F30"/>
        <path d="M12.4508 4.60853L13.7242 5.31633L12.4508 6.02407L11.7544 7.31822L11.058 6.02407L9.78467 5.31633L11.058 4.60853L11.7544 3.31445L12.4508 4.60853Z" fill="white"/>
        <path d="M22.0988 27.0441L22.762 27.4127L22.0988 27.7813L21.7361 28.4553L21.3734 27.7813L20.7102 27.4127L21.3734 27.0441L21.7361 26.3701L22.0988 27.0441Z" fill="white"/>
        <path d="M7.12811 12.2704L7.73056 12.6053L7.12811 12.9402L6.79863 13.5525L6.46914 12.9402L5.8667 12.6053L6.46914 12.2704L6.79863 11.6582L7.12811 12.2704Z" fill="white"/>
        <path d="M31.9681 17.6522H20.2519L18.8154 13.9275C18.693 13.6102 18.3931 13.4004 18.0577 13.3975C18.0554 13.3975 18.0531 13.3975 18.0508 13.3975C17.7182 13.3975 17.4181 13.6015 17.2914 13.9144L14.4837 20.8473L13.0199 18.2495C12.8736 17.9898 12.6017 17.8296 12.3073 17.8296H8.60247C8.14896 17.8296 7.78125 18.2033 7.78125 18.6642C7.78125 19.1252 8.14889 19.4988 8.60247 19.4988H11.8312L13.892 23.1563C14.0389 23.417 14.3115 23.5761 14.6044 23.5761C14.6222 23.5761 14.64 23.5755 14.6578 23.5743C14.9707 23.5537 15.2447 23.3538 15.364 23.0591L18.0321 16.4708L18.9271 18.7913C19.0503 19.111 19.3538 19.3213 19.6916 19.3213H31.7827C31.872 18.7737 31.9342 18.2169 31.9681 17.6522Z" fill="white"/>
    </g>
    <defs>
        <clipPath id="clip0_512_1629">
            <rect width="32" height="32" fill="white" transform="translate(-0.000488281 0.647461)"/>
        </clipPath>
    </defs>
</svg>
