<svg width="273" height="273" viewBox="0 0 273 273" fill="none" xmlns="http://www.w3.org/2000/svg">
    <g opacity="0.2">
        <path d="M166.282 106.516C192.798 133.032 213.442 160.371 225.39 183.126C231.365 194.506 235.151 204.713 236.422 213.081C237.695 221.461 236.433 227.889 232.465 231.856C228.498 235.824 222.07 237.086 213.69 235.813C205.322 234.542 195.115 230.756 183.735 224.781C160.98 212.833 133.641 192.189 107.125 165.673C80.6091 139.157 59.9649 111.818 48.0173 89.0634C42.0421 77.6834 38.2559 67.4763 36.9849 59.1082C35.712 50.7278 36.9744 44.3001 40.9418 40.3327C44.9091 36.3654 51.3368 35.1029 59.7172 36.3759C68.0853 37.6469 78.2925 41.4331 89.6724 47.4083C112.427 59.3559 139.766 80.0001 166.282 106.516Z" stroke="white"/>
        <path d="M178.534 136.095C178.534 173.594 173.8 207.523 166.158 232.061C162.337 244.333 157.796 254.228 152.778 261.044C147.752 267.87 142.315 271.522 136.704 271.522C131.093 271.522 125.655 267.87 120.63 261.044C115.611 254.228 111.071 244.333 107.249 232.061C99.6078 207.523 94.8737 173.594 94.8737 136.095C94.8737 98.5953 99.6078 64.6658 107.249 40.1279C111.071 27.856 115.611 17.9612 120.63 11.1453C125.655 4.31936 131.093 0.666992 136.704 0.666992C142.315 0.666992 147.752 4.31936 152.778 11.1453C157.796 17.9612 162.337 27.856 166.158 40.1279C173.8 64.6658 178.534 98.5953 178.534 136.095Z" stroke="white"/>
        <path d="M107.125 106.516C80.6092 133.032 59.965 160.371 48.0175 183.126C42.0422 194.506 38.2561 204.713 36.985 213.081C35.7121 221.461 36.9745 227.889 40.9419 231.856C44.9092 235.824 51.3369 237.086 59.7173 235.813C68.0854 234.542 78.2926 230.756 89.6725 224.781C112.427 212.833 139.766 192.189 166.282 165.673C192.798 139.157 213.442 111.818 225.39 89.0634C231.365 77.6834 235.151 67.4763 236.422 59.1082C237.695 50.7278 236.433 44.3001 232.465 40.3327C228.498 36.3654 222.07 35.1029 213.69 36.3759C205.322 37.6469 195.115 41.4331 183.735 47.4083C160.981 59.3559 133.641 80.0001 107.125 106.516Z" stroke="white"/>
        <path d="M136.703 177.925C174.203 177.925 208.132 173.191 232.67 165.549C244.942 161.728 254.837 157.187 261.653 152.169C268.479 147.143 272.131 141.706 272.131 136.095C272.131 130.484 268.479 125.046 261.653 120.021C254.837 115.002 244.942 110.462 232.67 106.64C208.132 98.9987 174.203 94.2646 136.703 94.2646C99.204 94.2646 65.2746 98.9987 40.7366 106.64C28.4647 110.462 18.5699 115.002 11.754 120.021C4.92807 125.046 1.2757 130.484 1.2757 136.095C1.2757 141.706 4.92807 147.143 11.754 152.169C18.5699 157.187 28.4647 161.728 40.7366 165.549C65.2746 173.191 99.204 177.925 136.703 177.925Z" stroke="white"/>
    </g>
</svg>
