<svg width="94" height="94" viewBox="0 0 94 94" fill="none" xmlns="http://www.w3.org/2000/svg">
    <g filter="url(#filter0_d_0_4)">
        <path d="M82 43C82 23.67 66.33 8 47 8C27.67 8 12 23.67 12 43C12 62.33 27.67 78 47 78C66.33 78 82 62.33 82 43Z" fill="#E6F0FF"/>
        <path d="M80 43C80 24.7746 65.2254 10 47 10C28.7746 10 14 24.7746 14 43C14 61.2254 28.7746 76 47 76C65.2254 76 80 61.2254 80 43Z" stroke="white" stroke-width="4"/>
        <mask id="mask0_0_4" style="mask-type:luminance" maskUnits="userSpaceOnUse" x="30" y="26" width="34" height="34">
            <path d="M64 26H30V60H64V26Z" fill="white"/>
        </mask>
        <g mask="url(#mask0_0_4)">
            <path d="M64 43C64 52.3888 56.3889 60 47 60C37.6112 60 30 52.3888 30 43C30 33.6112 37.6112 26 47 26C56.3889 26 64 33.6112 64 43Z" fill="#54469D"/>
            <path d="M62.048 42.9998C62.048 50.1889 56.22 56.0168 49.031 56.0168C41.8419 56.0168 36.0139 50.1889 36.0139 42.9998C36.0139 35.8107 41.8418 29.9828 49.031 29.9828C56.2201 29.9828 62.048 35.8107 62.048 42.9998Z" fill="#6E61B7"/>
            <path d="M54.6647 39.1716V50.9264C54.6647 55.0454 51.3256 58.3845 47.2066 58.3845H46.7934C42.6744 58.3845 39.3353 55.0454 39.3353 50.9264V35.5947C39.3353 34.7481 40.0216 34.0618 40.8682 34.0618C41.7148 34.0618 42.4011 34.7481 42.4011 35.5947V32.3245C42.4011 31.4779 43.0874 30.7915 43.9341 30.7915C44.7807 30.7915 45.467 31.4779 45.467 32.3245V30.2805C45.467 29.4339 46.1533 28.7476 46.9999 28.7476C47.8465 28.7476 48.5328 29.4339 48.5328 30.2805V32.3244C48.5328 31.4778 49.2191 30.7915 50.0657 30.7915C50.9124 30.7915 51.5987 31.4778 51.5987 32.3244V40.1935C51.5987 39.0647 52.5137 38.1496 53.6426 38.1496C54.2072 38.1496 54.6647 38.6072 54.6647 39.1716Z" fill="#2DD2E3"/>
            <path d="M47.6782 58.3699C47.5222 58.3796 47.3649 58.3845 47.2066 58.3845H46.7934C42.6744 58.3845 39.3353 55.0454 39.3353 50.9264V35.5947C39.3353 34.7481 40.0216 34.0618 40.8682 34.0618C41.1117 34.0618 41.342 34.1186 41.5464 34.2196C41.04 34.4699 40.6916 34.9916 40.6916 35.5948V50.9264C40.6916 54.887 43.7789 58.1265 47.6782 58.3699ZM50.0659 30.7915C49.2193 30.7915 48.533 31.4778 48.533 32.3244V42.6973C48.533 43.0642 48.8304 43.3616 49.1972 43.3616C49.564 43.3616 49.8615 43.0641 49.8615 42.6973V31.8135C49.8615 31.4257 50.0054 31.0716 50.2428 30.8016C50.1848 30.7949 50.1257 30.7915 50.0659 30.7915ZM43.0654 43.3616C43.4323 43.3616 43.7297 43.0642 43.7297 42.6974V31.8135C43.7297 31.4257 43.8736 31.0716 44.111 30.8016C44.053 30.7949 43.9939 30.7915 43.9341 30.7915C43.0874 30.7915 42.4011 31.4778 42.4011 32.3244V42.6973C42.4011 43.0642 42.6985 43.3616 43.0654 43.3616ZM46.1313 42.6958C46.4982 42.6958 46.7956 42.3984 46.7956 42.0315V29.7696C46.7956 29.3818 46.9395 29.0277 47.1769 28.7577C47.1188 28.751 47.0598 28.7476 47 28.7476C46.1534 28.7476 45.467 29.4339 45.467 30.2805V42.0315C45.467 42.3984 45.7644 42.6958 46.1313 42.6958ZM51.5988 40.1935V45.0197C51.5988 45.3866 51.8962 45.684 52.2631 45.684C52.6299 45.684 52.9273 45.3866 52.9273 45.0197V39.1715C52.9273 38.7932 53.0644 38.4471 53.2916 38.1797C52.3301 38.3462 51.5988 39.1845 51.5988 40.1935Z" fill="#00BFD8"/>
            <path d="M50.5108 50.5064C50.5108 50.8967 50.6432 51.2561 50.8655 51.5422C50.5299 51.6788 50.2355 51.9238 50.0404 52.2619C49.8453 52.6 49.7803 52.9774 49.8297 53.3363C49.4707 53.2867 49.0933 53.3518 48.7554 53.5471C48.4174 53.7422 48.1724 54.0365 48.0358 54.3721C47.7497 54.1498 47.3904 54.0174 47 54.0174C46.6096 54.0174 46.2502 54.1498 45.9642 54.3721C45.8276 54.0365 45.5825 53.7422 45.2445 53.5471C44.9063 53.3518 44.5289 53.2868 44.1702 53.3361C44.2197 52.9773 44.1547 52.5999 43.9595 52.2619C43.7644 51.9238 43.47 51.6788 43.1345 51.5422C43.3567 51.2562 43.4891 50.8968 43.4891 50.5065C43.4891 50.1162 43.3567 49.7569 43.1345 49.4708C43.47 49.3341 43.7644 49.0891 43.9595 48.7511C44.1547 48.413 44.2197 48.0355 44.1702 47.6766C44.2466 47.6872 44.3237 47.6926 44.4012 47.6926C44.6879 47.6926 44.9785 47.6196 45.2445 47.4659C45.5825 47.2707 45.8275 46.9764 45.9642 46.6409C46.2502 46.8631 46.6096 46.9955 47 46.9955C47.3903 46.9955 47.7497 46.8631 48.0358 46.6409C48.1724 46.9764 48.4174 47.2708 48.7554 47.4659C49.0216 47.6196 49.312 47.6926 49.5987 47.6926C49.6762 47.6926 49.7534 47.6871 49.8297 47.6766C49.7803 48.0355 49.8453 48.4129 50.0404 48.7509C50.2355 49.089 50.5299 49.334 50.8655 49.4706C50.6431 49.7567 50.5108 50.1161 50.5108 50.5064Z" fill="#00BFD8"/>
            <path d="M49.7062 50.5069C49.7062 50.8078 49.8083 51.0848 49.9796 51.3053C49.721 51.4107 49.494 51.5995 49.3436 51.8602C49.1932 52.1208 49.143 52.4117 49.1812 52.6884C48.9045 52.6502 48.6135 52.7003 48.353 52.8509C48.0925 53.0013 47.9036 53.2282 47.7983 53.4869C47.5778 53.3156 47.3008 53.2135 46.9998 53.2135C46.6989 53.2135 46.4219 53.3156 46.2014 53.4869C46.096 53.2283 45.9072 53.0014 45.6466 52.8509C45.3859 52.7004 45.095 52.6503 44.8184 52.6883C44.8566 52.4117 44.8064 52.1208 44.656 51.8602C44.5056 51.5997 44.2787 51.4108 44.02 51.3055C44.1914 51.0849 44.2934 50.808 44.2934 50.5071C44.2934 50.2062 44.1914 49.9292 44.02 49.7087C44.2787 49.6034 44.5057 49.4144 44.656 49.1539C44.8065 48.8932 44.8566 48.6023 44.8184 48.3256C44.8773 48.3337 44.9368 48.3379 44.9965 48.3379C45.2175 48.3379 45.4415 48.2816 45.6466 48.1631C45.9072 48.0127 46.096 47.7858 46.2014 47.5271C46.4219 47.6984 46.6989 47.8005 46.9998 47.8005C47.3007 47.8005 47.5778 47.6984 47.7983 47.5271C47.9036 47.7858 48.0925 48.0127 48.353 48.1631C48.5582 48.2816 48.7821 48.3379 49.0031 48.3379C49.0629 48.3379 49.1223 48.3337 49.1812 48.3256C49.1431 48.6022 49.1932 48.8931 49.3436 49.1537C49.494 49.4143 49.721 49.6032 49.9797 49.7085C49.8083 49.929 49.7062 50.206 49.7062 50.5069Z" fill="#0396FD"/>
            <path d="M51.657 50.0086H48.8587L51.282 48.6095C51.5202 48.472 51.6018 48.1674 51.4643 47.9292C51.3269 47.691 51.0221 47.6094 50.784 47.7469L48.3608 49.1459L49.7598 46.7227C49.8973 46.4845 49.8157 46.1799 49.5775 46.0424C49.3392 45.9048 49.0346 45.9864 48.8972 46.2247L47.4981 48.6478V45.8497C47.4981 45.5747 47.2752 45.3517 47.0001 45.3517C46.725 45.3517 46.502 45.5747 46.502 45.8497V48.6478L45.103 46.2246C44.9655 45.9864 44.6608 45.9048 44.4227 46.0423C44.1845 46.1798 44.1029 46.4844 44.2404 46.7226L45.6395 49.1459L43.2163 47.7468C42.9779 47.6092 42.6734 47.6909 42.5359 47.9291C42.3984 48.1673 42.48 48.4719 42.7182 48.6094L45.1414 50.0085H42.3433C42.0682 50.0085 41.8452 50.2315 41.8452 50.5065C41.8452 50.7816 42.0682 51.0046 42.3433 51.0046H45.1414L42.7182 52.4036C42.48 52.5412 42.3984 52.8458 42.5359 53.084C42.6282 53.2437 42.7956 53.3331 42.9677 53.3331C43.0522 53.3331 43.1379 53.3115 43.2163 53.2662L45.6395 51.8672L44.2404 54.2904C44.1029 54.5286 44.1845 54.8332 44.4227 54.9708C44.5012 55.0161 44.5868 55.0376 44.6712 55.0376C44.8433 55.0376 45.0108 54.9483 45.103 54.7885L46.502 52.3652V55.1633C46.502 55.4384 46.725 55.6614 47.0001 55.6614C47.2752 55.6614 47.4981 55.4384 47.4981 55.1633V52.3652L48.8972 54.7885C48.9895 54.9483 49.1568 55.0376 49.329 55.0376C49.4134 55.0376 49.4992 55.0161 49.5775 54.9708C49.8157 54.8332 49.8973 54.5286 49.7598 54.2904L48.3607 51.8672L50.7839 53.2662C50.8624 53.3115 50.948 53.3331 51.0325 53.3331C51.2046 53.3331 51.372 53.2437 51.4642 53.084C51.6018 52.8458 51.5202 52.5412 51.282 52.4036L48.8587 51.0046H51.6569C51.932 51.0046 52.1549 50.7816 52.1549 50.5065C52.1549 50.2315 51.9321 50.0086 51.657 50.0086ZM48.1395 50.8119C48.0405 50.8521 47.9538 50.9244 47.8963 51.024C47.8388 51.1237 47.8196 51.2349 47.8342 51.3407C47.7284 51.3261 47.6171 51.3453 47.5175 51.4028C47.4179 51.4603 47.3457 51.5471 47.3054 51.646C47.2211 51.5805 47.1152 51.5415 47.0001 51.5415C46.885 51.5415 46.7791 51.5805 46.6948 51.646C46.6545 51.5471 46.5823 51.4603 46.4827 51.4028C46.383 51.3452 46.2717 51.3261 46.166 51.3407C46.1805 51.2349 46.1614 51.1236 46.1039 51.024C46.0464 50.9244 45.9596 50.8522 45.8607 50.8119C45.9262 50.7276 45.9652 50.6217 45.9652 50.5066C45.9652 50.3916 45.9262 50.2856 45.8607 50.2013C45.9596 50.161 46.0464 50.0888 46.1039 49.9892C46.1614 49.8895 46.1806 49.7783 46.166 49.6725C46.1885 49.6756 46.2112 49.6772 46.2341 49.6772C46.3186 49.6772 46.4043 49.6557 46.4827 49.6104C46.5823 49.5529 46.6545 49.4661 46.6948 49.3672C46.7791 49.4327 46.885 49.4717 47.0001 49.4717C47.1152 49.4717 47.2211 49.4327 47.3054 49.3672C47.3457 49.4661 47.4179 49.5529 47.5175 49.6104C47.596 49.6557 47.6816 49.6772 47.7661 49.6772C47.7889 49.6772 47.8117 49.6756 47.8342 49.6725C47.8196 49.7783 47.8388 49.8895 47.8963 49.9892C47.9538 50.0888 48.0406 50.161 48.1395 50.2013C48.0739 50.2857 48.035 50.3916 48.035 50.5067C48.035 50.6216 48.074 50.7275 48.1395 50.8119Z" fill="#AFEAF2"/>
            <path d="M46.9998 45.0581C43.9954 45.0581 41.5511 47.5025 41.5511 50.5069C41.5511 53.5113 43.9954 55.9556 46.9998 55.9556C50.0043 55.9556 52.4486 53.5113 52.4486 50.5069C52.4486 47.5025 50.0043 45.0581 46.9998 45.0581ZM46.9998 54.9596C44.5446 54.9596 42.5472 52.9621 42.5472 50.5069C42.5472 48.0518 44.5446 46.0543 46.9998 46.0543C49.4551 46.0543 51.4525 48.0518 51.4525 50.5069C51.4525 52.9621 49.4551 54.9596 46.9998 54.9596Z" fill="#D5F3F7"/>
            <path d="M57.9814 43.4198C57.7869 43.2253 57.7869 42.91 57.9814 42.7155L59.39 41.3068C59.5846 41.1123 59.8999 41.1123 60.0944 41.3068C60.2889 41.5014 60.2889 41.8167 60.0944 42.0112L58.6857 43.4198C58.5885 43.5171 58.461 43.5657 58.3335 43.5657C58.2061 43.5657 58.0787 43.5171 57.9814 43.4198ZM58.6857 48.5309C58.4912 48.3364 58.1759 48.3363 57.9814 48.5309C57.7869 48.7254 57.7869 49.0407 57.9814 49.2352L59.39 50.6439C59.4873 50.7412 59.6148 50.7898 59.7423 50.7898C59.8697 50.7898 59.9972 50.7412 60.0945 50.6439C60.289 50.4494 60.289 50.134 60.0945 49.9396L58.6857 48.5309ZM60.4918 45.4773H58.4996C58.2245 45.4773 58.0016 45.7003 58.0016 45.9753C58.0016 46.2504 58.2245 46.4734 58.4996 46.4734H60.4918C60.7669 46.4734 60.9898 46.2504 60.9898 45.9753C60.9898 45.7003 60.7668 45.4773 60.4918 45.4773ZM35.9984 45.9753C35.9984 45.7003 35.7754 45.4773 35.5003 45.4773H33.5081C33.233 45.4773 33.0101 45.7003 33.0101 45.9753C33.0101 46.2504 33.233 46.4734 33.5081 46.4734H35.5003C35.7754 46.4734 35.9984 46.2505 35.9984 45.9753ZM35.6663 48.385C35.5389 48.385 35.4114 48.4336 35.3141 48.5309L33.9054 49.9396C33.7109 50.1341 33.7109 50.4495 33.9054 50.6439C34.1 50.8384 34.4153 50.8384 34.6098 50.6439L36.0185 49.2352C36.213 49.0407 36.213 48.7254 36.0185 48.5309C35.9213 48.4336 35.7938 48.385 35.6663 48.385ZM34.6099 41.3068C34.5126 41.2095 34.3852 41.1609 34.2577 41.1609C34.1302 41.1609 34.0027 41.2095 33.9054 41.3068C33.7109 41.5013 33.7109 41.8167 33.9054 42.0111L35.3141 43.4198C35.5086 43.6143 35.8239 43.6143 36.0185 43.4198C36.213 43.2253 36.213 42.91 36.0185 42.7155L34.6099 41.3068ZM47 48.4755C45.8801 48.4755 44.969 49.3866 44.969 50.5064C44.969 51.6263 45.8801 52.5374 47 52.5374C48.1198 52.5374 49.0309 51.6263 49.0309 50.5064C49.0309 49.3866 48.1198 48.4755 47 48.4755ZM47 51.5414C46.4293 51.5414 45.9651 51.0771 45.9651 50.5065C45.9651 49.9359 46.4293 49.4716 47 49.4716C47.5706 49.4716 48.0348 49.9359 48.0348 50.5065C48.0348 51.0771 47.5706 51.5414 47 51.5414Z" fill="white"/>
        </g>
    </g>
    <defs>
        <filter id="filter0_d_0_4" x="0" y="0" width="94" height="94" filterUnits="userSpaceOnUse" color-interpolation-filters="sRGB">
            <feFlood flood-opacity="0" result="BackgroundImageFix"/>
            <feColorMatrix in="SourceAlpha" type="matrix" values="0 0 0 0 0 0 0 0 0 0 0 0 0 0 0 0 0 0 127 0" result="hardAlpha"/>
            <feOffset dy="4"/>
            <feGaussianBlur stdDeviation="6"/>
            <feComposite in2="hardAlpha" operator="out"/>
            <feColorMatrix type="matrix" values="0 0 0 0 0 0 0 0 0 0 0 0 0 0 0 0 0 0 0.12 0"/>
            <feBlend mode="normal" in2="BackgroundImageFix" result="effect1_dropShadow_0_4"/>
            <feBlend mode="normal" in="SourceGraphic" in2="effect1_dropShadow_0_4" result="shape"/>
        </filter>
    </defs>
</svg>
