<svg width="32" height="33" viewBox="0 0 32 33" fill="none" xmlns="http://www.w3.org/2000/svg">
    <g clip-path="url(#clip0_512_1568)">
        <path d="M16 32.114C24.542 32.114 31.4667 25.1893 31.4667 16.6473C31.4667 8.10533 24.542 1.18066 16 1.18066C7.45799 1.18066 0.533325 8.10533 0.533325 16.6473C0.533325 25.1893 7.45799 32.114 16 32.114Z" fill="#4933BD"/>
        <path d="M16 0.647461C7.16344 0.647461 0 7.81091 0 16.6475C0 25.484 7.16344 32.6475 16 32.6475C24.8366 32.6475 32 25.484 32 16.6475C31.99 7.81505 24.8324 0.657454 16 0.647461ZM1.08 17.1808H4.8272C4.93433 19.5123 5.77166 21.7512 7.2208 23.5808H2.77973C1.73792 21.6029 1.15685 19.415 1.08 17.1808ZM23.9936 16.1141C23.97 13.9599 23.7161 11.8144 23.2363 9.71413H23.3696C25.0125 11.455 25.9825 13.7236 26.1061 16.1141H23.9936ZM15.4667 17.1808V23.5808H9.8896C9.37652 21.4852 9.1026 19.3381 9.07307 17.1808H15.4667ZM9.07307 16.1141C9.1026 13.9568 9.37652 11.8098 9.8896 9.71413H15.4667V16.1141H9.07307ZM16.5333 17.1808H22.9269C22.8974 19.3381 22.6235 21.4852 22.1104 23.5808H16.5333V17.1808ZM16.5333 16.1141V9.71413H22.1104C22.6235 11.8098 22.8974 13.9568 22.9269 16.1141H16.5333ZM21.8133 8.64746H16.5333V6.54133C18.3827 6.63343 20.1708 7.23395 21.7008 8.27679C21.7403 8.3984 21.7776 8.52319 21.8133 8.64746ZM16.5333 5.47466V1.76746C18.3275 2.07839 19.9552 3.93226 21.12 6.70026C19.6973 5.9659 18.1327 5.54782 16.5333 5.47466ZM15.4667 1.76746V5.47466C13.8675 5.54699 12.3029 5.96416 10.88 6.69759C12.0448 3.92959 13.6725 2.07573 15.4667 1.76746ZM15.4667 6.54399V8.64746H10.1867C10.2245 8.52319 10.2619 8.39839 10.3013 8.27413C11.831 7.2326 13.6183 6.63303 15.4667 6.54133V6.54399ZM8.76373 9.71413C8.28391 11.8144 8.03002 13.9599 8.0064 16.1141H5.89387C6.01746 13.7236 6.98747 11.455 8.6304 9.71413H8.76373ZM4.8272 16.1141H1.08C1.15685 13.8799 1.73792 11.692 2.77973 9.71413H7.2208C5.77166 11.5437 4.93433 13.7826 4.8272 16.1141ZM5.89387 17.1808H8.0064C8.03002 19.335 8.28391 21.4806 8.76373 23.5808H8.6304C6.98747 21.8399 6.01746 19.5713 5.89387 17.1808ZM10.1867 24.6475H15.4667V26.7536C13.6176 26.6623 11.8295 26.0627 10.2992 25.0208C10.2597 24.8965 10.2224 24.7717 10.1867 24.6475ZM15.4667 27.8203V31.5301C13.6725 31.2192 12.0448 29.3653 10.88 26.5973C12.3029 27.3308 13.8675 27.7479 15.4667 27.8203ZM16.5333 31.5301V27.8203C18.1325 27.7479 19.6971 27.3308 21.12 26.5973C19.9552 29.3653 18.3275 31.2192 16.5333 31.5301ZM16.5333 26.7536V24.6475H21.8133C21.7755 24.7717 21.7381 24.8965 21.6987 25.0208C20.169 26.0623 18.3817 26.6619 16.5333 26.7536ZM23.2363 23.5808C23.7161 21.4806 23.97 19.335 23.9936 17.1808H26.1061C25.9825 19.5713 25.0125 21.8399 23.3696 23.5808H23.2363ZM27.1728 17.1808H30.92C30.8432 19.415 30.2621 21.6029 29.2203 23.5808H24.7792C26.2283 21.7512 27.0657 19.5123 27.1728 17.1808ZM27.1728 16.1141C27.0657 13.7826 26.2283 11.5437 24.7792 9.71413H29.2203C30.2621 11.692 30.8432 13.8799 30.92 16.1141H27.1728ZM28.6 8.64746H23.8235C23.4577 8.29322 23.0683 7.96411 22.6581 7.66239C21.8533 5.25226 20.7259 3.32746 19.3915 2.10719C23.1969 3.00191 26.5017 5.3491 28.6 8.64746ZM12.6085 2.10719C11.2752 3.32746 10.1467 5.25386 9.34187 7.66239C8.93167 7.96411 8.54233 8.29322 8.17653 8.64746H3.4C5.49829 5.3491 8.80308 3.00191 12.6085 2.10719ZM3.4 24.6475H8.17653C8.54233 25.0017 8.93167 25.3308 9.34187 25.6325C10.1467 28.0427 11.2741 29.9675 12.6085 31.1877C8.80308 30.293 5.49829 27.9458 3.4 24.6475ZM19.3915 31.1877C20.7248 29.9675 21.8533 28.0411 22.6581 25.6325C23.0683 25.3308 23.4577 25.0017 23.8235 24.6475H28.6C26.5017 27.9458 23.1969 30.293 19.3915 31.1877Z" fill="#D9C9F7"/>
        <path d="M16 27.8473C22.1856 27.8473 27.2001 22.8329 27.2001 16.6473C27.2001 10.4617 22.1856 5.44727 16 5.44727C9.81446 5.44727 4.80005 10.4617 4.80005 16.6473C4.80005 22.8329 9.81446 27.8473 16 27.8473Z" fill="white"/>
        <path fill-rule="evenodd" clip-rule="evenodd" d="M22.48 17.0798L22.1013 17.4638L18.8213 14.1785C18.2175 14.4021 17.5582 14.4283 16.9386 14.2531C16.5617 14.1448 16.1556 14.2488 15.8773 14.5251L15.2266 15.1811C14.8047 15.6007 14.1232 15.6007 13.7013 15.1811C13.6506 15.128 13.6043 15.0709 13.5626 15.0105C13.2812 14.5833 13.3392 14.0171 13.7013 13.6558L16 11.3625L16.3786 10.9785C18.0635 9.29363 20.7951 9.29363 22.48 10.9785C24.1648 12.6633 24.1648 15.395 22.48 17.0798Z" fill="#F9C795"/>
        <path d="M16 23.5698L15.9946 23.5645" stroke="black" stroke-width="1.06667" stroke-linejoin="round"/>
        <path fill-rule="evenodd" clip-rule="evenodd" d="M22.8641 19.7517C22.8587 19.7571 22.8587 19.7571 22.8534 19.7571V19.7624C22.6521 19.9581 22.3821 20.0672 22.1014 20.0664C21.8209 20.0657 21.5515 19.9568 21.3494 19.7624C21.7624 20.1845 21.7577 20.8608 21.3387 21.2771L21.3281 21.2877C20.9065 21.695 20.2374 21.6926 19.8187 21.2824L19.8241 21.2931C20.229 21.7164 20.2243 22.3849 19.8134 22.8024L19.8027 22.8131C19.6036 23.0121 19.3322 23.1219 19.0507 23.1171C18.7637 23.1234 18.4871 23.0092 18.2881 22.8024C18.2985 22.8117 18.3075 22.8225 18.3147 22.8344C18.7045 23.26 18.6928 23.9163 18.2881 24.3277C17.8641 24.7473 17.1814 24.7473 16.7574 24.3277L16.0001 23.5704L16.9334 22.6317C17.1346 22.4266 17.2475 22.151 17.2481 21.8637C17.2498 21.8278 17.2462 21.7919 17.2374 21.7571C17.2268 21.5974 17.1754 21.4431 17.0881 21.3091C17.0479 21.2336 16.9956 21.1651 16.9334 21.1064C16.7311 20.9041 16.4568 20.7904 16.1707 20.7904C15.8847 20.7904 15.6103 20.9041 15.4081 21.1064L15.4134 21.0957C15.6137 20.8956 15.7262 20.6242 15.7262 20.3411C15.7262 20.058 15.6137 19.7865 15.4134 19.5864L15.3974 19.5704C15.1973 19.3701 14.9258 19.2575 14.6427 19.2575C14.3596 19.2575 14.0881 19.3701 13.8881 19.5704C14.0884 19.3703 14.2009 19.0988 14.2009 18.8157C14.2009 18.5326 14.0884 18.2611 13.8881 18.0611L13.8721 18.0451C13.673 17.8429 13.4011 17.7291 13.1174 17.7291C12.8337 17.7291 12.5618 17.8429 12.3627 18.0451C12.563 17.845 12.6756 17.5735 12.6756 17.2904C12.6756 17.0073 12.563 16.7358 12.3627 16.5357L12.3467 16.5144C11.9282 16.1019 11.256 16.1019 10.8374 16.5144L9.89339 17.4637L9.5094 17.0797C8.40796 15.9912 7.97407 14.396 8.37236 12.8996C8.77066 11.4031 9.9401 10.2347 11.4369 9.8377C12.9337 9.44072 14.5285 9.876 15.6161 10.9784L15.9947 11.3571L16.0001 11.3624L13.7014 13.6557C13.3393 14.017 13.2813 14.5832 13.5627 15.0104C13.6044 15.0709 13.6507 15.1279 13.7014 15.1811C14.1233 15.6006 14.8048 15.6006 15.2267 15.1811L15.8774 14.5251C16.1557 14.2488 16.5618 14.1447 16.9387 14.2531C17.5584 14.4282 18.2176 14.402 18.8214 14.1784L22.1014 17.4637L22.8641 18.2264C23.0664 18.4286 23.18 18.703 23.18 18.9891C23.18 19.2751 23.0664 19.5495 22.8641 19.7517Z" fill="#FDD7AD"/>
        <path fill-rule="evenodd" clip-rule="evenodd" d="M12.363 18.0441L11.0297 19.3774C10.8296 19.5777 10.5581 19.6903 10.275 19.6903C9.99189 19.6903 9.7204 19.5777 9.52033 19.3774L9.499 19.3614C9.2987 19.1614 9.18616 18.8899 9.18616 18.6068C9.18616 18.3237 9.2987 18.0522 9.499 17.8521L9.89366 17.4628L10.8377 16.5134C11.2562 16.101 11.9284 16.101 12.347 16.5134L12.363 16.5348C12.5633 16.7349 12.6758 17.0063 12.6758 17.2894C12.6758 17.5726 12.5633 17.844 12.363 18.0441Z" fill="#F9C795"/>
        <path fill-rule="evenodd" clip-rule="evenodd" d="M13.8883 19.5698L12.555 20.9032C12.3549 21.1035 12.0834 21.216 11.8003 21.216C11.5172 21.216 11.2457 21.1035 11.0456 20.9032L11.0296 20.8872C10.8293 20.6871 10.7168 20.4156 10.7168 20.1325C10.7168 19.8494 10.8293 19.5779 11.0296 19.3778L12.363 18.0445C12.5621 17.8423 12.8339 17.7285 13.1176 17.7285C13.4014 17.7285 13.6732 17.8423 13.8723 18.0445L13.8883 18.0605C14.0886 18.2606 14.2011 18.5321 14.2011 18.8152C14.2011 19.0983 14.0886 19.3698 13.8883 19.5698Z" fill="#F9C795"/>
        <path fill-rule="evenodd" clip-rule="evenodd" d="M15.4137 21.095L15.4084 21.1057L14.091 22.4177L14.0804 22.4283C13.8803 22.6286 13.6088 22.7412 13.3257 22.7412C13.0426 22.7412 12.7711 22.6286 12.571 22.4283L12.555 22.4123C12.3547 22.2123 12.2422 21.9408 12.2422 21.6577C12.2422 21.3746 12.3547 21.1031 12.555 20.903L13.8884 19.5697C14.0884 19.3694 14.3599 19.2568 14.643 19.2568C14.9261 19.2568 15.1976 19.3694 15.3977 19.5697L15.4137 19.5857C15.614 19.7857 15.7265 20.0572 15.7265 20.3403C15.7265 20.6234 15.614 20.8949 15.4137 21.095Z" fill="#F9C795"/>
        <path fill-rule="evenodd" clip-rule="evenodd" d="M17.2483 21.8629C17.2478 22.1501 17.1348 22.4258 16.9337 22.6309L16.0003 23.5695L15.6163 23.9482C15.1953 24.3648 14.5173 24.3648 14.0962 23.9482C13.6752 23.5315 13.6681 22.8536 14.0803 22.4282L14.091 22.4175L15.4083 21.1055C15.7158 20.7973 16.1785 20.7045 16.581 20.8702C16.9836 21.0359 17.2469 21.4275 17.2483 21.8629Z" fill="#F9C795"/>
        <path fill-rule="evenodd" clip-rule="evenodd" d="M19.0507 23.1166C18.7637 23.1229 18.4871 23.0088 18.288 22.802C18.2985 22.8112 18.3074 22.822 18.3147 22.834L17.2374 21.7566C17.1199 21.6391 17.0646 21.4731 17.088 21.3086C17.101 21.193 17.1538 21.0855 17.2374 21.0046C17.447 20.7966 17.7851 20.7966 17.9947 21.0046L19.8027 22.8126C19.6036 23.0117 19.3322 23.1214 19.0507 23.1166Z" fill="#F09372"/>
        <path fill-rule="evenodd" clip-rule="evenodd" d="M21.328 21.2879C20.9065 21.6952 20.2373 21.6929 19.8187 21.2826L19.0507 20.5146C18.8985 20.3843 18.8322 20.1796 18.8791 19.9848C18.9259 19.79 19.078 19.6378 19.2729 19.591C19.4677 19.5441 19.6724 19.6104 19.8027 19.7626L21.328 21.2879Z" fill="#F09372"/>
        <path fill-rule="evenodd" clip-rule="evenodd" d="M22.8533 19.7572V19.7626C22.652 19.9582 22.3821 20.0674 22.1013 20.0666C21.8208 20.0659 21.5515 19.957 21.3493 19.7626L20.576 18.9892C20.3692 18.7812 20.3692 18.4453 20.576 18.2372C20.6743 18.135 20.8101 18.0771 20.952 18.0771C21.0939 18.0771 21.2296 18.135 21.328 18.2372L22.8533 19.7572Z" fill="#F09372"/>
        <path fill-rule="evenodd" clip-rule="evenodd" d="M20.752 14.1458C20.4225 14.4816 20.0429 14.7641 19.6266 14.9832L18.8213 14.1778C19.2658 14.0014 19.6676 13.7323 20 13.3885C20.208 13.1817 20.5439 13.1817 20.752 13.3885C20.9599 13.5981 20.9599 13.9362 20.752 14.1458Z" fill="#F09372"/>
    </g>
    <defs>
        <clipPath id="clip0_512_1568">
            <rect width="32" height="32" fill="white" transform="translate(0 0.647461)"/>
        </clipPath>
    </defs>
</svg>
