<svg width="33" height="33" viewBox="0 0 33 33" fill="none" xmlns="http://www.w3.org/2000/svg">
    <g clip-path="url(#clip0_512_1312)">
        <path d="M32.5 16.3535C32.5 25.1901 25.3366 32.3535 16.5 32.3535C7.66344 32.3535 0.5 25.1901 0.5 16.3535C0.5 7.51695 7.66344 0.353516 16.5 0.353516C25.3366 0.353516 32.5 7.51695 32.5 16.3535Z" fill="#07A9F0"/>
        <path d="M30.8729 14.7158C30.8729 21.7494 25.171 27.4512 18.1375 27.4512C11.1039 27.4512 5.4021 21.7494 5.4021 14.7158C5.4021 7.68228 11.1039 1.98047 18.1375 1.98047C25.171 1.98047 30.8729 7.68228 30.8729 14.7158Z" fill="#40C1FA"/>
        <path d="M27.6875 25.041C27.6875 25.5588 27.2677 25.9785 26.75 25.9785C26.2323 25.9785 25.8125 25.5588 25.8125 25.041C25.8125 24.5233 26.2323 24.1035 26.75 24.1035C27.2677 24.1035 27.6875 24.5233 27.6875 25.041ZM22.9375 25.7285C22.4198 25.7285 22 26.1483 22 26.666C22 27.1838 22.4198 27.6035 22.9375 27.6035C23.4552 27.6035 23.875 27.1838 23.875 26.666C23.875 26.1483 23.4552 25.7285 22.9375 25.7285ZM23.3125 6.29102C23.3125 5.77327 22.8927 5.35352 22.375 5.35352C21.8573 5.35352 21.4375 5.77327 21.4375 6.29102C21.4375 6.80877 21.8573 7.22852 22.375 7.22852C22.8927 7.22852 23.3125 6.80877 23.3125 6.29102ZM6.4375 10.3535C5.91975 10.3535 5.5 10.7733 5.5 11.291C5.5 11.8088 5.91975 12.2285 6.4375 12.2285C6.95525 12.2285 7.375 11.8088 7.375 11.291C7.375 10.7733 6.95525 10.3535 6.4375 10.3535ZM17.625 1.35352C17.1073 1.35352 16.6875 1.77327 16.6875 2.29102C16.6875 2.80877 17.1073 3.22852 17.625 3.22852C18.1427 3.22852 18.5625 2.80877 18.5625 2.29102C18.5625 1.77327 18.1427 1.35352 17.625 1.35352Z" fill="#B4E7FD"/>
        <path d="M12.1562 27.7269C12.1562 28.5733 11.47 29.2595 10.6236 29.2595C9.77719 29.2595 9.09106 28.5733 9.09106 27.7269C9.09106 26.8805 9.77719 26.1943 10.6236 26.1943C11.47 26.1943 12.1562 26.8805 12.1562 27.7269ZM3.12363 13.3193C2.27719 13.3193 1.59106 14.0055 1.59106 14.8519C1.59106 15.6983 2.27719 16.3845 3.12363 16.3845C3.97 16.3845 4.65619 15.6983 4.65619 14.8519C4.65619 14.0055 3.97 13.3193 3.12363 13.3193ZM10.9986 4.31934C10.1522 4.31934 9.46606 5.00546 9.46606 5.8519C9.46606 6.69827 10.1522 7.38446 10.9986 7.38446C11.845 7.38446 12.5312 6.69827 12.5312 5.8519C12.5312 5.00546 11.845 4.31934 10.9986 4.31934ZM28.4986 13.0693C27.6523 13.0693 26.9661 13.7555 26.9661 14.6019C26.9661 15.4483 27.6523 16.1345 28.4986 16.1345C29.345 16.1345 30.0312 15.4483 30.0312 14.6019C30.0312 13.7555 29.345 13.0693 28.4986 13.0693ZM30.6249 8.17496C30.6249 6.8684 29.5658 5.80921 28.2592 5.80921C26.9526 5.80921 25.8934 6.8684 25.8934 8.17496C25.8934 9.48152 26.9526 10.5407 28.2592 10.5407C29.5658 10.5407 30.6249 9.48152 30.6249 8.17496Z" fill="#3342AE"/>
        <path d="M4.236 15.2719C4.36506 15.2719 4.49038 15.2559 4.61013 15.2259C4.44319 15.8914 3.84094 16.3843 3.12363 16.3843C2.27719 16.3843 1.59106 15.6981 1.59106 14.8517C1.59106 14.1344 2.08388 13.5322 2.74944 13.3652C2.71938 13.4849 2.70344 13.6102 2.70344 13.7393C2.70344 14.5858 3.38956 15.2719 4.236 15.2719ZM10.5784 4.73936C10.5784 4.6103 10.5944 4.48498 10.6244 4.36523C9.95888 4.53223 9.46606 5.13442 9.46606 5.8518C9.46606 6.69817 10.1522 7.38436 10.9986 7.38436C11.7159 7.38436 12.3182 6.89148 12.4851 6.22592C12.3654 6.25598 12.2401 6.27192 12.111 6.27192C11.2646 6.27192 10.5784 5.5858 10.5784 4.73936ZM30.3934 9.19667C30.0841 9.34505 29.7376 9.42817 29.3716 9.42817C28.065 9.42817 27.0058 8.36898 27.0058 7.06242C27.0058 6.69642 27.0889 6.34986 27.2373 6.04055C26.4424 6.42186 25.8934 7.23423 25.8934 8.1748C25.8934 9.48136 26.9526 10.5405 28.2592 10.5405C29.1998 10.5405 30.0121 9.99161 30.3934 9.19667ZM28.0784 13.4894C28.0784 13.3603 28.0944 13.235 28.1245 13.1152C27.4589 13.2822 26.9661 13.8844 26.9661 14.6018C26.9661 15.4482 27.6523 16.1344 28.4987 16.1344C29.2161 16.1344 29.8183 15.6415 29.9852 14.9759C29.8654 15.006 29.7401 15.0219 29.611 15.0219C28.7646 15.0219 28.0784 14.3358 28.0784 13.4894ZM10.2034 26.6144C10.2034 26.4853 10.2194 26.36 10.2494 26.2402C9.58388 26.4072 9.09106 27.0094 9.09106 27.7268C9.09106 28.5732 9.77719 29.2594 10.6236 29.2594C11.3409 29.2594 11.9432 28.7665 12.1101 28.1009C11.9904 28.131 11.8651 28.1469 11.736 28.1469C10.8896 28.1469 10.2034 27.4608 10.2034 26.6144Z" fill="#2B3894"/>
        <path d="M10.9986 7.85321C9.89513 7.85321 8.99731 6.9554 8.99731 5.8519C8.99731 4.7484 9.89513 3.85059 10.9986 3.85059C12.1021 3.85059 12.9999 4.74834 12.9999 5.8519C12.9999 6.95546 12.1021 7.85321 10.9986 7.85321ZM10.9986 4.78809C10.4121 4.78809 9.93481 5.26534 9.93481 5.8519C9.93481 6.43852 10.4121 6.91571 10.9986 6.91571C11.5852 6.91571 12.0624 6.43846 12.0624 5.8519C12.0624 5.26534 11.5852 4.78809 10.9986 4.78809ZM28.4986 16.6032C27.3951 16.6032 26.4973 15.7054 26.4973 14.6019C26.4973 13.4984 27.3951 12.6006 28.4986 12.6006C29.6021 12.6006 30.4999 13.4983 30.4999 14.6019C30.4999 15.7055 29.6021 16.6032 28.4986 16.6032ZM28.4986 13.5381C27.9121 13.5381 27.4348 14.0153 27.4348 14.6019C27.4348 15.1885 27.9121 15.6657 28.4986 15.6657C29.0852 15.6657 29.5624 15.1885 29.5624 14.6019C29.5624 14.0153 29.0852 13.5381 28.4986 13.5381ZM3.12363 16.8532C2.02013 16.8532 1.12231 15.9554 1.12231 14.8519C1.12231 13.7484 2.02013 12.8506 3.12363 12.8506C4.22713 12.8506 5.12494 13.7483 5.12494 14.8519C5.12494 15.9555 4.22713 16.8532 3.12363 16.8532ZM3.12363 13.7881C2.53706 13.7881 2.05981 14.2653 2.05981 14.8519C2.05981 15.4385 2.53706 15.9157 3.12363 15.9157C3.71019 15.9157 4.18744 15.4385 4.18744 14.8519C4.18744 14.2653 3.71019 13.7881 3.12363 13.7881ZM10.6236 29.7282C9.52013 29.7282 8.62231 28.8304 8.62231 27.7269C8.62231 26.6234 9.52013 25.7256 10.6236 25.7256C11.7271 25.7256 12.6249 26.6233 12.6249 27.7269C12.6249 28.8305 11.7271 29.7282 10.6236 29.7282ZM10.6236 26.6631C10.0371 26.6631 9.55981 27.1403 9.55981 27.7269C9.55981 28.3135 10.0371 28.7907 10.6236 28.7907C11.2102 28.7907 11.6874 28.3135 11.6874 27.7269C11.6874 27.1403 11.2102 26.6631 10.6236 26.6631ZM28.2592 11.0095C26.6963 11.0095 25.4246 9.7379 25.4246 8.1749C25.4246 6.61196 26.6962 5.3404 28.2592 5.3404C29.8222 5.3404 31.0937 6.61196 31.0937 8.1749C31.0937 9.7379 29.8221 11.0095 28.2592 11.0095ZM28.2592 6.27796C27.2132 6.27796 26.3621 7.1289 26.3621 8.17496C26.3621 9.22102 27.2131 10.072 28.2592 10.072C29.3053 10.072 30.1562 9.22102 30.1562 8.17496C30.1562 7.1289 29.3052 6.27796 28.2592 6.27796Z" fill="#5766CE"/>
        <path d="M16.5 6.66602L17.9375 9.04102L16.5 10.4785L15.0625 9.04102L16.5 6.66602ZM15.0625 23.666L16.5 26.041L17.9375 23.666L16.5 22.2285L15.0625 23.666ZM9.1875 14.916L6.8125 16.3535L9.1875 17.791L10.625 16.3535L9.1875 14.916ZM23.8125 14.916L22.375 16.3535L23.8125 17.791L26.1875 16.3535L23.8125 14.916ZM10.3128 12.1993H12.3457V10.1663L9.64987 9.50339L10.3128 12.1993ZM20.6542 20.5078V22.5407L23.3501 23.2036L22.6872 20.5078H20.6542ZM9.64987 23.2036L12.3457 22.5407V20.5078H10.3128L9.64987 23.2036ZM23.3501 9.50339L20.6542 10.1663V12.1993H22.6872L23.3501 9.50339Z" fill="#533672"/>
        <path d="M24.375 16.3535C24.375 20.7028 20.8492 24.2285 16.5 24.2285C12.1508 24.2285 8.625 20.7028 8.625 16.3535C8.625 12.0043 12.1508 8.47852 16.5 8.47852C20.8492 8.47852 24.375 12.0043 24.375 16.3535Z" fill="#754CA0"/>
        <path d="M24.375 16.3535C24.375 18.2717 23.6892 20.0296 22.5494 21.3956C21.6685 21.694 20.7246 21.8557 19.7429 21.8557C14.9131 21.8557 10.9978 17.9404 10.9978 13.1106C10.9978 12.1289 11.1596 11.185 11.4579 10.3041C12.8239 9.16433 14.5818 8.47852 16.5 8.47852C20.8492 8.47852 24.375 12.0043 24.375 16.3535Z" fill="#865CB2"/>
        <path d="M18.5366 16.3542L16.5002 18.3906L14.4637 16.3542L16.5002 14.3177L18.5366 16.3542ZM12.3871 14.7166L11.2483 12.0713L8.60303 13.21L9.74178 15.8553L12.3871 14.7166ZM20.6132 17.9917L21.752 20.637L24.3973 19.4983L23.2585 16.853L20.6132 17.9917ZM23.2585 15.8553L24.3973 13.21L21.752 12.0713L20.6132 14.7166L23.2585 15.8553ZM9.74178 16.853L8.60303 19.4983L11.2483 20.637L12.3871 17.9917L9.74178 16.853ZM20.783 11.1023L19.6443 8.45703L16.999 9.59578L18.1377 12.2411L20.783 11.1023ZM12.2173 21.606L13.356 24.2513L16.0013 23.1125L14.8626 20.4672L12.2173 21.606ZM16.999 23.1125L19.6443 24.2513L20.783 21.606L18.1377 20.4672L16.999 23.1125ZM16.0013 9.59578L13.356 8.45703L12.2173 11.1023L14.8626 12.2411L16.0013 9.59578Z" fill="#9773BD"/>
        <path d="M14.4637 16.3542L16.5002 14.3177L18.5366 16.3542H14.4637ZM11.2483 12.0713L8.60303 13.21L12.3871 14.7166L11.2483 12.0713ZM24.3973 13.21L21.752 12.0713L20.6132 14.7166L24.3973 13.21ZM19.6443 8.45703L18.1377 12.2411L20.783 11.1023L19.6443 8.45703ZM16.0013 9.59578L13.356 8.45703L14.8626 12.2411L16.0013 9.59578ZM20.6132 17.9917L24.3973 19.4983L23.2585 16.853L20.6132 17.9917ZM19.6443 24.2513L20.783 21.606L18.1377 20.4672L19.6443 24.2513ZM13.356 24.2513L14.8626 20.4672L12.2173 21.606L13.356 24.2513ZM9.74178 16.853L8.60303 19.4983L12.3871 17.9917L9.74178 16.853Z" fill="#A88AC8"/>
    </g>
    <defs>
        <clipPath id="clip0_512_1312">
            <rect width="32" height="32" fill="white" transform="translate(0.5 0.353516)"/>
        </clipPath>
    </defs>
</svg>
