<svg width="81" height="98" viewBox="0 0 81 98" fill="none" xmlns="http://www.w3.org/2000/svg">
    <rect x="6" y="0.933769" width="67.5" height="67.5" rx="18" fill="#10B100"/>
    <g clip-path="url(#clip0_19_2)">
        <path d="M57.0672 47.578C56.1233 47.0813 55.1805 46.5841 54.2385 46.0864C52.3453 45.0847 50.4508 44.0857 48.5646 43.0715C48.3727 42.967 48.2119 42.8137 48.0982 42.6272C46.4746 39.8316 44.8579 37.0315 43.248 34.2267C42.0936 32.2223 40.9437 30.2164 39.7984 28.2092C39.7397 28.1334 39.6726 28.0644 39.5984 28.0036C39.5284 28.069 39.4651 28.1411 39.4093 28.2189C36.8962 32.5764 34.3835 36.9353 31.8713 41.2956C31.5953 41.7855 31.3097 42.2767 31.0185 42.761C30.9584 42.8651 30.8718 42.9513 30.7674 43.0108C27.9157 44.5258 25.0641 46.0372 22.2124 47.5449C22.1695 47.5576 22.1257 47.5669 22.0813 47.5725L39.5984 17.3016L57.1044 47.527L57.0672 47.578Z" fill="white"/>
    </g>
    <path d="M39.6626 36.6074C39.6722 36.565 39.7326 36.565 39.7421 36.6074L40.297 39.0701C40.6147 40.4807 41.7164 41.5822 43.1271 41.9L45.59 42.4547C45.6324 42.4643 45.6324 42.5247 45.59 42.5343L43.127 43.089C41.7164 43.4067 40.6147 44.5083 40.297 45.9189L39.7421 48.3816C39.7326 48.424 39.6722 48.424 39.6626 48.3816L39.1078 45.9189C38.79 44.5083 37.6884 43.4067 36.2777 43.089L33.8147 42.5343C33.7723 42.5247 33.7723 42.4643 33.8147 42.4547L36.2777 41.9C37.6884 41.5822 38.79 40.4807 39.1078 39.0701L39.6626 36.6074Z" fill="white"/>
    <path d="M76.3197 77.7516C76.3321 77.6965 76.4106 77.6965 76.4231 77.7516L76.6949 78.9584C76.8678 79.726 77.4673 80.3253 78.235 80.4982L79.4418 80.7701C79.4969 80.7825 79.4969 80.861 79.4418 80.8734L78.2349 81.1453C77.4673 81.3182 76.8678 81.9176 76.6949 82.6851L76.4231 83.8919C76.4106 83.947 76.3321 83.947 76.3197 83.8919L76.0478 82.6851C75.8749 81.9176 75.2755 81.3182 74.5078 81.1453L73.301 80.8734C73.2459 80.861 73.2459 80.7825 73.301 80.7701L74.5078 80.4982C75.2755 80.3253 75.8749 79.726 76.0478 78.9584L76.3197 77.7516Z" fill="#10B100"/>
    <path d="M78.3806 75.1139C78.3868 75.0864 78.426 75.0864 78.4322 75.1139L78.5682 75.7173C78.6546 76.1011 78.9544 76.4008 79.3382 76.4872L79.9416 76.6231C79.9692 76.6294 79.9692 76.6686 79.9416 76.6748L79.3382 76.8107C78.9544 76.8972 78.6546 77.1969 78.5682 77.5807L78.4322 78.184C78.426 78.2116 78.3868 78.2116 78.3806 78.184L78.2446 77.5807C78.1582 77.1969 77.8584 76.8972 77.4746 76.8107L76.8712 76.6748C76.8436 76.6686 76.8436 76.6294 76.8712 76.6231L77.4746 76.4872C77.8584 76.4008 78.1582 76.1011 78.2446 75.7173L78.3806 75.1139Z" fill="#10B100"/>
    <path d="M9.31832 86.6036H14.9441C14.7065 86.032 14.3308 85.5728 13.817 85.226C13.3097 84.8728 12.7509 84.6962 12.1408 84.6962C11.5243 84.6962 10.9592 84.8696 10.4454 85.2164C9.93163 85.5632 9.55593 86.0256 9.31832 86.6036ZM17.5065 87.3164V88.7036H9.20272C9.37611 89.4036 9.73897 89.9527 10.2913 90.3509C10.85 90.749 11.4665 90.9481 12.1408 90.9481C12.9051 90.9481 13.589 90.6784 14.1927 90.1389L14.3276 90.0041L16.5239 91.0637C15.2845 92.5537 13.8234 93.2986 12.1408 93.2986C11.4087 93.2986 10.7087 93.1541 10.0408 92.8651C9.3729 92.5761 8.79812 92.1876 8.31646 91.6995C7.8348 91.2114 7.44948 90.6302 7.16048 89.9559C6.87791 89.2752 6.73662 88.5655 6.73662 87.827C6.73662 86.8315 6.97745 85.9132 7.45911 85.0719C7.94719 84.2306 8.60546 83.5659 9.43391 83.0778C10.2624 82.5897 11.1647 82.3457 12.1408 82.3457C13.5152 82.3457 14.7129 82.8209 15.734 83.7714C16.7551 84.7155 17.346 85.8971 17.5065 87.3164ZM23.1473 87.4994L28.5997 93H25.3822L21.4904 89.0504L21.1822 89.3298V93H18.8317V78.4828H21.1822V86.2568L24.968 82.625H28.147L23.1473 87.4994Z" fill="#222222"/>
    <path d="M37.9782 88.8963C38.2287 89.4486 38.3186 89.9655 38.248 90.4472C38.1773 90.9289 37.9782 91.3591 37.6507 91.7381C37.3296 92.117 36.9443 92.4349 36.4947 92.6917C36.0516 92.9422 35.5796 93.1188 35.0786 93.2216C34.7062 93.2858 34.3626 93.3179 34.0479 93.3179C33.5534 93.3179 33.0814 93.2729 32.6318 93.183C32.1823 93.0995 31.7937 92.9872 31.4662 92.8459C31.1387 92.7046 30.8336 92.5505 30.551 92.3835C30.2749 92.2165 30.0437 92.0495 29.8574 91.8825C29.6776 91.7156 29.5235 91.5614 29.3951 91.4202C29.2666 91.2789 29.1735 91.1633 29.1157 91.0734L29.0386 90.9481L31.052 89.5898C31.341 90.0651 31.7616 90.4344 32.3139 90.6977C32.8662 90.9546 33.4378 91.083 34.0286 91.083C34.2855 91.083 34.5681 91.0509 34.8763 90.9867C35.313 90.9096 35.6149 90.7587 35.7819 90.5339C35.9424 90.2899 35.9842 90.0876 35.9071 89.927C35.7016 89.5353 34.9984 89.2366 33.7974 89.0311C33.4827 88.9605 33.2194 88.8995 33.0075 88.8481C32.802 88.7903 32.5483 88.7132 32.2465 88.6169C31.9511 88.5206 31.6974 88.4146 31.4855 88.299C31.2799 88.1834 31.068 88.0453 30.8497 87.8848C30.6313 87.7242 30.4419 87.5348 30.2813 87.3164C30.1272 87.0981 30.0019 86.854 29.9056 86.5843C29.7001 85.9678 29.7162 85.348 29.9538 84.7251C30.1914 84.1021 30.551 83.6044 31.0327 83.2319C31.874 82.6283 32.8534 82.3264 33.9708 82.3264C34.3561 82.3264 34.7286 82.3682 35.0883 82.4516C35.4479 82.5351 35.7594 82.6475 36.0227 82.7888C36.2924 82.9237 36.5461 83.0746 36.7837 83.2416C37.0213 83.4021 37.2172 83.5659 37.3713 83.7329C37.5319 83.8934 37.67 84.0443 37.7856 84.1856C37.9012 84.3205 37.9847 84.4297 38.036 84.5132L38.1131 84.6384L36.3984 85.9774L35.7819 85.3223C35.7498 85.2774 35.6727 85.21 35.5507 85.12C35.4286 85.0237 35.2167 84.921 34.9149 84.8118C34.613 84.6962 34.2919 84.6384 33.9516 84.6384C33.335 84.6384 32.8277 84.7829 32.4295 85.0719C32.3139 85.1618 32.2176 85.2806 32.1405 85.4283C32.0699 85.576 32.0538 85.7077 32.0923 85.8233C32.1566 86.0159 32.4616 86.2182 33.0075 86.4302C33.2066 86.5136 33.6272 86.626 34.2695 86.7673C34.5906 86.8251 34.8796 86.8893 35.1364 86.96C35.3933 87.0242 35.6759 87.1141 35.9842 87.2297C36.2924 87.3453 36.5622 87.477 36.7933 87.6247C37.031 87.766 37.2557 87.9458 37.4677 88.1641C37.6796 88.3825 37.8498 88.6265 37.9782 88.8963ZM42.569 90.11C43.1984 90.7715 43.9273 91.1023 44.7558 91.1023C45.5842 91.1023 46.3131 90.7715 46.9425 90.11C47.5783 89.4486 47.8962 88.6811 47.8962 87.8077C47.8962 86.9215 47.5783 86.1476 46.9425 85.4861C46.3131 84.8246 45.5842 84.4939 44.7558 84.4939C43.9273 84.4939 43.1984 84.8246 42.569 85.4861C41.9397 86.1476 41.625 86.9215 41.625 87.8077C41.625 88.6811 41.9397 89.4486 42.569 90.11ZM47.8962 83.5691V82.625H50.2467V93H47.8962V92.0945C47.4852 92.4734 47.0003 92.7688 46.4416 92.9807C45.8893 93.1927 45.3273 93.2986 44.7558 93.2986C43.7668 93.2986 42.8516 93.0546 42.0103 92.5665C41.169 92.072 40.5011 91.4041 40.0066 90.5628C39.5185 89.7151 39.2745 88.7967 39.2745 87.8077C39.2745 86.8123 39.5185 85.8939 40.0066 85.0526C40.5011 84.2113 41.169 83.5466 42.0103 83.0585C42.8516 82.5705 43.7668 82.3264 44.7558 82.3264C45.3273 82.3264 45.8957 82.4356 46.4608 82.6539C47.026 82.8659 47.5044 83.1709 47.8962 83.5691ZM54.982 90.1293C55.6113 90.7908 56.3403 91.1215 57.1687 91.1215C57.9972 91.1215 58.7261 90.7908 59.3554 90.1293C59.9912 89.4678 60.3091 88.694 60.3091 87.8077C60.3091 86.9343 59.9912 86.1669 59.3554 85.5054C58.7261 84.8439 57.9972 84.5132 57.1687 84.5132C56.3403 84.5132 55.6113 84.8439 54.982 85.5054C54.3526 86.1669 54.0379 86.9343 54.0379 87.8077C54.0379 88.694 54.3526 89.4678 54.982 90.1293ZM60.3091 83.5691V82.625H62.6596V82.9429V91.9981C62.5633 93.0193 62.2872 93.9376 61.8312 94.7532C61.3816 95.5689 60.7491 96.2207 59.9334 96.7088C59.1243 97.1969 58.2027 97.4409 57.1687 97.4409C56.6742 97.4409 56.1733 97.3574 55.6659 97.1904C55.165 97.0299 54.7283 96.8308 54.3558 96.5932C53.9833 96.362 53.6462 96.1276 53.3443 95.89C53.0489 95.6588 52.8241 95.4597 52.67 95.2927L52.4388 95.0519L54.587 93.8285C54.6191 93.8606 54.6609 93.9055 54.7122 93.9633C54.77 94.0211 54.8889 94.1239 55.0687 94.2716C55.2485 94.4193 55.4315 94.5477 55.6178 94.6569C55.8104 94.7725 56.0481 94.8753 56.3306 94.9652C56.6132 95.0615 56.8926 95.1097 57.1687 95.1097C57.8816 95.1097 58.5398 94.8271 59.1435 94.2619C59.7536 93.7032 60.1229 93.0128 60.2513 92.1908C59.866 92.5569 59.3972 92.833 58.8449 93.0193C58.299 93.2055 57.7403 93.2986 57.1687 93.2986C56.4302 93.2986 55.7205 93.1541 55.0398 92.8651C54.3655 92.5761 53.781 92.1876 53.2865 91.6995C52.7985 91.205 52.4099 90.6206 52.1209 89.9463C51.8319 89.2655 51.6874 88.5527 51.6874 87.8077C51.6874 86.8187 51.9315 85.9035 52.4195 85.0622C52.9141 84.2209 53.582 83.5563 54.4233 83.0682C55.2646 82.5737 56.1797 82.3264 57.1687 82.3264C57.7274 82.3264 58.2926 82.4388 58.8642 82.6636C59.4421 82.8819 59.9238 83.1838 60.3091 83.5691ZM66.6821 86.6036H72.3079C72.0702 86.032 71.6945 85.5728 71.1808 85.226C70.6734 84.8728 70.1147 84.6962 69.5046 84.6962C68.8881 84.6962 68.3229 84.8696 67.8092 85.2164C67.2954 85.5632 66.9197 86.0256 66.6821 86.6036ZM74.8703 87.3164V88.7036H66.5665C66.7399 89.4036 67.1027 89.9527 67.655 90.3509C68.2138 90.749 68.8303 90.9481 69.5046 90.9481C70.2688 90.9481 70.9528 90.6784 71.5565 90.1389L71.6913 90.0041L73.8877 91.0637C72.6482 92.5537 71.1872 93.2986 69.5046 93.2986C68.7725 93.2986 68.0725 93.1541 67.4046 92.8651C66.7367 92.5761 66.1619 92.1876 65.6802 91.6995C65.1986 91.2114 64.8132 90.6302 64.5242 89.9559C64.2417 89.2752 64.1004 88.5655 64.1004 87.827C64.1004 86.8315 64.3412 85.9132 64.8229 85.0719C65.3109 84.2306 65.9692 83.5659 66.7977 83.0778C67.6261 82.5897 68.5284 82.3457 69.5046 82.3457C70.8789 82.3457 72.0767 82.8209 73.0978 83.7714C74.1189 84.7155 74.7097 85.8971 74.8703 87.3164Z" fill="#10B100"/>
    <path d="M4.2969 90.6799V90.7005H5.46704V93.2148H4.2969C2.97795 93.2148 1.93721 92.7923 1.17469 91.9473C0.893041 91.6382 0.659476 91.281 0.473999 90.8757C0.288521 90.4704 0.171739 90.1097 0.123652 89.7937C0.0824346 89.4709 0.0480868 89.1652 0.0206086 88.8767C-0.00686955 88.5881 -0.00686955 88.4095 0.0206086 88.3408V78.6456H2.54517V82.5613H5.45446V85.0653H2.54517V88.4645C2.55891 88.5057 2.55891 88.6156 2.54517 88.7942C2.53143 88.966 2.56578 89.2064 2.64821 89.5155C2.73751 89.8247 2.8646 90.072 3.02947 90.2574C3.29051 90.5391 3.71299 90.6799 4.2969 90.6799Z" fill="#222222"/>
    <defs>
        <clipPath id="clip0_19_2">
            <rect width="35.03" height="34.0131" fill="white" transform="translate(22.0747 17.3018)"/>
        </clipPath>
    </defs>
</svg>
