<svg width="121" height="98" viewBox="0 0 121 98" fill="none" xmlns="http://www.w3.org/2000/svg">
    <rect x="26.7385" y="0.933769" width="67.5" height="67.5" rx="18" fill="#10B100"/>
    <g clip-path="url(#clip0_19_50)">
        <path d="M77.8057 47.578C76.8619 47.0813 75.919 46.5841 74.977 46.0864C73.0839 45.0847 71.1893 44.0857 69.3031 43.0715C69.1113 42.967 68.9504 42.8137 68.8367 42.6272C67.2131 39.8316 65.5964 37.0315 63.9866 34.2267C62.8321 32.2223 61.6822 30.2164 60.537 28.2092C60.4782 28.1334 60.4111 28.0644 60.3369 28.0036C60.267 28.069 60.2036 28.1411 60.1479 28.2189C57.6347 32.5764 55.122 36.9353 52.6098 41.2956C52.3338 41.7855 52.0482 42.2767 51.757 42.761C51.697 42.8651 51.6103 42.9513 51.5059 43.0108C48.6542 44.5258 45.8026 46.0372 42.9509 47.5449C42.908 47.5576 42.8642 47.5669 42.8198 47.5725L60.3369 17.3016L77.8429 47.527L77.8057 47.578Z" fill="white"/>
    </g>
    <path d="M60.4011 36.6074C60.4107 36.565 60.4711 36.565 60.4806 36.6074L61.0355 39.0701C61.3532 40.4807 62.4549 41.5822 63.8656 41.9L66.3286 42.4547C66.371 42.4643 66.371 42.5247 66.3286 42.5343L63.8656 43.089C62.4549 43.4067 61.3532 44.5083 61.0355 45.9189L60.4806 48.3816C60.4711 48.424 60.4107 48.424 60.4011 48.3816L59.8463 45.9189C59.5285 44.5083 58.4269 43.4067 57.0162 43.089L54.5532 42.5343C54.5108 42.5247 54.5108 42.4643 54.5532 42.4547L57.0162 41.9C58.4269 41.5822 59.5285 40.4807 59.8463 39.0701L60.4011 36.6074Z" fill="white"/>
    <path d="M4.6734 90.1452C5.29768 90.8013 6.0207 91.1294 6.84246 91.1294C7.66422 91.1294 8.38724 90.8013 9.01152 90.1452C9.64217 89.489 9.9575 88.7278 9.9575 87.8615C9.9575 86.9824 9.64217 86.2148 9.01152 85.5586C8.38724 84.9025 7.66422 84.5744 6.84246 84.5744C6.0207 84.5744 5.29768 84.9025 4.6734 85.5586C4.04911 86.2148 3.73697 86.9824 3.73697 87.8615C3.73697 88.7278 4.04911 89.489 4.6734 90.1452ZM9.9575 83.6571V82.7207H12.289V93.0118H9.9575V92.1136C9.5498 92.4894 9.06885 92.7825 8.51464 92.9927C7.9668 93.2029 7.40941 93.308 6.84246 93.308C5.86144 93.308 4.95369 93.0659 4.11919 92.5818C3.28469 92.0913 2.62218 91.4288 2.13168 90.5943C1.64754 89.7534 1.40547 88.8425 1.40547 87.8615C1.40547 86.8741 1.64754 85.9631 2.13168 85.1286C2.62218 84.2941 3.28469 83.6348 4.11919 83.1507C4.95369 82.6665 5.86144 82.4245 6.84246 82.4245C7.40941 82.4245 7.97317 82.5328 8.53375 82.7494C9.09433 82.9596 9.56891 83.2622 9.9575 83.6571ZM22.8385 88.9412C23.0869 89.489 23.1761 90.0018 23.106 90.4796C23.0359 90.9574 22.8385 91.3842 22.5136 91.76C22.1951 92.1359 21.8129 92.4512 21.3669 92.706C20.9274 92.9544 20.4592 93.1296 19.9623 93.2316C19.5928 93.2953 19.252 93.3271 18.9399 93.3271C18.4494 93.3271 17.9812 93.2825 17.5353 93.1933C17.0893 93.1105 16.7039 92.999 16.3791 92.8589C16.0542 92.7187 15.7516 92.5659 15.4713 92.4002C15.1974 92.2346 14.9681 92.069 14.7833 91.9034C14.605 91.7377 14.4521 91.5848 14.3247 91.4447C14.1973 91.3046 14.1049 91.1899 14.0476 91.1007L13.9711 90.9765L15.9682 89.6292C16.2548 90.1006 16.6721 90.4669 17.2199 90.7281C17.7678 90.9829 18.3347 91.1103 18.9208 91.1103C19.1756 91.1103 19.4559 91.0784 19.7617 91.0147C20.1948 90.9383 20.4942 90.7886 20.6599 90.5656C20.8191 90.3235 20.8605 90.1229 20.7841 89.9636C20.5802 89.575 19.8827 89.2788 18.6915 89.075C18.3793 89.0049 18.1181 88.9444 17.9079 88.8934C17.7041 88.8361 17.4524 88.7597 17.153 88.6641C16.86 88.5685 16.6084 88.4634 16.3982 88.3488C16.1943 88.2341 15.9841 88.0972 15.7675 87.9379C15.5509 87.7786 15.363 87.5907 15.2038 87.3741C15.0509 87.1575 14.9267 86.9155 14.8311 86.6479C14.6273 86.0364 14.6432 85.4217 14.8789 84.8037C15.1146 84.1858 15.4713 83.6921 15.9491 83.3227C16.7836 82.7239 17.755 82.4245 18.8634 82.4245C19.2457 82.4245 19.6151 82.4659 19.9719 82.5487C20.3286 82.6315 20.6376 82.743 20.8987 82.8831C21.1663 83.0169 21.4179 83.1666 21.6536 83.3322C21.8893 83.4915 22.0836 83.6539 22.2365 83.8195C22.3957 83.9788 22.5327 84.1285 22.6474 84.2686C22.762 84.4024 22.8448 84.5107 22.8958 84.5935L22.9722 84.7177L21.2714 86.0459L20.6599 85.3962C20.628 85.3516 20.5516 85.2847 20.4305 85.1955C20.3095 85.1 20.0993 84.998 19.7999 84.8897C19.5005 84.7751 19.182 84.7177 18.8443 84.7177C18.2328 84.7177 17.7295 84.8611 17.3346 85.1477C17.2199 85.2369 17.1244 85.3548 17.0479 85.5013C16.9779 85.6478 16.9619 85.7784 17.0002 85.8931C17.0639 86.0842 17.3664 86.2848 17.9079 86.495C18.1054 86.5779 18.5226 86.6893 19.1597 86.8295C19.4782 86.8868 19.7648 86.9505 20.0196 87.0206C20.2745 87.0843 20.5547 87.1735 20.8605 87.2881C21.1663 87.4028 21.4338 87.5334 21.6632 87.6799C21.8989 87.82 22.1218 87.9984 22.332 88.215C22.5423 88.4316 22.7111 88.6737 22.8385 88.9412ZM28.6007 90.6612V90.6803H29.4798V93.0118H28.6007C27.3776 93.0118 26.4125 92.62 25.7055 91.8365C25.4443 91.5498 25.2277 91.2186 25.0557 90.8427C24.8837 90.4669 24.7754 90.1324 24.7308 89.8394C24.6926 89.54 24.6607 89.2565 24.6353 88.989C24.6098 88.7214 24.6098 88.5558 24.6353 88.4921V80.0165H26.9763V82.7207H29.3651V85.0426H26.9763V88.6068C26.9891 88.645 26.9891 88.7469 26.9763 88.9125C26.9636 89.0718 26.9954 89.2948 27.0719 89.5814C27.1547 89.8681 27.2725 90.0974 27.4254 90.2694C27.6675 90.5306 28.0592 90.6612 28.6007 90.6612ZM33.1685 83.5616C34.1305 82.8035 35.2835 82.4245 36.6276 82.4245V84.8515C36.0797 84.8197 35.5988 84.8388 35.1847 84.9089C34.7707 84.9789 34.4426 85.0777 34.2005 85.2051C33.9648 85.3325 33.7673 85.4949 33.6081 85.6924C33.4552 85.8899 33.3501 86.0746 33.2928 86.2466C33.2354 86.4186 33.194 86.6129 33.1685 86.8295L33.1494 93.0118H30.8179V82.7207H33.1685V83.5616ZM39.1123 83.1602C39.9468 82.6697 40.8546 82.4245 41.8356 82.4245C42.8166 82.4245 43.7244 82.6697 44.5589 83.1602C45.3998 83.6444 46.0623 84.3037 46.5464 85.1382C47.0369 85.9727 47.2822 86.8804 47.2822 87.8615C47.2822 88.594 47.1356 89.2979 46.8426 89.9732C46.556 90.6421 46.1674 91.2217 45.6769 91.7123C45.1927 92.1964 44.613 92.585 43.9378 92.878C43.2689 93.1647 42.5682 93.308 41.8356 93.308C40.8546 93.308 39.9468 93.0659 39.1123 92.5818C38.2778 92.0913 37.6153 91.4288 37.1248 90.5943C36.6407 89.7534 36.3986 88.8425 36.3986 87.8615C36.3986 86.8804 36.6407 85.9727 37.1248 85.1382C37.6153 84.3037 38.2778 83.6444 39.1123 83.1602ZM39.6379 90.0496C40.2494 90.6548 40.982 90.9574 41.8356 90.9574C42.6892 90.9574 43.4218 90.6548 44.0333 90.0496C44.6449 89.4445 44.9507 88.7151 44.9507 87.8615C44.9507 87.0015 44.6449 86.2689 44.0333 85.6637C43.4218 85.0586 42.6892 84.756 41.8356 84.756C40.982 84.756 40.2494 85.0586 39.6379 85.6637C39.0327 86.2689 38.7301 87.0015 38.7301 87.8615C38.7301 88.7087 39.0327 89.4381 39.6379 90.0496Z" fill="#222222"/>
    <path d="M52.1462 90.1643C52.7705 90.8204 53.4935 91.1485 54.3153 91.1485C55.137 91.1485 55.86 90.8172 56.4843 90.1547C57.115 89.4922 57.4303 88.7278 57.4303 87.8615C57.4303 86.9951 57.115 86.2339 56.4843 85.5777C55.86 84.9216 55.137 84.5935 54.3153 84.5935C53.4935 84.5935 52.7705 84.9216 52.1462 85.5777C51.5219 86.2339 51.2098 86.9951 51.2098 87.8615C51.2098 88.7342 51.5219 89.5018 52.1462 90.1643ZM54.3153 82.4245C55.2963 82.4245 56.204 82.6697 57.0385 83.1602C57.8794 83.6444 58.5419 84.3037 59.026 85.1382C59.5166 85.9727 59.7618 86.8804 59.7618 87.8615C59.7618 88.594 59.6153 89.2979 59.3223 89.9732C59.0356 90.6421 58.647 91.2217 58.1565 91.7123C57.6724 92.1964 57.0927 92.585 56.4174 92.878C55.7486 93.1647 55.0478 93.308 54.3153 93.308C53.7547 93.308 53.1941 93.1997 52.6335 92.9831C52.0729 92.7665 51.5984 92.4576 51.2098 92.0562V97.1397H48.8783V82.7207H51.2098V83.6189C51.592 83.2367 52.0634 82.9436 52.624 82.7398C53.1909 82.5296 53.7547 82.4245 54.3153 82.4245ZM63.7181 83.5616C64.68 82.8035 65.833 82.4245 67.1771 82.4245V84.8515C66.6293 84.8197 66.1483 84.8388 65.7343 84.9089C65.3202 84.9789 64.9921 85.0777 64.7501 85.2051C64.5144 85.3325 64.3169 85.4949 64.1576 85.6924C64.0048 85.8899 63.8996 86.0746 63.8423 86.2466C63.785 86.4186 63.7436 86.6129 63.7181 86.8295L63.699 93.0118H61.3675V82.7207H63.7181V83.5616ZM69.6619 83.1602C70.4964 82.6697 71.4042 82.4245 72.3852 82.4245C73.3662 82.4245 74.2739 82.6697 75.1084 83.1602C75.9493 83.6444 76.6118 84.3037 77.0959 85.1382C77.5865 85.9727 77.8317 86.8804 77.8317 87.8615C77.8317 88.594 77.6852 89.2979 77.3922 89.9732C77.1055 90.6421 76.7169 91.2217 76.2264 91.7123C75.7423 92.1964 75.1626 92.585 74.4873 92.878C73.8185 93.1647 73.1177 93.308 72.3852 93.308C71.4042 93.308 70.4964 93.0659 69.6619 92.5818C68.8274 92.0913 68.1649 91.4288 67.6744 90.5943C67.1903 89.7534 66.9482 88.8425 66.9482 87.8615C66.9482 86.8804 67.1903 85.9727 67.6744 85.1382C68.1649 84.3037 68.8274 83.6444 69.6619 83.1602ZM70.1874 90.0496C70.799 90.6548 71.5316 90.9574 72.3852 90.9574C73.2388 90.9574 73.9714 90.6548 74.5829 90.0496C75.1944 89.4445 75.5002 88.7151 75.5002 87.8615C75.5002 87.0015 75.1944 86.2689 74.5829 85.6637C73.9714 85.0586 73.2388 84.756 72.3852 84.756C71.5316 84.756 70.799 85.0586 70.1874 85.6637C69.5823 86.2689 69.2797 87.0015 69.2797 87.8615C69.2797 88.7087 69.5823 89.4381 70.1874 90.0496ZM90.6458 82.4245C92.0281 82.4245 93.1302 82.8672 93.9519 83.7527C94.7737 84.6318 95.1846 85.7688 95.1846 87.1639V93.0118H92.8531V87.1639C92.8531 86.7626 92.8021 86.4122 92.7002 86.1128C92.5983 85.8134 92.4709 85.5809 92.318 85.4153C92.1651 85.2433 91.9835 85.1063 91.7733 85.0044C91.5631 84.9025 91.3688 84.8356 91.1904 84.8037C91.0184 84.7719 90.8369 84.756 90.6458 84.756C90.4674 84.756 90.2954 84.7719 90.1298 84.8037C89.9642 84.8292 89.7794 84.8897 89.5756 84.9853C89.3781 85.0745 89.2029 85.1955 89.0501 85.3484C88.9035 85.4949 88.7729 85.7019 88.6583 85.9695C88.55 86.237 88.4863 86.5492 88.4672 86.9059V87.1448V93.0118H86.1357V87.1448C86.1357 86.8072 86.107 86.5046 86.0497 86.237C85.9987 85.9695 85.9223 85.7529 85.8203 85.5873C85.7248 85.4153 85.6165 85.272 85.4955 85.1573C85.3808 85.0426 85.2438 84.9598 85.0846 84.9089C84.9317 84.8515 84.7852 84.8133 84.645 84.7942C84.5049 84.7687 84.352 84.756 84.1864 84.756C83.422 84.756 82.8232 84.998 82.39 85.4822C81.9568 85.9599 81.7402 86.6224 81.7402 87.4697V93.0118H79.4087V82.7207H81.7402V83.4182C82.4346 82.7557 83.25 82.4245 84.1864 82.4245C85.6388 82.4245 86.7472 82.915 87.5116 83.896C88.2761 82.915 89.3208 82.4245 90.6458 82.4245ZM100.383 90.1643C101.007 90.8204 101.73 91.1485 102.552 91.1485C103.374 91.1485 104.097 90.8172 104.721 90.1547C105.352 89.4922 105.667 88.7278 105.667 87.8615C105.667 86.9951 105.352 86.2339 104.721 85.5777C104.097 84.9216 103.374 84.5935 102.552 84.5935C101.73 84.5935 101.007 84.9216 100.383 85.5777C99.7588 86.2339 99.4466 86.9951 99.4466 87.8615C99.4466 88.7342 99.7588 89.5018 100.383 90.1643ZM102.552 82.4245C103.533 82.4245 104.441 82.6697 105.275 83.1602C106.116 83.6444 106.779 84.3037 107.263 85.1382C107.753 85.9727 107.999 86.8804 107.999 87.8615C107.999 88.594 107.852 89.2979 107.559 89.9732C107.272 90.6421 106.884 91.2217 106.393 91.7123C105.909 92.1964 105.33 92.585 104.654 92.878C103.985 93.1647 103.285 93.308 102.552 93.308C101.992 93.308 101.431 93.1997 100.87 92.9831C100.31 92.7665 99.8352 92.4576 99.4466 92.0562V97.1397H97.1151V82.7207H99.4466V83.6189C99.8289 83.2367 100.3 82.9436 100.861 82.7398C101.428 82.5296 101.992 82.4245 102.552 82.4245ZM113.417 90.6612V90.6803H114.296V93.0118H113.417C112.194 93.0118 111.229 92.62 110.522 91.8365C110.26 91.5498 110.044 91.2186 109.872 90.8427C109.7 90.4669 109.592 90.1324 109.547 89.8394C109.509 89.54 109.477 89.2565 109.451 88.989C109.426 88.7214 109.426 88.5558 109.451 88.4921V80.0165H111.793V82.7207H114.181V85.0426H111.793V88.6068C111.805 88.645 111.805 88.7469 111.793 88.9125C111.78 89.0718 111.812 89.2948 111.888 89.5814C111.971 89.8681 112.089 90.0974 112.242 90.2694C112.484 90.5306 112.875 90.6612 113.417 90.6612Z" fill="#10B100"/>
    <path d="M116.468 75.8645C116.48 75.8074 116.562 75.8074 116.575 75.8645L116.856 77.1152C117.036 77.9107 117.657 78.5319 118.452 78.7111L119.703 78.9929C119.76 79.0057 119.76 79.0871 119.703 79.1L118.452 79.3817C117.657 79.5609 117.036 80.1821 116.856 80.9776L116.575 82.2283C116.562 82.2854 116.48 82.2854 116.468 82.2283L116.186 80.9776C116.007 80.1821 115.385 79.5609 114.59 79.3817L113.339 79.1C113.282 79.0871 113.282 79.0057 113.339 78.9929L114.59 78.7111C115.385 78.5319 116.007 77.9107 116.186 77.1152L116.468 75.8645Z" fill="#10B100"/>
    <path d="M118.603 73.1306C118.61 73.1021 118.651 73.1021 118.657 73.1306L118.798 73.756C118.887 74.1537 119.198 74.4643 119.596 74.5539L120.221 74.6948C120.25 74.7012 120.25 74.7419 120.221 74.7484L119.596 74.8892C119.198 74.9788 118.887 75.2894 118.798 75.6872L118.657 76.3125C118.651 76.3411 118.61 76.3411 118.603 76.3125L118.463 75.6872C118.373 75.2894 118.062 74.9788 117.664 74.8892L117.039 74.7484C117.011 74.7419 117.011 74.7012 117.039 74.6948L117.664 74.5539C118.062 74.4643 118.373 74.1537 118.463 73.756L118.603 73.1306Z" fill="#10B100"/>
    <defs>
        <clipPath id="clip0_19_50">
            <rect width="35.03" height="34.0131" fill="white" transform="translate(42.8132 17.3018)"/>
        </clipPath>
    </defs>
</svg>
