<svg width="120" height="119" viewBox="0 0 120 119" fill="none" xmlns="http://www.w3.org/2000/svg">
    <g clip-path="url(#clip0_2938_6141)">
        <path d="M104.824 77.7173C102.402 76.4422 99.9813 75.1659 97.5633 73.8884C92.7037 71.3169 87.8405 68.7525 82.9986 66.1492C82.5062 65.8809 82.0933 65.4875 81.8015 65.0086C77.6337 57.8326 73.4837 50.6447 69.3514 43.4451C66.388 38.2998 63.4363 33.1509 60.4965 27.9985C60.3456 27.8039 60.1734 27.6268 59.9829 27.4708C59.8034 27.6386 59.6408 27.8236 59.4976 28.0233C53.0465 39.2089 46.5966 50.398 40.1478 61.5906C39.4394 62.848 38.7062 64.109 37.9589 65.3522C37.8046 65.6193 37.5821 65.8406 37.3142 65.9933C29.9941 69.8824 22.674 73.7621 15.3539 77.6323C15.2439 77.6649 15.1313 77.6886 15.0175 77.7031L59.9829 -0.000823975L104.92 77.5862L104.824 77.7173Z" fill="#10B100"/>
    </g>
    <path d="M59.9935 50.2422C60.0551 49.9686 60.4449 49.9686 60.5065 50.2422L61.7764 55.8783C62.592 59.4992 65.4199 62.3268 69.0412 63.1424L74.6777 64.412C74.9512 64.4736 74.9512 64.8633 74.6777 64.925L69.041 66.1945C65.4199 67.0102 62.592 69.8378 61.7764 73.4586L60.5065 79.0948C60.4449 79.3683 60.0551 79.3683 59.9935 79.0948L58.7238 73.4586C57.908 69.8378 55.0802 67.0102 51.459 66.1945L45.8224 64.925C45.5489 64.8634 45.5489 64.4736 45.8224 64.412L51.459 63.1424C55.0802 62.3268 57.908 59.4992 58.7238 55.8783L59.9935 50.2422Z" fill="#10B100"/>
    <path d="M113.893 89.0909C113.911 89.0087 114.029 89.0087 114.047 89.0909L114.453 90.8918C114.711 92.0372 115.606 92.9317 116.751 93.1898L118.552 93.5954C118.634 93.6139 118.634 93.7311 118.552 93.7496L116.751 94.1553C115.606 94.4133 114.711 95.3078 114.453 96.4533L114.047 98.2541C114.029 98.3363 113.911 98.3363 113.893 98.2541L113.487 96.4533C113.229 95.3078 112.335 94.4133 111.189 94.1553L109.388 93.7496C109.306 93.7311 109.306 93.6139 109.388 93.5954L111.189 93.1898C112.335 92.9317 113.229 92.0372 113.487 90.8918L113.893 89.0909Z" fill="#10B100"/>
    <path d="M116.968 85.1547C116.978 85.1136 117.036 85.1136 117.046 85.1547L117.248 86.0551C117.377 86.6278 117.825 87.0751 118.398 87.2041L119.298 87.4069C119.339 87.4162 119.339 87.4748 119.298 87.484L118.398 87.6869C117.825 87.8159 117.377 88.2631 117.248 88.8358L117.046 89.7363C117.036 89.7774 116.978 89.7774 116.968 89.7363L116.766 88.8358C116.637 88.2631 116.189 87.8159 115.616 87.6869L114.716 87.484C114.675 87.4748 114.675 87.4162 114.716 87.4069L115.616 87.2041C116.189 87.0751 116.637 86.6278 116.766 86.0551L116.968 85.1547Z" fill="#10B100"/>
    <path d="M13.9059 102.454H22.3013C21.9467 101.602 21.3861 100.916 20.6194 100.399C19.8623 99.8716 19.0285 99.6081 18.118 99.6081C17.198 99.6081 16.3546 99.8669 15.5879 100.384C14.8212 100.902 14.2605 101.592 13.9059 102.454ZM26.1253 103.518V105.588H13.7334C13.9922 106.633 14.5336 107.452 15.3579 108.047C16.1916 108.641 17.1117 108.938 18.118 108.938C19.2585 108.938 20.2792 108.535 21.18 107.73L21.3813 107.529L24.659 109.11C22.8093 111.334 20.629 112.446 18.118 112.446C17.0254 112.446 15.9808 112.23 14.9841 111.799C13.9874 111.367 13.1296 110.788 12.4108 110.059C11.692 109.331 11.117 108.464 10.6857 107.457C10.264 106.441 10.0532 105.382 10.0532 104.28C10.0532 102.795 10.4126 101.424 11.1314 100.169C11.8597 98.9133 12.8421 97.9213 14.0784 97.193C15.3147 96.4646 16.6613 96.1004 18.118 96.1004C20.1689 96.1004 21.9563 96.8096 23.4802 98.228C25.004 99.6368 25.8857 101.4 26.1253 103.518ZM34.5432 103.791L42.6799 112H37.8784L32.0705 106.106L31.6105 106.523V112H28.1028V90.3357H31.6105V101.937L37.2602 96.5173H42.0042L34.5432 103.791Z" fill="#222222"/>
    <path d="M56.6755 105.876C57.0493 106.7 57.1835 107.472 57.0781 108.19C56.9726 108.909 56.6755 109.551 56.1868 110.117C55.7076 110.682 55.1325 111.157 54.4617 111.54C53.8004 111.914 53.096 112.177 52.3484 112.331C51.7926 112.426 51.2798 112.474 50.8102 112.474C50.0723 112.474 49.3678 112.407 48.697 112.273C48.0261 112.149 47.4463 111.981 46.9575 111.77C46.4687 111.559 46.0135 111.329 45.5918 111.08C45.1797 110.831 44.8347 110.582 44.5568 110.332C44.2884 110.083 44.0584 109.853 43.8667 109.642C43.675 109.432 43.5361 109.259 43.4498 109.125L43.3348 108.938L46.3394 106.911C46.7706 107.62 47.3984 108.171 48.2226 108.564C49.0468 108.948 49.8998 109.139 50.7815 109.139C51.1648 109.139 51.5865 109.091 52.0465 108.995C52.6982 108.88 53.1487 108.655 53.3979 108.32C53.6375 107.956 53.6997 107.654 53.5847 107.414C53.2781 106.83 52.2286 106.384 50.4364 106.077C49.9668 105.972 49.5739 105.881 49.2576 105.804C48.951 105.718 48.5724 105.603 48.1219 105.459C47.6811 105.315 47.3025 105.157 46.9863 104.985C46.6796 104.812 46.3633 104.606 46.0375 104.366C45.7116 104.127 45.4289 103.844 45.1893 103.518C44.9593 103.192 44.7724 102.828 44.6286 102.426C44.322 101.506 44.3459 100.581 44.7005 99.6512C45.0551 98.7216 45.5918 97.9788 46.3106 97.423C47.5661 96.5221 49.0276 96.0717 50.6952 96.0717C51.2702 96.0717 51.8261 96.1339 52.3628 96.2585C52.8995 96.3831 53.3643 96.5508 53.7572 96.7617C54.1598 96.9629 54.5383 97.1882 54.8929 97.4373C55.2475 97.6769 55.5398 97.9213 55.7699 98.1705C56.0095 98.4101 56.2155 98.6353 56.388 98.8462C56.5605 99.0474 56.6851 99.2104 56.7618 99.335L56.8768 99.5218L54.3179 101.52L53.3979 100.543C53.3499 100.475 53.2349 100.375 53.0528 100.241C52.8707 100.097 52.5545 99.9435 52.104 99.7806C51.6536 99.6081 51.1744 99.5218 50.6665 99.5218C49.7464 99.5218 48.9893 99.7375 48.3951 100.169C48.2226 100.303 48.0788 100.48 47.9638 100.701C47.8584 100.921 47.8344 101.118 47.8919 101.29C47.9878 101.578 48.443 101.879 49.2576 102.196C49.5547 102.32 50.1825 102.488 51.1409 102.699C51.6201 102.785 52.0513 102.881 52.4347 102.986C52.818 103.082 53.2397 103.216 53.6997 103.389C54.1598 103.561 54.5623 103.758 54.9073 103.978C55.2619 104.189 55.5973 104.458 55.9136 104.783C56.2299 105.109 56.4839 105.473 56.6755 105.876ZM63.5264 107.687C64.4657 108.674 65.5534 109.168 66.7897 109.168C68.0261 109.168 69.1138 108.674 70.053 107.687C71.0018 106.7 71.4762 105.555 71.4762 104.251C71.4762 102.929 71.0018 101.774 70.053 100.787C69.1138 99.7998 68.0261 99.3062 66.7897 99.3062C65.5534 99.3062 64.4657 99.7998 63.5264 100.787C62.5872 101.774 62.1176 102.929 62.1176 104.251C62.1176 105.555 62.5872 106.7 63.5264 107.687ZM71.4762 97.9261V96.5173H74.9839V112H71.4762V110.649C70.8629 111.214 70.1393 111.655 69.3055 111.971C68.4813 112.288 67.6427 112.446 66.7897 112.446C65.3138 112.446 63.9481 112.081 62.6926 111.353C61.4372 110.615 60.4404 109.618 59.7025 108.363C58.9741 107.098 58.6099 105.727 58.6099 104.251C58.6099 102.766 58.9741 101.395 59.7025 100.14C60.4404 98.8845 61.4372 97.8926 62.6926 97.1642C63.9481 96.4358 65.3138 96.0717 66.7897 96.0717C67.6427 96.0717 68.4909 96.2346 69.3343 96.5604C70.1776 96.8767 70.8916 97.3319 71.4762 97.9261ZM82.0505 107.716C82.9897 108.703 84.0775 109.197 85.3138 109.197C86.5501 109.197 87.6379 108.703 88.5771 107.716C89.5259 106.729 90.0003 105.574 90.0003 104.251C90.0003 102.948 89.5259 101.803 88.5771 100.816C87.6379 99.8285 86.5501 99.335 85.3138 99.335C84.0775 99.335 82.9897 99.8285 82.0505 100.816C81.1113 101.803 80.6417 102.948 80.6417 104.251C80.6417 105.574 81.1113 106.729 82.0505 107.716ZM90.0003 97.9261V96.5173H93.508V96.9917V110.505C93.3642 112.029 92.9521 113.399 92.2716 114.616C91.6008 115.834 90.6568 116.806 89.4396 117.535C88.2321 118.263 86.8568 118.627 85.3138 118.627C84.5758 118.627 83.8283 118.503 83.0712 118.253C82.3236 118.014 81.6719 117.717 81.1161 117.362C80.5602 117.017 80.057 116.667 79.6066 116.313C79.1657 115.968 78.8303 115.671 78.6003 115.421L78.2553 115.062L81.4611 113.236C81.509 113.284 81.5713 113.351 81.648 113.438C81.7342 113.524 81.9115 113.677 82.1799 113.898C82.4482 114.118 82.7213 114.31 82.9993 114.473C83.2868 114.645 83.6414 114.798 84.0631 114.933C84.4848 115.076 84.9017 115.148 85.3138 115.148C86.3776 115.148 87.3599 114.727 88.2608 113.883C89.1713 113.049 89.7223 112.019 89.914 110.792C89.339 111.339 88.6394 111.751 87.8152 112.029C87.0005 112.307 86.1667 112.446 85.3138 112.446C84.2116 112.446 83.1526 112.23 82.1367 111.799C81.1304 111.367 80.2583 110.788 79.5203 110.059C78.792 109.321 78.2121 108.449 77.7809 107.443C77.3496 106.427 77.134 105.363 77.134 104.251C77.134 102.776 77.4982 101.41 78.2265 100.154C78.9645 98.8989 79.9612 97.907 81.2167 97.1786C82.4722 96.4406 83.8379 96.0717 85.3138 96.0717C86.1476 96.0717 86.991 96.2394 87.8439 96.5748C88.7065 96.9007 89.4252 97.3511 90.0003 97.9261ZM99.5107 102.454H107.906C107.552 101.602 106.991 100.916 106.224 100.399C105.467 99.8716 104.633 99.6081 103.723 99.6081C102.803 99.6081 101.959 99.8669 101.193 100.384C100.426 100.902 99.8653 101.592 99.5107 102.454ZM111.73 103.518V105.588H99.3382C99.597 106.633 100.138 107.452 100.963 108.047C101.796 108.641 102.717 108.938 103.723 108.938C104.863 108.938 105.884 108.535 106.785 107.73L106.986 107.529L110.264 109.11C108.414 111.334 106.234 112.446 103.723 112.446C102.63 112.446 101.586 112.23 100.589 111.799C99.5922 111.367 98.7344 110.788 98.0156 110.059C97.2968 109.331 96.7218 108.464 96.2905 107.457C95.8689 106.441 95.658 105.382 95.658 104.28C95.658 102.795 96.0174 101.424 96.7362 100.169C97.4646 98.9133 98.4469 97.9213 99.6832 97.193C100.92 96.4646 102.266 96.1004 103.723 96.1004C105.774 96.1004 107.561 96.8096 109.085 98.228C110.609 99.6368 111.491 101.4 111.73 103.518Z" fill="#10B100"/>
    <path d="M6.41233 108.384V108.415H8.15854V112.167H6.41233C4.44404 112.167 2.89093 111.536 1.75301 110.275C1.3327 109.814 0.984147 109.281 0.707355 108.676C0.430564 108.071 0.256288 107.533 0.184528 107.062C0.123018 106.58 0.0717607 106.124 0.0307546 105.693C-0.0102515 105.262 -0.0102515 104.996 0.0307546 104.893V90.425H3.79819V96.2685H8.13977V100.005H3.79819V105.078C3.81869 105.139 3.81869 105.303 3.79819 105.57C3.77769 105.826 3.82895 106.185 3.95196 106.646C4.08523 107.108 4.27489 107.477 4.52092 107.754C4.91048 108.174 5.54095 108.384 6.41233 108.384Z" fill="#222222"/>
    <defs>
        <clipPath id="clip0_2938_6141">
            <rect width="89.9202" height="87.3098" fill="white" transform="translate(15)"/>
        </clipPath>
    </defs>
</svg>
