<svg width="178" height="122" viewBox="0 0 178 122" fill="none" xmlns="http://www.w3.org/2000/svg">
    <path d="M5.94542 110.29C6.87026 111.262 7.94138 111.748 9.15877 111.748C10.3762 111.748 11.4473 111.262 12.3721 110.29C13.3064 109.318 13.7735 108.191 13.7735 106.907C13.7735 105.605 13.3064 104.468 12.3721 103.496C11.4473 102.524 10.3762 102.038 9.15877 102.038C7.94138 102.038 6.87026 102.524 5.94542 103.496C5.02057 104.468 4.55815 105.605 4.55815 106.907C4.55815 108.191 5.02057 109.318 5.94542 110.29ZM13.7735 100.679V99.2913H17.2276V114.537H13.7735V113.206C13.1696 113.763 12.4571 114.197 11.636 114.509C10.8244 114.82 9.99868 114.976 9.15877 114.976C7.70545 114.976 6.36065 114.617 5.12438 113.9C3.88811 113.173 2.90665 112.192 2.17999 110.956C1.46276 109.71 1.10415 108.36 1.10415 106.907C1.10415 105.444 1.46276 104.095 2.17999 102.859C2.90665 101.622 3.88811 100.646 5.12438 99.9283C6.36065 99.2111 7.70545 98.8525 9.15877 98.8525C9.99868 98.8525 10.8339 99.0129 11.6643 99.3338C12.4948 99.6452 13.1979 100.093 13.7735 100.679ZM32.8561 108.507C33.2241 109.318 33.3562 110.078 33.2524 110.786C33.1486 111.494 32.8561 112.126 32.3748 112.683C31.9029 113.239 31.3367 113.707 30.6761 114.084C30.0249 114.452 29.3313 114.712 28.5952 114.863C28.0478 114.957 27.5429 115.004 27.0805 115.004C26.3539 115.004 25.6602 114.938 24.9996 114.806C24.339 114.683 23.7681 114.518 23.2868 114.311C22.8055 114.103 22.3572 113.876 21.942 113.631C21.5362 113.386 21.1964 113.14 20.9228 112.895C20.6585 112.65 20.432 112.423 20.2433 112.216C20.0546 112.008 19.9177 111.838 19.8328 111.706L19.7195 111.522L22.6781 109.526C23.1028 110.224 23.7209 110.767 24.5325 111.154C25.3441 111.531 26.184 111.72 27.0522 111.72C27.4297 111.72 27.8449 111.673 28.2979 111.578C28.9396 111.465 29.3832 111.243 29.6286 110.913C29.8645 110.555 29.9258 110.257 29.8126 110.021C29.5106 109.446 28.4772 109.007 26.7125 108.705C26.2501 108.601 25.8631 108.511 25.5517 108.436C25.2497 108.351 24.8769 108.238 24.4334 108.096C23.9993 107.955 23.6265 107.799 23.3151 107.629C23.0131 107.459 22.7017 107.256 22.3808 107.02C22.06 106.784 21.7816 106.506 21.5456 106.185C21.3191 105.864 21.1351 105.506 20.9936 105.109C20.6916 104.203 20.7152 103.293 21.0643 102.377C21.4135 101.462 21.942 100.73 22.6498 100.183C23.886 99.296 25.3252 98.8525 26.9673 98.8525C27.5335 98.8525 28.0809 98.9138 28.6093 99.0365C29.1378 99.1592 29.5955 99.3243 29.9825 99.5319C30.3788 99.7301 30.7516 99.9519 31.1008 100.197C31.4499 100.433 31.7378 100.674 31.9643 100.919C32.2002 101.155 32.4031 101.377 32.573 101.585C32.7428 101.783 32.8655 101.943 32.941 102.066L33.0543 102.25L30.5345 104.218L29.6286 103.255C29.5814 103.189 29.4681 103.09 29.2888 102.958C29.1095 102.816 28.7981 102.665 28.3545 102.505C27.911 102.335 27.4391 102.25 26.939 102.25C26.033 102.25 25.2875 102.462 24.7024 102.887C24.5325 103.019 24.3909 103.194 24.2777 103.411C24.1739 103.628 24.1503 103.821 24.2069 103.991C24.3013 104.274 24.7495 104.571 25.5517 104.883C25.8443 105.006 26.4624 105.171 27.4061 105.378C27.878 105.463 28.3026 105.558 28.6801 105.661C29.0576 105.756 29.4728 105.888 29.9258 106.058C30.3788 106.228 30.7752 106.421 31.1149 106.638C31.4641 106.846 31.7944 107.11 32.1058 107.431C32.4172 107.752 32.6673 108.11 32.8561 108.507ZM41.3926 111.055V111.083H42.6949V114.537H41.3926C39.5806 114.537 38.1509 113.957 37.1034 112.796C36.7164 112.371 36.3956 111.88 36.1408 111.324C35.886 110.767 35.7255 110.271 35.6595 109.837C35.6029 109.394 35.5557 108.974 35.5179 108.577C35.4802 108.181 35.4802 107.936 35.5179 107.841V95.2852H38.9861V99.2913H42.525V102.731H38.9861V108.011C39.005 108.068 39.005 108.219 38.9861 108.464C38.9672 108.7 39.0144 109.03 39.1276 109.455C39.2503 109.88 39.4249 110.22 39.6514 110.474C40.01 110.861 40.5904 111.055 41.3926 111.055ZM48.1596 100.537C49.5846 99.414 51.2927 98.8525 53.284 98.8525V102.448C52.4724 102.401 51.7599 102.429 51.1464 102.533C50.533 102.637 50.047 102.783 49.6884 102.972C49.3392 103.161 49.0467 103.401 48.8107 103.694C48.5842 103.986 48.4285 104.26 48.3436 104.515C48.2587 104.77 48.1973 105.057 48.1596 105.378L48.1313 114.537H44.6773V99.2913H48.1596V100.537ZM56.965 99.9425C58.2013 99.2158 59.5461 98.8525 60.9994 98.8525C62.4527 98.8525 63.7975 99.2158 65.0338 99.9425C66.2795 100.66 67.261 101.636 67.9782 102.873C68.7049 104.109 69.0682 105.454 69.0682 106.907C69.0682 107.992 68.8511 109.035 68.417 110.036C67.9924 111.026 67.4167 111.885 66.69 112.612C65.9728 113.329 65.114 113.905 64.1137 114.339C63.1228 114.764 62.0847 114.976 60.9994 114.976C59.5461 114.976 58.2013 114.617 56.965 113.9C55.7288 113.173 54.7473 112.192 54.0206 110.956C53.3034 109.71 52.9448 108.36 52.9448 106.907C52.9448 105.454 53.3034 104.109 54.0206 102.873C54.7473 101.636 55.7288 100.66 56.965 99.9425ZM57.7436 110.149C58.6496 111.045 59.7348 111.494 60.9994 111.494C62.264 111.494 63.3493 111.045 64.2552 110.149C65.1612 109.252 65.6142 108.172 65.6142 106.907C65.6142 105.633 65.1612 104.548 64.2552 103.651C63.3493 102.755 62.264 102.306 60.9994 102.306C59.7348 102.306 58.6496 102.755 57.7436 103.651C56.8471 104.548 56.3988 105.633 56.3988 106.907C56.3988 108.162 56.8471 109.243 57.7436 110.149Z" fill="#222222"/>
    <path d="M76.274 110.319C77.1989 111.291 78.27 111.777 79.4874 111.777C80.7048 111.777 81.7759 111.286 82.7007 110.304C83.635 109.323 84.1022 108.191 84.1022 106.907C84.1022 105.624 83.635 104.496 82.7007 103.524C81.7759 102.552 80.7048 102.066 79.4874 102.066C78.27 102.066 77.1989 102.552 76.274 103.524C75.3492 104.496 74.8868 105.624 74.8868 106.907C74.8868 108.2 75.3492 109.337 76.274 110.319ZM79.4874 98.8525C80.9407 98.8525 82.2855 99.2158 83.5218 99.9425C84.7675 100.66 85.749 101.636 86.4662 102.873C87.1928 104.109 87.5562 105.454 87.5562 106.907C87.5562 107.992 87.3391 109.035 86.905 110.036C86.4803 111.026 85.9047 111.885 85.178 112.612C84.4608 113.329 83.602 113.905 82.6017 114.339C81.6108 114.764 80.5727 114.976 79.4874 114.976C78.6569 114.976 77.8264 114.815 76.996 114.495C76.1655 114.174 75.4624 113.716 74.8868 113.121V120.652H71.4328V99.2913H74.8868V100.622C75.453 100.056 76.1514 99.6216 76.9818 99.3196C77.8217 99.0082 78.6569 98.8525 79.4874 98.8525ZM93.4172 100.537C94.8422 99.414 96.5504 98.8525 98.5416 98.8525V102.448C97.73 102.401 97.0175 102.429 96.4041 102.533C95.7907 102.637 95.3047 102.783 94.946 102.972C94.5969 103.161 94.3043 103.401 94.0684 103.694C93.8419 103.986 93.6862 104.26 93.6012 104.515C93.5163 104.77 93.455 105.057 93.4172 105.378L93.3889 114.537H89.9349V99.2913H93.4172V100.537ZM102.223 99.9425C103.459 99.2158 104.804 98.8525 106.257 98.8525C107.71 98.8525 109.055 99.2158 110.291 99.9425C111.537 100.66 112.519 101.636 113.236 102.873C113.963 104.109 114.326 105.454 114.326 106.907C114.326 107.992 114.109 109.035 113.675 110.036C113.25 111.026 112.674 111.885 111.948 112.612C111.23 113.329 110.372 113.905 109.371 114.339C108.38 114.764 107.342 114.976 106.257 114.976C104.804 114.976 103.459 114.617 102.223 113.9C100.986 113.173 100.005 112.192 99.2783 110.956C98.561 109.71 98.2024 108.36 98.2024 106.907C98.2024 105.454 98.561 104.109 99.2783 102.873C100.005 101.636 100.986 100.66 102.223 99.9425ZM103.001 110.149C103.907 111.045 104.992 111.494 106.257 111.494C107.522 111.494 108.607 111.045 109.513 110.149C110.419 109.252 110.872 108.172 110.872 106.907C110.872 105.633 110.419 104.548 109.513 103.651C108.607 102.755 107.522 102.306 106.257 102.306C104.992 102.306 103.907 102.755 103.001 103.651C102.105 104.548 101.656 105.633 101.656 106.907C101.656 108.162 102.105 109.243 103.001 110.149ZM133.309 98.8525C135.357 98.8525 136.99 99.5084 138.207 100.82C139.425 102.122 140.033 103.807 140.033 105.874V114.537H136.579V105.874C136.579 105.279 136.504 104.76 136.353 104.317C136.202 103.873 136.013 103.529 135.787 103.283C135.56 103.028 135.291 102.826 134.98 102.675C134.668 102.524 134.38 102.424 134.116 102.377C133.861 102.33 133.592 102.306 133.309 102.306C133.045 102.306 132.79 102.33 132.545 102.377C132.299 102.415 132.026 102.505 131.724 102.646C131.431 102.778 131.172 102.958 130.945 103.184C130.728 103.401 130.535 103.708 130.365 104.104C130.204 104.501 130.11 104.963 130.082 105.492V105.845V114.537H126.628V105.845C126.628 105.345 126.585 104.897 126.5 104.501C126.425 104.104 126.312 103.783 126.161 103.538C126.019 103.283 125.859 103.071 125.679 102.901C125.509 102.731 125.307 102.608 125.071 102.533C124.844 102.448 124.627 102.391 124.419 102.363C124.212 102.325 123.985 102.306 123.74 102.306C122.608 102.306 121.72 102.665 121.079 103.382C120.437 104.09 120.116 105.072 120.116 106.327V114.537H116.662V99.2913H120.116V100.325C121.145 99.3432 122.353 98.8525 123.74 98.8525C125.892 98.8525 127.534 99.5791 128.666 101.032C129.799 99.5791 131.346 98.8525 133.309 98.8525ZM147.735 110.319C148.659 111.291 149.731 111.777 150.948 111.777C152.165 111.777 153.236 111.286 154.161 110.304C155.096 109.323 155.563 108.191 155.563 106.907C155.563 105.624 155.096 104.496 154.161 103.524C153.236 102.552 152.165 102.066 150.948 102.066C149.731 102.066 148.659 102.552 147.735 103.524C146.81 104.496 146.347 105.624 146.347 106.907C146.347 108.2 146.81 109.337 147.735 110.319ZM150.948 98.8525C152.401 98.8525 153.746 99.2158 154.982 99.9425C156.228 100.66 157.209 101.636 157.927 102.873C158.653 104.109 159.017 105.454 159.017 106.907C159.017 107.992 158.8 109.035 158.366 110.036C157.941 111.026 157.365 111.885 156.639 112.612C155.921 113.329 155.063 113.905 154.062 114.339C153.071 114.764 152.033 114.976 150.948 114.976C150.117 114.976 149.287 114.815 148.457 114.495C147.626 114.174 146.923 113.716 146.347 113.121V120.652H142.893V99.2913H146.347V100.622C146.914 100.056 147.612 99.6216 148.442 99.3196C149.282 99.0082 150.117 98.8525 150.948 98.8525ZM167.044 111.055V111.083H168.346V114.537H167.044C165.232 114.537 163.802 113.957 162.754 112.796C162.367 112.371 162.047 111.88 161.792 111.324C161.537 110.767 161.377 110.271 161.31 109.837C161.254 109.394 161.207 108.974 161.169 108.577C161.131 108.181 161.131 107.936 161.169 107.841V95.2852H164.637V99.2913H168.176V102.731H164.637V108.011C164.656 108.068 164.656 108.219 164.637 108.464C164.618 108.7 164.665 109.03 164.779 109.455C164.901 109.88 165.076 110.22 165.302 110.474C165.661 110.861 166.241 111.055 167.044 111.055Z" fill="#10B100"/>
    <path d="M171.563 88.7633C171.582 88.6787 171.702 88.6787 171.722 88.7633L172.139 90.6161C172.404 91.7946 173.325 92.7149 174.503 92.9804L176.356 93.3977C176.441 93.4168 176.441 93.5374 176.356 93.5564L174.503 93.9738C173.325 94.2393 172.404 95.1596 172.139 96.3381L171.722 98.1909C171.702 98.2755 171.582 98.2755 171.563 98.1909L171.145 96.3381C170.88 95.1596 169.96 94.2393 168.781 93.9738L166.928 93.5564C166.843 93.5374 166.843 93.4168 166.928 93.3977L168.781 92.9804C169.96 92.7149 170.88 91.7946 171.145 90.6161L171.563 88.7633Z" fill="#10B100"/>
    <path d="M174.727 84.7131C174.737 84.6708 174.797 84.6708 174.806 84.7131L175.015 85.6396C175.148 86.2288 175.608 86.689 176.197 86.8217L177.124 87.0304C177.166 87.0399 177.166 87.1002 177.124 87.1097L176.197 87.3184C175.608 87.4511 175.148 87.9113 175.015 88.5006L174.806 89.427C174.797 89.4693 174.737 89.4693 174.727 89.427L174.518 88.5006C174.386 87.9113 173.925 87.4511 173.336 87.3184L172.41 87.1097C172.367 87.1002 172.367 87.0399 172.41 87.0304L173.336 86.8217C173.925 86.689 174.386 86.2288 174.518 85.6396L174.727 84.7131Z" fill="#10B100"/>
    <g clip-path="url(#clip0_19_39)">
        <path d="M133.867 77.7864C131.442 76.5102 129.02 75.2327 126.599 73.9541C121.736 71.3804 116.868 68.8137 112.022 66.2081C111.529 65.9396 111.116 65.5458 110.824 65.0665C106.652 57.8841 102.499 50.6899 98.3626 43.4838C95.3965 38.3339 92.4422 33.1805 89.4998 28.0235C89.3488 27.8287 89.1764 27.6515 88.9857 27.4953C88.8061 27.6633 88.6434 27.8485 88.5 28.0484C82.0432 39.2439 75.5875 50.4429 69.133 61.6455C68.424 62.904 67.6902 64.1661 66.9422 65.4104C66.7878 65.6777 66.5651 65.8992 66.297 66.0521C58.9704 69.9446 51.6438 73.8277 44.3172 77.7013C44.207 77.734 44.0944 77.7577 43.9804 77.7722L88.9857 -0.000640869L133.963 77.6553L133.867 77.7864Z" fill="#10B100"/>
    </g>
    <path d="M89.1506 49.6004C89.1751 49.4915 89.3304 49.4915 89.3549 49.6004L90.7804 55.9277C91.5968 59.5518 94.4273 62.3819 98.0517 63.1982L104.38 64.6235C104.488 64.648 104.488 64.8033 104.38 64.8278L98.0516 66.2531C94.4273 67.0694 91.5968 69.8996 90.7804 73.5236L89.3549 79.8508C89.3304 79.9598 89.1751 79.9598 89.1506 79.8508L87.7252 73.5236C86.9087 69.8996 84.0784 67.0694 80.4539 66.2531L74.1261 64.8278C74.0171 64.8033 74.0171 64.648 74.1261 64.6235L80.4539 63.1982C84.0784 62.3819 86.9087 59.5518 87.7252 55.9277L89.1506 49.6004Z" fill="#10B100"/>
    <defs>
        <clipPath id="clip0_19_39">
            <rect width="90" height="87.3873" fill="white" transform="translate(43.9631 -3.05176e-05)"/>
        </clipPath>
    </defs>
</svg>
