<svg width="25" height="18" viewBox="0 0 25 18" fill="none" xmlns="http://www.w3.org/2000/svg">
    <path d="M2.65661 17.3544C1.46726 17.3544 0.5 16.3872 0.5 15.1978V2.80218C0.5 2.23439 0.719292 1.69873 1.11667 1.29367C1.52383 0.876036 2.07137 0.645569 2.65661 0.645569H22.3434C22.9293 0.645569 23.4769 0.876035 23.8854 1.29507C24.2814 1.69873 24.5 2.23439 24.5 2.80218V15.1978C24.5 16.3872 23.5327 17.3544 22.3434 17.3544H2.65661Z" fill="black"/>
    <path d="M23.8024 2.80225V15.1979C23.8024 16.0031 23.1494 16.6561 22.3442 16.6561H2.65671C1.85148 16.6561 1.19849 16.0031 1.19849 15.1979V2.80225C1.19849 2.40557 1.35702 2.0459 1.61542 1.78261C1.87941 1.51163 2.24886 1.34332 2.65741 1.34332H22.3442C22.7527 1.34332 23.1222 1.51163 23.3862 1.78261C23.6446 2.0459 23.8031 2.40557 23.8031 2.80225H23.8024Z" fill="#FA8C0B"/>
    <path d="M2.65656 17.3545C2.07062 17.3545 1.52308 17.124 1.11453 16.705C0.852634 16.4361 0.849841 16.0087 1.10824 15.7371L10.2305 6.12448C10.827 5.49594 11.6336 5.14954 12.5003 5.14954C13.367 5.14954 14.1729 5.49594 14.7701 6.12448L23.8924 15.7371C24.1508 16.0094 24.148 16.4368 23.8861 16.705C23.4775 17.124 22.93 17.3545 22.344 17.3545H2.65656Z" fill="black"/>
    <path d="M23.3855 16.2168C23.1215 16.4878 22.7521 16.6561 22.3435 16.6561H2.65674C2.24818 16.6561 1.87874 16.4878 1.61475 16.2168L10.7371 6.60426C11.6952 5.5944 13.305 5.5944 14.2632 6.60426L23.3855 16.2168Z" fill="#FFB829"/>
    <path d="M12.5003 12.8513C11.6336 12.8513 10.8277 12.5049 10.2305 11.8764L1.10824 2.26309C0.849841 1.99072 0.852634 1.56331 1.11453 1.29513C1.52308 0.876096 2.07062 0.64563 2.65656 0.64563H22.3433C22.9293 0.64563 23.4768 0.876096 23.8854 1.29513C24.1473 1.56401 24.1501 1.99142 23.8917 2.26309L14.7694 11.8757C14.1729 12.5042 13.367 12.8506 12.4996 12.8506L12.5003 12.8513Z" fill="black"/>
    <path d="M23.3855 1.78261L14.2632 11.3952C13.305 12.405 11.6953 12.405 10.7371 11.3952L1.61548 1.78261C1.87947 1.51163 2.24891 1.34332 2.65747 1.34332H22.3442C22.7528 1.34332 23.1222 1.51163 23.3862 1.78261H23.3855Z" fill="#FEDA2B"/>
</svg>
