<svg width="158" height="94" viewBox="0 0 158 94" fill="none" xmlns="http://www.w3.org/2000/svg">
    <path d="M174.75 68C174.75 84.9538 164.647 100.787 147.321 112.569C130.017 124.335 105.875 131.75 79 131.75C52.1249 131.75 27.9826 124.335 10.6791 112.569C-6.64682 100.787 -16.75 84.9538 -16.75 68C-16.75 51.0463 -6.64682 35.2128 10.6791 23.4312C27.9826 11.6648 52.1249 4.25 79 4.25C105.875 4.25 130.017 11.6648 147.321 23.4312C164.647 35.2128 174.75 51.0463 174.75 68Z" fill="#FFE1D4" stroke="#FFC4AA" stroke-width="8.5"/>
    <g clip-path="url(#clip0_19_2)">
        <path d="M88.3146 56.4089C87.619 51.3596 85.4418 46.6299 82.0583 42.8179C78.6748 39.0059 74.2369 36.2828 69.3059 34.9929C64.3748 33.703 59.1719 33.9042 54.3552 35.5711C49.5385 37.2381 45.3242 40.2958 42.2453 44.3578C39.1663 48.4197 37.361 53.3035 37.0575 58.3914C36.754 63.4794 37.9661 68.5431 40.5404 72.9422C43.1147 77.3414 46.9356 80.8784 51.52 83.106C56.1044 85.3337 61.2464 86.152 66.2959 85.4574C73.0674 84.5243 79.1911 80.9399 83.3202 75.4924C87.4493 70.045 89.2458 63.1807 88.3146 56.4089ZM42.4549 62.7327C41.9055 58.7144 42.5594 54.6234 44.334 50.9765C46.1085 47.3296 48.9242 44.2906 52.4252 42.2432C55.9262 40.1958 59.9555 39.2321 64.004 39.4737C68.0525 39.7152 71.9386 41.1513 75.1713 43.6005C78.404 46.0497 80.8383 49.402 82.1666 53.234C83.4949 57.0661 83.6576 61.2058 82.6342 65.1303C81.6109 69.0547 79.4473 72.5878 76.4168 75.2832C73.3864 77.9786 69.625 79.7154 65.608 80.274C62.9328 80.6508 60.2095 80.4956 57.5944 79.8171C54.9793 79.1387 52.524 77.9505 50.3694 76.3206C48.2147 74.6908 46.4032 72.6514 45.0388 70.3196C43.6744 67.9878 42.784 65.4095 42.4187 62.7327H42.4549Z" fill="#F6BC1A"/>
        <path opacity="0.3" d="M66.296 85.4576C71.5184 84.7336 76.393 82.4255 80.2625 78.8444C84.1319 75.2633 86.81 70.5816 87.9354 65.4309C89.0608 60.2801 88.5794 54.9081 86.5561 50.0395C84.5328 45.1709 81.065 41.04 76.6205 38.204C81.4485 42.5184 84.4757 48.492 85.0998 54.9368C85.724 61.3815 83.8994 67.825 79.9889 72.9857C76.0785 78.1464 70.3688 81.646 63.9955 82.7886C57.6222 83.9311 51.0524 82.6328 45.5928 79.1518C48.3784 81.6439 51.6736 83.4989 55.249 84.5879C58.8244 85.6769 62.5942 85.9737 66.296 85.4576Z" fill="white"/>
        <path d="M45.2911 30.3596L60.7929 43.7796L72.0285 26.6727L69.3252 23.541L68.3959 22.6238C66.7667 21.0127 65.0108 20.9523 62.8083 21.254L54.4449 22.3945C52.4838 22.66 49.3521 22.6117 48.109 24.5004C47.8238 25.0085 47.5719 25.5346 47.3548 26.0753L45.2911 30.3596Z" fill="#09A9D3"/>
        <path d="M47.4752 28.8329L52.0612 28.1994L49.0321 24.9288L47.4752 28.8329Z" fill="#8BCEE9"/>
        <path d="M50.7218 24.6934L56.0923 23.9512L53.582 27.6199L50.7218 24.6934Z" fill="#8BCEE9"/>
        <path d="M57.9567 23.6979L55.2654 27.7589L59.0489 31.6026L61.541 26.896L57.9567 23.6979Z" fill="#8BCEE9"/>
        <path d="M59.9119 23.0884L65.1616 22.3643L63.3634 26.2744L59.9119 23.0884Z" fill="#8BCEE9"/>
        <path d="M66.471 22.521L65.0409 26.413L69.5062 25.7976L66.471 22.521Z" fill="#8BCEE9"/>
        <path d="M48.0728 30.9027L56.762 38.6204C56.599 38.4816 56.6413 37.6971 56.587 37.4437C56.456 36.8658 56.2638 36.3034 56.0137 35.7662C55.5172 34.6859 54.8022 33.7203 53.9138 32.9301C52.3001 31.5281 50.2081 30.8019 48.0728 30.9027Z" fill="#8BCEE9"/>
        <path d="M54.5233 29.5209L60.2799 40.5393L62.8564 28.8632L59.3325 34.0887L54.5233 29.5209Z" fill="#8BCEE9"/>
        <path d="M69.3794 27.9459C69.3794 27.9459 63.0617 37.7032 63.0436 37.7394C63.2065 37.4859 62.9168 36.7679 62.8987 36.4601C62.8854 35.6203 63.0035 34.7835 63.2487 33.9801C63.5944 32.6554 64.2383 31.4274 65.1314 30.3898C66.4106 28.9114 67.4425 28.2356 69.3794 27.9459Z" fill="#8BCEE9"/>
        <path d="M119.922 57.7907C120.325 52.7106 119.214 47.6248 116.727 43.1763C114.241 38.7278 110.492 35.1163 105.953 32.7982C101.415 30.4801 96.2913 29.5596 91.2298 30.153C86.1683 30.7464 81.3964 32.827 77.5172 36.1319C73.638 39.4368 70.8257 43.8176 69.4358 48.7206C68.0459 53.6235 68.1407 58.8284 69.7084 63.6774C71.276 68.5265 74.2461 72.8019 78.2431 75.9633C82.2401 79.1246 87.0847 81.03 92.1645 81.4386C95.5399 81.7093 98.9357 81.3123 102.158 80.2702C105.38 79.2281 108.365 77.5615 110.942 75.3654C113.52 73.1694 115.64 70.4869 117.181 67.4714C118.721 64.4559 119.653 61.1663 119.922 57.7907ZM73.7482 54.1159C74.0742 50.0734 75.591 46.2183 78.107 43.0375C80.623 39.8567 84.0252 37.493 87.884 36.2448C91.7427 34.9967 95.8848 34.9202 99.787 36.0251C103.689 37.1299 107.176 39.3664 109.808 42.4522C112.44 45.5379 114.098 49.3344 114.573 53.3621C115.048 57.3897 114.319 61.4678 112.477 65.0811C110.636 68.6945 107.764 71.681 104.226 73.6634C100.688 75.6458 96.6421 76.5351 92.5989 76.219C87.1692 75.7849 82.1339 73.2131 78.5993 69.0686C75.0647 64.9242 73.3198 59.546 73.7482 54.1159Z" fill="#F6BC1A"/>
        <path opacity="0.3" d="M92.1824 81.4388C97.4424 81.8582 102.704 80.6529 107.257 77.9857C111.81 75.3185 115.435 71.3181 117.641 66.5249C119.848 61.7317 120.53 56.3768 119.595 51.1835C118.66 45.9903 116.154 41.2091 112.415 37.486C116.167 42.7386 117.812 49.2082 117.023 55.6152C116.235 62.0221 113.07 67.8998 108.156 72.0858C103.242 76.2717 96.9362 78.4611 90.4854 78.2209C84.0346 77.9807 77.9088 75.3284 73.3196 70.7885C75.5001 73.8287 78.3175 76.3566 81.5753 78.196C84.8331 80.0355 88.453 81.1421 92.1824 81.4388Z" fill="white"/>
        <path d="M83.4932 23.1186L95.7486 39.5557L110.4 25.2608L108.432 21.6403L107.72 20.5481C106.471 18.6232 104.776 18.1887 102.555 18.0077L94.1495 17.3258C92.1703 17.1689 89.117 16.4509 87.5119 18.0258C87.1223 18.4604 86.7615 18.9199 86.4318 19.4016L83.4932 23.1186Z" fill="#F49599"/>
        <g opacity="0.5">
            <path d="M85.9613 22.0927L90.5714 22.4547L88.3147 18.611L85.9613 22.0927Z" fill="white"/>
            <path d="M90.0163 18.7439L95.4169 19.1784L92.1826 22.2196L90.0163 18.7439Z" fill="white"/>
            <path d="M97.2994 19.3231L93.7936 22.7143L96.6658 27.2822L100.111 23.2152L97.2994 19.3231Z" fill="white"/>
            <path d="M99.3331 19.1482L104.619 19.5706L102.018 23.004L99.3331 19.1482Z" fill="white"/>
            <path d="M105.868 20.0109L103.629 23.4986L108.125 23.8546L105.868 20.0109Z" fill="white"/>
            <path d="M86.0941 24.241C86.0941 24.241 92.9127 33.6241 92.9248 33.6482C92.7981 33.4732 93.0032 32.7129 93.0093 32.4414C93.0043 31.8464 92.9355 31.2537 92.8041 30.6734C92.5505 29.5133 92.0594 28.4183 91.3619 27.4572C90.0858 25.7466 88.1988 24.5945 86.0941 24.241Z" fill="white"/>
            <path d="M92.6893 24.2772L95.9477 36.2732L100.974 25.4237L96.4063 29.7683L92.6893 24.2772Z" fill="white"/>
            <path d="M107.534 25.9487L99.2426 34.1491C99.4538 33.9379 99.3331 33.1716 99.3814 32.8699C99.5457 32.0466 99.8389 31.2544 100.25 30.5226C100.874 29.3036 101.768 28.2428 102.863 27.421C104.432 26.2323 105.585 25.7918 107.534 25.9487Z" fill="white"/>
        </g>
    </g>
    <defs>
        <clipPath id="clip0_19_2">
            <rect width="83" height="68.7051" fill="white" transform="translate(37 17)"/>
        </clipPath>
    </defs>
</svg>
