<svg width="120" height="119" viewBox="0 0 120 119" fill="none" xmlns="http://www.w3.org/2000/svg">
    <g clip-path="url(#clip0_149_1861)">
        <g filter="url(#filter0_f_149_1861)">
            <ellipse cx="18.1871" cy="50.7903" rx="45.2793" ry="27.6882" fill="#B8BC87"/>
        </g>
        <g filter="url(#filter1_f_149_1861)">
            <ellipse cx="83.7631" cy="21.2913" rx="35.5146" ry="14.5252" transform="rotate(-41.2647 83.7631 21.2913)" fill="#90C5DC"/>
        </g>
        <g filter="url(#filter2_f_149_1861)">
            <ellipse cx="75.8383" cy="57.4216" rx="47.2507" ry="30.2814" fill="url(#paint0_linear_149_1861)"/>
        </g>
        <g filter="url(#filter3_f_149_1861)">
            <ellipse cx="52.416" cy="8.06942" rx="45.1463" ry="27.6882" transform="rotate(-24.4435 52.416 8.06942)" fill="#FFBEE7"/>
        </g>
        <path d="M36.8441 68.8063H31.8152L44.5197 37.7119L57.3971 35.5662L59.5862 22.4312L61.9042 34.7935L74.8804 37.7119L61.9042 39.4667L59.5862 53.2479L36.8441 68.8063Z" fill="url(#paint1_linear_149_1861)" fill-opacity="0.4"/>
        <path d="M59.4416 22.5392C59.5025 22.2688 59.8877 22.2688 59.9487 22.5392L61.2826 28.4599C62.1309 32.2259 65.0722 35.1667 68.8385 36.015L74.7596 37.3487C75.03 37.4096 75.03 37.7949 74.7596 37.8558L68.8384 39.1895C65.0722 40.0378 62.1309 42.9788 61.2826 46.7447L59.9487 52.6653C59.8877 52.9357 59.5025 52.9357 59.4416 52.6653L58.1077 46.7447C57.2593 42.9788 54.3181 40.0378 50.5518 39.1895L44.6306 37.8558C44.3602 37.7949 44.3602 37.4096 44.6306 37.3487L50.5518 36.015C54.3181 35.1667 57.2593 32.2259 58.1077 28.4599L59.4416 22.5392Z" fill="white"/>
        <path d="M68.1625 19.3442C68.1777 19.2768 68.2738 19.2768 68.289 19.3442L68.6218 20.8213C68.8334 21.7607 69.5672 22.4944 70.5068 22.706L71.9839 23.0387C72.0513 23.0539 72.0513 23.15 71.9839 23.1652L70.5067 23.4979C69.5672 23.7095 68.8334 24.4432 68.6218 25.3827L68.289 26.8597C68.2738 26.9271 68.1777 26.9271 68.1625 26.8597L67.8298 25.3827C67.6181 24.4432 66.8844 23.7095 65.9449 23.4979L64.4677 23.1652C64.4003 23.15 64.4003 23.0539 64.4677 23.0387L65.9449 22.706C66.8844 22.4944 67.6181 21.7607 67.8298 20.8213L68.1625 19.3442Z" fill="white"/>
    </g>
    <rect x="21.9214" y="1" width="75.6276" height="75.6276" rx="20.2097" stroke="black" stroke-opacity="0.12" stroke-width="2"/>
    <path d="M113.893 89.091C113.911 89.0087 114.029 89.0087 114.047 89.091L114.453 90.8918C114.711 92.0373 115.606 92.9318 116.751 93.1898L118.552 93.5954C118.634 93.614 118.634 93.7312 118.552 93.7497L116.751 94.1553C115.606 94.4133 114.711 95.3079 114.453 96.4533L114.047 98.2541C114.029 98.3364 113.911 98.3364 113.893 98.2541L113.487 96.4533C113.229 95.3079 112.335 94.4133 111.189 94.1553L109.388 93.7497C109.306 93.7312 109.306 93.614 109.388 93.5954L111.189 93.1898C112.335 92.9318 113.229 92.0373 113.487 90.8918L113.893 89.091Z" fill="#1081DD"/>
    <path d="M116.968 85.1548C116.978 85.1137 117.036 85.1137 117.046 85.1548L117.248 86.0552C117.377 86.628 117.825 87.0752 118.398 87.2042L119.298 87.407C119.339 87.4163 119.339 87.4749 119.298 87.4842L118.398 87.687C117.825 87.816 117.377 88.2633 117.248 88.836L117.046 89.7364C117.036 89.7775 116.978 89.7775 116.968 89.7364L116.766 88.836C116.637 88.2633 116.189 87.816 115.616 87.687L114.716 87.4842C114.675 87.4749 114.675 87.4163 114.716 87.407L115.616 87.2042C116.189 87.0752 116.637 86.628 116.766 86.0552L116.968 85.1548Z" fill="#1081DD"/>
    <path d="M13.9059 102.454H22.3013C21.9467 101.602 21.3861 100.916 20.6194 100.399C19.8623 99.8716 19.0285 99.6081 18.118 99.6081C17.198 99.6081 16.3546 99.8669 15.5879 100.384C14.8212 100.902 14.2605 101.592 13.9059 102.454ZM26.1253 103.518V105.588H13.7334C13.9922 106.633 14.5336 107.452 15.3579 108.047C16.1916 108.641 17.1117 108.938 18.118 108.938C19.2585 108.938 20.2792 108.535 21.18 107.73L21.3813 107.529L24.659 109.11C22.8093 111.334 20.629 112.446 18.118 112.446C17.0254 112.446 15.9808 112.23 14.9841 111.799C13.9874 111.367 13.1296 110.788 12.4108 110.059C11.692 109.331 11.117 108.464 10.6857 107.457C10.264 106.441 10.0532 105.382 10.0532 104.28C10.0532 102.795 10.4126 101.424 11.1314 100.169C11.8597 98.9133 12.8421 97.9213 14.0784 97.193C15.3147 96.4646 16.6613 96.1004 18.118 96.1004C20.1689 96.1004 21.9563 96.8096 23.4802 98.228C25.004 99.6368 25.8857 101.4 26.1253 103.518ZM34.5432 103.791L42.6799 112H37.8784L32.0705 106.106L31.6105 106.523V112H28.1028V90.3357H31.6105V101.937L37.2602 96.5173H42.0042L34.5432 103.791Z" fill="#222222"/>
    <path d="M56.6755 105.876C57.0493 106.7 57.1835 107.472 57.0781 108.19C56.9726 108.909 56.6755 109.551 56.1868 110.117C55.7076 110.682 55.1325 111.157 54.4617 111.54C53.8004 111.914 53.096 112.177 52.3484 112.331C51.7926 112.426 51.2798 112.474 50.8102 112.474C50.0723 112.474 49.3678 112.407 48.697 112.273C48.0261 112.149 47.4463 111.981 46.9575 111.77C46.4687 111.559 46.0135 111.329 45.5918 111.08C45.1797 110.831 44.8347 110.582 44.5568 110.332C44.2884 110.083 44.0584 109.853 43.8667 109.642C43.675 109.432 43.5361 109.259 43.4498 109.125L43.3348 108.938L46.3394 106.911C46.7706 107.62 47.3984 108.171 48.2226 108.564C49.0468 108.948 49.8998 109.139 50.7815 109.139C51.1648 109.139 51.5865 109.091 52.0465 108.995C52.6982 108.88 53.1487 108.655 53.3979 108.32C53.6375 107.956 53.6997 107.654 53.5847 107.414C53.2781 106.83 52.2286 106.384 50.4364 106.077C49.9668 105.972 49.5739 105.881 49.2576 105.804C48.951 105.718 48.5724 105.603 48.1219 105.459C47.6811 105.315 47.3025 105.157 46.9863 104.985C46.6796 104.812 46.3633 104.606 46.0375 104.366C45.7116 104.127 45.4289 103.844 45.1893 103.518C44.9593 103.192 44.7724 102.828 44.6286 102.426C44.322 101.506 44.3459 100.581 44.7005 99.6512C45.0551 98.7216 45.5918 97.9788 46.3106 97.423C47.5661 96.5221 49.0276 96.0717 50.6952 96.0717C51.2702 96.0717 51.8261 96.1339 52.3628 96.2585C52.8995 96.3831 53.3643 96.5508 53.7572 96.7617C54.1598 96.9629 54.5383 97.1882 54.8929 97.4373C55.2475 97.6769 55.5398 97.9213 55.7699 98.1705C56.0095 98.4101 56.2155 98.6353 56.388 98.8462C56.5605 99.0474 56.6851 99.2104 56.7618 99.335L56.8768 99.5218L54.3179 101.52L53.3979 100.543C53.3499 100.475 53.2349 100.375 53.0528 100.241C52.8707 100.097 52.5545 99.9435 52.104 99.7806C51.6536 99.6081 51.1744 99.5218 50.6665 99.5218C49.7464 99.5218 48.9893 99.7375 48.3951 100.169C48.2226 100.303 48.0788 100.48 47.9638 100.701C47.8584 100.921 47.8344 101.118 47.8919 101.29C47.9878 101.578 48.443 101.879 49.2576 102.196C49.5547 102.32 50.1825 102.488 51.1409 102.699C51.6201 102.785 52.0513 102.881 52.4347 102.986C52.818 103.082 53.2397 103.216 53.6997 103.389C54.1598 103.561 54.5623 103.758 54.9073 103.978C55.2619 104.189 55.5973 104.458 55.9136 104.783C56.2299 105.109 56.4839 105.473 56.6755 105.876ZM63.5264 107.687C64.4657 108.674 65.5534 109.168 66.7897 109.168C68.0261 109.168 69.1138 108.674 70.053 107.687C71.0018 106.7 71.4762 105.555 71.4762 104.251C71.4762 102.929 71.0018 101.774 70.053 100.787C69.1138 99.7998 68.0261 99.3062 66.7897 99.3062C65.5534 99.3062 64.4657 99.7998 63.5264 100.787C62.5872 101.774 62.1176 102.929 62.1176 104.251C62.1176 105.555 62.5872 106.7 63.5264 107.687ZM71.4762 97.9261V96.5173H74.9839V112H71.4762V110.649C70.8629 111.214 70.1393 111.655 69.3055 111.971C68.4813 112.288 67.6427 112.446 66.7897 112.446C65.3138 112.446 63.9481 112.081 62.6926 111.353C61.4372 110.615 60.4404 109.618 59.7025 108.363C58.9741 107.098 58.6099 105.727 58.6099 104.251C58.6099 102.766 58.9741 101.395 59.7025 100.14C60.4404 98.8845 61.4372 97.8926 62.6926 97.1642C63.9481 96.4358 65.3138 96.0717 66.7897 96.0717C67.6427 96.0717 68.4909 96.2346 69.3343 96.5604C70.1776 96.8767 70.8916 97.3319 71.4762 97.9261ZM82.0505 107.716C82.9897 108.703 84.0775 109.197 85.3138 109.197C86.5501 109.197 87.6379 108.703 88.5771 107.716C89.5259 106.729 90.0003 105.574 90.0003 104.251C90.0003 102.948 89.5259 101.803 88.5771 100.816C87.6379 99.8285 86.5501 99.335 85.3138 99.335C84.0775 99.335 82.9897 99.8285 82.0505 100.816C81.1113 101.803 80.6417 102.948 80.6417 104.251C80.6417 105.574 81.1113 106.729 82.0505 107.716ZM90.0003 97.9261V96.5173H93.508V96.9917V110.505C93.3642 112.029 92.9521 113.399 92.2716 114.616C91.6008 115.834 90.6568 116.806 89.4396 117.535C88.2321 118.263 86.8568 118.627 85.3138 118.627C84.5758 118.627 83.8283 118.503 83.0712 118.253C82.3236 118.014 81.6719 117.717 81.1161 117.362C80.5602 117.017 80.057 116.667 79.6066 116.313C79.1657 115.968 78.8303 115.671 78.6003 115.421L78.2553 115.062L81.4611 113.236C81.509 113.284 81.5713 113.351 81.648 113.438C81.7342 113.524 81.9115 113.677 82.1799 113.898C82.4482 114.118 82.7213 114.31 82.9993 114.473C83.2868 114.645 83.6414 114.798 84.0631 114.933C84.4848 115.076 84.9017 115.148 85.3138 115.148C86.3776 115.148 87.3599 114.727 88.2608 113.883C89.1713 113.049 89.7223 112.019 89.914 110.792C89.339 111.339 88.6394 111.751 87.8152 112.029C87.0005 112.307 86.1667 112.446 85.3138 112.446C84.2116 112.446 83.1526 112.23 82.1367 111.799C81.1304 111.367 80.2583 110.788 79.5203 110.059C78.792 109.321 78.2121 108.449 77.7809 107.443C77.3496 106.427 77.134 105.363 77.134 104.251C77.134 102.776 77.4982 101.41 78.2265 100.154C78.9645 98.8989 79.9612 97.907 81.2167 97.1786C82.4722 96.4406 83.8379 96.0717 85.3138 96.0717C86.1476 96.0717 86.991 96.2394 87.8439 96.5748C88.7065 96.9007 89.4252 97.3511 90.0003 97.9261ZM99.5107 102.454H107.906C107.552 101.602 106.991 100.916 106.224 100.399C105.467 99.8716 104.633 99.6081 103.723 99.6081C102.803 99.6081 101.959 99.8669 101.193 100.384C100.426 100.902 99.8653 101.592 99.5107 102.454ZM111.73 103.518V105.588H99.3382C99.597 106.633 100.138 107.452 100.963 108.047C101.796 108.641 102.717 108.938 103.723 108.938C104.863 108.938 105.884 108.535 106.785 107.73L106.986 107.529L110.264 109.11C108.414 111.334 106.234 112.446 103.723 112.446C102.63 112.446 101.586 112.23 100.589 111.799C99.5922 111.367 98.7344 110.788 98.0156 110.059C97.2968 109.331 96.7218 108.464 96.2905 107.457C95.8689 106.441 95.658 105.382 95.658 104.28C95.658 102.795 96.0174 101.424 96.7362 100.169C97.4646 98.9133 98.4469 97.9213 99.6832 97.193C100.92 96.4646 102.266 96.1004 103.723 96.1004C105.774 96.1004 107.561 96.8096 109.085 98.228C110.609 99.6368 111.491 101.4 111.73 103.518Z" fill="#1081DD"/>
    <path d="M6.41239 108.384V108.415H8.1586V112.167H6.41239C4.4441 112.167 2.89099 111.536 1.75307 110.275C1.33276 109.814 0.984208 109.281 0.707416 108.676C0.430625 108.071 0.256349 107.533 0.184589 107.062C0.123079 106.58 0.0718217 106.124 0.0308156 105.693C-0.0101905 105.262 -0.0101905 104.996 0.0308156 104.893V90.4249H3.79825V96.2685H8.13983V100.005H3.79825V105.078C3.81876 105.139 3.81876 105.303 3.79825 105.57C3.77775 105.826 3.82901 106.185 3.95203 106.646C4.0853 107.108 4.27495 107.477 4.52099 107.754C4.91054 108.174 5.54101 108.384 6.41239 108.384Z" fill="#222222"/>
    <defs>
        <filter id="filter0_f_149_1861" x="-57.0922" y="-6.89795" width="150.559" height="115.376" filterUnits="userSpaceOnUse" color-interpolation-filters="sRGB">
            <feFlood flood-opacity="0" result="BackgroundImageFix"/>
            <feBlend mode="normal" in="SourceGraphic" in2="BackgroundImageFix" result="shape"/>
            <feGaussianBlur stdDeviation="15" result="effect1_foregroundBlur_149_1861"/>
        </filter>
        <filter id="filter1_f_149_1861" x="25.3932" y="-34.5579" width="116.74" height="111.698" filterUnits="userSpaceOnUse" color-interpolation-filters="sRGB">
            <feFlood flood-opacity="0" result="BackgroundImageFix"/>
            <feBlend mode="normal" in="SourceGraphic" in2="BackgroundImageFix" result="shape"/>
            <feGaussianBlur stdDeviation="15" result="effect1_foregroundBlur_149_1861"/>
        </filter>
        <filter id="filter2_f_149_1861" x="-1.41241" y="-2.85974" width="154.501" height="120.563" filterUnits="userSpaceOnUse" color-interpolation-filters="sRGB">
            <feFlood flood-opacity="0" result="BackgroundImageFix"/>
            <feBlend mode="normal" in="SourceGraphic" in2="BackgroundImageFix" result="shape"/>
            <feGaussianBlur stdDeviation="15" result="effect1_foregroundBlur_149_1861"/>
        </filter>
        <filter id="filter3_f_149_1861" x="-20.2617" y="-53.3071" width="145.355" height="122.753" filterUnits="userSpaceOnUse" color-interpolation-filters="sRGB">
            <feFlood flood-opacity="0" result="BackgroundImageFix"/>
            <feBlend mode="normal" in="SourceGraphic" in2="BackgroundImageFix" result="shape"/>
            <feGaussianBlur stdDeviation="15" result="effect1_foregroundBlur_149_1861"/>
        </filter>
        <linearGradient id="paint0_linear_149_1861" x1="75.8383" y1="13.4975" x2="84.1744" y2="87.62" gradientUnits="userSpaceOnUse">
            <stop stop-color="#83CCCF"/>
            <stop offset="1" stop-color="#4C9080"/>
        </linearGradient>
        <linearGradient id="paint1_linear_149_1861" x1="47.3132" y1="53.9996" x2="36.5357" y2="71.5335" gradientUnits="userSpaceOnUse">
            <stop stop-color="white"/>
            <stop offset="1" stop-color="#E9F6DC" stop-opacity="0"/>
        </linearGradient>
        <clipPath id="clip0_149_1861">
            <rect x="20.9214" width="77.6276" height="77.6276" rx="21.2097" fill="white"/>
        </clipPath>
    </defs>
</svg>
