<svg width="32" height="32" viewBox="0 0 32 32" fill="none" xmlns="http://www.w3.org/2000/svg">
    <path d="M16.0002 2.66663C13.5249 2.66663 11.1509 3.64996 9.40057 5.4003C7.65023 7.15064 6.6669 9.52461 6.6669 12V16.704C6.66709 16.9108 6.61916 17.1148 6.5269 17.3L4.23756 21.8773C4.12573 22.1009 4.07293 22.3494 4.08416 22.5992C4.0954 22.849 4.1703 23.0917 4.30176 23.3044C4.43321 23.5171 4.61686 23.6926 4.83525 23.8144C5.05365 23.9361 5.29953 24 5.54956 24H26.4509C26.7009 24 26.9468 23.9361 27.1652 23.8144C27.3836 23.6926 27.5672 23.5171 27.6987 23.3044C27.8302 23.0917 27.9051 22.849 27.9163 22.5992C27.9275 22.3494 27.8747 22.1009 27.7629 21.8773L25.4749 17.3C25.3822 17.115 25.3338 16.9109 25.3336 16.704V12C25.3336 9.52461 24.3502 7.15064 22.5999 5.4003C20.8496 3.64996 18.4756 2.66663 16.0002 2.66663ZM16.0002 28C15.1727 28.0004 14.3654 27.7442 13.6896 27.2666C13.0138 26.7889 12.5027 26.1135 12.2269 25.3333H19.7736C19.4977 26.1135 18.9867 26.7889 18.3109 27.2666C17.6351 27.7442 16.8278 28.0004 16.0002 28Z" fill="#10B100"/>
</svg>