<svg width="24" height="25" viewBox="0 0 24 25" fill="none" xmlns="http://www.w3.org/2000/svg">
    <path d="M7.58 4.58L6.15 3.15C3.75 4.98 2.17 7.8 2.03 11H4.03C4.10119 9.73189 4.45734 8.49615 5.07195 7.38465C5.68656 6.27316 6.54383 5.31451 7.58 4.58ZM19.97 11H21.97C21.82 7.8 20.24 4.98 17.85 3.15L16.43 4.58C17.4617 5.31812 18.3152 6.27783 18.9277 7.38872C19.5403 8.49962 19.8964 9.73355 19.97 11ZM18 11.5C18 8.43 16.36 5.86 13.5 5.18V4.5C13.5 3.67 12.83 3 12 3C11.17 3 10.5 3.67 10.5 4.5V5.18C7.63 5.86 6 8.42 6 11.5V16.5L4 18.5V19.5H20V18.5L18 16.5V11.5ZM12 22.5C12.14 22.5 12.27 22.49 12.4 22.46C13.05 22.32 13.58 21.88 13.84 21.28C13.94 21.04 13.99 20.78 13.99 20.5H9.99C10 21.6 10.89 22.5 12 22.5Z" fill="#10B100"/>
</svg>