<svg width="24" height="25" viewBox="0 0 24 25" fill="none" xmlns="http://www.w3.org/2000/svg">
    <path d="M10.5718 16.4357V14.6429H7.00041C6.81097 14.6429 6.62928 14.5676 6.49533 14.4336C6.36137 14.2997 6.28612 14.118 6.28612 13.9286C6.28612 13.7391 6.36137 13.5574 6.49533 13.4235C6.62928 13.2895 6.81097 13.2143 7.00041 13.2143H10.7004C10.8071 12.9147 10.9791 12.6426 11.2039 12.4178C11.4288 12.1929 11.7008 12.0209 12.0004 11.9143L15.929 10.4857C16.4019 10.3138 16.9203 10.3138 17.3933 10.4857L18.4504 10.8714V4.64286C18.4504 4.07454 18.2246 3.52949 17.8228 3.12763C17.4209 2.72576 16.8759 2.5 16.3075 2.5H4.85755C4.28923 2.5 3.74418 2.72576 3.34232 3.12763C2.94046 3.52949 2.71469 4.07454 2.71469 4.64286V20.3571C2.71469 20.9255 2.94046 21.4705 3.34232 21.8724C3.74418 22.2742 4.28923 22.5 4.85755 22.5H13.5147C12.5992 21.776 11.859 20.8546 11.3494 19.8046C10.8399 18.7545 10.574 17.6029 10.5718 16.4357ZM7.00041 6.07143H14.1433C14.3327 6.07143 14.5144 6.14668 14.6483 6.28064C14.7823 6.41459 14.8575 6.59627 14.8575 6.78571C14.8575 6.97515 14.7823 7.15684 14.6483 7.29079C14.5144 7.42475 14.3327 7.5 14.1433 7.5H7.00041C6.81097 7.5 6.62928 7.42475 6.49533 7.29079C6.36137 7.15684 6.28612 6.97515 6.28612 6.78571C6.28612 6.59627 6.36137 6.41459 6.49533 6.28064C6.62928 6.14668 6.81097 6.07143 7.00041 6.07143ZM7.00041 9.64286H14.1433C14.3327 9.64286 14.5144 9.71811 14.6483 9.85207C14.7823 9.98602 14.8575 10.1677 14.8575 10.3571C14.8575 10.5466 14.7823 10.7283 14.6483 10.8622C14.5144 10.9962 14.3327 11.0714 14.1433 11.0714H7.00041C6.81097 11.0714 6.62928 10.9962 6.49533 10.8622C6.36137 10.7283 6.28612 10.5466 6.28612 10.3571C6.28612 10.1677 6.36137 9.98602 6.49533 9.85207C6.62928 9.71811 6.81097 9.64286 7.00041 9.64286ZM9.14326 18.9286H7.00041C6.81097 18.9286 6.62928 18.8533 6.49533 18.7194C6.36137 18.5854 6.28612 18.4037 6.28612 18.2143C6.28612 18.0248 6.36137 17.8432 6.49533 17.7092C6.62928 17.5753 6.81097 17.5 7.00041 17.5H9.14326C9.3327 17.5 9.51438 17.5753 9.64834 17.7092C9.78229 17.8432 9.85755 18.0248 9.85755 18.2143C9.85755 18.4037 9.78229 18.5854 9.64834 18.7194C9.51438 18.8533 9.3327 18.9286 9.14326 18.9286ZM20.8147 13.2571L16.8861 11.8286C16.7292 11.7718 16.5573 11.7718 16.4004 11.8286L12.4718 13.2571C12.3338 13.3071 12.2145 13.3983 12.1301 13.5184C12.0458 13.6386 12.0005 13.7818 12.0004 13.9286V16.4357C12.0036 17.7305 12.404 18.9931 13.1473 20.0533C13.8907 21.1134 14.9414 21.92 16.1575 22.3643C16.3119 22.4266 16.4769 22.4581 16.6433 22.4571C16.8089 22.4569 16.9733 22.4279 17.129 22.3714C18.3452 21.925 19.3955 21.1169 20.1387 20.0557C20.8819 18.9945 21.2823 17.7312 21.2861 16.4357V13.9286C21.2861 13.7818 21.2408 13.6386 21.1564 13.5184C21.0721 13.3983 20.9527 13.3071 20.8147 13.2571ZM18.9361 16.5786L16.7933 18.7214C16.7269 18.7884 16.6479 18.8415 16.5608 18.8778C16.4738 18.914 16.3804 18.9327 16.2861 18.9327C16.1918 18.9327 16.0985 18.914 16.0114 18.8778C15.9244 18.8415 15.8454 18.7884 15.779 18.7214L14.3504 17.2929C14.2159 17.1584 14.1403 16.9759 14.1403 16.7857C14.1403 16.5955 14.2159 16.4131 14.3504 16.2786C14.4849 16.1441 14.6673 16.0685 14.8575 16.0685C15.0478 16.0685 15.2302 16.1441 15.3647 16.2786L16.2861 17.2071L17.9218 15.5643C18.0563 15.4298 18.2388 15.3542 18.429 15.3542C18.6192 15.3542 18.8016 15.4298 18.9361 15.5643C19.0706 15.6988 19.1462 15.8812 19.1462 16.0714C19.1462 16.2616 19.0706 16.4441 18.9361 16.5786Z" fill="#10B100"/>
</svg>