<svg width="71" height="70" viewBox="0 0 71 70" fill="none" xmlns="http://www.w3.org/2000/svg">
    <g clip-path="url(#clip0_535_1815)">
        <path d="M35.5004 0C24.6722 0 15.9358 18.7031 17.2072 24.0762C17.4533 24.9784 18.2737 25.6348 19.2173 25.6348H51.7834C52.7269 25.6348 53.5474 24.9784 53.7935 24.0762C55.0649 18.7031 46.3285 0 35.5004 0Z" fill="#06CCAB"/>
        <path d="M51.7831 25.6348H35.5V0C46.3281 0 55.0646 18.7031 53.7931 24.0762C53.547 24.9784 52.7266 25.6348 51.7831 25.6348Z" fill="#11A892"/>
        <path d="M39.6016 16.6797C40.7342 16.6797 41.6523 15.7615 41.6523 14.6289C41.6523 13.4963 40.7342 12.5781 39.6016 12.5781C38.4689 12.5781 37.5508 13.4963 37.5508 14.6289C37.5508 15.7615 38.4689 16.6797 39.6016 16.6797Z" fill="#0F9887"/>
        <path d="M37.5508 10.5273C37.5508 11.6756 36.6486 12.5781 35.5 12.5781C34.3514 12.5781 33.4492 11.6756 33.4492 10.5273C33.4492 9.37877 34.3514 8.47656 35.5 8.47656C36.6486 8.47656 37.5508 9.37877 37.5508 10.5273Z" fill="#11A892"/>
        <path d="M35.5 12.5781V8.47656C36.6486 8.47656 37.5508 9.37877 37.5508 10.5273C37.5508 11.6756 36.6486 12.5781 35.5 12.5781Z" fill="#0F9887"/>
        <path d="M6.65234 33.0859C5.51881 33.0859 4.60156 32.1687 4.60156 31.0352V26.9336C4.60156 25.8001 5.51881 24.8828 6.65234 24.8828C7.78588 24.8828 8.70312 25.8001 8.70312 26.9336V31.0352C8.70312 32.1687 7.78588 33.0859 6.65234 33.0859Z" fill="#FFA426"/>
        <path d="M47.8047 20.7812H23.1953C17.5352 20.7812 12.9414 25.375 12.9414 31.0352C12.9414 32.1835 13.8436 33.0859 14.9922 33.0859H56.0078C57.1564 33.0859 58.0586 32.1835 58.0586 31.0352C58.0586 25.375 53.4648 20.7812 47.8047 20.7812Z" fill="#8D5C4D"/>
        <path d="M64.3477 33.0859C63.2141 33.0859 62.2969 32.1687 62.2969 31.0352V26.9336C62.2969 25.8001 63.2141 24.8828 64.3477 24.8828C65.4812 24.8828 66.3984 25.8001 66.3984 26.9336V31.0352C66.3984 32.1687 65.4812 33.0859 64.3477 33.0859Z" fill="#FFA426"/>
        <path d="M58.0586 31.0352C58.0586 32.1835 57.1564 33.0859 56.0078 33.0859H35.5V20.7812H47.8047C53.4648 20.7812 58.0586 25.375 58.0586 31.0352Z" fill="#805142"/>
        <path d="M68.4492 28.9844H2.55078C1.40221 28.9844 0.5 29.8866 0.5 31.0352C0.5 36.7772 3.34361 42.2734 7.93764 45.7186L24.8361 64.627C25.2051 65.037 25.7793 65.2831 26.3537 65.2831H26.5176L35.5 64.5859L51.4551 63.3966C52.0702 63.3556 52.6444 63.0273 53.0137 62.4941L67.6152 40.7559C67.6152 40.7148 67.6152 40.7148 67.6562 40.6737C69.4201 37.7617 70.5 34.4393 70.5 31.0352C70.5 29.8866 69.5978 28.9844 68.4492 28.9844Z" fill="#704639"/>
        <path d="M70.5 31.0352C70.5 34.4393 69.4201 37.7617 67.6564 40.6737C67.6154 40.7147 67.6154 40.7147 67.6154 40.7559L53.0138 62.4941C52.6445 63.0273 52.0703 63.3556 51.4552 63.3966L35.5 64.5859V28.9844H68.4492C69.5978 28.9844 70.5 29.8866 70.5 31.0352Z" fill="#5E382C"/>
        <path d="M69.5922 46.0471L55.1465 64.2992C52.4806 67.8674 48.2148 70.0004 43.7033 70.0004H25.4102C19.6271 70.0004 13.9669 69.016 8.55273 66.801L10.3576 45.391C15.6484 39.3206 24.713 38.8694 30.5783 43.9964C31.5218 44.8168 32.7111 45.391 33.9826 45.391H40.9552C43.2521 45.391 45.0568 47.2367 45.0568 49.4926C45.0568 51.7484 43.2521 53.5941 40.9552 53.5941H29.1427C27.9941 53.5941 27.0919 54.4964 27.0919 55.6449C27.0919 56.7932 27.9941 57.6957 29.1427 57.6957H45.0568C46.7793 57.6957 48.4201 56.9983 49.5684 55.7678L63.5628 40.7152C65.1213 39.0745 67.7053 39.0745 69.3051 40.6742C70.7815 42.1098 70.9047 44.4475 69.5922 46.0471Z" fill="#FFDFB0"/>
        <path d="M40.9552 53.5938H35.5V45.3906H40.9552C43.2521 45.3906 45.0568 47.2363 45.0568 49.4922C45.0568 51.748 43.252 53.5938 40.9552 53.5938Z" fill="#FFC170"/>
        <path d="M69.5921 46.0471L55.1463 64.2992C52.4805 67.8674 48.2147 70.0004 43.7031 70.0004H35.5V57.6957H45.0568C46.7793 57.6957 48.4201 56.9983 49.5684 55.7678L63.5626 40.7152C65.1212 39.0745 67.7052 39.0745 69.3049 40.6742C70.7814 42.1098 70.9046 44.4475 69.5921 46.0471Z" fill="#FFC170"/>
        <path d="M6.65234 70C3.2598 70 0.5 67.2402 0.5 63.8477V47.4414C0.5 44.0489 3.2598 41.2891 6.65234 41.2891C10.0449 41.2891 12.8047 44.0489 12.8047 47.4414V63.8477C12.8047 67.2402 10.0449 70 6.65234 70Z" fill="#FFA426"/>
        <path d="M6.65234 28.984C3.2598 28.984 0.5 26.2242 0.5 22.8316C0.5 20.21 3.62225 15.4075 4.964 13.463C5.73305 12.3535 7.5715 12.3535 8.34055 13.463C9.68244 15.4075 12.8047 20.21 12.8047 22.8316C12.8047 26.2242 10.0449 28.984 6.65234 28.984Z" fill="#FFA426"/>
        <path d="M64.3477 28.984C60.9551 28.984 58.1953 26.2242 58.1953 22.8316C58.1953 20.21 61.3176 15.4075 62.6593 13.463C63.4284 12.3535 65.2668 12.3535 66.0359 13.463C67.3778 15.4075 70.5 20.21 70.5 22.8316C70.5 26.2242 67.7402 28.984 64.3477 28.984Z" fill="#FF873C"/>
    </g>
    <defs>
        <clipPath id="clip0_535_1815">
            <rect width="70" height="70" fill="white" transform="translate(0.5)"/>
        </clipPath>
    </defs>
</svg>
