<svg width="33" height="33" viewBox="0 0 33 33" fill="none" xmlns="http://www.w3.org/2000/svg">
    <path d="M23.7578 15.0039C18.9798 15.0039 15.0898 18.8919 15.0898 23.6699C15.0898 28.4479 18.9778 32.3379 23.7578 32.3379C28.5378 32.3379 32.4238 28.4499 32.4238 23.6719C32.4238 18.8939 28.5358 15.0039 23.7578 15.0039ZM23.7578 29.6719C23.2058 29.6719 22.7578 29.2239 22.7578 28.6719C22.7578 28.1199 23.2058 27.6719 23.7578 27.6719C24.3098 27.6719 24.7578 28.1199 24.7578 28.6719C24.7578 29.2239 24.3098 29.6719 23.7578 29.6719ZM25.7458 23.8819C25.3758 24.1659 24.7578 24.7759 24.7578 25.6839V26.0039C24.7578 26.5559 24.3098 27.0039 23.7578 27.0039C23.2058 27.0039 22.7578 26.5559 22.7578 26.0039V25.6839C22.7578 24.3939 23.4038 23.1579 24.5278 22.2959C24.8798 22.0259 25.0918 21.5839 25.0918 21.1159C25.0918 20.3199 24.4938 19.6719 23.7578 19.6719C23.0218 19.6719 22.4238 20.3199 22.4238 21.1159C22.4238 21.6679 21.9758 22.1159 21.4238 22.1159C20.8718 22.1159 20.4238 21.6679 20.4238 21.1159C20.4238 19.2159 21.9198 17.6719 23.7578 17.6719C25.5958 17.6719 27.0918 19.2179 27.0918 21.1159C27.0918 22.1999 26.5878 23.2339 25.7458 23.8819Z" fill="#85AF05"/>
    <path d="M23.7598 12.3398C23.9858 12.3398 24.1998 12.3398 24.4258 12.3538V12.3398H23.7598ZM0.425781 20.3398H12.9198C14.3598 15.6998 18.6658 12.3398 23.7598 12.3398H0.425781V20.3398Z" fill="#85AF05"/>
    <path d="M12.4258 23.6738C12.4258 23.4478 12.4258 23.2338 12.4398 23.0078H0.425781V28.6738C0.425781 30.6998 2.06578 32.3398 4.09178 32.3398H16.4518C13.9858 30.2598 12.4258 27.1398 12.4258 23.6738Z" fill="#85AF05"/>
    <path d="M20.7598 0.339844H4.09178C2.06578 0.339844 0.425781 1.97984 0.425781 4.00584V9.67184H24.4258V4.00584C24.4258 1.97984 22.7858 0.339844 20.7598 0.339844ZM5.09178 7.00584C3.98578 7.00584 3.09178 6.11184 3.09178 5.00584C3.09178 3.89984 3.98578 3.00584 5.09178 3.00584C6.19778 3.00584 7.09178 3.89984 7.09178 5.00584C7.09178 6.11384 6.19778 7.00584 5.09178 7.00584ZM11.7598 7.00584C10.6538 7.00584 9.75978 6.11184 9.75978 5.00584C9.75978 3.89984 10.6538 3.00584 11.7598 3.00584C12.8658 3.00584 13.7598 3.89984 13.7598 5.00584C13.7598 6.11384 12.8658 7.00584 11.7598 7.00584ZM18.4258 7.00584C17.3198 7.00584 16.4258 6.11184 16.4258 5.00584C16.4258 3.89984 17.3198 3.00584 18.4258 3.00584C19.5318 3.00584 20.4258 3.89984 20.4258 5.00584C20.4258 6.11384 19.5318 7.00584 18.4258 7.00584Z" fill="#85AF05"/>
</svg>
