<svg width="41" height="41" viewBox="0 0 41 41" fill="none" xmlns="http://www.w3.org/2000/svg">
    <g clip-path="url(#clip0_19_624)">
        <path d="M30.8855 35.3785C30.5306 35.7334 30.0662 35.9106 29.6019 35.9106C29.1367 35.9106 28.6715 35.7334 28.3173 35.3785C29.0264 36.0876 29.0264 37.2369 28.3173 37.9467C27.9632 38.3009 27.498 38.4788 27.0328 38.4788C26.5684 38.4788 26.1041 38.3009 25.7491 37.9467L24.5684 36.766C25.2775 37.4751 25.2775 38.6252 24.5684 39.3342C24.2143 39.6884 23.7491 39.8662 23.2848 39.8662C22.8204 39.8662 22.356 39.6883 22.0011 39.335V39.3342H22.0003C17.8909 42.4135 9.00953 31.9982 6.61281 29.0349L5.70898 24.9166L11.1584 18.5423C15.0619 17.6248 18.748 18.2188 18.748 18.2188L25.4578 22.4393L30.8855 32.8103C31.5946 33.5194 31.5946 34.6695 30.8855 35.3785Z" fill="#FFCBBE"/>
        <path d="M22.0003 39.3344C17.8908 42.4137 9.00951 31.9983 6.61279 29.035L7.5842 26.7919C11.074 31.8527 16.1243 37.2362 19.1005 36.4338L22.0003 39.3344Z" fill="#EAAC9D"/>
        <path d="M34.5984 28.3219C34.3368 29.1202 34.1967 29.8913 34.5252 30.5634V30.5641C33.0483 32.7147 31.4041 33.6072 31.3581 33.6322C31.2792 33.3312 31.1215 33.0462 30.8857 32.8105L21.4813 23.406C20.3183 23.794 19.0805 24.833 18.1799 25.7166C17.738 26.1497 17.1593 26.3709 16.5767 26.3709C16.1002 26.3709 15.6213 26.2228 15.2141 25.9219C15.1835 25.8994 15.1529 25.876 15.1239 25.8519C15.1231 25.8511 15.1223 25.8502 15.1215 25.8494C14.299 25.175 14.0422 24.0136 14.5251 23.0551C16.4768 19.1782 19.7106 17.5468 20.7102 17.1194C20.9042 17.0366 21.1134 16.9963 21.3242 17.0044C22.2932 17.039 23.2518 17.2337 24.1629 17.5211C27.243 18.4901 29.7863 20.5166 30.3786 21.0124C30.9074 22.3991 34.7359 23.0865 35.317 24.4506C35.804 25.5927 35.033 26.9939 34.5984 28.3219Z" fill="#A55E4D"/>
        <path d="M34.5247 30.5633V30.5641C33.0479 32.7147 31.4036 33.6072 31.3577 33.6322C31.2788 33.3311 31.1211 33.0462 30.8853 32.8104L25.1807 27.1058C27.1879 29.1131 31.5307 29.9711 33.5388 28.4933C33.8076 28.2961 34.1706 28.2511 34.5979 28.3219C34.3364 29.1202 34.1964 29.8913 34.5247 30.5633Z" fill="#904F40"/>
        <path d="M15.1215 25.8494C14.299 25.175 14.0422 24.0136 14.5251 23.0551C16.4768 19.1782 19.7106 17.5468 20.7102 17.1194C20.9042 17.0366 21.1134 16.9963 21.3242 17.0044C22.2932 17.039 23.2518 17.2337 24.1629 17.5211C19.8861 17.5235 13.8659 24.6156 15.1215 25.8494Z" fill="#904F40"/>
        <path d="M31.1987 34.959C31.1174 35.1095 31.0127 35.2512 30.8856 35.3783C30.5307 35.7333 30.0663 35.9104 29.602 35.9104C29.1368 35.9104 28.6716 35.7333 28.3174 35.3783L22.3184 29.3792C22.581 28.9072 23.2223 28.8176 23.6042 29.1996L29.0498 34.6459C29.4039 35.0008 29.8691 35.1779 30.3343 35.1779C30.632 35.178 30.9298 35.1055 31.1987 34.959Z" fill="#EAAC9D"/>
        <path d="M24.9112 38.86C24.8251 39.0314 24.7116 39.1915 24.5692 39.334C24.2151 39.6882 23.7499 39.866 23.2847 39.866C22.8203 39.866 22.3559 39.6881 22.001 39.334L17.1245 34.4568C17.7071 34.0857 18.4693 34.1693 18.9576 34.6577L22.8179 38.5179C23.172 38.8721 23.6372 39.05 24.1015 39.05C24.3793 39.05 24.6569 38.9864 24.9112 38.86Z" fill="#EAAC9D"/>
        <path d="M28.6169 37.5497C28.538 37.6922 28.4375 37.8257 28.3167 37.9465C27.9618 38.3007 27.4974 38.4786 27.033 38.4786C26.5679 38.4786 26.1026 38.3007 25.7485 37.9465L20.2627 32.4597C20.6872 32.0982 21.3182 32.1236 21.7124 32.5179L25.2639 36.0697L26.4438 37.2504C26.7987 37.6053 27.2631 37.7824 27.7283 37.7824C28.035 37.7823 28.3417 37.705 28.6169 37.5497Z" fill="#EAAC9D"/>
        <path d="M34.956 31.4357C33.0951 27.7109 31.4189 23.8421 29.9741 19.9367C31.6847 18.6972 33.6037 17.8657 35.678 17.4655C37.539 21.1904 39.2152 25.0593 40.66 28.9646C38.9494 30.204 37.0303 31.0355 34.956 31.4357Z" fill="#9DC6FB"/>
        <path d="M40.66 28.9645C38.9416 30.2106 37.0406 31.0342 34.9562 31.436C34.4694 30.4609 33.9973 29.48 33.5391 28.4935C35.7102 28.0714 37.6943 27.2195 39.4916 25.9366C39.8952 26.9403 40.2849 27.9495 40.66 28.9645Z" fill="#80B4FB"/>
        <path d="M6.36406 29.5384C4.28984 29.1382 2.37078 28.3068 0.660156 27.0672C2.10484 23.162 3.78102 19.2931 5.64211 15.5682C7.71633 15.9684 9.63539 16.7998 11.346 18.0393C9.90125 21.9447 8.22508 25.8136 6.36406 29.5384Z" fill="#80CB8E"/>
        <path d="M0.660156 27.0673C2.37852 28.3134 4.27953 29.1369 6.36398 29.5387C6.85078 28.5637 7.32281 27.5828 7.78109 26.5962C5.61 26.1742 3.62586 25.3223 1.82859 24.0394C1.425 25.043 1.03523 26.0523 0.660156 27.0673Z" fill="#6EC17D"/>
        <path d="M20.6602 19.0234C10.2973 15.2198 9.08297 7.1329 10.9929 3.8715C12.3112 1.62064 15.3533 1.09189 17.8441 2.50876C17.847 2.5104 17.8503 2.51212 17.8533 2.51423C17.8763 2.5272 17.8998 2.54064 17.9229 2.55447C17.9262 2.55611 17.9296 2.55822 17.933 2.56033C19.016 3.19978 19.9884 4.21158 20.6602 5.61462C22.5219 1.72759 26.6898 0.842436 29.124 2.56033C29.6024 2.8979 30.0138 3.33603 30.3274 3.8715C32.2373 7.1329 31.023 15.2198 20.6602 19.0234Z" fill="#DD636E"/>
        <path d="M20.6602 19.0234C10.2973 15.2198 9.08297 7.1329 10.9929 3.8715C12.3112 1.62064 15.3533 1.09189 17.8441 2.50876C15.2221 1.0672 11.1855 6.90119 14.3637 11.6464C16.8305 15.3294 20.6602 19.0234 20.6602 19.0234Z" fill="#DA4A54"/>
    </g>
    <defs>
        <clipPath id="clip0_19_624">
            <rect width="40" height="40" fill="white" transform="translate(0.660156 0.810669)"/>
        </clipPath>
    </defs>
</svg>
