<svg width="33" height="26" viewBox="0 0 33 26" fill="none" xmlns="http://www.w3.org/2000/svg">
    <g clip-path="url(#clip0_678_1624)">
        <path d="M20.1804 14.9315C19.9196 13.0381 19.1032 11.2644 17.8343 9.83492C16.5655 8.40542 14.9013 7.38425 13.0522 6.90054C11.203 6.41683 9.25196 6.49229 7.44569 7.11739C5.63942 7.74249 4.05907 8.88915 2.90446 10.4124C1.74985 11.9356 1.07285 13.767 0.959044 15.675C0.845241 17.583 1.29976 19.4819 2.26511 21.1315C3.23047 22.7812 4.66332 24.1076 6.38247 24.943C8.10163 25.7784 10.0299 26.0852 11.9234 25.8247C14.4628 25.4748 16.7591 24.1307 18.3075 22.0879C19.856 20.0451 20.5296 17.471 20.1804 14.9315ZM2.98306 17.303C2.77703 15.7961 3.02224 14.262 3.68771 12.8944C4.35318 11.5268 5.40905 10.3872 6.72193 9.61941C8.03481 8.85166 9.54579 8.49025 11.064 8.58084C12.5822 8.67143 14.0394 9.20996 15.2517 10.1284C16.464 11.0468 17.3768 12.304 17.8749 13.741C18.3731 15.178 18.4341 16.7304 18.0503 18.2021C17.6665 19.6737 16.8552 20.9987 15.7188 22.0094C14.5824 23.0202 13.1719 23.6715 11.6655 23.881C10.6623 24.0223 9.64102 23.9641 8.66037 23.7096C7.67972 23.4552 6.75898 23.0096 5.95099 22.3984C5.143 21.7872 4.46369 21.0225 3.95204 20.1481C3.44039 19.2736 3.10648 18.3068 2.96948 17.303H2.98306Z" fill="#F6BC1A"/>
        <path opacity="0.3" d="M11.9234 25.8236C13.8818 25.5521 15.7098 24.6866 17.1608 23.3437C18.6118 22.0008 19.6161 20.2451 20.0381 18.3136C20.4602 16.3821 20.2796 14.3676 19.5209 12.5418C18.7622 10.7161 17.4617 9.16703 15.7951 8.10352C17.6056 9.72142 18.7408 11.9615 18.9748 14.3783C19.2089 16.7951 18.5246 19.2114 17.0582 21.1467C15.5918 23.0819 13.4507 24.3943 11.0607 24.8227C8.67071 25.2512 6.20702 24.7643 4.15967 23.459C5.20426 24.3935 6.43996 25.0891 7.78075 25.4975C9.12153 25.9059 10.5352 26.0172 11.9234 25.8236Z" fill="white"/>
        <path d="M4.04688 5.16323L9.86004 10.1957L14.0734 3.78065L13.0597 2.60625L12.7112 2.2623C12.1002 1.65813 11.4417 1.63551 10.6158 1.74865L7.47956 2.17632C6.74415 2.27588 5.56975 2.25778 5.10361 2.96604C4.99665 3.15658 4.90217 3.35386 4.82076 3.55663L4.04688 5.16323Z" fill="#09A9D3"/>
        <path d="M4.86572 4.58904L6.58546 4.35144L5.44953 3.125L4.86572 4.58904Z" fill="#8BCEE9"/>
        <path d="M6.08301 3.03809L8.09691 2.75977L7.15558 4.13556L6.08301 3.03809Z" fill="#8BCEE9"/>
        <path d="M8.79632 2.66406L7.78711 4.18694L9.20589 5.62835L10.1404 3.86335L8.79632 2.66406Z" fill="#8BCEE9"/>
        <path d="M9.5293 2.4356L11.4979 2.16406L10.8236 3.63037L9.5293 2.4356Z" fill="#8BCEE9"/>
        <path d="M11.9894 2.22266L11.4531 3.68217L13.1276 3.45136L11.9894 2.22266Z" fill="#8BCEE9"/>
        <path d="M5.08984 5.36674L8.3483 8.26088C8.2872 8.20884 8.30304 7.91467 8.28267 7.81964C8.23356 7.60291 8.16149 7.39204 8.06771 7.19058C7.88151 6.78547 7.61339 6.42335 7.28025 6.12705C6.6751 5.60128 5.8906 5.32897 5.08984 5.36674Z" fill="#8BCEE9"/>
        <path d="M7.50879 4.84821L9.66751 8.98011L10.6337 4.60156L9.31225 6.56116L7.50879 4.84821Z" fill="#8BCEE9"/>
        <path d="M13.0796 4.25781C13.0796 4.25781 10.7104 7.91678 10.7036 7.93036C10.7647 7.83532 10.6561 7.56605 10.6493 7.45064C10.6443 7.13569 10.6886 6.82189 10.7806 6.52063C10.9102 6.02388 11.1517 5.56335 11.4865 5.17425C11.9663 4.61986 12.3532 4.36643 13.0796 4.25781Z" fill="#8BCEE9"/>
        <path d="M32.033 15.4494C32.1843 13.5444 31.7675 11.6372 30.8351 9.96903C29.9028 8.30084 28.4968 6.94651 26.7949 6.07723C25.093 5.20796 23.1716 4.86276 21.2735 5.08528C19.3755 5.30779 17.586 6.08804 16.1313 7.32738C14.6766 8.56672 13.622 10.2095 13.1008 12.0481C12.5796 13.8867 12.6151 15.8386 13.203 17.6569C13.7909 19.4753 14.9046 21.0786 16.4035 22.2641C17.9024 23.4496 19.7191 24.1642 21.624 24.3174C22.8898 24.4189 24.1632 24.27 25.3715 23.8792C26.5797 23.4885 27.6992 22.8635 28.6658 22.0399C29.6324 21.2164 30.4273 20.2105 31.0051 19.0797C31.5828 17.9489 31.9321 16.7153 32.033 15.4494ZM14.7179 14.0714C14.8402 12.5554 15.409 11.1098 16.3525 9.91698C17.296 8.72418 18.5718 7.83777 20.0188 7.36972C21.4659 6.90168 23.0192 6.873 24.4825 7.2873C25.9458 7.70161 27.2535 8.54032 28.2404 9.69747C29.2272 10.8546 29.849 12.2783 30.0272 13.7887C30.2053 15.299 29.9318 16.8283 29.2413 18.1833C28.5507 19.5383 27.474 20.6583 26.1473 21.4017C24.8205 22.1451 23.3032 22.4786 21.787 22.36C19.7508 22.1973 17.8626 21.2328 16.5371 19.6786C15.2116 18.1245 14.5573 16.1077 14.7179 14.0714Z" fill="#F6BC1A"/>
        <path opacity="0.3" d="M21.6307 24.3183C23.6032 24.4755 25.5764 24.0235 27.2838 23.0233C28.9911 22.0232 30.3503 20.523 31.1777 18.7255C32.0051 16.9281 32.2609 14.92 31.9104 12.9725C31.5599 11.0251 30.6201 9.23213 29.2179 7.83594C30.625 9.80569 31.2417 12.2318 30.946 14.6344C30.6503 17.037 29.4637 19.2411 27.6209 20.8109C25.7781 22.3806 23.4133 23.2016 20.9943 23.1115C18.5752 23.0215 16.2781 22.0268 14.5571 20.3244C15.3748 21.4645 16.4313 22.4124 17.653 23.1022C18.8747 23.792 20.2321 24.207 21.6307 24.3183Z" fill="white"/>
        <path d="M18.3726 2.44671L22.9683 8.61061L28.4624 3.25001L27.7248 1.89232L27.4578 1.48275C26.9894 0.760915 26.3535 0.597991 25.5208 0.530107L22.3687 0.274408C21.6265 0.215575 20.4815 -0.0536994 19.8796 0.536895C19.7335 0.699857 19.5982 0.872198 19.4745 1.05282L18.3726 2.44671Z" fill="#F49599"/>
        <g opacity="0.5">
            <path d="M19.2979 2.0615L21.0266 2.19727L20.1803 0.755859L19.2979 2.0615Z" fill="white"/>
            <path d="M20.8184 0.804688L22.8436 0.96761L21.6307 2.10807L20.8184 0.804688Z" fill="white"/>
            <path d="M23.5496 1.02344L22.2349 2.29514L23.312 4.00809L24.604 2.48295L23.5496 1.02344Z" fill="white"/>
            <path d="M24.3125 0.957031L26.2947 1.11543L25.3195 2.40297L24.3125 0.957031Z" fill="white"/>
            <path d="M26.7628 1.28125L25.9233 2.58916L27.6091 2.72266L26.7628 1.28125Z" fill="white"/>
            <path d="M19.3477 2.86719C19.3477 2.86719 21.9046 6.38586 21.9092 6.39491C21.8616 6.32929 21.9386 6.04418 21.9408 5.94235C21.939 5.71923 21.9132 5.49696 21.8639 5.27935C21.7688 4.84431 21.5847 4.43367 21.3231 4.07327C20.8445 3.43182 20.1369 2.99978 19.3477 2.86719Z" fill="white"/>
            <path d="M21.8208 2.88086L23.0427 7.37933L24.9276 3.31079L23.2147 4.94002L21.8208 2.88086Z" fill="white"/>
            <path d="M27.3874 3.50756L24.2783 6.58272C24.3575 6.50352 24.3123 6.21615 24.3304 6.103C24.392 5.79427 24.502 5.49721 24.6562 5.22277C24.8902 4.76565 25.2253 4.36788 25.636 4.05968C26.2243 3.61391 26.6565 3.44872 27.3874 3.50756Z" fill="white"/>
        </g>
    </g>
    <defs>
        <clipPath id="clip0_678_1624">
            <rect width="31.125" height="25.7644" fill="white" transform="translate(0.9375 0.152344)"/>
        </clipPath>
    </defs>
</svg>
