<svg width="48" height="48" viewBox="0 0 48 48" fill="none" xmlns="http://www.w3.org/2000/svg">
    <g clip-path="url(#clip0_535_2068)">
        <path d="M5.5231 33.4235L4.31588 30.5518H3.83419C0.774755 35.988 -0.580964 40.8254 0.231474 44.0363L3.50279 40.8075C3.16022 39.1946 3.801 36.7808 5.24504 33.8939L5.5231 33.4235Z" fill="#FFE02F"/>
        <path d="M1.56254 42.7225L3.50279 40.8075C3.16023 39.1946 3.80101 36.7808 5.24504 33.8939L5.5231 33.4235L4.31588 30.5518H3.8342C2.94732 32.1276 2.20473 33.6525 1.61551 35.1027C0.596727 38.2879 0.522008 40.9526 1.56254 42.7225Z" fill="#FBC700"/>
        <path d="M30.5515 3.83409V4.28812L33.3382 5.47931L33.8937 5.24502C37.0199 3.68127 39.5914 3.05943 41.1918 3.60852L44.4814 0.36168C41.2821 -0.705664 36.2453 0.629712 30.5515 3.83409Z" fill="#FFE02F"/>
        <path d="M33.8936 5.24531C37.0198 3.68156 39.5912 3.05971 41.1916 3.60881L43.044 1.78049C41.2786 0.517963 38.468 0.536901 35.0655 1.63068C33.6264 2.21746 32.1138 2.95509 30.5514 3.83437V4.2884L33.3381 5.47959L33.8936 5.24531Z" fill="#FBC700"/>
        <path d="M41.7941 12.9615L31.8895 5.76952L31.4929 4.16518C31.1812 4.04762 30.8674 3.9369 30.5516 3.83452C30.5523 3.83405 30.5531 3.83368 30.5538 3.83321C29.5832 3.51868 28.6157 3.27765 27.6553 3.10449V3.10609L24.0511 4.16518L4.51306 18.3733L2.8265 22.3815L2.82519 22.3822C2.69487 24.1283 2.78553 25.9277 3.12275 27.7521L3.12415 27.7516L4.17097 28.1117L11.3179 39.0897L10.9902 40.7408C11.2815 40.9678 11.5772 41.1879 11.8786 41.3984L14.7948 41.555L21.4381 36.7435L31.6847 27.5585L41.9661 13.4317L41.7941 12.9615Z" fill="#FF9838"/>
        <path d="M3.12415 27.7516L4.17097 28.1118L11.3179 39.0897L10.9902 40.7408C11.2815 40.9678 11.5772 41.1879 11.8786 41.3984L14.7948 41.5551L19.4728 38.1669C13.4673 34.0012 9.53365 27.0587 9.53365 19.1963C9.53365 17.534 9.71103 15.9133 10.0451 14.3506L4.51306 18.3735L2.8265 22.3817L2.82519 22.3824C2.69487 24.1285 2.78553 25.928 3.12275 27.7523L3.12415 27.7516Z" fill="#FF8706"/>
        <path d="M37.3126 36.2082L44.0907 28.8355L44.997 27.1839L44.9971 27.184C45.469 24.0845 45.2479 20.7825 44.1663 17.4453L43.0685 17.608L33.7243 29.7445L24.8591 37.5306L37.3126 36.2082Z" fill="#FF9838"/>
        <path d="M24.9622 7.62671C26.2291 6.35977 27.1529 4.80183 27.6552 3.10524C15.0747 0.836396 3.72585 10.3412 2.82642 22.3806L5.91942 19.2876C7.74463 17.4624 10.1629 16.358 12.7129 16.1851C15.2629 16.0122 17.6812 14.9078 19.5064 13.0826L24.9622 7.62671Z" fill="#FFAA5B"/>
        <path d="M9.6502 16.8654C10.0904 12.4754 11.7623 8.44911 14.3137 5.13477C7.94029 8.45492 3.38292 14.9321 2.82642 22.381L5.91942 19.288C6.98976 18.2177 8.26495 17.3975 9.6502 16.8654Z" fill="#FF9838"/>
        <path d="M41.3979 11.8788C40.9738 11.2716 40.514 10.6851 40.024 10.1202L39.1812 9.9062L35.7205 6.70295L35.5585 6.22285C35.0223 5.87335 34.4676 5.54654 33.8955 5.24438C33.8949 5.24466 33.8942 5.24495 33.8936 5.24532C33.1121 4.83263 32.31 4.4732 31.4929 4.16504L31.3986 4.73082C31.0031 7.10382 29.876 9.29382 28.1749 10.9949L22.1813 16.9886C20.1761 18.9938 17.5031 20.1907 14.6718 20.3509C11.8406 20.5112 9.16755 21.708 7.16233 23.7131L3.12415 27.7513C3.29599 28.6804 3.52877 29.6156 3.8329 30.554C3.83327 30.5531 3.83374 30.5525 3.83411 30.5516C4.03183 31.1617 4.25871 31.7642 4.51296 32.3577H4.95565L7.88927 36.8519L7.90127 37.7931C8.83821 38.8845 9.87546 39.8723 10.9901 40.7404L18.4271 33.3034C19.493 32.2374 20.2589 30.9091 20.6473 29.4525L21.2542 27.1769C21.6427 25.7203 22.4084 24.392 23.4744 23.326L27.8321 18.9684C28.8747 17.9257 30.1689 17.1698 31.5893 16.7737L40.0604 14.4114L40.8472 14.1796L41.6526 12.575L41.3979 11.8788Z" fill="#FFAA5B"/>
        <path d="M3.83421 30.5517C4.03193 31.1617 4.2588 31.7643 4.51305 32.3578H4.95574L7.88936 36.852L7.90136 37.7931C8.8383 38.8846 9.87555 39.8723 10.9901 40.7404L16.2561 35.4745C12.679 31.8816 10.2795 27.1165 9.68149 21.8057C8.76536 22.319 7.91655 22.9588 7.16233 23.713L3.12415 27.7512C3.29599 28.6803 3.52877 29.6155 3.8329 30.5539C3.83327 30.5532 3.83374 30.5524 3.83421 30.5517Z" fill="#FF9838"/>
        <path d="M14.4582 31.2366C15.3782 30.3166 16.046 29.1754 16.3974 27.9227C16.9165 26.0721 15.2108 24.3664 13.3602 24.8855C12.1075 25.2368 10.9662 25.9046 10.0463 26.8246L4.51306 32.3578C4.73562 32.8773 4.979 33.3899 5.24506 33.8938C5.24478 33.8945 5.2445 33.895 5.24412 33.8957C5.98916 35.3067 6.88653 36.6107 7.90128 37.7933L14.4582 31.2366Z" fill="#FFBA7E"/>
        <path d="M5.24412 33.8951C5.98916 35.3061 6.88653 36.6101 7.90128 37.7927L13.5251 32.1689C12.3019 30.3734 11.3263 28.3961 10.6455 26.2861C10.4371 26.4544 10.2367 26.6334 10.0463 26.8238L4.51306 32.357C4.73562 32.8765 4.979 33.3891 5.24506 33.8931C5.24478 33.8939 5.2445 33.8944 5.24412 33.8951Z" fill="#FFAA5B"/>
        <path d="M35.5585 6.22266L34.6873 8.84475C34.2798 10.0712 35.3837 11.2657 36.6384 10.9559L40.0239 10.12C38.7417 8.64197 37.2424 7.32009 35.5585 6.22266Z" fill="#FFBA7E"/>
        <path d="M38.43 33.7516C36.9266 35.2549 34.9098 36.1333 32.7852 36.2102L28.2881 36.3727L26.5613 36.6753L17.4454 43.4359V44.1669C30.5742 48.4219 43.1417 39.369 44.997 27.1846L38.43 33.7516Z" fill="#FFAA5B"/>
        <path d="M32.6067 42.269C28.8998 42.269 25.3977 41.3934 22.2941 39.8398L17.4457 43.4356V44.1667C23.7978 46.2254 30.0185 45.1686 34.9581 42.1493C34.1847 42.2277 33.4006 42.269 32.6067 42.269Z" fill="#FF9838"/>
        <path d="M43.8788 0.194336L40.5689 3.46115C41.2233 3.55743 41.7606 3.79912 42.1602 4.19868C45.1988 7.2373 39.164 18.1987 28.6811 28.6816C18.1982 39.1644 7.2368 45.1992 4.19818 42.1606C3.71218 41.6746 3.45933 40.9851 3.41864 40.1281L0.102051 43.4016C0.296676 44.6388 0.771801 45.6712 1.55021 46.4496C6.22768 51.127 20.0704 44.8678 32.4689 32.4694C44.8673 20.0709 51.1266 6.22799 46.4491 1.55052C45.7732 0.87468 44.9055 0.427867 43.8788 0.194336Z" fill="#FFE02F"/>
        <path d="M43.5732 2.22551C43.2786 1.93076 42.9423 1.6857 42.5704 1.48535L40.5689 3.46085C41.2234 3.55713 41.7607 3.79882 42.1602 4.19838C45.1988 7.23701 39.1641 18.1984 28.6811 28.6813C18.1982 39.1641 7.23675 45.1989 4.19812 42.1603C3.71212 41.6743 3.45928 40.9849 3.41859 40.1278L1.30481 42.2141C1.53 42.733 1.83347 43.1906 2.22075 43.5779C6.49359 47.8507 19.2143 42.0574 30.6336 30.6382C42.0528 19.2192 47.8461 6.49835 43.5732 2.22551Z" fill="#FBC700"/>
    </g>
    <defs>
        <clipPath id="clip0_535_2068">
            <rect width="48" height="48" fill="white"/>
        </clipPath>
    </defs>
</svg>
