<svg width="20" height="21" viewBox="0 0 20 21" fill="none" xmlns="http://www.w3.org/2000/svg">
    <path d="M18.0917 17.4085L15 14.3418C16.2001 12.8455 16.7813 10.9462 16.624 9.03458C16.4668 7.12292 15.5831 5.34415 14.1546 4.06403C12.7261 2.78392 10.8615 2.09976 8.9441 2.15222C7.0267 2.20469 5.20227 2.9898 3.84595 4.34612C2.48963 5.70243 1.70452 7.52686 1.65206 9.44427C1.59959 11.3617 2.28375 13.2263 3.56387 14.6548C4.84398 16.0832 6.62275 16.9669 8.53441 17.1242C10.4461 17.2814 12.3453 16.7002 13.8417 15.5002L16.9083 18.5668C16.9858 18.6449 17.078 18.7069 17.1795 18.7492C17.2811 18.7915 17.39 18.8133 17.5 18.8133C17.61 18.8133 17.7189 18.7915 17.8205 18.7492C17.922 18.7069 18.0142 18.6449 18.0917 18.5668C18.2419 18.4114 18.3258 18.2038 18.3258 17.9877C18.3258 17.7715 18.2419 17.5639 18.0917 17.4085ZM9.16667 15.5002C8.01294 15.5002 6.88512 15.158 5.92584 14.5171C4.96655 13.8761 4.21888 12.9651 3.77737 11.8992C3.33586 10.8332 3.22034 9.66036 3.44542 8.5288C3.6705 7.39725 4.22607 6.35785 5.04187 5.54204C5.85768 4.72624 6.89708 4.17066 8.02864 3.94558C9.16019 3.7205 10.3331 3.83602 11.399 4.27753C12.4649 4.71904 13.3759 5.46672 14.0169 6.426C14.6579 7.38529 15 8.51311 15 9.66683C15 11.2139 14.3854 12.6977 13.2915 13.7916C12.1975 14.8856 10.7138 15.5002 9.16667 15.5002Z" fill="black" fill-opacity="0.6"/>
</svg>
