<svg width="32" height="33" viewBox="0 0 32 33" fill="none" xmlns="http://www.w3.org/2000/svg">
    <path d="M15.879 2.10212C15.939 2.02041 16.061 2.02041 16.121 2.10212L19.651 6.91507C20.0151 7.4115 20.6023 7.69429 21.2174 7.66943L27.1813 7.42851C27.2826 7.42442 27.3586 7.51983 27.3321 7.61764L28.1525 7.84008L27.3321 7.61764L25.7702 13.3784C25.609 13.9725 25.7541 14.6079 26.157 15.0734L30.0638 19.5859C30.1301 19.6625 30.103 19.7815 30.01 19.8218L24.5322 22.1923C23.9672 22.4368 23.5608 22.9464 23.4482 23.5516L22.356 29.4196C22.3374 29.5192 22.2275 29.5721 22.138 29.5245L16.8693 26.7198C16.3259 26.4305 15.6741 26.4305 15.1307 26.7198L9.86197 29.5245C9.77252 29.5721 9.66256 29.5192 9.64402 29.4196L8.55182 23.5516C8.43917 22.9464 8.03281 22.4368 7.46781 22.1923L1.99002 19.8218C1.89702 19.7815 1.86986 19.6625 1.93619 19.5859L1.29357 19.0295L1.93619 19.5859L5.84297 15.0734C6.24593 14.6079 6.39095 13.9725 6.22985 13.3784L4.66787 7.61764C4.64135 7.51983 4.71744 7.42442 4.8187 7.42851L10.7826 7.66943C11.3977 7.69429 11.9849 7.4115 12.349 6.91507L15.879 2.10212Z" fill="#10B100" stroke="#10B100" stroke-width="1.7"/>
    <path d="M15.1936 9.59941C15.5932 9.05464 16.4068 9.05465 16.8064 9.59941L18.0108 11.2416C18.2076 11.5099 18.525 11.6628 18.8575 11.6493L20.8923 11.5671C21.5674 11.5398 22.0746 12.1759 21.8979 12.828L21.3649 14.7935C21.2778 15.1147 21.3562 15.4582 21.574 15.7097L22.907 17.2494C23.3492 17.7601 23.1682 18.5534 22.5481 18.8217L20.6792 19.6305C20.3738 19.7627 20.1541 20.0381 20.0932 20.3652L19.7206 22.3673C19.5969 23.0315 18.8639 23.3845 18.2675 23.0671L16.4699 22.1101C16.1761 21.9538 15.8239 21.9538 15.5301 22.1101L13.7325 23.0671C13.1361 23.3845 12.4031 23.0315 12.2794 22.3673L11.9068 20.3652C11.8459 20.0381 11.6262 19.7627 11.3208 19.6305L9.45186 18.8217C8.83184 18.5534 8.65079 17.7601 9.09299 17.2494L10.426 15.7097C10.6438 15.4582 10.7222 15.1147 10.6351 14.7935L10.1021 12.828C9.92535 12.1759 10.4326 11.5398 11.1077 11.5671L13.1425 11.6493C13.475 11.6628 13.7924 11.5099 13.9892 11.2416L15.1936 9.59941Z" fill="white"/>
</svg>
