<svg width="32" height="33" viewBox="0 0 32 33" fill="none" xmlns="http://www.w3.org/2000/svg">
    <path d="M26.516 17.2079L28.324 18.8179C28.6579 19.0965 28.881 19.4855 28.9529 19.9144C29.0248 20.3432 28.9407 20.7837 28.716 21.1559L26.536 24.8799C26.3669 25.165 26.1254 25.4003 25.836 25.5619C25.5433 25.7239 25.2146 25.8099 24.88 25.8119C24.6725 25.8132 24.466 25.7822 24.268 25.7199L21.954 24.9559C21.5487 25.2159 21.1273 25.4486 20.69 25.6539L20.204 27.9999C20.1141 28.4315 19.8738 28.8171 19.526 29.0879C19.1738 29.3636 18.7372 29.5092 18.29 29.4999H13.776C13.3288 29.5092 12.8922 29.3636 12.54 29.0879C12.193 28.8167 11.9534 28.4312 11.864 27.9999L11.376 25.6539C10.9444 25.4458 10.5256 25.2121 10.122 24.9539L7.8 25.7199C7.60201 25.7822 7.39554 25.8132 7.188 25.8119C6.85412 25.8095 6.52615 25.7236 6.234 25.5619C5.94488 25.4008 5.70341 25.1663 5.534 24.8819L3.276 21.1559C3.04126 20.7803 2.95156 20.3319 3.02372 19.8949C3.09589 19.4579 3.32496 19.0622 3.668 18.7819L5.474 16.4999V15.7919L3.666 14.1819C3.33213 13.9033 3.10904 13.5144 3.03714 13.0855C2.96523 12.6566 3.04926 12.2162 3.274 11.8439L5.532 8.11993C5.70113 7.83486 5.94262 7.59958 6.232 7.43793C6.52415 7.27627 6.85212 7.19032 7.186 7.18793C7.39167 7.17495 7.5981 7.19384 7.798 7.24393L10.074 8.04393C10.4807 7.78393 10.902 7.55126 11.338 7.34593L11.826 4.99993C11.9154 4.56866 12.155 4.18312 12.502 3.91193C12.8542 3.63622 13.2908 3.49067 13.738 3.49993H18.214C18.6612 3.49067 19.0978 3.63622 19.45 3.91193C19.8 4.18593 20.04 4.57193 20.126 4.99993L20.614 7.34593C21.0473 7.55259 21.4653 7.78593 21.868 8.04593L24.192 7.28193C24.4499 7.19802 24.7225 7.16856 24.9924 7.19541C25.2623 7.22227 25.5237 7.30485 25.76 7.43793C26.05 7.60193 26.29 7.83793 26.46 8.11793L28.716 11.8439C28.9539 12.2164 29.0482 12.6627 28.9812 13.0995C28.9142 13.5363 28.6906 13.9339 28.352 14.2179L26.516 15.7819V17.2079Z" fill="#10B100"/>
    <path d="M21 16.5C21 17.8261 20.4732 19.0979 19.5355 20.0355C18.5979 20.9732 17.3261 21.5 16 21.5C14.6739 21.5 13.4021 20.9732 12.4645 20.0355C11.5268 19.0979 11 17.8261 11 16.5C11 15.1739 11.5268 13.9021 12.4645 12.9645C13.4021 12.0268 14.6739 11.5 16 11.5C17.3261 11.5 18.5979 12.0268 19.5355 12.9645C20.4732 13.9021 21 15.1739 21 16.5Z" fill="white"/>
</svg>
