<svg width="20" height="19" viewBox="0 0 20 19" fill="none" xmlns="http://www.w3.org/2000/svg">
    <path d="M18.0012 8.58678L2.40099 1.24553C2.2439 1.17162 2.06907 1.14378 1.89679 1.16525C1.72452 1.18672 1.56187 1.25662 1.42773 1.36683C1.29359 1.47705 1.19346 1.62305 1.13898 1.78789C1.0845 1.95273 1.0779 2.12964 1.11994 2.29809L2.23214 6.7478L9.35132 9.41726L2.23214 12.0867L1.11994 16.5364C1.07711 16.705 1.08316 16.8823 1.13739 17.0475C1.19162 17.2128 1.29178 17.3592 1.42616 17.4696C1.56054 17.58 1.72359 17.6499 1.89622 17.671C2.06885 17.6922 2.24394 17.6637 2.40099 17.589L18.0012 10.2477C18.1588 10.1736 18.2921 10.0562 18.3855 9.90912C18.4788 9.76206 18.5284 9.59146 18.5284 9.41726C18.5284 9.24306 18.4788 9.07246 18.3855 8.9254C18.2921 8.77834 18.1588 8.66089 18.0012 8.58678Z" fill="white"/>
<!--    <path d="M2.07105 7.17742L8.04448 9.41726L2.07105 11.6571L1.84544 11.7417L1.78701 11.9755L0.675248 16.4234C0.67517 16.4237 0.675092 16.4241 0.675015 16.4244C0.610977 16.6771 0.620137 16.9429 0.701435 17.1906L1.13712 17.0476L0.701435 17.1906C0.782832 17.4386 0.933177 17.6584 1.13489 17.8241C1.33659 17.9898 1.58132 18.0947 1.84044 18.1264C2.09929 18.1581 2.36181 18.1156 2.59736 18.0037C2.59761 18.0036 2.59786 18.0034 2.5981 18.0033L18.1963 10.663C18.1964 10.663 18.1965 10.6629 18.1965 10.6629C18.4329 10.5517 18.6328 10.3756 18.7728 10.1551C18.9129 9.93446 18.9873 9.67856 18.9873 9.41726C18.9873 9.15596 18.9129 8.90006 18.7728 8.67947C18.6328 8.45893 18.4329 8.28279 18.1965 8.17163C18.1965 8.1716 18.1964 8.17157 18.1963 8.17154L2.59636 0.830377L2.59635 0.83037C2.36071 0.719495 2.09846 0.677736 1.84005 0.709943C1.58163 0.74215 1.33766 0.847001 1.13645 1.01232C0.935238 1.17764 0.785054 1.39665 0.703333 1.64391C0.621613 1.89117 0.611709 2.15654 0.674773 2.4092L0.67481 2.40935L1.78701 6.85906L1.84544 7.09282L2.07105 7.17742Z" stroke="white" stroke-opacity="0.3" stroke-width="0.917656"/>-->
</svg>