<svg width="16" height="16" viewBox="0 0 16 16" fill="none" xmlns="http://www.w3.org/2000/svg">
    <path fill-rule="evenodd" clip-rule="evenodd" d="M0.504883 7.74219C0.504883 5.75306 1.29506 3.84541 2.70158 2.43889C4.1081 1.03236 6.01576 0.242188 8.00488 0.242188C9.99401 0.242188 11.9017 1.03236 13.3082 2.43889C14.7147 3.84541 15.5049 5.75306 15.5049 7.74219C15.5049 9.73131 14.7147 11.639 13.3082 13.0455C11.9017 14.452 9.99401 15.2422 8.00488 15.2422C6.01576 15.2422 4.1081 14.452 2.70158 13.0455C1.29506 11.639 0.504883 9.73131 0.504883 7.74219ZM7.57688 10.9522L11.8949 5.55419L11.1149 4.93019L7.43288 9.53119L4.82488 7.35819L4.18488 8.12619L7.57688 10.9522Z" fill="white"/>
</svg>
