<svg width="79" height="74" viewBox="0 0 79 74" fill="none" xmlns="http://www.w3.org/2000/svg">
    <rect x="0.75" y="5.99219" width="67.5" height="67.5" rx="18" fill="#010304"/>
    <g clip-path="url(#clip0_1660_4257)">
        <path d="M51.8159 52.6358C50.8721 52.1391 49.9292 51.6419 48.9873 51.1442C47.0941 50.1425 45.1996 49.1435 43.3134 48.1293C43.1215 48.0248 42.9606 47.8715 42.847 47.685C41.2234 44.8894 39.6066 42.0893 37.9968 39.2845C36.8424 37.28 35.6925 35.2742 34.5472 33.267C34.4885 33.1912 34.4214 33.1222 34.3472 33.0614C34.2772 33.1268 34.2139 33.1989 34.1581 33.2767C31.645 37.6342 29.1323 41.9931 26.62 46.3534C26.3441 46.8433 26.0584 47.3345 25.7673 47.8188C25.7072 47.9229 25.6205 48.009 25.5162 48.0686C22.6645 49.5836 19.8128 51.095 16.9612 52.6027C16.9183 52.6154 16.8744 52.6247 16.8301 52.6303L34.3472 22.3594L51.8532 52.5848L51.8159 52.6358Z" fill="#10B100"/>
    </g>
    <path d="M34.4131 41.6648C34.4226 41.6224 34.4831 41.6224 34.4926 41.6648L35.0475 44.1275C35.3652 45.5381 36.4669 46.6396 37.8776 46.9573L40.3405 47.5121C40.3829 47.5216 40.3829 47.582 40.3405 47.5916L37.8775 48.1463C36.4669 48.4641 35.3652 49.5657 35.0475 50.9762L34.4926 53.4389C34.4831 53.4813 34.4226 53.4813 34.4131 53.4389L33.8583 50.9762C33.5405 49.5657 32.4389 48.4641 31.0282 48.1463L28.5652 47.5916C28.5228 47.582 28.5228 47.5216 28.5652 47.5121L31.0282 46.9573C32.4389 46.6396 33.5405 45.5381 33.8583 44.1275L34.4131 41.6648Z" fill="#10B100"/>
    <rect x="33.5176" y="0.332031" width="45" height="17" rx="8.5" fill="white"/>
    <path d="M43.63 13.832V4.03203H47.13C47.662 4.03203 48.1427 4.16503 48.572 4.43103C49.006 4.69703 49.349 5.05403 49.601 5.50203C49.853 5.95003 49.979 6.44236 49.979 6.97903C49.979 7.5297 49.8484 8.02903 49.587 8.47703C49.3304 8.92036 48.985 9.27503 48.551 9.54103C48.117 9.80236 47.6434 9.93303 47.13 9.93303H45.338V13.832H43.63ZM45.338 8.22503H46.948C47.1907 8.22503 47.4124 8.16436 47.613 8.04303C47.8137 7.9217 47.9724 7.75836 48.089 7.55303C48.2104 7.3477 48.271 7.11903 48.271 6.86703C48.271 6.61036 48.2104 6.37936 48.089 6.17403C47.9724 5.9687 47.8137 5.80536 47.613 5.68403C47.4124 5.5627 47.1907 5.50203 46.948 5.50203H45.338V8.22503ZM51.2589 13.832V4.03203H55.0179C55.5499 4.03203 56.0306 4.16503 56.4599 4.43103C56.8893 4.69703 57.2299 5.05403 57.4819 5.50203C57.7339 5.94536 57.8599 6.4377 57.8599 6.97903C57.8599 7.42236 57.7783 7.8307 57.6149 8.20403C57.4563 8.5727 57.2323 8.89236 56.9429 9.16303C56.6583 9.4337 56.3293 9.63903 55.9559 9.77903L58.3009 13.832H56.3339L54.0659 9.93303H52.9669V13.832H51.2589ZM52.9669 8.22503H54.8219C55.0646 8.22503 55.2863 8.16436 55.4869 8.04303C55.6876 7.9217 55.8486 7.75836 55.9699 7.55303C56.0913 7.3477 56.1519 7.11903 56.1519 6.86703C56.1519 6.61036 56.0913 6.37936 55.9699 6.17403C55.8486 5.9687 55.6876 5.80536 55.4869 5.68403C55.2863 5.5627 55.0646 5.50203 54.8219 5.50203H52.9669V8.22503ZM63.8617 14.014C63.199 14.014 62.576 13.8834 61.9927 13.622C61.4093 13.356 60.896 12.9897 60.4527 12.523C60.0093 12.0564 59.6617 11.5174 59.4097 10.906C59.1577 10.29 59.0317 9.63203 59.0317 8.93203C59.0317 8.23203 59.1577 7.57636 59.4097 6.96503C59.6617 6.34903 60.0093 5.8077 60.4527 5.34103C60.896 4.87436 61.4093 4.51036 61.9927 4.24903C62.576 3.98303 63.199 3.85003 63.8617 3.85003C64.529 3.85003 65.1543 3.98303 65.7377 4.24903C66.321 4.51036 66.8343 4.87436 67.2777 5.34103C67.721 5.8077 68.0663 6.34903 68.3137 6.96503C68.5657 7.57636 68.6917 8.23203 68.6917 8.93203C68.6917 9.63203 68.5657 10.29 68.3137 10.906C68.0663 11.5174 67.721 12.0564 67.2777 12.523C66.8343 12.9897 66.321 13.356 65.7377 13.622C65.1543 13.8834 64.529 14.014 63.8617 14.014ZM63.8617 12.306C64.291 12.306 64.6947 12.2174 65.0727 12.04C65.4507 11.8627 65.782 11.62 66.0667 11.312C66.356 10.9994 66.58 10.64 66.7387 10.234C66.902 9.82803 66.9837 9.39403 66.9837 8.93203C66.9837 8.47003 66.902 8.03603 66.7387 7.63003C66.5753 7.21936 66.349 6.86003 66.0597 6.55203C65.775 6.24403 65.4437 6.00136 65.0657 5.82403C64.6923 5.6467 64.291 5.55803 63.8617 5.55803C63.4323 5.55803 63.0287 5.6467 62.6507 5.82403C62.2727 6.00136 61.939 6.24636 61.6497 6.55903C61.365 6.86703 61.141 7.22403 60.9777 7.63003C60.819 8.03603 60.7397 8.47003 60.7397 8.93203C60.7397 9.3987 60.8213 9.83503 60.9847 10.241C61.148 10.647 61.372 11.0064 61.6567 11.319C61.946 11.627 62.2773 11.8697 62.6507 12.047C63.0287 12.2197 63.4323 12.306 63.8617 12.306Z" fill="url(#paint0_linear_1660_4257)"/>
    <defs>
        <linearGradient id="paint0_linear_1660_4257" x1="56.0176" y1="3.83203" x2="56.0176" y2="13.832" gradientUnits="userSpaceOnUse">
            <stop stop-color="#10B100"/>
            <stop offset="1" stop-color="#074B00"/>
        </linearGradient>
        <clipPath id="clip0_1660_4257">
            <rect width="35.03" height="34.0131" fill="white" transform="translate(16.8242 22.3594)"/>
        </clipPath>
    </defs>
</svg>
