<svg width="24" height="25" viewBox="0 0 24 25" fill="none" xmlns="http://www.w3.org/2000/svg">
    <path fill-rule="evenodd" clip-rule="evenodd" d="M16.137 5.22776L17.967 7.05776C20.656 9.74776 22 11.0918 22 12.7618C22 14.4328 20.656 15.7768 17.967 18.4658C15.277 21.1558 13.933 22.4998 12.262 22.4998C10.592 22.4998 9.24699 21.1558 6.55799 18.4668L4.72799 16.6368C3.18299 15.0908 2.40999 14.3188 2.12299 13.3158C1.83499 12.3128 2.08099 11.2478 2.57299 9.11876L2.85599 7.89076C3.26899 6.09876 3.47599 5.20276 4.08899 4.58876C4.70199 3.97476 5.59899 3.76876 7.39099 3.35576L8.61899 3.07176C10.749 2.58076 11.813 2.33476 12.816 2.62176C13.819 2.90976 14.592 3.68276 16.137 5.22776ZM11.146 14.8278C10.473 14.1558 10.478 13.1898 10.881 12.4248C10.7812 12.2807 10.7351 12.1062 10.7506 11.9316C10.766 11.757 10.8422 11.5933 10.9658 11.469C11.0894 11.3447 11.2526 11.2677 11.4271 11.2512C11.6016 11.2347 11.7763 11.2798 11.921 11.3788C12.261 11.1988 12.634 11.1028 13.006 11.1068C13.2049 11.1086 13.3949 11.1894 13.5343 11.3314C13.6736 11.4733 13.7508 11.6648 13.749 11.8638C13.7471 12.0627 13.6663 12.2527 13.5244 12.392C13.3824 12.5314 13.1909 12.6086 12.992 12.6068C12.7604 12.6153 12.5416 12.7148 12.383 12.8838C11.996 13.2708 12.097 13.6588 12.206 13.7678C12.316 13.8768 12.703 13.9778 13.09 13.5908C13.874 12.8068 15.228 12.5468 16.095 13.4138C16.768 14.0868 16.763 15.0528 16.36 15.8178C16.4591 15.9619 16.5048 16.1362 16.489 16.3104C16.4732 16.4846 16.3971 16.6478 16.2736 16.7718C16.1502 16.8958 15.9874 16.9728 15.8132 16.9894C15.6391 17.006 15.4646 16.9612 15.32 16.8628C14.8713 17.109 14.3507 17.191 13.848 17.0948C13.6531 17.0547 13.482 16.9389 13.3725 16.7727C13.263 16.6066 13.2239 16.4037 13.264 16.2088C13.304 16.0138 13.4199 15.8428 13.586 15.7333C13.7522 15.6237 13.9551 15.5847 14.15 15.6248C14.327 15.6618 14.613 15.6038 14.858 15.3588C15.245 14.9708 15.144 14.5838 15.035 14.4748C14.925 14.3658 14.538 14.2648 14.151 14.6518C13.367 15.4358 12.013 15.6958 11.146 14.8278ZM10.02 10.7928C10.2057 10.607 10.353 10.3865 10.4534 10.1438C10.5539 9.90114 10.6056 9.64105 10.6055 9.3784C10.6055 9.11575 10.5537 8.85568 10.4532 8.61304C10.3526 8.3704 10.2052 8.14995 10.0195 7.96426C9.83373 7.77857 9.61322 7.63128 9.37055 7.53082C9.12787 7.43035 8.86779 7.37866 8.60513 7.37871C8.34248 7.37875 8.08242 7.43053 7.83978 7.53109C7.59714 7.63164 7.37668 7.779 7.19099 7.96476C6.81597 8.33991 6.60534 8.84866 6.60544 9.37911C6.60553 9.90956 6.81634 10.4182 7.19149 10.7933C7.56664 11.1683 8.0754 11.3789 8.60584 11.3788C9.13629 11.3787 9.64497 11.1679 10.02 10.7928Z" fill="#10B100"/>
</svg>