<svg width="65" height="65" viewBox="0 0 65 65" fill="none" xmlns="http://www.w3.org/2000/svg">
<g clip-path="url(#clip0_409_1288)">
<path d="M32.488 64.476C50.1545 64.476 64.476 50.1545 64.476 32.488C64.476 14.8215 50.1545 0.5 32.488 0.5C14.8215 0.5 0.5 14.8215 0.5 32.488C0.5 50.1545 14.8215 64.476 32.488 64.476Z" fill="#10B100"/>
<path d="M25.4089 29.3684L28.3125 34.4078L38.7752 23.9691L38.8472 23.8971C39.3751 23.3931 40.071 23.1292 40.767 23.1292C41.4869 23.1292 42.2308 23.4171 42.7827 23.9691C42.8067 23.9691 42.8067 23.9931 42.8307 24.0171C43.3346 24.569 43.5986 25.2649 43.5986 25.9608C43.5986 26.6807 43.3346 27.4006 42.7827 27.9526L42.7587 27.9766L29.7043 41.0309L29.6803 41.0549C29.6563 41.0789 29.6563 41.0789 29.6324 41.1029C29.0804 41.6069 28.3845 41.8468 27.6886 41.8468C26.9687 41.8468 26.2488 41.5829 25.6968 41.0309L25.6728 41.0069C25.5529 40.8869 25.4569 40.767 25.3609 40.599C25.2649 40.479 25.1929 40.335 25.1209 40.191L20.5135 32.2C20.4895 32.176 20.4655 32.152 20.4655 32.104C19.8416 30.9762 20.0815 29.9203 20.6815 29.1284C20.9214 28.8165 21.2334 28.5765 21.5454 28.3845C21.8813 28.1925 22.2413 28.0725 22.6252 28.0246C23.6571 27.8566 24.737 28.2165 25.4089 29.3684ZM20.9454 20.9454C23.8971 17.9698 27.9766 16.146 32.488 16.146C36.9994 16.146 41.1029 17.9698 44.0546 20.9454C47.0062 23.8971 48.854 27.9766 48.854 32.488C48.854 36.9994 47.0062 41.1029 44.0546 44.0546C41.1029 47.0062 36.9994 48.854 32.488 48.854C27.9766 48.854 23.8971 47.0062 20.9454 44.0546C17.9698 41.1029 16.146 36.9994 16.146 32.488C16.146 27.9766 17.9698 23.8971 20.9454 20.9454ZM46.9822 18.0178C43.2626 14.3223 38.1513 12.0186 32.488 12.0186C26.8487 12.0186 21.7133 14.3223 18.0178 18.0178C14.3223 21.7133 12.0186 26.8487 12.0186 32.488C12.0186 38.1513 14.3223 43.2626 18.0178 46.9822C21.7133 50.6777 26.8487 52.9814 32.488 52.9814C38.1513 52.9814 43.2626 50.6777 46.9822 46.9822C50.6777 43.2626 52.9814 38.1513 52.9814 32.488C52.9814 26.8487 50.6777 21.7133 46.9822 18.0178Z" fill="#FEFEFE"/>
</g>
<defs>
<clipPath id="clip0_409_1288">
<rect width="64" height="64" fill="white" transform="translate(0.5 0.5)"/>
</clipPath>
</defs>
</svg>