<svg width="25" height="25" viewBox="0 0 25 25" fill="none" xmlns="http://www.w3.org/2000/svg">
    <path fill-rule="evenodd" clip-rule="evenodd" d="M4.5 19.7148C4.5 19.5159 4.57902 19.3252 4.71967 19.1845C4.86032 19.0439 5.05109 18.9648 5.25 18.9648H19.25C19.4489 18.9648 19.6397 19.0439 19.7803 19.1845C19.921 19.3252 20 19.5159 20 19.7148C20 19.9138 19.921 20.1045 19.7803 20.2452C19.6397 20.3858 19.4489 20.4648 19.25 20.4648H5.25C5.05109 20.4648 4.86032 20.3858 4.71967 20.2452C4.57902 20.1045 4.5 19.9138 4.5 19.7148ZM7.5 22.7148C7.5 22.5159 7.57902 22.3252 7.71967 22.1845C7.86032 22.0439 8.05109 21.9648 8.25 21.9648H16.25C16.4489 21.9648 16.6397 22.0439 16.7803 22.1845C16.921 22.3252 17 22.5159 17 22.7148C17 22.9138 16.921 23.1045 16.7803 23.2452C16.6397 23.3858 16.4489 23.4648 16.25 23.4648H8.25C8.05109 23.4648 7.86032 23.3858 7.71967 23.2452C7.57902 23.1045 7.5 22.9138 7.5 22.7148ZM12.25 1.96484C12.4489 1.96484 12.6397 2.04386 12.7803 2.18451C12.921 2.32517 13 2.51593 13 2.71484V3.71484C13 3.91376 12.921 4.10452 12.7803 4.24517C12.6397 4.38583 12.4489 4.46484 12.25 4.46484C12.0511 4.46484 11.8603 4.38583 11.7197 4.24517C11.579 4.10452 11.5 3.91376 11.5 3.71484V2.71484C11.5 2.51593 11.579 2.32517 11.7197 2.18451C11.8603 2.04386 12.0511 1.96484 12.25 1.96484ZM4.649 5.11384C4.78963 4.97339 4.98025 4.8945 5.179 4.8945C5.37775 4.8945 5.56837 4.97339 5.709 5.11384L6.102 5.50584C6.23869 5.64723 6.31437 5.83665 6.31276 6.0333C6.31114 6.22995 6.23235 6.41809 6.09336 6.55722C5.95437 6.69634 5.7663 6.7753 5.56965 6.7771C5.373 6.7789 5.18352 6.7034 5.042 6.56684L4.649 6.17384C4.50855 6.03322 4.42966 5.84259 4.42966 5.64384C4.42966 5.44509 4.50855 5.25447 4.649 5.11384ZM19.851 5.11384C19.9914 5.25447 20.0703 5.44509 20.0703 5.64384C20.0703 5.84259 19.9914 6.03322 19.851 6.17384L19.458 6.56684C19.3158 6.69932 19.1278 6.77145 18.9335 6.76802C18.7392 6.76459 18.5538 6.68588 18.4164 6.54847C18.279 6.41105 18.2003 6.22567 18.1968 6.03137C18.1934 5.83707 18.2655 5.64902 18.398 5.50684L18.791 5.11384C18.9316 4.97339 19.1222 4.8945 19.321 4.8945C19.5198 4.8945 19.7104 4.97339 19.851 5.11384ZM1.5 12.7148C1.5 12.5159 1.57902 12.3252 1.71967 12.1845C1.86032 12.0439 2.05109 11.9648 2.25 11.9648H3.25C3.44891 11.9648 3.63968 12.0439 3.78033 12.1845C3.92098 12.3252 4 12.5159 4 12.7148C4 12.9138 3.92098 13.1045 3.78033 13.2452C3.63968 13.3858 3.44891 13.4648 3.25 13.4648H2.25C2.05109 13.4648 1.86032 13.3858 1.71967 13.2452C1.57902 13.1045 1.5 12.9138 1.5 12.7148ZM20.5 12.7148C20.5 12.5159 20.579 12.3252 20.7197 12.1845C20.8603 12.0439 21.0511 11.9648 21.25 11.9648H22.25C22.4489 11.9648 22.6397 12.0439 22.7803 12.1845C22.921 12.3252 23 12.5159 23 12.7148C23 12.9138 22.921 13.1045 22.7803 13.2452C22.6397 13.3858 22.4489 13.4648 22.25 13.4648H21.25C21.0511 13.4648 20.8603 13.3858 20.7197 13.2452C20.579 13.1045 20.5 12.9138 20.5 12.7148Z" fill="#FFAA00"/>
    <path d="M5.5 12.7151C5.5 13.8931 5.802 15.0011 6.333 15.9651H2.25C2.05109 15.9651 1.86032 16.0441 1.71967 16.1848C1.57902 16.3254 1.5 16.5162 1.5 16.7151C1.5 16.914 1.57902 17.1048 1.71967 17.2455C1.86032 17.3861 2.05109 17.4651 2.25 17.4651H11.5V12.5251L10.78 13.2451C10.7113 13.3188 10.6285 13.3779 10.5365 13.4189C10.4445 13.4599 10.3452 13.4819 10.2445 13.4837C10.1438 13.4855 10.0438 13.467 9.9504 13.4292C9.85701 13.3915 9.77218 13.3354 9.70096 13.2642C9.62974 13.1929 9.5736 13.1081 9.53588 13.0147C9.49816 12.9213 9.47963 12.8213 9.48141 12.7206C9.48318 12.6199 9.50523 12.5206 9.54622 12.4286C9.58721 12.3366 9.64631 12.2538 9.72 12.1851L11.72 10.1851C11.8606 10.0447 12.0512 9.96578 12.25 9.96578C12.4488 9.96578 12.6394 10.0447 12.78 10.1851L14.78 12.1851C14.8537 12.2538 14.9128 12.3366 14.9538 12.4286C14.9948 12.5206 15.0168 12.6199 15.0186 12.7206C15.0204 12.8213 15.0018 12.9213 14.9641 13.0147C14.9264 13.1081 14.8703 13.1929 14.799 13.2642C14.7278 13.3354 14.643 13.3915 14.5496 13.4292C14.4562 13.467 14.3562 13.4855 14.2555 13.4837C14.1548 13.4819 14.0555 13.4599 13.9635 13.4189C13.8715 13.3779 13.7887 13.3188 13.72 13.2451L13 12.5251V17.4651H22.25C22.4489 17.4651 22.6397 17.3861 22.7803 17.2455C22.921 17.1048 23 16.914 23 16.7151C23 16.5162 22.921 16.3254 22.7803 16.1848C22.6397 16.0441 22.4489 15.9651 22.25 15.9651H18.167C18.6623 15.063 18.9447 14.0595 18.9927 13.0315C19.0406 12.0034 18.8529 10.978 18.4438 10.0337C18.0347 9.08932 17.4151 8.25101 16.6323 7.58284C15.8496 6.91467 14.9244 6.43434 13.9275 6.17857C12.9307 5.9228 11.8885 5.89837 10.8807 6.10714C9.87298 6.3159 8.9263 6.75235 8.11308 7.38309C7.29986 8.01384 6.64164 8.82219 6.18874 9.74634C5.73584 10.6705 5.50026 11.686 5.5 12.7151Z" fill="#FFAA00"/>
</svg>
