<svg width="25" height="25" viewBox="0 0 25 25" fill="none" xmlns="http://www.w3.org/2000/svg">
    <path fill-rule="evenodd" clip-rule="evenodd" d="M4.5 19.7148C4.5 19.5159 4.57902 19.3252 4.71967 19.1845C4.86032 19.0439 5.05109 18.9648 5.25 18.9648H19.25C19.4489 18.9648 19.6397 19.0439 19.7803 19.1845C19.921 19.3252 20 19.5159 20 19.7148C20 19.9138 19.921 20.1045 19.7803 20.2452C19.6397 20.3858 19.4489 20.4648 19.25 20.4648H5.25C5.05109 20.4648 4.86032 20.3858 4.71967 20.2452C4.57902 20.1045 4.5 19.9138 4.5 19.7148ZM7.5 22.7148C7.5 22.5159 7.57902 22.3252 7.71967 22.1845C7.86032 22.0439 8.05109 21.9648 8.25 21.9648H16.25C16.4489 21.9648 16.6397 22.0439 16.7803 22.1845C16.921 22.3252 17 22.5159 17 22.7148C17 22.9138 16.921 23.1045 16.7803 23.2452C16.6397 23.3858 16.4489 23.4648 16.25 23.4648H8.25C8.05109 23.4648 7.86032 23.3858 7.71967 23.2452C7.57902 23.1045 7.5 22.9138 7.5 22.7148ZM12.25 1.96484C12.4489 1.96484 12.6397 2.04386 12.7803 2.18451C12.921 2.32517 13 2.51593 13 2.71484V3.71484C13 3.91376 12.921 4.10452 12.7803 4.24517C12.6397 4.38583 12.4489 4.46484 12.25 4.46484C12.0511 4.46484 11.8603 4.38583 11.7197 4.24517C11.579 4.10452 11.5 3.91376 11.5 3.71484V2.71484C11.5 2.51593 11.579 2.32517 11.7197 2.18451C11.8603 2.04386 12.0511 1.96484 12.25 1.96484ZM4.649 5.11384C4.78963 4.97339 4.98025 4.8945 5.179 4.8945C5.37775 4.8945 5.56837 4.97339 5.709 5.11384L6.102 5.50584C6.23869 5.64723 6.31437 5.83665 6.31276 6.0333C6.31114 6.22995 6.23235 6.41809 6.09336 6.55722C5.95437 6.69634 5.7663 6.7753 5.56965 6.7771C5.373 6.7789 5.18352 6.7034 5.042 6.56684L4.649 6.17384C4.50855 6.03322 4.42966 5.84259 4.42966 5.64384C4.42966 5.44509 4.50855 5.25447 4.649 5.11384ZM19.851 5.11384C19.9914 5.25447 20.0703 5.44509 20.0703 5.64384C20.0703 5.84259 19.9914 6.03322 19.851 6.17384L19.458 6.56684C19.3158 6.69932 19.1278 6.77145 18.9335 6.76802C18.7392 6.76459 18.5538 6.68588 18.4164 6.54847C18.279 6.41105 18.2003 6.22567 18.1968 6.03137C18.1934 5.83707 18.2655 5.64902 18.398 5.50684L18.791 5.11384C18.9316 4.97339 19.1222 4.8945 19.321 4.8945C19.5198 4.8945 19.7104 4.97339 19.851 5.11384ZM1.5 12.7148C1.5 12.5159 1.57902 12.3252 1.71967 12.1845C1.86032 12.0439 2.05109 11.9648 2.25 11.9648H3.25C3.44891 11.9648 3.63968 12.0439 3.78033 12.1845C3.92098 12.3252 4 12.5159 4 12.7148C4 12.9138 3.92098 13.1045 3.78033 13.2452C3.63968 13.3858 3.44891 13.4648 3.25 13.4648H2.25C2.05109 13.4648 1.86032 13.3858 1.71967 13.2452C1.57902 13.1045 1.5 12.9138 1.5 12.7148ZM20.5 12.7148C20.5 12.5159 20.579 12.3252 20.7197 12.1845C20.8603 12.0439 21.0511 11.9648 21.25 11.9648H22.25C22.4489 11.9648 22.6397 12.0439 22.7803 12.1845C22.921 12.3252 23 12.5159 23 12.7148C23 12.9138 22.921 13.1045 22.7803 13.2452C22.6397 13.3858 22.4489 13.4648 22.25 13.4648H21.25C21.0511 13.4648 20.8603 13.3858 20.7197 13.2452C20.579 13.1045 20.5 12.9138 20.5 12.7148Z" fill="#FFAA00"/>
    <path d="M5.5 12.7139C5.5 13.8919 5.802 14.9999 6.333 15.9639H2.25C2.05109 15.9639 1.86032 16.0429 1.71967 16.1836C1.57902 16.3242 1.5 16.515 1.5 16.7139C1.5 16.9128 1.57902 17.1036 1.71967 17.2442C1.86032 17.3849 2.05109 17.4639 2.25 17.4639H22.25C22.4489 17.4639 22.6397 17.3849 22.7803 17.2442C22.921 17.1036 23 16.9128 23 16.7139C23 16.515 22.921 16.3242 22.7803 16.1836C22.6397 16.0429 22.4489 15.9639 22.25 15.9639H18.167C18.7012 14.9918 18.9876 13.9029 19.0008 12.7938C19.014 11.6846 18.7537 10.5893 18.2429 9.60465C17.732 8.62004 16.9864 7.77649 16.0719 7.14863C15.1575 6.52077 14.1024 6.12795 13 6.00491V10.9029L13.72 10.1829C13.7892 10.1113 13.872 10.0542 13.9635 10.0149C14.055 9.97568 14.1535 9.95504 14.2531 9.95422C14.3526 9.95341 14.4514 9.97243 14.5435 10.0102C14.6357 10.0479 14.7194 10.1037 14.7898 10.1741C14.8602 10.2446 14.9158 10.3283 14.9535 10.4205C14.9912 10.5127 15.0101 10.6115 15.0092 10.7111C15.0083 10.8106 14.9875 10.9091 14.9482 11.0005C14.9088 11.092 14.8517 11.1748 14.78 11.2439L12.78 13.2439C12.6394 13.3844 12.4488 13.4632 12.25 13.4632C12.0512 13.4632 11.8606 13.3844 11.72 13.2439L9.72 11.2439C9.64631 11.1752 9.58721 11.0924 9.54622 11.0004C9.50523 10.9084 9.48318 10.8091 9.48141 10.7084C9.47963 10.6077 9.49816 10.5077 9.53588 10.4143C9.5736 10.3209 9.62974 10.2361 9.70096 10.1649C9.77218 10.0936 9.85701 10.0375 9.9504 9.99978C10.0438 9.96206 10.1438 9.94354 10.2445 9.94531C10.3452 9.94709 10.4445 9.96913 10.5365 10.0101C10.6285 10.0511 10.7113 10.1102 10.78 10.1839L11.5 10.9039V6.00391C9.8498 6.1884 8.3255 6.97469 7.21858 8.21241C6.11166 9.45012 5.4998 11.0524 5.5 12.7129" fill="#FFAA00"/>
</svg>
