<svg width="24" height="25" viewBox="0 0 24 25" fill="none" xmlns="http://www.w3.org/2000/svg">
    <path fill-rule="evenodd" clip-rule="evenodd" d="M11.9796 3.85778C11.3227 3.84591 10.67 3.9637 10.0587 4.2044C9.44741 4.44509 8.88959 4.80397 8.41717 5.26049C7.94474 5.71701 7.56697 6.26221 7.30549 6.86489C7.044 7.46758 6.90394 8.11591 6.8933 8.77278V15.6425C6.8933 16.0592 6.72775 16.4589 6.43308 16.7536C6.1384 17.0482 5.73874 17.2138 5.32201 17.2138H3.35789C2.73279 17.2138 2.13329 16.9655 1.69128 16.5234C1.24927 16.0814 1.00095 15.4819 1.00095 14.8568L1.00095 11.7142C1.00095 11.0891 1.24927 10.4897 1.69128 10.0476C2.13329 9.60563 2.73279 9.35731 3.35789 9.35731H4.53636V8.7445C4.5507 7.77877 4.75513 6.82533 5.138 5.93862C5.52086 5.05191 6.07465 4.24931 6.76773 3.57665C7.46082 2.90399 8.27962 2.37446 9.17739 2.01829C10.0752 1.66211 11.0343 1.48628 12 1.50083C12.9657 1.48628 13.9249 1.66211 14.8226 2.01829C15.7204 2.37446 16.5392 2.90399 17.2323 3.57665C17.9254 4.24931 18.4792 5.05191 18.862 5.93862C19.2449 6.82533 19.4493 7.77877 19.4637 8.7445V9.35731H20.6421C21.2672 9.35731 21.8667 9.60563 22.3087 10.0476C22.7507 10.4897 22.9991 11.0891 22.9991 11.7142V14.8568C22.9991 15.4819 22.7507 16.0814 22.3087 16.5234C21.8667 16.9655 21.2672 17.2138 20.6421 17.2138H19.4637V17.9994C19.4639 19.0612 19.0731 20.086 18.3659 20.878C17.6588 21.6701 16.6847 22.1741 15.6297 22.2938C15.4248 22.6596 15.126 22.9641 14.7642 23.176C14.4024 23.3878 13.9906 23.4993 13.5713 23.499H11.2144C10.5893 23.499 9.98976 23.2506 9.54775 22.8086C9.10574 22.3666 8.85742 21.7671 8.85742 21.142C8.85742 20.5169 9.10574 19.9174 9.54775 19.4754C9.98976 19.0334 10.5893 18.7851 11.2144 18.7851H13.5713C14.4229 18.7851 15.1693 19.236 15.5826 19.9133C16.0156 19.8137 16.4022 19.5703 16.679 19.2226C16.9559 18.875 17.1066 18.4438 17.1067 17.9994V8.77121C17.0959 8.11096 16.9544 7.45938 16.6903 6.85416C16.4261 6.24894 16.0447 5.70207 15.5679 5.24518C15.0911 4.78829 14.5285 4.43043 13.9126 4.19229C13.2967 3.95415 12.6397 3.84045 11.9796 3.85778Z" fill="#10B100"/>
</svg>