<svg width="24" height="25" viewBox="0 0 24 25" fill="none" xmlns="http://www.w3.org/2000/svg">
    <path d="M10.0278 18.4306C10.0278 15.3306 12.525 12.8333 15.625 12.8333C17.0889 12.8333 18.4667 13.4361 19.5 14.3833V5.94444C19.5 4.05 17.95 2.5 16.0556 2.5H7.44444C5.55 2.5 4 4.05 4 5.94444V19.7222C4 21.6167 5.55 23.1667 7.44444 23.1667H12.6111C11.0611 22.1333 10.0278 20.4111 10.0278 18.4306ZM11.75 11.1111H8.30556C7.78889 11.1111 7.44444 10.7667 7.44444 10.25C7.44444 9.73333 7.78889 9.38889 8.30556 9.38889H11.75C12.2667 9.38889 12.6111 9.73333 12.6111 10.25C12.6111 10.7667 12.2667 11.1111 11.75 11.1111ZM15.1944 7.66667H8.30556C7.78889 7.66667 7.44444 7.32222 7.44444 6.80556C7.44444 6.28889 7.78889 5.94444 8.30556 5.94444H15.1944C15.7111 5.94444 16.0556 6.28889 16.0556 6.80556C16.0556 7.32222 15.7111 7.66667 15.1944 7.66667Z" fill="#10B100"/>
    <path d="M19.5 18.4307C19.5 16.2779 17.7778 14.5557 15.625 14.5557C13.4722 14.5557 11.75 16.2779 11.75 18.4307C11.75 20.5834 13.4722 22.3057 15.625 22.3057C17.7778 22.3057 19.5 20.5834 19.5 18.4307ZM14.7639 16.2779C14.7639 15.7612 15.1083 15.4168 15.625 15.4168C16.1417 15.4168 16.4861 15.7612 16.4861 16.2779V18.0001C16.4861 18.5168 16.1417 18.8612 15.625 18.8612C15.1083 18.8612 14.7639 18.5168 14.7639 18.0001V16.2779ZM15.0222 21.1862C14.85 21.014 14.7639 20.7557 14.7639 20.5834C14.7639 20.3251 14.85 20.1529 15.0222 19.9807C15.3667 19.6362 15.8833 19.6362 16.2278 19.9807C16.4 20.1529 16.4861 20.4112 16.4861 20.5834C16.4861 20.7557 16.4 21.014 16.2278 21.1862C16.0556 21.3584 15.8833 21.4446 15.625 21.4446C15.3667 21.4446 15.1944 21.3584 15.0222 21.1862Z" fill="#10B100"/>
</svg>