<svg width="25" height="25" viewBox="0 0 25 25" fill="none" xmlns="http://www.w3.org/2000/svg">
    <path d="M12.3962 22.8047C6.87324 22.8047 2.39624 18.3277 2.39624 12.8047C2.39624 7.28169 6.87324 2.80469 12.3962 2.80469C17.9192 2.80469 22.3962 7.28269 22.3962 12.8047C22.3962 18.3267 17.9192 22.8047 12.3962 22.8047ZM12.3962 7.80469C12.131 7.80469 11.8767 7.91004 11.6891 8.09758C11.5016 8.28512 11.3962 8.53947 11.3962 8.80469V13.8047C11.3962 14.0699 11.5016 14.3243 11.6891 14.5118C11.8767 14.6993 12.131 14.8047 12.3962 14.8047C12.6615 14.8047 12.9158 14.6993 13.1033 14.5118C13.2909 14.3243 13.3962 14.0699 13.3962 13.8047V8.80469C13.3962 8.53947 13.2909 8.28512 13.1033 8.09758C12.9158 7.91004 12.6615 7.80469 12.3962 7.80469ZM12.3962 17.8047C12.6615 17.8047 12.9158 17.6993 13.1033 17.5118C13.2909 17.3243 13.3962 17.0699 13.3962 16.8047C13.3962 16.5395 13.2909 16.2851 13.1033 16.0976C12.9158 15.91 12.6615 15.8047 12.3962 15.8047C12.131 15.8047 11.8767 15.91 11.6891 16.0976C11.5016 16.2851 11.3962 16.5395 11.3962 16.8047C11.3962 17.0699 11.5016 17.3243 11.6891 17.5118C11.8767 17.6993 12.131 17.8047 12.3962 17.8047Z" fill="#FEDF30"/>
</svg>
