<svg width="32" height="33" viewBox="0 0 32 33" fill="none" xmlns="http://www.w3.org/2000/svg">
    <path d="M17.5322 18.6531H14.1064C13.0018 18.6531 12.1064 19.5485 12.1064 20.6531V26.6393C12.1064 27.7439 11.211 28.6393 10.1064 28.6393H5.9126C4.80803 28.6393 3.9126 27.7439 3.9126 26.6393V14.1866C3.9126 13.5787 4.1891 13.0038 4.664 12.6242L14.8708 4.46729C15.6158 3.87196 16.6774 3.88537 17.4071 4.49932L27.0647 12.6254C27.5163 13.0054 27.7771 13.5655 27.7771 14.1557V26.6393C27.7771 27.7439 26.8816 28.6393 25.7771 28.6393H21.5322C20.4276 28.6393 19.5322 27.7439 19.5322 26.6393V20.6531C19.5322 19.5485 18.6368 18.6531 17.5322 18.6531Z" stroke="black" stroke-opacity="0.6" stroke-width="2"/>
</svg>
