<svg width="32" height="33" viewBox="0 0 32 33" fill="none" xmlns="http://www.w3.org/2000/svg">
    <path d="M15.879 2.10212C15.939 2.02041 16.061 2.02041 16.121 2.10212L19.651 6.91507C20.0151 7.4115 20.6023 7.69429 21.2174 7.66943L27.1813 7.42851C27.2826 7.42442 27.3586 7.51983 27.3321 7.61764L28.1525 7.84008L27.3321 7.61764L25.7702 13.3784C25.609 13.9725 25.7541 14.6079 26.157 15.0734L30.0638 19.5859C30.1301 19.6625 30.103 19.7815 30.01 19.8218L24.5322 22.1923C23.9672 22.4368 23.5608 22.9464 23.4482 23.5516L22.356 29.4196C22.3374 29.5192 22.2275 29.5721 22.138 29.5245L16.8693 26.7198C16.3259 26.4305 15.6741 26.4305 15.1307 26.7198L9.86197 29.5245C9.77252 29.5721 9.66256 29.5192 9.64402 29.4196L8.55182 23.5516C8.43917 22.9464 8.03281 22.4368 7.46781 22.1923L1.99002 19.8218C1.89702 19.7815 1.86986 19.6625 1.93619 19.5859L1.29357 19.0295L1.93619 19.5859L5.84297 15.0734C6.24593 14.6079 6.39095 13.9725 6.22985 13.3784L4.66787 7.61764C4.64135 7.51983 4.71744 7.42442 4.8187 7.42851L10.7826 7.66943C11.3977 7.69429 11.9849 7.4115 12.349 6.91507L15.879 2.10212Z" stroke="black" stroke-opacity="0.6" stroke-width="1.7"/>
    <path d="M15.879 10.1021C15.939 10.0204 16.061 10.0204 16.121 10.1021L17.3254 11.7443L18.0108 11.2416L17.3254 11.7443C17.6895 12.2407 18.2767 12.5235 18.8918 12.4986L20.9266 12.4164C21.0279 12.4123 21.104 12.5077 21.0775 12.6056L20.5445 14.5711C20.3834 15.1653 20.5285 15.8007 20.9314 16.2661L22.2644 17.8057C22.3307 17.8824 22.3036 18.0013 22.2106 18.0416L20.3416 18.8504C19.7766 19.0949 19.3702 19.6045 19.2576 20.2097L18.8849 22.2118C18.8664 22.3114 18.7564 22.3644 18.667 22.3168L16.8693 21.3598C16.3259 21.0705 15.6741 21.0705 15.1307 21.3598L13.333 22.3168C13.2436 22.3644 13.1336 22.3114 13.1151 22.2118L12.7424 20.2097C12.6298 19.6045 12.2234 19.0949 11.6584 18.8504L11.3208 19.6305L11.6584 18.8504L9.78945 18.0416C9.69644 18.0013 9.66929 17.8824 9.73562 17.8057L11.0686 16.2661C11.4715 15.8007 11.6166 15.1653 11.4555 14.5711L10.9225 12.6056C10.896 12.5077 10.9721 12.4123 11.0734 12.4164L13.1082 12.4986C13.7233 12.5235 14.3105 12.2407 14.6746 11.7443L15.879 10.1021Z" stroke="black" stroke-opacity="0.6" stroke-width="1.7"/>
</svg>
