<svg width="20" height="20" viewBox="0 0 20 20" fill="none" xmlns="http://www.w3.org/2000/svg">
    <path d="M3.33335 10.0003C3.33335 8.23222 4.03573 6.53652 5.28598 5.28628C6.53622 4.03604 8.23191 3.33366 10 3.33366C11.7681 3.33366 13.4638 4.03604 14.7141 5.28628C15.9643 6.53652 16.6667 8.23222 16.6667 10.0003C16.6667 11.7684 15.9643 13.4641 14.7141 14.7144C13.4638 15.9646 11.7681 16.667 10 16.667C8.23191 16.667 6.53622 15.9646 5.28598 14.7144C4.03573 13.4641 3.33335 11.7684 3.33335 10.0003ZM10 1.66699C5.39752 1.66699 1.66669 5.39783 1.66669 10.0003C1.66669 14.6028 5.39752 18.3337 10 18.3337C14.6025 18.3337 18.3334 14.6028 18.3334 10.0003C18.3334 5.39783 14.6025 1.66699 10 1.66699Z" fill="#989898"/>
</svg>