<svg width="40" height="41" viewBox="0 0 40 41" fill="none" xmlns="http://www.w3.org/2000/svg">
    <g clip-path="url(#clip0_19_647)">
        <path d="M15.2628 11.0821H24.7378C24.9247 11.0783 25.1056 11.016 25.2551 10.9038C25.4046 10.7917 25.5151 10.6354 25.5709 10.4571C25.5151 10.2788 25.4046 10.1225 25.2551 10.0104C25.1056 9.89821 24.9247 9.83585 24.7378 9.83209H15.2628C15.076 9.83585 14.895 9.89821 14.7455 10.0104C14.5961 10.1225 14.4856 10.2788 14.4297 10.4571C14.4856 10.6354 14.5961 10.7917 14.7455 10.9038C14.895 11.016 15.076 11.0783 15.2628 11.0821Z" fill="#A80132"/>
        <path d="M15.2628 9.20709H24.7378C24.9247 9.20333 25.1056 9.14098 25.2551 9.02883C25.4046 8.91669 25.5151 8.76042 25.5709 8.58209C25.5151 8.40376 25.4046 8.2475 25.2551 8.13535C25.1056 8.02321 24.9247 7.96085 24.7378 7.95709H15.2628C15.076 7.96085 14.895 8.02321 14.7455 8.13535C14.5961 8.2475 14.4856 8.40376 14.4297 8.58209C14.4856 8.76042 14.5961 8.91669 14.7455 9.02883C14.895 9.14098 15.076 9.20333 15.2628 9.20709Z" fill="#A80132"/>
        <path d="M13.9612 2.50084C14.0081 2.53272 14.0575 2.56334 14.1119 2.59584C14.1344 2.60897 14.1581 2.62147 14.1819 2.63459C14.2444 2.66709 14.3069 2.69709 14.3763 2.73147C14.3969 2.74147 14.4181 2.75147 14.4387 2.76084C14.9419 2.97091 15.4656 3.128 16.0012 3.22959L16.0238 3.23397C16.1863 3.26709 16.3556 3.29647 16.5331 3.32772C17.68 3.50591 18.8394 3.59098 20 3.58209C23.45 3.58209 25.625 2.95709 26.25 2.33209C26.25 2.33209 25 1.08209 20 1.08209C15 1.08209 13.75 2.33209 13.75 2.33209C13.7989 2.37949 13.8511 2.42335 13.9062 2.46334C13.9231 2.47584 13.9431 2.48834 13.9612 2.50084Z" fill="#DE8800"/>
        <path d="M14.4375 2.76082C14.4156 2.75145 14.3944 2.74145 14.375 2.73145C14.3975 2.74145 14.4175 2.75145 14.4375 2.76082Z" fill="#FFC608"/>
        <path d="M16.5337 3.32772L16.7499 4.08209C16.9654 4.83818 17.4215 5.50344 18.049 5.97711C18.6765 6.45077 19.4412 6.70704 20.2274 6.70709H22.9556C23.7217 6.70409 24.4624 6.43175 25.0481 5.93772L26.2499 2.33209C25.6249 2.95709 23.4499 3.58209 19.9999 3.58209C18.8396 3.59095 17.6804 3.50588 16.5337 3.32772Z" fill="#FFC608"/>
        <path d="M23.1622 11.7071H19.3797C16.848 13.1402 14.7538 15.2351 13.3217 17.7674C11.8895 20.2997 11.1733 23.1739 11.2497 26.0821C11.2497 37.9571 35.6247 36.0821 35.6247 30.4571C35.6247 25.9321 30.2747 14.5071 23.1622 11.7071Z" fill="#FFC608"/>
        <path d="M14.1116 2.59585C14.0572 2.5646 14.0078 2.53335 13.9609 2.50085C14.0078 2.53273 14.0572 2.5646 14.1116 2.59585Z" fill="#F09413"/>
        <path d="M16.5338 3.32776C16.3563 3.29901 16.1869 3.26526 16.0244 3.23401C16.1875 3.26963 16.3563 3.29901 16.5338 3.32776Z" fill="#F09413"/>
        <path d="M14.375 2.73152C14.3057 2.69964 14.2413 2.66902 14.1807 2.63464C14.2419 2.66714 14.3069 2.69964 14.375 2.73152Z" fill="#F09413"/>
        <path d="M39.375 16.0821L37.2937 17.1258L36.25 19.2071L35.2063 17.1258L33.125 16.0821L35.2063 15.0383L36.25 12.9571L37.2937 15.0383L39.375 16.0821Z" fill="#FF9C00"/>
        <path d="M6.875 8.58209L4.79375 9.62584L3.75 11.7071L2.70625 9.62584L0.625 8.58209L2.70625 7.53834L3.75 5.45709L4.79375 7.53834L6.875 8.58209Z" fill="#FF9C00"/>
        <path d="M25.775 25.3008C25.6755 25.5493 25.6246 25.8145 25.625 26.0821V34.8508C25.0063 34.8696 24.3813 34.8696 23.75 34.8383V27.9571C23.75 26.9196 24.525 25.9821 25.775 25.3008Z" fill="#F09413"/>
        <path d="M25.5704 10.4571C25.5146 10.2788 25.4041 10.1225 25.2546 10.0104C25.1051 9.89821 24.9242 9.83585 24.7373 9.83209C24.9792 9.82506 25.2084 9.72244 25.3748 9.54671C25.5411 9.37099 25.631 9.13649 25.6248 8.89459C25.6239 8.78815 25.6055 8.68259 25.5704 8.58209C25.5146 8.40376 25.4041 8.2475 25.2546 8.13535C25.1051 8.02321 24.9242 7.96085 24.7373 7.95709H15.2623C15.0755 7.96085 14.8945 8.02321 14.745 8.13535C14.5956 8.2475 14.4851 8.40376 14.4292 8.58209C14.3941 8.68259 14.3757 8.78815 14.3748 8.89459C14.3686 9.13649 14.4585 9.37099 14.6249 9.54671C14.7912 9.72244 15.0204 9.82506 15.2623 9.83209C15.0755 9.83585 14.8945 9.89821 14.745 10.0104C14.5956 10.1225 14.4851 10.2788 14.4292 10.4571C14.3941 10.5576 14.3757 10.6632 14.3748 10.7696C14.3686 11.0115 14.4585 11.246 14.6249 11.4217C14.7912 11.5974 15.0204 11.7001 15.2623 11.7071H24.7373C24.9792 11.7001 25.2084 11.5974 25.3748 11.4217C25.5411 11.246 25.631 11.0115 25.6248 10.7696C25.6239 10.6632 25.6055 10.5576 25.5704 10.4571Z" fill="#A80132"/>
        <path d="M25.0207 2.96461C23.3915 2.48809 21.6966 2.27457 20.0001 2.33211C18.3036 2.27457 16.6087 2.48809 14.9795 2.96461C16.6129 3.41974 18.3051 3.62788 20.0001 3.58211C21.6951 3.62788 23.3874 3.41974 25.0207 2.96461Z" fill="#C97C10"/>
        <path d="M23.8498 9.83209H24.7373C24.9792 9.82506 25.2084 9.72244 25.3748 9.54671C25.5411 9.37099 25.631 9.13649 25.6248 8.89459C25.6239 8.78815 25.6055 8.68259 25.5704 8.58209C25.5146 8.76042 25.4041 8.91669 25.2546 9.02883C25.1051 9.14098 24.9242 9.20333 24.7373 9.20709H15.2623C15.0755 9.20333 14.8945 9.14098 14.745 9.02883C14.5956 8.91669 14.4851 8.76042 14.4292 8.58209C14.3941 8.68259 14.3757 8.78815 14.3748 8.89459C14.3686 9.13649 14.4585 9.37099 14.6249 9.54671C14.7912 9.72244 15.0204 9.82506 15.2623 9.83209H23.8498Z" fill="#7D0126"/>
        <path d="M23.1623 11.7071H24.7373C24.9792 11.7001 25.2084 11.5974 25.3748 11.4217C25.5411 11.246 25.631 11.0115 25.6248 10.7696C25.6239 10.6632 25.6055 10.5576 25.5704 10.4571C25.5146 10.6354 25.4041 10.7917 25.2546 10.9038C25.1051 11.016 24.9242 11.0783 24.7373 11.0821H15.2623C15.0755 11.0783 14.8945 11.016 14.745 10.9038C14.5956 10.7917 14.4851 10.6354 14.4292 10.4571C14.3941 10.5576 14.3757 10.6632 14.3748 10.7696C14.3686 11.0115 14.4585 11.246 14.6249 11.4217C14.7912 11.5974 15.0204 11.7001 15.2623 11.7071H23.1623Z" fill="#7D0126"/>
        <path d="M23.85 7.95709H24.375L25.0481 5.93772C24.4625 6.43175 23.7218 6.70409 22.9556 6.70709H20.2275C19.4413 6.70704 18.6765 6.45077 18.049 5.97711C17.4215 5.50344 16.9655 4.83818 16.75 4.08209L16.5338 3.32584C16.3563 3.29709 16.1869 3.26334 16.0244 3.23209L16 3.22959C15.4643 3.128 14.9407 2.97091 14.4375 2.76084C14.415 2.75147 14.395 2.74147 14.375 2.73147C14.3056 2.69959 14.2406 2.66897 14.1806 2.63459C14.1569 2.62147 14.1331 2.60897 14.1106 2.59584C14.0562 2.56459 14.0069 2.53334 13.96 2.50084C13.9419 2.48834 13.9219 2.47584 13.905 2.46334C13.8503 2.4233 13.7985 2.37944 13.75 2.33209L15.625 7.95709H23.85Z" fill="#F09413"/>
        <path d="M11.25 26.0821C11.1736 23.1739 11.8898 20.2997 13.322 17.7674C14.7542 15.2351 16.8483 13.1402 19.38 11.7071H16.8375C9.725 14.5071 4.375 25.9321 4.375 30.4571C4.375 35.6321 11.3687 39.8321 20 39.8321C28.6313 39.8321 35.625 35.6321 35.625 30.4571C35.625 36.0821 11.25 37.9571 11.25 26.0821Z" fill="#FF9C00"/>
        <path d="M27.4999 5.45716C27.3763 5.45714 27.2555 5.42047 27.1527 5.35179C27.0499 5.28311 26.9699 5.18551 26.9226 5.07132C26.8753 4.95714 26.8629 4.83149 26.887 4.71027C26.9111 4.58905 26.9706 4.4777 27.058 4.39029L30.808 0.640289C30.9259 0.52644 31.0837 0.463443 31.2476 0.464867C31.4115 0.466291 31.5682 0.532022 31.6841 0.647902C31.8 0.763782 31.8657 0.92054 31.8672 1.08441C31.8686 1.24829 31.8056 1.40616 31.6917 1.52404L27.9417 5.27404C27.8246 5.39126 27.6656 5.45713 27.4999 5.45716Z" fill="#FFC608"/>
        <path d="M27.4998 9.20705C27.3656 9.20721 27.2349 9.16418 27.1271 9.08431C27.0192 9.00444 26.9399 8.89197 26.901 8.76356C26.862 8.63514 26.8654 8.49759 26.9106 8.37125C26.9559 8.24491 27.0406 8.1365 27.1523 8.06205L34.6523 3.06205C34.7206 3.0165 34.7972 2.98484 34.8777 2.96889C34.9582 2.95293 35.0411 2.953 35.1216 2.96907C35.2021 2.98515 35.2786 3.01692 35.3468 3.06258C35.4151 3.10824 35.4736 3.16689 35.5192 3.23517C35.5647 3.30346 35.5964 3.38005 35.6123 3.46057C35.6283 3.54109 35.6282 3.62397 35.6121 3.70447C35.5961 3.78496 35.5643 3.8615 35.5186 3.92972C35.473 3.99794 35.4143 4.0565 35.346 4.10205L27.846 9.10205C27.7435 9.17042 27.623 9.20695 27.4998 9.20705Z" fill="#FFC608"/>
        <path d="M12.5001 5.45716C12.3344 5.45713 12.1754 5.39126 12.0583 5.27404L8.30826 1.52404C8.19441 1.40616 8.13141 1.24829 8.13284 1.08441C8.13426 0.92054 8.19999 0.763782 8.31587 0.647902C8.43175 0.532022 8.58851 0.466291 8.75238 0.464867C8.91625 0.463443 9.07413 0.52644 9.19201 0.640289L12.942 4.39029C13.0294 4.4777 13.0889 4.58905 13.113 4.71027C13.1371 4.83149 13.1247 4.95714 13.0774 5.07132C13.0301 5.18551 12.95 5.28311 12.8473 5.35179C12.7445 5.42047 12.6237 5.45714 12.5001 5.45716Z" fill="#FFC608"/>
        <path d="M12.4999 9.20705C12.3767 9.20695 12.2562 9.17042 12.1537 9.10205L4.65369 4.10205C4.51578 4.01005 4.42006 3.86704 4.38759 3.70447C4.37152 3.62397 4.37145 3.5411 4.38741 3.46058C4.40336 3.38005 4.43501 3.30346 4.48057 3.23518C4.52612 3.16689 4.58467 3.10824 4.65289 3.06258C4.72111 3.01693 4.79765 2.98515 4.87815 2.96908C5.04072 2.93661 5.20953 2.97005 5.34744 3.06205L12.8474 8.06205C12.9591 8.1365 13.0438 8.24492 13.0891 8.37125C13.1343 8.49759 13.1377 8.63514 13.0988 8.76356C13.0598 8.89198 12.9805 9.00444 12.8727 9.08431C12.7648 9.16418 12.6341 9.20722 12.4999 9.20705Z" fill="#FFC608"/>
        <path d="M22.535 26.0258L20.625 25.0708V19.8321H21.875V20.4571H23.125V19.2071C23.125 19.0413 23.0591 18.8824 22.9419 18.7652C22.8247 18.6479 22.6657 18.5821 22.5 18.5821H20.625V17.3321H19.375V18.5821H18.9537C18.2038 18.582 17.4758 18.8351 16.8877 19.3005C16.2996 19.7658 15.8859 20.4162 15.7136 21.146C15.5413 21.8759 15.6205 22.6426 15.9383 23.3218C16.2562 24.001 16.7941 24.553 17.465 24.8883L19.375 25.8433V31.0821H16.875V30.4571H15.625V31.7071C15.625 31.8729 15.6908 32.0318 15.808 32.149C15.9252 32.2662 16.0842 32.3321 16.25 32.3321H19.375V33.5821H20.625V32.3321H21.0462C21.7961 32.3322 22.5241 32.0791 23.1122 31.6137C23.7003 31.1483 24.114 30.498 24.2863 29.7682C24.4586 29.0383 24.3794 28.2716 24.0616 27.5924C23.7437 26.9131 23.2058 26.3611 22.535 26.0258ZM18.0237 23.7696C17.6051 23.56 17.2696 23.2153 17.0713 22.7912C16.8731 22.3671 16.8237 21.8886 16.9313 21.433C17.0389 20.9774 17.2972 20.5715 17.6642 20.281C18.0312 19.9904 18.4856 19.8323 18.9537 19.8321H19.375V24.4458L18.0237 23.7696ZM21.0462 31.0821H20.625V26.4683L21.9762 27.1446C22.3948 27.3542 22.7304 27.6989 22.9286 28.123C23.1269 28.547 23.1762 29.0256 23.0686 29.4812C22.961 29.9368 22.7027 30.3427 22.3357 30.6332C21.9687 30.9238 21.5143 31.0819 21.0462 31.0821Z" fill="#FFDF75"/>
        <path d="M20.625 32.3321V32.9364C21.0998 32.9076 21.5627 32.7767 21.9823 32.5527C22.4018 32.3286 22.7682 32.0168 23.0562 31.6383C22.4813 32.0854 21.7745 32.3293 21.0462 32.3321H20.625Z" fill="#FFAA00"/>
        <path d="M19.375 32.3321H16.25C16.0842 32.3321 15.9253 32.2662 15.8081 32.149C15.6908 32.0318 15.625 31.8729 15.625 31.7071V31.0821H15V32.3321C15 32.4979 15.0658 32.6568 15.1831 32.774C15.3003 32.8912 15.4592 32.9571 15.625 32.9571H18.75V34.2071H20V33.5821H19.375V32.3321Z" fill="#FFAA00"/>
        <path d="M21.875 19.8321H20.625V20.4571H21.25V21.0821H22.5V20.4571H21.875V19.8321Z" fill="#FFAA00"/>
        <path d="M19.375 18.5821V17.9571H18.75V18.6027C18.8188 18.5983 18.8838 18.5821 18.9538 18.5821H19.375Z" fill="#FFAA00"/>
        <path d="M19.375 25.8434L17.465 24.8884C17.0259 24.6714 16.6405 24.3595 16.3367 23.9752C16.033 23.5909 15.8185 23.1439 15.7088 22.6665C15.5991 22.1891 15.5969 21.6934 15.7024 21.215C15.8079 20.7367 16.0184 20.2878 16.3187 19.9009C15.8677 20.2408 15.5111 20.6905 15.2827 21.2071C15.0544 21.7237 14.962 22.2901 15.0142 22.8525C15.0664 23.4149 15.2616 23.9546 15.5812 24.4203C15.9007 24.886 16.334 25.2623 16.84 25.5134L18.75 26.4684V31.0821H19.375V25.8434Z" fill="#FFAA00"/>
        <path d="M17.208 20.7902C17.5416 20.5734 17.9308 20.4577 18.3286 20.4571H18.7499V24.1333L19.3749 24.4458V19.8321H18.9536C18.6057 19.8327 18.2635 19.9208 17.9585 20.0882C17.6534 20.2556 17.3954 20.497 17.208 20.7902Z" fill="#FFAA00"/>
        <path d="M23.125 29.0033C23.1262 28.6171 23.0193 28.2383 22.8162 27.9098C22.6132 27.5813 22.3222 27.3162 21.9762 27.1446L20.625 26.4683V27.4058L21.3512 27.7689C21.6122 27.8991 21.8428 28.0828 22.0278 28.3083C22.2128 28.5337 22.3481 28.7956 22.4248 29.077C22.5015 29.3584 22.5179 29.6527 22.4729 29.9409C22.4279 30.229 22.3226 30.5044 22.1638 30.7489C22.4575 30.5619 22.6995 30.304 22.8675 29.999C23.0355 29.694 23.124 29.3516 23.125 29.0033Z" fill="#FFAA00"/>
        <path d="M25.625 36.0821V26.0821C25.6246 25.8145 25.6755 25.5493 25.775 25.3008C24.525 25.9821 23.75 26.9196 23.75 27.9571V37.9571C23.7624 38.5104 23.9655 39.0425 24.325 39.4633C25.413 39.2837 26.4851 39.0183 27.5312 38.6696C26.35 38.0008 25.625 37.0883 25.625 36.0821Z" fill="#FF9C00"/>
        <path d="M23.875 27.2471C23.7932 27.4749 23.7509 27.715 23.75 27.9571V30.9308C24.1334 30.3982 24.3499 29.7638 24.3722 29.1079C24.3944 28.4521 24.2214 27.8044 23.875 27.2471Z" fill="#FFC052"/>
        <path d="M39.375 33.5821V36.0821C39.375 38.1508 36.3 39.8321 32.5 39.8321C28.7 39.8321 25.625 38.1508 25.625 36.0821V33.5821C25.625 35.6508 28.7 37.3321 32.5 37.3321C36.3 37.3321 39.375 35.6508 39.375 33.5821Z" fill="#FFCB52"/>
        <path d="M39.375 28.5821V31.0821C39.375 33.1508 36.3 34.8321 32.5 34.8321C28.7 34.8321 25.625 33.1508 25.625 31.0821V28.5821C25.625 30.6508 28.7 32.3321 32.5 32.3321C36.3 32.3321 39.375 30.6508 39.375 28.5821Z" fill="#FFCB52"/>
        <path d="M39.375 31.0821V33.5821C39.375 35.6508 36.3 37.3321 32.5 37.3321C28.7 37.3321 25.625 35.6508 25.625 33.5821V31.0821C25.625 33.1508 28.7 34.8321 32.5 34.8321C36.3 34.8321 39.375 33.1508 39.375 31.0821Z" fill="#F09413"/>
        <path d="M39.375 26.0821V28.5821C39.375 30.6508 36.3 32.3321 32.5 32.3321C28.7 32.3321 25.625 30.6508 25.625 28.5821V26.0821C25.625 28.1508 28.7 29.8321 32.5 29.8321C36.3 29.8321 39.375 28.1508 39.375 26.0821Z" fill="#F09413"/>
        <path d="M39.375 26.0821C39.375 28.1508 36.3 29.8321 32.5 29.8321C28.7 29.8321 25.625 28.1508 25.625 26.0821C25.625 24.0133 28.7 22.3321 32.5 22.3321C36.3 22.3321 39.375 24.0133 39.375 26.0821ZM36.875 26.0821C36.875 25.0446 34.9187 24.2071 32.5 24.2071C30.0813 24.2071 28.125 25.0446 28.125 26.0821C28.125 27.1196 30.0813 27.9571 32.5 27.9571C34.9187 27.9571 36.875 27.1196 36.875 26.0821Z" fill="#FFC052"/>
        <path d="M32.5 27.9571C34.9162 27.9571 36.875 27.1176 36.875 26.0821C36.875 25.0466 34.9162 24.2071 32.5 24.2071C30.0838 24.2071 28.125 25.0466 28.125 26.0821C28.125 27.1176 30.0838 27.9571 32.5 27.9571Z" fill="#FFDF75"/>
        <path d="M36.875 26.0821C36.8761 26.1895 36.8548 26.2959 36.8125 26.3946C36.4688 25.5071 34.6688 24.8321 32.5 24.8321C30.3313 24.8321 28.5313 25.5071 28.1875 26.3946C28.1453 26.2959 28.124 26.1895 28.125 26.0821C28.125 25.0446 30.0813 24.2071 32.5 24.2071C34.9188 24.2071 36.875 25.0446 36.875 26.0821Z" fill="#C97C10"/>
        <path d="M39.375 27.3321V28.5821C39.375 30.6508 36.3 32.3321 32.5 32.3321C30.9979 32.3545 29.5078 32.0629 28.125 31.4758C26.6 30.7883 25.625 29.7446 25.625 28.5821V26.0821C25.625 27.2446 26.6 28.2883 28.125 28.9758C28.1231 29.3624 28.248 29.7389 28.4805 30.0476C28.7131 30.3564 29.0405 30.5804 29.4125 30.6852C30.4195 30.9538 31.4578 31.0872 32.5 31.0821C36.3 31.0821 39.375 29.4008 39.375 27.3321Z" fill="#DE8800"/>
        <path d="M39.375 29.8321V31.0821C39.375 33.1508 36.3 34.8321 32.5 34.8321C30.9979 34.8545 29.5078 34.5629 28.125 33.9758C26.6 33.2883 25.625 32.2446 25.625 31.0821V28.5821C25.625 29.7446 26.6 30.7883 28.125 31.4758C28.1231 31.8624 28.248 32.2389 28.4805 32.5476C28.7131 32.8564 29.0405 33.0804 29.4125 33.1852C30.4195 33.4538 31.4578 33.5872 32.5 33.5821C36.3 33.5821 39.375 31.9008 39.375 29.8321Z" fill="#DE8800"/>
        <path d="M39.375 32.3321V33.5821C39.375 35.6508 36.3 37.3321 32.5 37.3321C30.9979 37.3545 29.5078 37.0629 28.125 36.4758C26.6 35.7883 25.625 34.7446 25.625 33.5821V31.0821C25.625 32.2446 26.6 33.2883 28.125 33.9758C28.1231 34.3624 28.248 34.7389 28.4805 35.0476C28.7131 35.3564 29.0405 35.5804 29.4125 35.6852C30.4195 35.9538 31.4578 36.0872 32.5 36.0821C36.3 36.0821 39.375 34.4008 39.375 32.3321Z" fill="#DE8800"/>
        <path d="M39.375 34.8321V36.0821C39.375 38.1508 36.3 39.8321 32.5 39.8321C30.9979 39.8545 29.5078 39.5629 28.125 38.9758C26.6 38.2883 25.625 37.2446 25.625 36.0821V33.5821C25.625 34.7446 26.6 35.7883 28.125 36.4758C28.1231 36.8624 28.248 37.2389 28.4805 37.5476C28.7131 37.8564 29.0405 38.0804 29.4125 38.1852C30.4195 38.4538 31.4578 38.5872 32.5 38.5821C36.3 38.5821 39.375 36.9008 39.375 34.8321Z" fill="#DE8800"/>
    </g>
    <defs>
        <clipPath id="clip0_19_647">
            <rect width="40" height="40" fill="white" transform="translate(0 0.457092)"/>
        </clipPath>
    </defs>
</svg>
