<svg width="36" height="35" viewBox="0 0 36 35" fill="none" xmlns="http://www.w3.org/2000/svg">
    <g clip-path="url(#clip0_3189_7587)">
        <path d="M35.0669 30.6436C34.1231 30.1469 33.1802 29.6497 32.2382 29.152C30.3451 28.1503 28.4506 27.1513 26.5643 26.1371C26.3725 26.0326 26.2116 25.8793 26.0979 25.6928C24.4743 22.8972 22.8576 20.0971 21.2478 17.2923C20.0933 15.2879 18.9435 13.282 17.7982 11.2748C17.7395 11.199 17.6723 11.13 17.5981 11.0692C17.5282 11.1346 17.4649 11.2067 17.4091 11.2845C14.8959 15.642 12.3833 20.0009 9.87102 24.3612C9.59505 24.8511 9.30943 25.3423 9.01828 25.8266C8.9582 25.9307 8.87152 26.0169 8.76715 26.0764C5.91548 27.5914 3.06381 29.1028 0.21214 30.6105C0.169262 30.6232 0.125423 30.6325 0.0810547 30.6381L17.5981 0.367188L35.1042 30.5926L35.0669 30.6436Z" fill="#10B100"/>
    </g>
    <path d="M17.6621 19.6726C17.6717 19.6302 17.7321 19.6302 17.7416 19.6726L18.2965 22.1353C18.6142 23.5459 19.7159 24.6474 21.1266 24.9651L23.5895 25.5199C23.6319 25.5294 23.6319 25.5899 23.5895 25.5994L21.1266 26.1542C19.7159 26.4719 18.6142 27.5735 18.2965 28.984L17.7416 31.4467C17.7321 31.4891 17.6717 31.4891 17.6621 31.4467L17.1073 28.984C16.7895 27.5735 15.6879 26.4719 14.2772 26.1542L11.8142 25.5994C11.7718 25.5899 11.7718 25.5294 11.8142 25.5199L14.2772 24.9651C15.6879 24.6474 16.7895 23.5459 17.1073 22.1353L17.6621 19.6726Z" fill="#10B100"/>
    <defs>
        <clipPath id="clip0_3189_7587">
            <rect width="35.03" height="34.0131" fill="white" transform="translate(0.0742188 0.367188)"/>
        </clipPath>
    </defs>
</svg>
