<svg width="95" height="94" viewBox="0 0 95 94" fill="none" xmlns="http://www.w3.org/2000/svg">
    <g filter="url(#filter0_d_3_3)">
        <path d="M82.3554 43C82.3554 23.67 66.6854 8 47.3554 8C28.0254 8 12.3554 23.67 12.3554 43C12.3554 62.33 28.0254 78 47.3554 78C66.6854 78 82.3554 62.33 82.3554 43Z" fill="#FFF5BB"/>
        <path d="M80.3554 43C80.3554 24.7746 65.5808 10 47.3554 10C29.13 10 14.3554 24.7746 14.3554 43C14.3554 61.2254 29.13 76 47.3554 76C65.5808 76 80.3554 61.2254 80.3554 43Z" stroke="white" stroke-width="4"/>
        <mask id="mask0_3_3" style="mask-type:luminance" maskUnits="userSpaceOnUse" x="28" y="24" width="38" height="38">
            <path d="M66 24H28V62H66V24Z" fill="white"/>
        </mask>
        <g mask="url(#mask0_3_3)">
            <path fill-rule="evenodd" clip-rule="evenodd" d="M47 62C57.4648 62 66 53.4648 66 43C66 32.5352 57.4648 24 47 24C36.5351 24 28 32.5352 28 43C28 53.4648 36.5351 62 47 62Z" fill="#FFE180"/>
            <path fill-rule="evenodd" clip-rule="evenodd" d="M34.9394 37.5078H59.0605V52.4332C59.0605 53.5391 58.155 54.4445 57.0492 54.4445H40.3574L34.9394 49.0266V37.5078Z" fill="#FDFDFD"/>
            <path fill-rule="evenodd" clip-rule="evenodd" d="M40.3574 54.4373H36.9508C35.8449 54.4373 34.9394 53.5318 34.9394 52.4259V49.0193L40.3574 54.4373Z" fill="#CED4DF"/>
            <path fill-rule="evenodd" clip-rule="evenodd" d="M40.3574 54.4373V51.0306C40.3574 49.9248 39.4519 49.0193 38.3461 49.0193H34.9394L40.3574 54.4373Z" fill="#E3E6EA"/>
            <path fill-rule="evenodd" clip-rule="evenodd" d="M59.0605 37.5078V34.7691C59.0605 33.6633 58.155 32.7578 57.0492 32.7578H36.9508C35.8449 32.7578 34.9394 33.6633 34.9394 34.7691V37.5078H59.0605Z" fill="#FF435B"/>
            <path fill-rule="evenodd" clip-rule="evenodd" d="M39.1325 36.2235C39.7337 36.2235 40.2236 35.7337 40.2236 35.1325C40.2236 34.5313 39.7337 34.0415 39.1325 34.0415C38.5314 34.0415 38.0415 34.5313 38.0415 35.1325C38.049 35.7337 38.5388 36.2235 39.1325 36.2235Z" fill="#596C76"/>
            <path fill-rule="evenodd" clip-rule="evenodd" d="M54.867 36.2235C55.4682 36.2235 55.958 35.7337 55.958 35.1325C55.958 34.5313 55.4682 34.0415 54.867 34.0415C54.2658 34.0415 53.776 34.5313 53.776 35.1325C53.776 35.7337 54.2658 36.2235 54.867 36.2235Z" fill="#596C76"/>
            <path fill-rule="evenodd" clip-rule="evenodd" d="M46.9998 36.2235C47.601 36.2235 48.0908 35.7337 48.0908 35.1325C48.0908 34.5313 47.601 34.0415 46.9998 34.0415C46.3986 34.0415 45.9088 34.5313 45.9088 35.1325C45.9088 35.7337 46.3986 36.2235 46.9998 36.2235Z" fill="#596C76"/>
            <path d="M39.1325 33.7446C38.3681 33.7446 37.7447 34.3681 37.7447 35.1325C37.7447 35.897 38.3681 36.5204 39.1325 36.5204C39.897 36.5204 40.5204 35.897 40.5204 35.1325C40.5204 34.3681 39.897 33.7446 39.1325 33.7446ZM39.1325 35.9267C38.6947 35.9267 38.3384 35.5704 38.3384 35.1325C38.3384 34.6946 38.6947 34.3384 39.1325 34.3384C39.5704 34.3384 39.9267 34.6946 39.9267 35.1325C39.9267 35.5704 39.5704 35.9267 39.1325 35.9267ZM54.8669 33.7446C54.1025 33.7446 53.479 34.3681 53.479 35.1325C53.479 35.897 54.1025 36.5204 54.8669 36.5204C55.6314 36.5204 56.2548 35.897 56.2548 35.1325C56.2474 34.3681 55.6314 33.7446 54.8669 33.7446ZM54.8669 35.9267C54.429 35.9267 54.0728 35.5704 54.0728 35.1325C54.0728 34.6946 54.429 34.3384 54.8669 34.3384C55.3048 34.3384 55.6611 34.6946 55.6611 35.1325C55.6536 35.5704 55.3048 35.9267 54.8669 35.9267ZM46.9997 33.7446C46.2353 33.7446 45.6118 34.3681 45.6118 35.1325C45.6118 35.897 46.2353 36.5204 46.9997 36.5204C47.7642 36.5204 48.3876 35.897 48.3876 35.1325C48.3876 34.3681 47.7642 33.7446 46.9997 33.7446ZM46.9997 35.9267C46.5618 35.9267 46.2056 35.5704 46.2056 35.1325C46.2056 34.6946 46.5618 34.3384 46.9997 34.3384C47.4376 34.3384 47.7939 34.6946 47.7939 35.1325C47.7939 35.5704 47.4376 35.9267 46.9997 35.9267Z" fill="#FAFAFA"/>
            <path fill-rule="evenodd" clip-rule="evenodd" d="M39.1327 31.5627C39.385 31.5627 39.5854 31.7631 39.5854 32.0155V34.6799C39.5854 34.9323 39.385 35.1327 39.1327 35.1327C38.8803 35.1327 38.6799 34.9323 38.6799 34.6799V32.0155C38.6799 31.7631 38.8877 31.5627 39.1327 31.5627ZM46.9999 31.5627C46.7475 31.5627 46.5471 31.7631 46.5471 32.0155V34.6799C46.5471 34.9323 46.7475 35.1327 46.9999 35.1327C47.2522 35.1327 47.4526 34.9323 47.4526 34.6799V32.0155C47.4526 31.7631 47.2522 31.5627 46.9999 31.5627ZM54.867 31.5627C54.6147 31.5627 54.4143 31.7631 54.4143 32.0155V34.6799C54.4143 34.9323 54.6147 35.1327 54.867 35.1327C55.1194 35.1327 55.3198 34.9323 55.3198 34.6799V32.0155C55.3198 31.7631 55.112 31.5627 54.867 31.5627Z" fill="#FDCA03"/>
            <path fill-rule="evenodd" clip-rule="evenodd" d="M34.9394 36.7581H59.0605V37.5077H34.9394V36.7581Z" fill="#D63633"/>
            <path fill-rule="evenodd" clip-rule="evenodd" d="M47 52.322C50.4957 52.322 53.3457 49.472 53.3457 45.9763C53.3457 42.4806 50.4957 39.6306 47 39.6306C43.5043 39.6306 40.6543 42.4806 40.6543 45.9763C40.6543 49.472 43.5043 52.322 47 52.322Z" fill="#EE4C45"/>
            <path d="M44.9588 42.6589C44.892 42.3397 45.0924 42.0206 45.4116 41.9538C45.7307 41.887 46.0498 42.0874 46.1166 42.4065C46.2354 42.9706 46.7475 43.3788 47.3264 43.3788C47.9053 43.3788 48.41 42.9706 48.5362 42.4065C48.603 42.0874 48.9221 41.8796 49.2413 41.9538C49.5604 42.0206 49.7682 42.3397 49.694 42.6589C49.4565 43.7647 48.4545 44.5663 47.3264 44.5663C46.1909 44.5663 45.1963 43.7647 44.9588 42.6589ZM50.8815 46.8522C50.8518 46.4663 50.7182 45.5163 50.1096 45.0858C49.5381 44.6851 48.7366 44.6108 48.1725 44.9003C47.6975 45.1452 47.4229 45.6202 47.4155 46.1991C47.4155 46.4218 47.2745 46.5628 46.9998 46.6964C47.0666 46.5108 47.1038 46.3105 47.1038 46.0952C47.1038 45.1155 46.3022 44.314 45.3225 44.314C44.7139 44.314 44.1498 44.6257 43.8233 45.1378C43.6452 45.4124 43.7268 45.7835 44.0014 45.9542C44.276 46.1323 44.6471 46.0507 44.8178 45.7761C44.9291 45.6054 45.1147 45.5015 45.3225 45.5015C45.6491 45.5015 45.9163 45.7687 45.9163 46.0952C45.9163 46.4218 45.6491 46.689 45.3225 46.689C45.137 46.689 44.9588 46.5999 44.8475 46.444C44.6545 46.1769 44.2834 46.1175 44.0163 46.3105C43.7491 46.5034 43.6897 46.8745 43.8827 47.1417C44.2166 47.6019 44.751 47.869 45.3225 47.869C45.5823 47.869 45.8198 47.8171 46.0424 47.7132C46.2651 47.9729 46.4581 48.3069 46.2873 48.5815C46.0424 48.9823 45.2706 49.1976 44.751 49.0046C44.61 48.9526 44.1795 48.7968 44.3131 47.9878C44.3651 47.6612 44.1424 47.3569 43.8159 47.3124C43.4893 47.2604 43.185 47.4831 43.1405 47.8097C42.9623 48.9229 43.4151 49.7839 44.3502 50.1253C44.6174 50.2218 44.9069 50.2663 45.1963 50.2663C46.0498 50.2663 46.9034 49.8581 47.3116 49.1976C47.46 48.9526 47.6752 48.4405 47.4526 47.7874C47.9499 47.5573 48.5956 47.112 48.6104 46.1991C48.6104 46.0062 48.6846 45.969 48.7217 45.9468C48.8776 45.8651 49.2041 45.8874 49.4342 46.0507C49.5084 46.1026 49.6643 46.4144 49.7014 46.9339C49.7459 47.5202 49.6049 47.9136 49.5233 47.9952C49.3452 48.1659 49.1374 48.1808 49.0186 48.1437C48.9741 48.1288 48.9147 48.1065 48.9073 48.0546C48.8256 47.7354 48.4991 47.5499 48.1799 47.6315C47.8608 47.7132 47.6752 48.0397 47.7569 48.3589C47.8756 48.8042 48.2245 49.153 48.692 49.2866C48.8331 49.3312 48.9889 49.346 49.1373 49.346C49.5752 49.346 50.0057 49.1753 50.3471 48.8562C50.9409 48.2921 50.9112 47.1788 50.8815 46.8522ZM47.2967 42.8667H47.3561C47.6827 42.8667 47.9498 42.5995 47.9498 42.2729C47.9498 41.9464 47.6827 41.6792 47.3561 41.6792H47.2967C46.9702 41.6792 46.703 41.9464 46.703 42.2729C46.703 42.5995 46.9702 42.8667 47.2967 42.8667Z" fill="white"/>
            <path fill-rule="evenodd" clip-rule="evenodd" d="M58.5704 33.4409L65.8661 40.7366C65.9552 41.4788 65.9997 42.2358 65.9997 43.0003C65.9997 53.4948 57.4943 62.0003 46.9997 62.0003C45.7454 62.0003 44.5208 61.8815 43.3333 61.644L35.7036 54.0218C36.0376 54.289 36.4607 54.4448 36.9208 54.4448H57.0712C58.1622 54.4448 59.0529 53.5542 59.0529 52.4632V34.7397C59.0603 34.2425 58.8747 33.7897 58.5704 33.4409Z" fill="#FFC250"/>
        </g>
    </g>
    <defs>
        <filter id="filter0_d_3_3" x="0.355408" y="0" width="94" height="94" filterUnits="userSpaceOnUse" color-interpolation-filters="sRGB">
            <feFlood flood-opacity="0" result="BackgroundImageFix"/>
            <feColorMatrix in="SourceAlpha" type="matrix" values="0 0 0 0 0 0 0 0 0 0 0 0 0 0 0 0 0 0 127 0" result="hardAlpha"/>
            <feOffset dy="4"/>
            <feGaussianBlur stdDeviation="6"/>
            <feComposite in2="hardAlpha" operator="out"/>
            <feColorMatrix type="matrix" values="0 0 0 0 0 0 0 0 0 0 0 0 0 0 0 0 0 0 0.12 0"/>
            <feBlend mode="normal" in2="BackgroundImageFix" result="effect1_dropShadow_3_3"/>
            <feBlend mode="normal" in="SourceGraphic" in2="effect1_dropShadow_3_3" result="shape"/>
        </filter>
    </defs>
</svg>
