<svg width="72" height="72" viewBox="0 0 72 72" fill="none" xmlns="http://www.w3.org/2000/svg">
    <g filter="url(#filter0_d_535_1302)">
        <rect x="9.50031" y="6.5" width="53" height="53" rx="26.5" fill="#FFF5BB"/>
        <rect x="11.0146" y="8.01429" width="49.9714" height="49.9714" rx="24.9857" stroke="white" stroke-width="3.02857"/>
        <g clip-path="url(#clip0_535_1302)">
            <path fill-rule="evenodd" clip-rule="evenodd" d="M35.732 47.3857C43.6554 47.3857 50.1177 40.9234 50.1177 33C50.1177 25.0766 43.6554 18.6143 35.732 18.6143C27.8086 18.6143 21.3463 25.0766 21.3463 33C21.3463 40.9234 27.8086 47.3857 35.732 47.3857Z" fill="#FFE180"/>
            <path fill-rule="evenodd" clip-rule="evenodd" d="M26.5997 28.8418H44.8628V40.1425C44.8628 40.9797 44.1773 41.6653 43.34 41.6653H30.7019L26.5997 37.5631V28.8418Z" fill="#FDFDFD"/>
            <path fill-rule="evenodd" clip-rule="evenodd" d="M30.7019 41.6598H28.1226C27.2853 41.6598 26.5997 40.9742 26.5997 40.1369V37.5576L30.7019 41.6598Z" fill="#CED4DF"/>
            <path fill-rule="evenodd" clip-rule="evenodd" d="M30.7019 41.6598V39.0805C30.7019 38.2432 30.0163 37.5576 29.179 37.5576H26.5997L30.7019 41.6598Z" fill="#E3E6EA"/>
            <path fill-rule="evenodd" clip-rule="evenodd" d="M44.8628 28.8415V26.768C44.8628 25.9307 44.1773 25.2451 43.34 25.2451H28.1226C27.2853 25.2451 26.5997 25.9307 26.5997 26.768V28.8415H44.8628Z" fill="#FF435B"/>
            <path fill-rule="evenodd" clip-rule="evenodd" d="M29.7753 27.8689C30.2304 27.8689 30.6013 27.498 30.6013 27.0429C30.6013 26.5877 30.2304 26.2168 29.7753 26.2168C29.3201 26.2168 28.9492 26.5877 28.9492 27.0429C28.9548 27.498 29.3257 27.8689 29.7753 27.8689Z" fill="#596C76"/>
            <path fill-rule="evenodd" clip-rule="evenodd" d="M41.6884 27.8689C42.1436 27.8689 42.5145 27.498 42.5145 27.0429C42.5145 26.5877 42.1436 26.2168 41.6884 26.2168C41.2332 26.2168 40.8624 26.5877 40.8624 27.0429C40.8624 27.498 41.2332 27.8689 41.6884 27.8689Z" fill="#596C76"/>
            <path fill-rule="evenodd" clip-rule="evenodd" d="M35.7318 27.8689C36.187 27.8689 36.5579 27.498 36.5579 27.0429C36.5579 26.5877 36.187 26.2168 35.7318 26.2168C35.2767 26.2168 34.9058 26.5877 34.9058 27.0429C34.9058 27.498 35.2767 27.8689 35.7318 27.8689Z" fill="#596C76"/>
            <path d="M29.7751 25.9932C29.1963 25.9932 28.7243 26.4652 28.7243 27.044C28.7243 27.6228 29.1963 28.0948 29.7751 28.0948C30.3539 28.0948 30.826 27.6228 30.826 27.044C30.826 26.4652 30.3539 25.9932 29.7751 25.9932ZM29.7751 27.6453C29.4436 27.6453 29.1739 27.3755 29.1739 27.044C29.1739 26.7124 29.4436 26.4427 29.7751 26.4427C30.1067 26.4427 30.3764 26.7124 30.3764 27.044C30.3764 27.3755 30.1067 27.6453 29.7751 27.6453ZM41.6883 25.9932C41.1095 25.9932 40.6375 26.4652 40.6375 27.044C40.6375 27.6228 41.1095 28.0948 41.6883 28.0948C42.2671 28.0948 42.7391 27.6228 42.7391 27.044C42.7335 26.4652 42.2671 25.9932 41.6883 25.9932ZM41.6883 27.6453C41.3568 27.6453 41.087 27.3755 41.087 27.044C41.087 26.7124 41.3568 26.4427 41.6883 26.4427C42.0198 26.4427 42.2896 26.7124 42.2896 27.044C42.284 27.3755 42.0198 27.6453 41.6883 27.6453ZM35.7317 25.9932C35.1529 25.9932 34.6809 26.4652 34.6809 27.044C34.6809 27.6228 35.1529 28.0948 35.7317 28.0948C36.3105 28.0948 36.7826 27.6228 36.7826 27.044C36.7826 26.4652 36.3105 25.9932 35.7317 25.9932ZM35.7317 27.6453C35.4002 27.6453 35.1304 27.3755 35.1304 27.044C35.1304 26.7124 35.4002 26.4427 35.7317 26.4427C36.0633 26.4427 36.333 26.7124 36.333 27.044C36.333 27.3755 36.0633 27.6453 35.7317 27.6453Z" fill="#FAFAFA"/>
            <path fill-rule="evenodd" clip-rule="evenodd" d="M29.7747 24.3398C29.9658 24.3398 30.1175 24.4916 30.1175 24.6826V26.7C30.1175 26.8911 29.9658 27.0428 29.7747 27.0428C29.5836 27.0428 29.4319 26.8911 29.4319 26.7V24.6826C29.4319 24.4916 29.5893 24.3398 29.7747 24.3398ZM35.7313 24.3398C35.5402 24.3398 35.3885 24.4916 35.3885 24.6826V26.7C35.3885 26.8911 35.5402 27.0428 35.7313 27.0428C35.9223 27.0428 36.0741 26.8911 36.0741 26.7V24.6826C36.0741 24.4916 35.9223 24.3398 35.7313 24.3398ZM41.6879 24.3398C41.4968 24.3398 41.3451 24.4916 41.3451 24.6826V26.7C41.3451 26.8911 41.4968 27.0428 41.6879 27.0428C41.8789 27.0428 42.0307 26.8911 42.0307 26.7V24.6826C42.0307 24.4916 41.8733 24.3398 41.6879 24.3398Z" fill="#FDCA03"/>
            <path fill-rule="evenodd" clip-rule="evenodd" d="M26.5997 28.2744H44.8628V28.842H26.5997V28.2744Z" fill="#D63633"/>
            <path fill-rule="evenodd" clip-rule="evenodd" d="M35.732 40.0584C38.3788 40.0584 40.5367 37.9006 40.5367 35.2538C40.5367 32.6071 38.3788 30.4492 35.732 30.4492C33.0853 30.4492 30.9274 32.6071 30.9274 35.2538C30.9274 37.9006 33.0853 40.0584 35.732 40.0584Z" fill="#EE4C45"/>
            <path d="M34.1863 32.7418C34.1357 32.5001 34.2874 32.2585 34.5291 32.2079C34.7707 32.1573 35.0123 32.3091 35.0629 32.5507C35.1528 32.9778 35.5406 33.2868 35.9789 33.2868C36.4172 33.2868 36.7993 32.9778 36.8948 32.5507C36.9454 32.3091 37.1871 32.1517 37.4287 32.2079C37.6703 32.2585 37.8277 32.5001 37.7715 32.7418C37.5916 33.5791 36.833 34.186 35.9789 34.186C35.1191 34.186 34.3661 33.5791 34.1863 32.7418ZM38.6706 35.9167C38.6481 35.6245 38.547 34.9052 38.0862 34.5793C37.6535 34.2759 37.0466 34.2197 36.6195 34.4388C36.2598 34.6243 36.0519 34.9839 36.0463 35.4222C36.0463 35.5908 35.9395 35.6976 35.7316 35.7987C35.7822 35.6582 35.8103 35.5065 35.8103 35.3436C35.8103 34.6018 35.2034 33.9949 34.4616 33.9949C34.0008 33.9949 33.5738 34.2309 33.3265 34.6186C33.1916 34.8266 33.2535 35.1075 33.4614 35.2368C33.6693 35.3717 33.9503 35.3098 34.0795 35.1019C34.1638 34.9727 34.3043 34.894 34.4616 34.894C34.7089 34.894 34.9112 35.0963 34.9112 35.3436C34.9112 35.5908 34.7089 35.7931 34.4616 35.7931C34.3211 35.7931 34.1863 35.7257 34.102 35.6077C33.9559 35.4054 33.6749 35.3604 33.4726 35.5065C33.2703 35.6526 33.2254 35.9336 33.3715 36.1359C33.6243 36.4843 34.0289 36.6866 34.4616 36.6866C34.6583 36.6866 34.8381 36.6473 35.0067 36.5686C35.1753 36.7653 35.3214 37.0181 35.1922 37.2261C35.0067 37.5295 34.4223 37.6925 34.0289 37.5464C33.9222 37.507 33.5962 37.389 33.6974 36.7765C33.7367 36.5293 33.5681 36.2989 33.3209 36.2651C33.0736 36.2258 32.8432 36.3944 32.8095 36.6416C32.6747 37.4846 33.0174 38.1364 33.7255 38.3949C33.9278 38.468 34.1469 38.5017 34.3661 38.5017C35.0123 38.5017 35.6586 38.1926 35.9676 37.6925C36.08 37.507 36.243 37.1193 36.0744 36.6248C36.4509 36.4506 36.9398 36.1134 36.951 35.4222C36.951 35.2761 37.0072 35.248 37.0353 35.2312C37.1533 35.1694 37.4006 35.1862 37.5748 35.3098C37.631 35.3492 37.749 35.5852 37.7771 35.9785C37.8108 36.4225 37.704 36.7203 37.6422 36.7821C37.5074 36.9114 37.35 36.9226 37.2601 36.8945C37.2264 36.8833 37.1814 36.8664 37.1758 36.8271C37.114 36.5854 36.8667 36.445 36.6251 36.5068C36.3835 36.5686 36.243 36.8158 36.3048 37.0575C36.3947 37.3946 36.6588 37.6588 37.0128 37.7599C37.1196 37.7936 37.2376 37.8049 37.35 37.8049C37.6816 37.8049 38.0075 37.6756 38.266 37.434C38.7155 37.0069 38.6931 36.164 38.6706 35.9167ZM35.9564 32.8991H36.0014C36.2486 32.8991 36.4509 32.6968 36.4509 32.4496C36.4509 32.2023 36.2486 32 36.0014 32H35.9564C35.7091 32 35.5068 32.2023 35.5068 32.4496C35.5068 32.6968 35.7091 32.8991 35.9564 32.8991Z" fill="white"/>
            <path fill-rule="evenodd" clip-rule="evenodd" d="M44.4919 25.7627L50.0158 31.2866C50.0833 31.8485 50.117 32.4217 50.117 33.0005C50.117 40.9464 43.6771 47.3862 35.7313 47.3862C34.7816 47.3862 33.8544 47.2963 32.9553 47.1165L27.1785 41.3453C27.4314 41.5476 27.7517 41.6657 28.1001 41.6657H43.3568C44.1829 41.6657 44.8572 40.9913 44.8572 40.1653V26.7461C44.8628 26.3696 44.7223 26.0268 44.4919 25.7627Z" fill="#FFC250"/>
        </g>
    </g>
    <defs>
        <filter id="filter0_d_535_1302" x="0.414591" y="0.442857" width="71.1714" height="71.1714" filterUnits="userSpaceOnUse" color-interpolation-filters="sRGB">
            <feFlood flood-opacity="0" result="BackgroundImageFix"/>
            <feColorMatrix in="SourceAlpha" type="matrix" values="0 0 0 0 0 0 0 0 0 0 0 0 0 0 0 0 0 0 127 0" result="hardAlpha"/>
            <feOffset dy="3.02857"/>
            <feGaussianBlur stdDeviation="4.54286"/>
            <feComposite in2="hardAlpha" operator="out"/>
            <feColorMatrix type="matrix" values="0 0 0 0 0 0 0 0 0 0 0 0 0 0 0 0 0 0 0.12 0"/>
            <feBlend mode="normal" in2="BackgroundImageFix" result="effect1_dropShadow_535_1302"/>
            <feBlend mode="normal" in="SourceGraphic" in2="effect1_dropShadow_535_1302" result="shape"/>
        </filter>
        <clipPath id="clip0_535_1302">
            <rect width="28.7714" height="28.7714" fill="white" transform="translate(21.3454 18.6143)"/>
        </clipPath>
    </defs>
</svg>
